<?xml version="1.0" encoding="UTF-8"?>
<svg id="Layer_2" data-name="Layer 2" xmlns="http://www.w3.org/2000/svg" viewBox="0 0 320 135.08">
  <g id="Layer_1-2" data-name="Layer 1">
    <g>
      <rect width="320" height="135.08" style="fill: none;"/>
      <g>
        <g>
          <path d="M33.44,118.32h-.33c-.38,0-.66,.01-1.05,.02l-.06-.09c.4-1.61,1.72-7.36,1.98-8.86l.08-.08h.37c.38,0,.66,0,1.05-.03l.05,.08c-.42,1.68-1.43,5.9-1.98,8.89l-.1,.06Z" style="fill: #006495;"/>
          <path d="M40.76,118.34h-2.65c-.85,0-1.44,0-2.29,.03h-.18s-.06-.08-.06-.08c.87-3.39,1.59-7.03,1.99-8.89l.09-.09h.11c.37,0,.97,.01,1.53,.01h1.48c.7,0,1.4-.03,1.87-.03l.08,.08c-.11,.34-.18,.59-.27,.94l-.1,.08c-.78,0-1.85-.04-2.93-.04-.22,0-.62,.01-.62,.01l-.62,2.78c2.55-.01,2.93-.04,3.48-.04l.05,.09c-.1,.33-.17,.56-.26,.89l-.11,.09c-.45-.01-2.4-.01-3.38-.01-.2,.89-.41,1.8-.69,3.09,.54,0,3.48-.05,3.83-.05l.06,.06c-.11,.37-.2,.63-.31,.99l-.09,.08Z" style="fill: #006495;"/>
          <path d="M47.53,118.34h-2.65c-.85,0-1.44,0-2.29,.03h-.18s-.06-.08-.06-.08c.87-3.39,1.59-7.03,1.99-8.89l.09-.09h.11c.37,0,.97,.01,1.53,.01h1.48c.7,0,1.4-.03,1.87-.03l.08,.08c-.11,.34-.18,.59-.27,.94l-.1,.08c-.78,0-1.85-.04-2.93-.04-.22,0-.62,.01-.62,.01l-.62,2.78c2.55-.01,2.93-.04,3.48-.04l.05,.09c-.1,.33-.17,.56-.26,.89l-.11,.09c-.45-.01-2.4-.01-3.38-.01-.2,.89-.41,1.8-.69,3.09,.54,0,3.48-.05,3.83-.05l.06,.06c-.11,.37-.2,.63-.31,.99l-.09,.08Z" style="fill: #006495;"/>
          <path d="M54.29,118.34h-2.65c-.85,0-1.44,0-2.29,.03h-.18s-.06-.08-.06-.08c.87-3.39,1.59-7.03,1.99-8.89l.09-.09h.11c.37,0,.97,.01,1.53,.01h1.48c.7,0,1.4-.03,1.87-.03l.08,.08c-.11,.34-.18,.59-.27,.94l-.1,.08c-.78,0-1.85-.04-2.93-.04-.22,0-.62,.01-.62,.01l-.62,2.78c2.55-.01,2.93-.04,3.48-.04l.05,.09c-.1,.33-.17,.56-.26,.89l-.11,.09c-.45-.01-2.4-.01-3.38-.01-.2,.89-.41,1.8-.69,3.09,.54,0,3.48-.05,3.83-.05l.06,.06c-.11,.37-.2,.63-.31,.99l-.09,.08Z" style="fill: #006495;"/>
          <path d="M64.38,118.34h-2.65c-.85,0-1.44,0-2.29,.03h-.18s-.06-.08-.06-.08c.87-3.39,1.59-7.03,1.99-8.89l.09-.09h.11c.37,0,.97,.01,1.53,.01h1.48c.7,0,1.4-.03,1.87-.03l.08,.08c-.11,.34-.18,.59-.27,.94l-.1,.08c-.78,0-1.85-.04-2.93-.04-.22,0-.62,.01-.62,.01l-.62,2.78c2.55-.01,2.93-.04,3.48-.04l.05,.09c-.1,.33-.17,.56-.26,.89l-.11,.09c-.45-.01-2.4-.01-3.38-.01-.2,.89-.41,1.8-.69,3.09,.54,0,3.48-.05,3.83-.05l.06,.06c-.11,.37-.2,.63-.31,.99l-.09,.08Z" style="fill: #006495;"/>
          <path d="M71.23,118.34c-.48,0-.82,.01-1.3,.04l-.05-.09c.18-.85,.36-1.43,.54-2.27l.31-1.45c.04-.19,.14-.6,.14-.94,0-.94-.83-.98-1.08-.98-.78,0-1.39,.46-1.68,.68-.36,1.64-.73,3.29-1.03,4.95l-.09,.08c-.48,0-.82,.01-1.3,.04l-.06-.09c.42-1.68,1.22-5.23,1.34-6.37l.09-.09c.5-.06,.85-.13,1.35-.23l.06,.09-.18,.65c.93-.71,1.85-.78,2.14-.78,.38,0,1.85,.06,1.85,1.7,0,.42-.17,1.28-.42,2.46l-.19,.91c-.13,.61-.24,1.03-.32,1.64l-.1,.08Z" style="fill: #006495;"/>
          <path d="M80.05,111.78c-.36,1.44-.68,2.75-.98,4.19l-.36,1.68c-.45,2.12-.82,3.9-3.61,3.9-.76,0-1.91-.18-2.63-.96v-.1c.19-.29,.32-.51,.51-.82h.1c.34,.45,.98,.91,1.93,.91,1.9,0,2.05-1.76,2.19-2.19l.13-.52c-.84,.59-1.59,.6-1.87,.6-1.5,0-2.3-1.15-2.3-2.47,0-.32,.05-1.4,.73-2.45,1.2-1.85,3.11-1.85,4.58-1.85,.64,0,1.53-.02,1.53-.02l.05,.1Zm-1.57,.92s-.38-.01-.5-.01c-1.15,0-2.38,.2-3.09,1.7-.31,.66-.34,1.19-.34,1.47,0,1.33,.85,1.63,1.49,1.63,.7,0,1.21-.36,1.49-.63l.94-4.16Z" style="fill: #006495;"/>
          <path d="M81.57,118.32c-.5,0-.85,.01-1.35,.04l-.06-.08c.41-1.48,1.31-5.69,1.38-6.37l.09-.09c.52-.06,.88-.11,1.39-.2l.06,.09c-.06-.01-1.12,4.85-1.42,6.55l-.09,.06Zm1.82-8.4c-.5,.06-.84,.1-1.34,.18l-.08-.1c.1-.43,.18-.74,.27-1.17l.11-.09c.5-.06,.84-.1,1.33-.18l.1,.09c-.11,.42-.19,.74-.29,1.17l-.1,.1Z" style="fill: #006495;"/>
          <path d="M88.86,118.34c-.48,0-.82,.01-1.3,.04l-.05-.09c.18-.85,.36-1.43,.54-2.27l.31-1.45c.04-.19,.14-.6,.14-.94,0-.94-.83-.98-1.08-.98-.78,0-1.39,.46-1.68,.68-.36,1.64-.73,3.29-1.03,4.95l-.09,.08c-.48,0-.82,.01-1.3,.04l-.06-.09c.42-1.68,1.22-5.23,1.34-6.37l.09-.09c.5-.06,.85-.13,1.35-.23l.06,.09-.18,.65c.93-.71,1.85-.78,2.14-.78,.38,0,1.85,.06,1.85,1.7,0,.42-.17,1.28-.42,2.46l-.19,.91c-.13,.61-.24,1.03-.32,1.64l-.1,.08Z" style="fill: #006495;"/>
          <path d="M95.91,117.98c-.43,.25-1.1,.51-2.08,.51-2.18,0-2.96-1.3-2.96-2.77,0-2.23,1.36-4.16,3.57-4.16,1.5,0,2.58,.69,2.58,2.38,0,.52-.11,.97-.15,1.16l-.09,.06c-.66,0-1.87-.01-2.98-.01-.57,0-.99,0-1.57,.03-.01,.08-.04,.31-.04,.55,0,1.67,1.45,1.71,1.91,1.71,1.06,0,1.61-.41,2.1-.76l.1,.06c-.14,.42-.23,.71-.33,1.15l-.06,.09Zm-.17-3.71c.05-.29,.06-.42,.06-.56-.03-1.16-.98-1.25-1.31-1.25-1.47,0-1.96,1.35-2.1,1.82,0,0,2.54-.01,3.35-.01Z" style="fill: #006495;"/>
          <path d="M102.68,117.98c-.43,.25-1.1,.51-2.08,.51-2.18,0-2.96-1.3-2.96-2.77,0-2.23,1.36-4.16,3.57-4.16,1.5,0,2.58,.69,2.58,2.38,0,.52-.11,.97-.15,1.16l-.09,.06c-.66,0-1.87-.01-2.98-.01-.57,0-.99,0-1.57,.03-.01,.08-.04,.31-.04,.55,0,1.67,1.45,1.71,1.91,1.71,1.06,0,1.61-.41,2.1-.76l.1,.06c-.14,.42-.23,.71-.33,1.15l-.06,.09Zm-.17-3.71c.05-.29,.06-.42,.06-.56-.03-1.16-.98-1.25-1.31-1.25-1.47,0-1.96,1.35-2.1,1.82,0,0,2.54-.01,3.35-.01Z" style="fill: #006495;"/>
          <path d="M105.43,118.34c-.5,0-.84,.01-1.33,.03l-.06-.08c.54-2,1.26-5.29,1.39-6.37l.09-.09c.51-.06,.88-.11,1.38-.22l.06,.09c-.1,.37-.18,.7-.28,1.12,.19-.32,.75-1.26,1.66-1.26,.28,0,.46,.06,.59,.14l.04,.11c-.19,.46-.32,.78-.5,1.25l-.13,.04c-.09-.06-.29-.18-.54-.18-.34,0-1.13,.18-1.53,1.84-.11,.48-.62,2.68-.74,3.49l-.1,.09Z" style="fill: #006495;"/>
          <path d="M109.81,118.32c-.5,0-.85,.01-1.35,.04l-.06-.08c.41-1.48,1.31-5.69,1.38-6.37l.09-.09c.52-.06,.88-.11,1.39-.2l.06,.09c-.06-.01-1.12,4.85-1.42,6.55l-.09,.06Zm1.82-8.4c-.5,.06-.84,.1-1.34,.18l-.08-.1c.1-.43,.18-.74,.27-1.17l.11-.09c.5-.06,.84-.1,1.33-.18l.1,.09c-.11,.42-.19,.74-.29,1.17l-.1,.1Z" style="fill: #006495;"/>
          <path d="M117.11,118.34c-.48,0-.82,.01-1.3,.04l-.05-.09c.18-.85,.36-1.43,.54-2.27l.31-1.45c.04-.19,.14-.6,.14-.94,0-.94-.83-.98-1.08-.98-.78,0-1.39,.46-1.68,.68-.36,1.64-.73,3.29-1.03,4.95l-.09,.08c-.48,0-.82,.01-1.3,.04l-.06-.09c.42-1.68,1.22-5.23,1.34-6.37l.09-.09c.5-.06,.85-.13,1.35-.23l.06,.09-.18,.65c.93-.71,1.85-.78,2.14-.78,.38,0,1.85,.06,1.85,1.7,0,.42-.17,1.28-.42,2.46l-.19,.91c-.13,.61-.24,1.03-.32,1.64l-.1,.08Z" style="fill: #006495;"/>
          <path d="M125.93,111.78c-.36,1.44-.68,2.75-.98,4.19l-.36,1.68c-.45,2.12-.82,3.9-3.61,3.9-.76,0-1.91-.18-2.63-.96v-.1c.19-.29,.32-.51,.51-.82h.1c.34,.45,.98,.91,1.93,.91,1.9,0,2.05-1.76,2.19-2.19l.13-.52c-.84,.59-1.59,.6-1.87,.6-1.5,0-2.3-1.15-2.3-2.47,0-.32,.05-1.4,.73-2.45,1.2-1.85,3.11-1.85,4.58-1.85,.64,0,1.53-.02,1.53-.02l.05,.1Zm-1.57,.92s-.38-.01-.5-.01c-1.15,0-2.38,.2-3.09,1.7-.31,.66-.34,1.19-.34,1.47,0,1.33,.85,1.63,1.49,1.63,.7,0,1.21-.36,1.49-.63l.94-4.16Z" style="fill: #006495;"/>
          <path d="M141.12,118.32c-.68,0-1.34,.01-2.01,.04l-.08-.08c.37-1.84,1.3-6.32,1.49-7.31-2.87,5.67-3.29,6.46-3.66,7.28l-.11,.06c-.57,0-1.16,.01-1.73,.02l-.09-.08c-.03-.57-.06-1.16-.41-7.27-.57,2.18-1.8,7-1.82,7.25l-.09,.06c-.59,.01-1.17,.01-1.76,.04l-.06-.08c.29-.96,1.63-5.79,2.44-8.89l.1-.06c.96,0,1.93-.01,2.88-.04l.09,.08c0,.56,.28,5.11,.33,6.15,2.36-4.73,2.68-5.41,3.05-6.12l.1-.06c.96,0,1.93-.01,2.89-.04l.06,.08c-.03,.06-1.13,6.45-1.5,8.87l-.1,.08Z" style="fill: #006495;"/>
          <path d="M148.17,118.03c-.47,.23-1.16,.46-2.19,.46-2.59,0-3.16-1.5-3.16-2.8,0-1.86,1.08-4.26,3.86-4.26,1.43,0,2.55,.7,2.55,2.3,0,.69-.15,1.38-.23,1.58l-.09,.08h-.19c-1.33,0-2.49,0-3.84,.04-.03,.18-.03,.27-.03,.36,0,.97,.75,1.24,1.5,1.24,.27,0,1.27-.04,2.19-.73l.11,.08c-.18,.59-.29,.99-.43,1.59l-.06,.08Zm-.8-3.91c.06-.27,.08-.45,.08-.55,0-.75-.6-.87-.85-.87-.54,0-1.16,.33-1.5,1.44l2.28-.03Z" style="fill: #006495;"/>
          <path d="M157.41,110.47l-.75,3.17c-.36,1.53-.7,3.05-.96,4.6l-.09,.08c-.64,0-1.3,.01-1.92,.04l-.06-.08,.1-.55c-.25,.22-.89,.74-1.85,.74-.84,0-2.12-.47-2.12-2.46,0-2.1,1.2-4.47,4.37-4.47,.24,0,.7,.01,.94,.03l.31-1.38c.11-.51,.22-1.03,.29-1.56l.09-.09c.71-.11,1.43-.23,2.14-.37l.08,.1c-.2,.69-.39,1.47-.57,2.19Zm-3.16,2.5c-1.48,0-2.27,1.38-2.27,2.74,0,.96,.5,1.28,.97,1.28,.5,0,.85-.29,.98-.4l.8-3.62h-.48Z" style="fill: #006495;"/>
          <path d="M159.92,115.08l-.2,.94c-.15,.74-.28,1.48-.41,2.23l-.09,.06c-.74,0-1.48,.01-2.21,.05l-.06-.09c.29-1.12,.57-2.27,.83-3.42l.14-.62c.18-.79,.34-1.59,.43-2.38l.09-.09c.75-.1,1.5-.22,2.24-.36l.08,.1c-.29,1.15-.59,2.37-.84,3.57Zm1.48-6.58c-.11,.57-.27,1.13-.41,1.7l-.1,.1c-.69,.09-1.38,.19-2.08,.29l-.08-.1c.13-.56,.26-1.13,.37-1.71l.11-.09c.69-.09,1.48-.2,2.1-.28l.08,.09Z" style="fill: #006495;"/>
          <path d="M165.64,118.17c-.33,.14-.84,.32-1.61,.32-1.9,0-3.03-1.19-3.03-2.97s.96-3,1.89-3.56c.89-.54,1.89-.54,2.13-.54,.57,0,1.36,.13,1.93,.52l.03,.1c-.18,.52-.29,.91-.43,1.45l-.13,.03c-.43-.61-1.13-.61-1.22-.61-1.41,0-1.99,1.45-1.99,2.44,0,.85,.43,1.62,1.45,1.62,.68,0,1.06-.28,1.36-.51l.11,.06c-.17,.57-.27,.98-.41,1.56l-.08,.09Z" style="fill: #006495;"/>
          <path d="M169.46,115.08l-.2,.94c-.15,.74-.28,1.48-.41,2.23l-.09,.06c-.74,0-1.48,.01-2.21,.05l-.06-.09c.29-1.12,.57-2.27,.83-3.42l.14-.62c.18-.79,.34-1.59,.43-2.38l.09-.09c.75-.1,1.5-.22,2.24-.36l.08,.1c-.29,1.15-.59,2.37-.84,3.57Zm1.48-6.58c-.11,.57-.27,1.13-.41,1.7l-.1,.1c-.69,.09-1.38,.19-2.08,.29l-.08-.1c.13-.56,.26-1.13,.37-1.71l.11-.09c.69-.09,1.48-.2,2.1-.28l.08,.09Z" style="fill: #006495;"/>
          <path d="M173.77,111.49l-.17,.7c.23-.18,1.02-.76,2.01-.76,.5,0,1.71,.19,1.71,1.68,0,.78-.91,4.55-.97,5.15l-.09,.06c-.7,.01-1.39,.02-2.08,.05l-.05-.09c.29-1.36,.93-3.81,.93-4.5,0-.42-.26-.73-.7-.73-.37,0-.71,.19-.99,.39-.36,1.59-.84,3.86-1.01,4.79l-.09,.08c-.7,0-1.4,.02-2.1,.05l-.05-.09c.23-.99,1.25-5.13,1.33-6.43l.1-.1c.77-.1,1.44-.22,2.14-.36l.08,.09Z" style="fill: #006495;"/>
          <path d="M183.43,118.03c-.47,.23-1.16,.46-2.19,.46-2.59,0-3.16-1.5-3.16-2.8,0-1.86,1.08-4.26,3.86-4.26,1.43,0,2.55,.7,2.55,2.3,0,.69-.15,1.38-.23,1.58l-.09,.08h-.19c-1.33,0-2.49,0-3.84,.04-.03,.18-.03,.27-.03,.36,0,.97,.75,1.24,1.5,1.24,.27,0,1.28-.04,2.19-.73l.11,.08c-.18,.59-.29,.99-.43,1.59l-.06,.08Zm-.8-3.91c.06-.27,.08-.45,.08-.55,0-.75-.6-.87-.85-.87-.54,0-1.16,.33-1.5,1.44l2.28-.03Z" style="fill: #006495;"/>
          <path d="M195.82,115.11c-.37,.51-.93,1.12-1.48,1.62,.32,.51,.65,1.01,.99,1.49l-.06,.11c-.34,0-1.3,.03-1.48,.03l-.09-.06c-.17-.28-.28-.51-.43-.77-.8,.59-1.63,.94-2.61,.94-1.44,0-2.43-.88-2.43-2.15s.79-2.01,2.64-2.84c-.42-.78-.57-1.24-.57-1.84,0-1.27,1.01-2.18,2.45-2.18,1.33,0,2.22,.73,2.22,1.82,0,.55-.24,1.05-.7,1.47-.42,.38-.71,.55-1.71,1.05l1.22,2c.6-.55,1.01-1.08,1.36-1.75h.1c.42,.66,.31,.5,.59,.93v.13Zm-4.42-.7c-1.2,.56-1.8,1.03-1.8,1.82,0,.68,.55,1.16,1.31,1.16,.61,0,1.19-.26,1.81-.77-.46-.73-.91-1.47-1.33-2.22Zm2.4-3.1c0-.55-.42-.93-1.05-.93-.66,0-1.17,.47-1.17,1.08,0,.52,.24,1.02,.5,1.47,1.25-.64,1.72-.96,1.72-1.62Z" style="fill: #006495;"/>
          <path d="M201.75,109.33c.78,0,2.24-.05,3.17-.05,1.34,0,2.14,.13,2.7,.74,.23,.26,.45,.62,.45,1.22,0,1.72-1.65,2.23-1.94,2.28,1.35,.29,1.48,1.36,1.48,1.78,0,.55-.19,1.29-.64,1.82-.83,1.01-2.1,1.2-4.12,1.2-.51,0-1.01-.01-1.25-.01-.78,0-1.45,.02-1.85,.02l-.06-.08c.2-.69,.29-1.17,.46-1.87l.4-1.67c.91-3.8,.97-4.54,1.12-5.32l.08-.08Zm.96,7.59c1.08,0,1.75-.05,2.19-.62,.13-.17,.28-.45,.28-.83,0-1-.98-1.01-1.58-1.01h-.84c-.41,1.78-.47,2.07-.55,2.45,0,0,.26,.01,.5,.01Zm1.06-3.93c.7,0,2-.19,2-1.42,0-.7-.55-.91-1.33-.91-.26,0-.79,.01-.79,.01-.09,.34-.15,.59-.54,2.31h.65Z" style="fill: #006495;"/>
          <path d="M210.95,115.08l-.2,.94c-.15,.74-.28,1.48-.41,2.23l-.09,.06c-.74,0-1.48,.01-2.21,.05l-.06-.09c.29-1.12,.57-2.27,.83-3.42l.14-.62c.18-.79,.34-1.59,.43-2.38l.09-.09c.75-.1,1.5-.22,2.24-.36l.08,.1c-.29,1.15-.59,2.37-.84,3.57Zm1.48-6.58c-.11,.57-.27,1.13-.41,1.7l-.1,.1c-.69,.09-1.38,.19-2.08,.29l-.08-.1c.13-.56,.26-1.13,.37-1.71l.11-.09c.69-.09,1.48-.2,2.1-.28l.08,.09Z" style="fill: #006495;"/>
          <path d="M216,111.43c.8,0,2.92,.33,2.92,2.74,0,2.54-1.42,4.32-3.9,4.32s-3.05-1.59-3.05-2.78c0-.84,.34-4.28,4.03-4.28Zm-.94,5.71c1.35,0,1.75-2.33,1.75-3.25,0-.43-.13-1.11-.96-1.11-1.53,0-1.75,2.83-1.75,3.23,0,.87,.47,1.13,.96,1.13Z" style="fill: #006495;"/>
          <path d="M221.36,118.32c-.71,0-1.42,.01-2.12,.04l-.05-.08c.84-3.61,1.82-7.65,2.01-9.65l.1-.09c.71-.11,1.49-.23,2.23-.37l.06,.1c-.78,3.38-1.76,7.65-2.15,9.98l-.09,.06Z" style="fill: #006495;"/>
          <path d="M227.14,111.43c.8,0,2.92,.33,2.92,2.74,0,2.54-1.42,4.32-3.9,4.32s-3.05-1.59-3.05-2.78c0-.84,.34-4.28,4.03-4.28Zm-.94,5.71c1.35,0,1.75-2.33,1.75-3.25,0-.43-.13-1.11-.96-1.11-1.53,0-1.75,2.83-1.75,3.23,0,.87,.47,1.13,.96,1.13Z" style="fill: #006495;"/>
          <path d="M238.01,111.65c-.38,1.45-.64,2.49-.96,3.97l-.38,1.76c-.42,1.96-.63,3-1.84,3.69-.88,.51-1.99,.51-2.19,.51-.82,0-1.9-.15-2.7-.83l-.03-.1c.24-.51,.39-.87,.62-1.38h.11c.43,.45,.94,.85,1.8,.85,1.44,0,1.71-1.03,1.89-1.73l.11-.45c-.29,.22-.91,.54-1.66,.54-1.56,0-2.21-1.17-2.21-2.42,0-1.05,.4-1.95,.59-2.32,1.1-2.09,3-2.14,4.6-2.14,.55,0,2.17-.03,2.17-.03l.06,.09Zm-2.46,1.36s-.17-.01-.24-.01c-.17,0-.85,0-1.33,.28-.88,.52-1.19,1.8-1.19,2.42,0,.97,.45,1.33,1.01,1.33,.03,0,.54,0,.92-.38l.83-3.63Z" style="fill: #006495;"/>
          <path d="M245.16,111.65c-.54,.87-1.79,3-3.3,5.66-.8,1.43-1.34,2.46-2.17,4.09l-.11,.08c-.71,0-1.22,.01-1.94,.04l-.05-.09c.62-.99,1.27-1.93,1.85-2.95-.03-.1-.65-5.24-.92-6.77l.08-.11c.79,0,1.34-.03,2.13-.09l.08,.08c.03,.73,.06,1.13,.1,1.72l.18,2.55c1.41-2.72,1.71-3.32,2.12-4.19l.1-.08c.68,0,1.13-.01,1.8-.04l.06,.1Z" style="fill: #006495;"/>
          <path d="M248.47,116.5c.14,.27,.91,.98,2.13,.98,1.49,0,2.13-.85,2.13-1.63s-.5-1.16-1.44-1.65l-.42-.22c-.83-.42-1.65-.91-1.65-2.19s.88-2.68,3.26-2.68c1.19,0,1.95,.36,2.46,.7l.04,.1c-.13,.38-.23,.66-.34,1.06l-.11,.02c-.48-.62-1.4-.84-1.95-.84-1.33,0-1.91,.74-1.91,1.49,0,.69,.41,.97,1.44,1.5l.37,.19c.83,.43,1.72,1.05,1.72,2.33s-.98,2.87-3.44,2.87c-1.24,0-2.24-.38-2.67-.79l-.04-.11c.13-.41,.19-.7,.29-1.12l.13-.03Z" style="fill: #006495;"/>
          <path d="M258.76,111.57c1.58,0,2.73,.8,2.73,2.5,0,1.34-.61,4.42-3.62,4.42-.8,0-2.65-.19-2.65-2.55,0-2.07,1.12-4.37,3.54-4.37Zm-.87,5.98c1.93,0,2.24-3.11,2.24-3.54,0-1.24-.75-1.5-1.33-1.5-1.76,0-2.24,2.61-2.24,3.53,0,.82,.38,1.52,1.33,1.52Z" style="fill: #006495;"/>
          <path d="M266.69,118.13c-.45,.26-1.2,.36-1.65,.36-1.64,0-2.78-1.24-2.78-2.86,0-1.06,.46-2.7,1.86-3.56,.74-.45,1.52-.51,1.86-.51,.89,0,1.59,.22,1.98,.51l.04,.09c-.14,.37-.22,.64-.32,1.01l-.13,.04c-.2-.34-.77-.64-1.44-.64-1.59,0-2.46,1.68-2.46,2.96,0,1.49,1.16,1.93,1.77,1.93,.22,0,.88-.03,1.56-.61l.1,.05c-.14,.42-.22,.71-.32,1.15l-.08,.09Z" style="fill: #006495;"/>
          <path d="M269.02,118.32c-.5,0-.85,.01-1.35,.04l-.06-.08c.41-1.48,1.31-5.69,1.38-6.37l.09-.09c.52-.06,.88-.11,1.39-.2l.06,.09c-.06-.01-1.12,4.85-1.42,6.55l-.09,.06Zm1.82-8.4c-.5,.06-.84,.1-1.34,.18l-.08-.1c.1-.43,.18-.74,.27-1.17l.11-.09c.5-.06,.84-.1,1.33-.18l.1,.09c-.11,.42-.19,.74-.29,1.17l-.1,.1Z" style="fill: #006495;"/>
          <path d="M276.07,117.98c-.43,.25-1.1,.51-2.08,.51-2.18,0-2.96-1.3-2.96-2.77,0-2.23,1.36-4.16,3.57-4.16,1.5,0,2.58,.69,2.58,2.38,0,.52-.11,.97-.15,1.16l-.09,.06c-.66,0-1.87-.01-2.98-.01-.57,0-.99,0-1.57,.03-.01,.08-.04,.31-.04,.55,0,1.67,1.45,1.71,1.91,1.71,1.06,0,1.61-.41,2.1-.76l.1,.06c-.14,.42-.23,.71-.33,1.15l-.06,.09Zm-.17-3.71c.05-.29,.06-.42,.06-.56-.03-1.16-.98-1.25-1.31-1.25-1.47,0-1.96,1.35-2.1,1.82,0,0,2.54-.01,3.35-.01Z" style="fill: #006495;"/>
          <path d="M280.24,118.31c-.42,.1-.75,.11-.92,.11-1.21,0-1.52-.62-1.52-1.26,0-.48,.27-1.61,.64-3.15l.32-1.33h-.26c-.24,0-.42,0-.66,.01l-.06-.09c.09-.29,.15-.52,.23-.84l.09-.06c.33,.01,.55,.01,.88,.01,.15-.59,.23-1.01,.34-1.59l.09-.09c.5-.1,.84-.19,1.33-.32l.06,.08c-.1,.34-.17,.6-.26,.94l-.24,.98c.52,0,.88,0,1.39-.03l.06,.09c-.11,.31-.18,.54-.27,.84l-.09,.08c-.48-.01-.83-.01-1.31-.01l-.69,2.88c-.06,.26-.24,1.05-.24,1.3,0,.41,.29,.55,.62,.55s.64-.13,.75-.17l.06,.06c-.1,.33-.18,.56-.27,.89l-.09,.1Z" style="fill: #006495;"/>
          <path d="M288,111.79c-1.53,2.47-5.11,8.48-5.6,9.56l-.1,.08h-.57c-.26,0-.5,0-.75,.01l-.04-.09c.37-.56,1.63-2.51,1.94-3.07-.48-3.17-.96-6.32-1.02-6.48l.09-.09c.48,0,.83-.03,1.33-.06l.1,.06c.06,.7,.1,1.2,.19,1.89l.37,3.01,1.24-2.19c.48-.85,.97-1.72,1.43-2.64l.1-.08c.14,.01,.28,.01,.42,.01,.31,0,.52-.01,.82-.03l.06,.1Z" style="fill: #006495;"/>
        </g>
        <path d="M129.91,86.07c-.22,2.99-.36,6.12-.51,8.89l-.58,.44c-10.64,0-21.35,.07-32.06,.15l-.36-.51c.29-6.7,.36-13.41,.36-20.18v-15.08c0-5.17-.07-10.27-.51-15.38l.44-.44c7.94,0,27.18-.15,31.99-.15l.36,.44c-.22,2.99-.44,5.61-.51,8.45l-.44,.44c-6.27-.15-12.46-.22-18.65-.22,0,1.38-.07,3.35-.07,5.39,0,2.33,0,4.66,.07,6.19,5.9,0,11.73-.07,17.56-.29l.44,.51c-.22,2.77-.36,5.47-.51,8.23l-.44,.44c-10.71-.07-17.05-.07-17.05-.07,0,4.3,.07,8.53,.15,12.75,6.7,0,13.34-.15,19.97-.51l.36,.51Zm61.72,9.33h-2.41c-3.79,0-6.41,.07-10.2,.22l-.29-.44c-.07-13.7-.22-32.86-.22-41.68-.58,2.48-10.93,40.3-11.22,41.46l-.44,.44h-2.04c-3.28,0-5.61,.07-8.82,.22l-.44-.44c-2.26-9.4-10.13-37.96-10.86-42.05,0,2.99-.95,38.33-.95,41.83l-.44,.44h-2.33c-2.91,0-5.03,.07-7.94,.22l-.36-.44c1.24-16.98,2.26-33.59,2.62-50.79l.44-.44h3.64c5.03,0,8.6-.07,13.63-.22l.36,.44c-.07,.29,7.07,27.33,8.89,35.27,2.26-8.53,9.25-33.74,9.69-35.05l.44-.44h3.64c4.88,0,8.38-.07,13.26-.22l.44,.44c.29,16.61,1.46,33.96,2.26,50.79l-.36,.44Zm6.85-.29c.29-18.87,.29-24.56,.29-30.17,0-6.85-.15-13.7-.44-20.55l.44-.44c3.5,0,17.27-.29,19.46-.29,6.56,0,10.57,.36,14.06,3.28,1.97,1.68,3.93,4.52,3.93,8.89,0,6.78-4.59,10.06-8.45,11.44,5.32,.58,10.64,4.23,10.64,12.24,0,5.17-2.26,10.57-8.31,13.48-4.81,2.33-10.2,2.55-15.3,2.55h-15.81l-.51-.44Zm12.68-7.87h2.7c4.52,0,11.08-.29,11.08-7.07,0-4.52-2.62-7-8.45-7-1.6,0-3.79,0-5.39,.07,0,2.62,.07,9.33,.07,13.99Zm3.42-22.59c3.72,0,8.89-1.09,8.89-6.78,0-5.98-5.98-6.12-7.58-6.12s-3.21,.07-4.74,.15v12.68s1.68,.07,3.42,.07Zm25.87,28.56c.29-3.79,.44-6.49,.51-10.27l.66-.22c2.77,2.11,6.34,4.52,12.61,4.52,5.47,0,8.67-2.55,8.67-6.05s-3.21-5.32-8.6-7.65l-2.7-1.17c-4.01-1.75-10.93-5.17-10.93-14.06s5.98-15.45,18.29-15.45c6.78,0,10.57,1.31,13.7,2.7l.36,.44c-.29,3.42-.51,6.05-.66,9.62l-.66,.29c-4.74-3.72-9.47-4.08-11.15-4.08-4.74,0-7.29,2.26-7.29,4.95,0,3.5,3.28,4.81,7.8,6.63l3.5,1.38c6.56,2.62,11,7.07,11,15.16,0,9.98-7.36,16.54-19.75,16.54-7.8,0-11.59-1.46-14.94-2.7l-.44-.58Z" style="fill: #006495;"/>
        <g>
          <path d="M101.69,36.65h-2.64c-.61,0-3.09,.1-3.09,.1l-.16-.19c.1-2.99,.16-5.95,.16-8.95v-2.25c0-3.73-.03-7.5-.29-11.23l.16-.19h2.22c1.06,0,2.93-.06,3.6-.1l.13,.19c-.1,4.41-.16,8.85-.16,13.29,0,3.06,.06,6.11,.23,9.14l-.16,.19Z" style="fill: #006495;"/>
          <path d="M120.06,32.53c-.1,1.32-.16,2.7-.23,3.93l-.26,.19c-4.7,0-9.43,.03-14.16,.06l-.16-.23c.13-2.96,.16-5.92,.16-8.91v-6.66c0-2.28-.03-4.54-.23-6.79l.19-.19c3.51,0,12-.06,14.13-.06l.16,.19c-.1,1.32-.19,2.48-.23,3.73l-.19,.19c-2.77-.06-5.5-.1-8.24-.1,0,.61-.03,1.48-.03,2.38,0,1.03,0,2.06,.03,2.73,2.61,0,5.18-.03,7.75-.13l.19,.23c-.1,1.22-.16,2.41-.23,3.64l-.19,.19c-4.73-.03-7.53-.03-7.53-.03,0,1.9,.03,3.76,.06,5.63,2.96,0,5.89-.06,8.82-.23l.16,.23Z" style="fill: #006495;"/>
          <path d="M136.86,32.53c-.1,1.32-.16,2.7-.23,3.93l-.26,.19c-4.7,0-9.43,.03-14.16,.06l-.16-.23c.13-2.96,.16-5.92,.16-8.91v-6.66c0-2.28-.03-4.54-.23-6.79l.19-.19c3.51,0,12-.06,14.13-.06l.16,.19c-.1,1.32-.19,2.48-.23,3.73l-.19,.19c-2.77-.06-5.5-.1-8.24-.1,0,.61-.03,1.48-.03,2.38,0,1.03,0,2.06,.03,2.73,2.61,0,5.18-.03,7.75-.13l.19,.23c-.1,1.22-.16,2.41-.23,3.64l-.19,.19c-4.73-.03-7.53-.03-7.53-.03,0,1.9,.03,3.76,.06,5.63,2.96,0,5.89-.06,8.82-.23l.16,.23Z" style="fill: #006495;"/>
          <path d="M153.66,32.53c-.1,1.32-.16,2.7-.23,3.93l-.26,.19c-4.7,0-9.43,.03-14.16,.06l-.16-.23c.13-2.96,.16-5.92,.16-8.91v-6.66c0-2.28-.03-4.54-.23-6.79l.19-.19c3.51,0,12-.06,14.13-.06l.16,.19c-.1,1.32-.19,2.48-.23,3.73l-.19,.19c-2.77-.06-5.5-.1-8.24-.1,0,.61-.03,1.48-.03,2.38,0,1.03,0,2.06,.03,2.73,2.61,0,5.18-.03,7.75-.13l.19,.23c-.1,1.22-.16,2.41-.23,3.64l-.19,.19c-4.73-.03-7.53-.03-7.53-.03,0,1.9,.03,3.76,.06,5.63,2.96,0,5.89-.06,8.82-.23l.16,.23Z" style="fill: #006495;"/>
        </g>
        <g>
          <path d="M66.72,74.61c-2.83-.28-5.19,2.08-4.91,4.91,.21,2.1,1.9,3.79,4,4,2.83,.28,5.19-2.08,4.91-4.91-.21-2.1-1.9-3.79-4-4Z" style="fill: #006495;"/>
          <path d="M75.69,61.11c-2.83-.28-5.19,2.08-4.91,4.91,.21,2.1,1.9,3.79,4,4,2.83,.28,5.19-2.08,4.91-4.91-.21-2.1-1.9-3.79-4-4Z" style="fill: #006495;"/>
          <path d="M85.53,48.37c-2.83-.28-5.19,2.08-4.91,4.91,.21,2.1,1.9,3.79,4,4,2.83,.28,5.19-2.08,4.91-4.91-.21-2.1-1.9-3.79-4-4Z" style="fill: #006495;"/>
          <path d="M77.62,36.8c-2.83-.28-5.19,2.08-4.91,4.91,.21,2.1,1.9,3.79,4,4,2.83,.28,5.19-2.08,4.91-4.91-.21-2.1-1.9-3.79-4-4Z" style="fill: #006495;"/>
          <path d="M56.49,14.52c-2.83-.28-5.19,2.08-4.91,4.91,.21,2.1,1.9,3.79,4,4,2.83,.28,5.19-2.08,4.91-4.91-.21-2.1-1.9-3.79-4-4Z" style="fill: #006495;"/>
          <path d="M56.4,87.05c-2.83-.28-5.19,2.08-4.91,4.91,.21,2.1,1.9,3.79,4,4,2.83,.28,5.19-2.08,4.91-4.91-.21-2.1-1.9-3.79-4-4Z" style="fill: #006495;"/>
          <path d="M69.85,90.44s0,0,0,0" style="fill: #006495;"/>
          <path d="M66.72,26.32c-2.83-.28-5.19,2.08-4.91,4.91,.21,2.1,1.9,3.79,4,4,2.83,.28,5.19-2.08,4.91-4.91-.21-2.1-1.9-3.79-4-4Z" style="fill: #006495;"/>
        </g>
        <g>
          <path d="M77.62,52.02l-24.51,1.38c-.62-1.74-2.27-2.98-4.22-2.98-2.47,0-4.48,2-4.48,4.48s2,4.48,4.48,4.48c1.98,0,3.65-1.28,4.24-3.05l24.49-1.38c.81,0,1.46-.65,1.46-1.46s-.65-1.46-1.46-1.46Z" style="fill: #006495;"/>
          <path d="M69.58,40.4l-8.93,.58c-.7-1.56-2.26-2.64-4.08-2.64-2.47,0-4.48,2-4.48,4.48s2,4.48,4.48,4.48c2.1,0,3.86-1.45,4.34-3.41l8.67-.56c.81,0,1.46-.65,1.46-1.46s-.65-1.46-1.46-1.46Z" style="fill: #006495;"/>
          <path d="M68.09,64.74l-7.41,.48c-.68-1.6-2.27-2.71-4.12-2.71-2.47,0-4.48,2-4.48,4.48s2,4.48,4.48,4.48c2.08,0,3.82-1.42,4.32-3.33l7.2-.47c.81,0,1.46-.65,1.46-1.46s-.65-1.46-1.46-1.46Z" style="fill: #006495;"/>
          <path d="M75.96,13.51c-2.02,0-3.73,1.34-4.29,3.19l-7.69,.5c-.81,0-1.46,.65-1.46,1.46s.65,1.46,1.46,1.46l7.81-.51c.65,1.67,2.27,2.86,4.17,2.86,2.47,0,4.48-2,4.48-4.48s-2-4.48-4.48-4.48Z" style="fill: #006495;"/>
          <path d="M75.96,85.96c-1.98,0-3.65,1.28-4.25,3.06l-8.39,.54c-.81,0-1.46,.65-1.46,1.46s.65,1.46,1.46,1.46l8.42-.55c.62,1.73,2.27,2.98,4.21,2.98,2.47,0,4.48-2,4.48-4.48s-2-4.48-4.48-4.48Z" style="fill: #006495;"/>
        </g>
        <path d="M277.53,50.98h-.73l-.04-.06c.02-.46,.02-1.41,.02-1.83v-1.31h-.32c-.27,0-.37,0-.66,.01l-.04-.06c0-.2,.01-.26,.01-.4v-.09l.04-.06h2.73l.04,.04c-.01,.21-.02,.31-.02,.5l-.03,.06h-.96v1.32c0,.68,.01,1.26,.02,1.8l-.06,.07Zm3.36-.78c.32-1.17,.56-1.97,.84-2.96l.04-.04h1.03l.06,.06s.04,2.08,.12,3.68l-.03,.04c-.32,0-.45,.01-.72,.02l-.06-.06c0-.59-.01-3.19-.01-3.19l-.93,3.17-.06,.06h-.22c-.13,0-.23,.01-.48,.01l-.03-.06c-.21-.82-.58-2-.85-3.19-.06,2.29-.07,2.67-.07,3.17l-.04,.06c-.29,0-.37,0-.66,.01l-.04-.07c.07-1.03,.1-1.42,.19-3.68l.06-.06h1.05l.04,.04c.18,.65,.47,1.74,.77,2.96Z" style="fill: #006495;"/>
      </g>
    </g>
  </g>
</svg>