<?xml version="1.0" encoding="UTF-8"?>
<svg id="Layer_2" data-name="Layer 2" xmlns="http://www.w3.org/2000/svg" viewBox="0 0 320 62.4">
  <g id="Layer_1-2" data-name="Layer 1">
    <g>
      <rect width="320" height="62.4" style="fill: none;"/>
      <g>
        <g>
          <g>
            <path d="M180.38,42.24h-.23c-.26,0-.46,0-.72,.02l-.04-.06c.27-1.11,1.19-5.08,1.37-6.12l.05-.05h.26c.26,0,.46,0,.72-.02l.04,.05c-.29,1.16-.99,4.08-1.37,6.14l-.07,.04Z"/>
            <path d="M185.43,42.25h-1.83c-.59,0-1,0-1.59,.02h-.12s-.04-.05-.04-.05c.6-2.34,1.1-4.85,1.37-6.14l.06-.06h.08c.26,0,.67,0,1.06,0h1.02c.48,0,.97-.02,1.29-.02l.05,.05c-.08,.24-.12,.41-.19,.65l-.07,.05c-.54,0-1.28-.03-2.03-.03-.15,0-.43,0-.43,0l-.43,1.92c1.76,0,2.03-.03,2.4-.03l.04,.06c-.07,.23-.11,.39-.18,.62l-.08,.06c-.31,0-1.66,0-2.33,0-.14,.62-.28,1.24-.48,2.13,.37,0,2.4-.04,2.64-.04l.04,.04c-.08,.26-.14,.43-.21,.69l-.06,.05Z"/>
            <path d="M190.11,42.25h-1.83c-.59,0-1,0-1.59,.02h-.12s-.04-.05-.04-.05c.6-2.34,1.1-4.85,1.37-6.14l.06-.06h.08c.26,0,.67,0,1.06,0h1.02c.48,0,.97-.02,1.29-.02l.05,.05c-.08,.24-.12,.41-.18,.65l-.07,.05c-.54,0-1.28-.03-2.03-.03-.15,0-.43,0-.43,0l-.43,1.92c1.76,0,2.03-.03,2.4-.03l.04,.06c-.07,.23-.11,.39-.18,.62l-.08,.06c-.31,0-1.66,0-2.33,0-.14,.62-.28,1.24-.48,2.13,.37,0,2.4-.04,2.64-.04l.04,.04c-.08,.26-.14,.43-.21,.69l-.06,.05Z"/>
            <path d="M194.78,42.25h-1.83c-.59,0-1,0-1.59,.02h-.12s-.04-.05-.04-.05c.6-2.34,1.1-4.85,1.37-6.14l.06-.06h.08c.26,0,.67,0,1.06,0h1.02c.48,0,.97-.02,1.29-.02l.05,.05c-.08,.24-.12,.41-.18,.65l-.07,.05c-.54,0-1.28-.03-2.03-.03-.15,0-.43,0-.43,0l-.43,1.92c1.76,0,2.03-.03,2.4-.03l.04,.06c-.07,.23-.11,.39-.18,.62l-.08,.06c-.31,0-1.66,0-2.33,0-.14,.62-.28,1.24-.48,2.13,.37,0,2.4-.04,2.64-.04l.04,.04c-.08,.26-.14,.43-.21,.69l-.06,.05Z"/>
            <path d="M201.75,42.25h-1.83c-.59,0-1,0-1.59,.02h-.12s-.04-.05-.04-.05c.6-2.34,1.1-4.85,1.37-6.14l.06-.06h.08c.26,0,.67,0,1.06,0h1.02c.48,0,.97-.02,1.29-.02l.05,.05c-.08,.24-.12,.41-.19,.65l-.07,.05c-.54,0-1.28-.03-2.03-.03-.15,0-.43,0-.43,0l-.43,1.92c1.76,0,2.03-.03,2.4-.03l.04,.06c-.07,.23-.11,.39-.18,.62l-.08,.06c-.31,0-1.66,0-2.33,0-.14,.62-.28,1.24-.48,2.13,.37,0,2.4-.04,2.64-.04l.04,.04c-.08,.26-.14,.43-.21,.69l-.06,.05Z"/>
            <path d="M206.49,42.25c-.33,0-.56,0-.9,.03l-.04-.06c.12-.59,.25-.99,.37-1.57l.21-1c.03-.13,.1-.41,.1-.65,0-.65-.57-.68-.75-.68-.54,0-.96,.32-1.16,.47-.25,1.14-.5,2.27-.71,3.42l-.06,.05c-.33,0-.56,0-.9,.03l-.04-.06c.29-1.16,.85-3.61,.92-4.4l.06-.06c.34-.04,.59-.09,.93-.16l.04,.06-.12,.45c.64-.49,1.28-.54,1.48-.54,.26,0,1.28,.04,1.28,1.17,0,.29-.11,.88-.29,1.7l-.13,.63c-.09,.42-.17,.71-.22,1.14l-.07,.05Z"/>
            <path d="M212.58,37.72c-.25,1-.47,1.9-.68,2.9l-.25,1.16c-.31,1.46-.56,2.7-2.49,2.7-.53,0-1.32-.12-1.81-.66v-.07c.13-.2,.22-.35,.35-.56h.07c.24,.31,.68,.63,1.33,.63,1.31,0,1.42-1.22,1.51-1.51l.09-.36c-.58,.41-1.1,.41-1.29,.41-1.04,0-1.59-.79-1.59-1.71,0-.22,.04-.97,.5-1.69,.83-1.28,2.15-1.28,3.16-1.28,.44,0,1.06-.02,1.06-.02l.04,.07Zm-1.08,.63s-.26,0-.34,0c-.79,0-1.65,.14-2.13,1.17-.21,.46-.24,.82-.24,1.01,0,.92,.59,1.13,1.03,1.13,.48,0,.84-.25,1.03-.43l.65-2.87Z"/>
            <path d="M213.63,42.24c-.34,0-.59,0-.93,.03l-.04-.05c.28-1.02,.91-3.93,.95-4.4l.06-.06c.36-.04,.61-.08,.96-.14l.04,.06s-.77,3.35-.98,4.53l-.06,.04Zm1.26-5.81c-.34,.04-.58,.07-.92,.12l-.05-.07c.07-.3,.12-.51,.19-.81l.08-.06c.34-.04,.58-.07,.92-.12l.07,.06c-.08,.29-.13,.51-.2,.81l-.07,.07Z"/>
            <path d="M218.66,42.25c-.33,0-.56,0-.9,.03l-.04-.06c.12-.59,.25-.99,.37-1.57l.21-1c.03-.13,.1-.41,.1-.65,0-.65-.57-.68-.75-.68-.54,0-.96,.32-1.16,.47-.25,1.14-.5,2.27-.71,3.42l-.06,.05c-.33,0-.56,0-.9,.03l-.04-.06c.29-1.16,.85-3.61,.92-4.4l.06-.06c.34-.04,.59-.09,.93-.16l.04,.06-.12,.45c.64-.49,1.28-.54,1.48-.54,.26,0,1.28,.04,1.28,1.17,0,.29-.11,.88-.29,1.7l-.13,.63c-.09,.42-.17,.71-.22,1.14l-.07,.05Z"/>
            <path d="M223.53,42c-.3,.18-.76,.35-1.44,.35-1.51,0-2.04-.9-2.04-1.91,0-1.54,.94-2.87,2.47-2.87,1.04,0,1.78,.48,1.78,1.65,0,.36-.08,.67-.11,.8l-.06,.04c-.46,0-1.29,0-2.06,0-.4,0-.69,0-1.08,.02,0,.05-.03,.21-.03,.38,0,1.15,1,1.18,1.32,1.18,.73,0,1.11-.28,1.45-.53l.07,.04c-.1,.29-.16,.49-.23,.79l-.04,.06Zm-.11-2.56c.04-.2,.04-.29,.04-.39-.02-.8-.68-.86-.91-.86-1.01,0-1.36,.93-1.45,1.26,0,0,1.75,0,2.32,0Z"/>
            <path d="M228.21,42c-.3,.18-.76,.35-1.44,.35-1.51,0-2.04-.9-2.04-1.91,0-1.54,.94-2.87,2.47-2.87,1.04,0,1.78,.48,1.78,1.65,0,.36-.08,.67-.11,.8l-.06,.04c-.46,0-1.29,0-2.06,0-.4,0-.69,0-1.08,.02,0,.05-.03,.21-.03,.38,0,1.15,1,1.18,1.32,1.18,.73,0,1.11-.28,1.45-.53l.07,.04c-.1,.29-.16,.49-.23,.79l-.04,.06Zm-.11-2.56c.04-.2,.04-.29,.04-.39-.02-.8-.68-.86-.91-.86-1.01,0-1.36,.93-1.45,1.26,0,0,1.75,0,2.32,0Z"/>
            <path d="M230.11,42.25c-.34,0-.58,0-.92,.02l-.04-.05c.37-1.38,.87-3.66,.96-4.4l.06-.06c.35-.04,.61-.08,.95-.15l.04,.06c-.07,.26-.12,.48-.19,.78,.13-.22,.52-.87,1.15-.87,.19,0,.32,.04,.41,.1l.03,.08c-.13,.32-.22,.54-.34,.86l-.09,.03c-.06-.04-.2-.12-.37-.12-.24,0-.78,.12-1.06,1.27-.08,.33-.43,1.85-.51,2.41l-.07,.06Z"/>
            <path d="M233.14,42.24c-.34,0-.59,0-.93,.03l-.04-.05c.28-1.02,.91-3.93,.95-4.4l.06-.06c.36-.04,.61-.08,.96-.14l.04,.06s-.77,3.35-.98,4.53l-.06,.04Zm1.26-5.81c-.34,.04-.58,.07-.92,.12l-.05-.07c.07-.3,.12-.51,.19-.81l.08-.06c.34-.04,.58-.07,.92-.12l.07,.06c-.08,.29-.13,.51-.2,.81l-.07,.07Z"/>
            <path d="M238.18,42.25c-.33,0-.56,0-.9,.03l-.04-.06c.12-.59,.25-.99,.37-1.57l.21-1c.03-.13,.1-.41,.1-.65,0-.65-.57-.68-.75-.68-.54,0-.96,.32-1.16,.47-.25,1.14-.5,2.27-.71,3.42l-.06,.05c-.33,0-.56,0-.9,.03l-.04-.06c.29-1.16,.85-3.61,.92-4.4l.06-.06c.34-.04,.59-.09,.93-.16l.04,.06-.12,.45c.64-.49,1.28-.54,1.48-.54,.26,0,1.28,.04,1.28,1.17,0,.29-.11,.88-.29,1.7l-.13,.63c-.09,.42-.17,.71-.22,1.14l-.07,.05Z"/>
            <path d="M244.27,37.72c-.25,1-.47,1.9-.68,2.9l-.25,1.16c-.31,1.46-.56,2.7-2.49,2.7-.53,0-1.32-.12-1.81-.66v-.07c.13-.2,.22-.35,.35-.56h.07c.24,.31,.68,.63,1.33,.63,1.31,0,1.42-1.22,1.51-1.51l.09-.36c-.58,.41-1.1,.41-1.29,.41-1.04,0-1.59-.79-1.59-1.71,0-.22,.04-.97,.5-1.69,.83-1.28,2.15-1.28,3.16-1.28,.44,0,1.06-.02,1.06-.02l.04,.07Zm-1.08,.63s-.26,0-.34,0c-.79,0-1.65,.14-2.13,1.17-.21,.46-.24,.82-.24,1.01,0,.92,.59,1.13,1.03,1.13,.48,0,.84-.25,1.03-.43l.65-2.87Z"/>
          </g>
          <g>
            <path d="M186.53,53.91c-.47,0-.92,0-1.39,.03l-.05-.05c.26-1.27,.9-4.37,1.03-5.05-1.98,3.92-2.27,4.47-2.53,5.03l-.08,.04c-.4,0-.8,0-1.2,.02l-.06-.05c-.02-.4-.04-.8-.28-5.02-.4,1.51-1.24,4.84-1.26,5.01l-.06,.04c-.41,0-.81,0-1.22,.03l-.04-.05c.2-.66,1.13-4,1.68-6.14l.07-.04c.66,0,1.33,0,1.99-.03l.06,.05c0,.39,.19,3.53,.23,4.25,1.63-3.27,1.85-3.73,2.11-4.23l.07-.04c.66,0,1.33,0,2-.03l.04,.05s-.78,4.46-1.04,6.13l-.07,.05Z"/>
            <path d="M191.39,53.71c-.33,.16-.8,.32-1.52,.32-1.79,0-2.18-1.04-2.18-1.94,0-1.29,.75-2.94,2.67-2.94,.99,0,1.76,.48,1.76,1.59,0,.48-.11,.95-.16,1.09l-.06,.05h-.13c-.92,0-1.72,0-2.65,.03-.02,.12-.02,.18-.02,.25,0,.67,.52,.85,1.04,.85,.18,0,.88-.03,1.51-.5l.08,.05c-.12,.41-.2,.69-.3,1.1l-.04,.05Zm-.55-2.7c.04-.18,.05-.31,.05-.38,0-.52-.41-.6-.59-.6-.37,0-.8,.23-1.04,1l1.58-.02Z"/>
            <path d="M197.78,48.49l-.52,2.19c-.25,1.06-.48,2.11-.66,3.18l-.06,.05c-.44,0-.9,0-1.33,.03l-.04-.05,.07-.38c-.18,.15-.62,.51-1.28,.51-.58,0-1.46-.33-1.46-1.7,0-1.45,.83-3.09,3.02-3.09,.17,0,.48,0,.65,.02l.21-.95c.08-.35,.15-.71,.2-1.07l.06-.06c.49-.08,.99-.16,1.48-.26l.05,.07c-.14,.48-.27,1.01-.4,1.51Zm-2.18,1.73c-1.02,0-1.57,.95-1.57,1.89,0,.66,.34,.88,.67,.88,.34,0,.59-.2,.68-.27l.55-2.5h-.33Z"/>
            <path d="M199.51,51.67l-.14,.65c-.11,.51-.19,1.02-.28,1.54l-.06,.04c-.51,0-1.02,0-1.52,.03l-.04-.06c.2-.77,.4-1.57,.57-2.36l.1-.43c.12-.55,.24-1.1,.3-1.65l.06-.06c.52-.07,1.04-.15,1.55-.25l.05,.07c-.2,.79-.41,1.64-.58,2.47Zm1.02-4.54c-.08,.4-.18,.78-.28,1.17l-.07,.07c-.48,.06-.95,.13-1.44,.2l-.05-.07c.09-.39,.18-.78,.26-1.18l.08-.06c.48-.06,1.02-.14,1.45-.19l.05,.06Z"/>
            <path d="M203.47,53.81c-.23,.1-.58,.22-1.11,.22-1.31,0-2.1-.82-2.1-2.05s.66-2.07,1.3-2.46c.62-.37,1.3-.37,1.47-.37,.4,0,.94,.09,1.33,.36l.02,.07c-.12,.36-.2,.63-.3,1l-.09,.02c-.3-.42-.78-.42-.85-.42-.98,0-1.37,1-1.37,1.68,0,.59,.3,1.12,1,1.12,.47,0,.73-.19,.94-.35l.08,.04c-.11,.4-.19,.68-.28,1.07l-.05,.06Z"/>
            <path d="M206.11,51.67l-.14,.65c-.11,.51-.19,1.02-.28,1.54l-.06,.04c-.51,0-1.02,0-1.52,.03l-.04-.06c.2-.77,.4-1.57,.57-2.36l.1-.43c.12-.55,.24-1.1,.3-1.65l.06-.06c.52-.07,1.04-.15,1.55-.25l.05,.07c-.2,.79-.41,1.64-.58,2.47Zm1.02-4.54c-.08,.4-.18,.78-.28,1.17l-.07,.07c-.48,.06-.95,.13-1.44,.2l-.05-.07c.09-.39,.18-.78,.26-1.18l.08-.06c.48-.06,1.02-.14,1.45-.19l.05,.06Z"/>
            <path d="M209.08,49.19l-.11,.48c.16-.12,.7-.53,1.39-.53,.34,0,1.18,.13,1.18,1.16,0,.54-.63,3.14-.67,3.56l-.06,.04c-.48,0-.96,.02-1.44,.03l-.04-.06c.2-.94,.64-2.63,.64-3.11,0-.29-.18-.5-.48-.5-.26,0-.49,.13-.69,.27-.25,1.1-.58,2.67-.7,3.31l-.06,.05c-.48,0-.97,.02-1.45,.03l-.04-.06c.16-.69,.86-3.54,.92-4.44l.07-.07c.53-.07,1-.15,1.48-.25l.05,.06Z"/>
            <path d="M215.76,53.71c-.33,.16-.8,.32-1.51,.32-1.79,0-2.18-1.04-2.18-1.94,0-1.29,.75-2.94,2.67-2.94,.99,0,1.76,.48,1.76,1.59,0,.48-.11,.95-.16,1.09l-.06,.05h-.13c-.92,0-1.72,0-2.65,.03-.02,.12-.02,.18-.02,.25,0,.67,.52,.85,1.04,.85,.18,0,.88-.03,1.51-.5l.08,.05c-.12,.41-.2,.69-.3,1.1l-.04,.05Zm-.55-2.7c.04-.18,.05-.31,.05-.38,0-.52-.41-.6-.59-.6-.37,0-.8,.23-1.04,1l1.58-.02Z"/>
            <path d="M224.32,51.69c-.26,.35-.64,.78-1.02,1.12,.22,.35,.45,.7,.69,1.03l-.04,.08c-.24,0-.9,.02-1.02,.02l-.06-.04c-.11-.19-.19-.35-.3-.53-.56,.41-1.13,.65-1.81,.65-1,0-1.68-.61-1.68-1.49s.55-1.39,1.82-1.96c-.29-.54-.4-.85-.4-1.27,0-.88,.7-1.51,1.69-1.51,.92,0,1.53,.5,1.53,1.26,0,.38-.17,.72-.48,1.01-.29,.26-.49,.38-1.18,.72l.85,1.38c.41-.38,.7-.75,.94-1.21h.07c.29,.46,.21,.34,.41,.64v.09Zm-3.06-.48c-.83,.39-1.24,.71-1.24,1.26,0,.47,.38,.8,.91,.8,.42,0,.82-.18,1.25-.53-.32-.5-.63-1.01-.92-1.53Zm1.66-2.14c0-.38-.29-.64-.72-.64-.46,0-.81,.33-.81,.75,0,.36,.17,.7,.34,1.01,.86-.44,1.19-.66,1.19-1.12Z"/>
            <path d="M228.41,47.7c.54,0,1.55-.04,2.19-.04,.92,0,1.48,.09,1.87,.51,.16,.18,.31,.43,.31,.85,0,1.19-1.14,1.54-1.34,1.58,.93,.2,1.02,.94,1.02,1.23,0,.38-.13,.89-.44,1.26-.57,.7-1.45,.83-2.84,.83-.35,0-.7,0-.86,0-.54,0-1,.02-1.28,.02l-.04-.05c.14-.48,.2-.81,.32-1.29l.27-1.15c.63-2.62,.67-3.14,.77-3.67l.05-.05Zm.66,5.24c.75,0,1.21-.03,1.52-.43,.09-.11,.19-.31,.19-.57,0-.69-.68-.7-1.09-.7h-.58c-.28,1.23-.33,1.43-.38,1.69,0,0,.18,0,.34,0Zm.73-2.71c.48,0,1.38-.13,1.38-.98,0-.48-.38-.63-.92-.63-.18,0-.55,0-.55,0-.06,.24-.11,.41-.37,1.59h.45Z"/>
            <path d="M234.77,51.67l-.14,.65c-.11,.51-.19,1.02-.28,1.54l-.06,.04c-.51,0-1.02,0-1.52,.03l-.04-.06c.2-.77,.4-1.57,.57-2.36l.1-.43c.12-.55,.24-1.1,.3-1.65l.06-.06c.52-.07,1.04-.15,1.55-.25l.05,.07c-.2,.79-.41,1.64-.58,2.47Zm1.02-4.54c-.08,.4-.18,.78-.28,1.17l-.07,.07c-.48,.06-.95,.13-1.44,.2l-.05-.07c.09-.39,.18-.78,.26-1.18l.08-.06c.48-.06,1.02-.14,1.45-.19l.05,.06Z"/>
            <path d="M238.26,49.15c.56,0,2.02,.23,2.02,1.89,0,1.75-.98,2.99-2.7,2.99s-2.11-1.1-2.11-1.92c0-.58,.24-2.96,2.78-2.96Zm-.65,3.95c.93,0,1.21-1.61,1.21-2.25,0-.3-.09-.77-.66-.77-1.06,0-1.21,1.96-1.21,2.23,0,.6,.33,.78,.66,.78Z"/>
            <path d="M241.96,53.91c-.49,0-.98,0-1.46,.03l-.04-.05c.58-2.49,1.26-5.28,1.39-6.67l.07-.06c.49-.08,1.03-.16,1.54-.26l.04,.07c-.54,2.33-1.22,5.28-1.49,6.9l-.06,.04Z"/>
            <path d="M245.95,49.15c.56,0,2.02,.23,2.02,1.89,0,1.75-.98,2.99-2.7,2.99s-2.11-1.1-2.11-1.92c0-.58,.24-2.96,2.78-2.96Zm-.65,3.95c.93,0,1.21-1.61,1.21-2.25,0-.3-.09-.77-.66-.77-1.06,0-1.21,1.96-1.21,2.23,0,.6,.33,.78,.66,.78Z"/>
            <path d="M253.46,49.3c-.26,1-.44,1.72-.66,2.74l-.26,1.22c-.29,1.36-.43,2.07-1.27,2.55-.61,.35-1.37,.35-1.52,.35-.56,0-1.31-.11-1.87-.57l-.02-.07c.17-.35,.27-.6,.43-.95h.08c.3,.31,.65,.59,1.24,.59,1,0,1.18-.71,1.3-1.2l.08-.31c-.2,.15-.63,.37-1.15,.37-1.07,0-1.52-.81-1.52-1.67,0-.72,.27-1.35,.41-1.6,.76-1.44,2.07-1.48,3.18-1.48,.38,0,1.5-.02,1.5-.02l.04,.06Zm-1.7,.94s-.11,0-.17,0c-.11,0-.59,0-.92,.19-.61,.36-.82,1.24-.82,1.67,0,.67,.31,.92,.7,.92,.02,0,.37,0,.63-.26l.57-2.51Z"/>
            <path d="M258.4,49.3c-.37,.6-1.23,2.07-2.28,3.91-.55,.99-.92,1.7-1.5,2.83l-.08,.05c-.49,0-.85,0-1.34,.03l-.03-.06c.43-.69,.88-1.33,1.28-2.03-.02-.07-.45-3.62-.63-4.68l.05-.08c.55,0,.92-.02,1.47-.06l.05,.05c.02,.5,.04,.78,.07,1.19l.12,1.76c.98-1.88,1.18-2.29,1.46-2.9l.07-.05c.47,0,.78,0,1.24-.03l.04,.07Z"/>
            <path d="M260.69,52.65c.1,.18,.63,.68,1.47,.68,1.03,0,1.47-.59,1.47-1.13s-.34-.8-1-1.14l-.29-.15c-.57-.29-1.14-.63-1.14-1.51s.61-1.85,2.25-1.85c.82,0,1.35,.25,1.7,.48l.03,.07c-.09,.26-.16,.46-.24,.73l-.08,.02c-.33-.43-.97-.58-1.35-.58-.92,0-1.32,.51-1.32,1.03,0,.48,.28,.67,1,1.04l.26,.13c.57,.3,1.19,.72,1.19,1.61s-.68,1.98-2.38,1.98c-.85,0-1.55-.26-1.84-.55l-.03-.08c.09-.28,.13-.48,.2-.77l.09-.02Z"/>
            <path d="M267.8,49.24c1.09,0,1.89,.55,1.89,1.73,0,.92-.42,3.06-2.5,3.06-.56,0-1.83-.13-1.83-1.76,0-1.43,.77-3.02,2.45-3.02Zm-.6,4.13c1.33,0,1.55-2.15,1.55-2.45,0-.85-.52-1.04-.92-1.04-1.22,0-1.55,1.81-1.55,2.44,0,.56,.26,1.05,.92,1.05Z"/>
            <path d="M273.28,53.78c-.31,.18-.83,.25-1.14,.25-1.14,0-1.92-.85-1.92-1.97,0-.73,.32-1.87,1.29-2.46,.51-.31,1.05-.35,1.29-.35,.62,0,1.1,.15,1.37,.35l.03,.06c-.1,.26-.15,.44-.22,.7l-.09,.03c-.14-.24-.53-.44-1-.44-1.1,0-1.7,1.16-1.7,2.04,0,1.03,.8,1.33,1.22,1.33,.15,0,.61-.02,1.07-.42l.07,.04c-.1,.29-.15,.49-.22,.79l-.05,.06Z"/>
            <path d="M274.89,53.91c-.34,0-.59,0-.93,.03l-.04-.05c.28-1.02,.91-3.93,.95-4.4l.06-.06c.36-.04,.61-.08,.96-.14l.04,.06s-.78,3.35-.98,4.53l-.06,.04Zm1.26-5.81c-.34,.04-.58,.07-.92,.12l-.05-.07c.07-.3,.12-.51,.19-.81l.08-.06c.34-.04,.58-.07,.92-.12l.07,.06c-.08,.29-.13,.51-.2,.81l-.07,.07Z"/>
            <path d="M279.76,53.67c-.3,.18-.76,.35-1.44,.35-1.51,0-2.04-.9-2.04-1.91,0-1.54,.94-2.87,2.47-2.87,1.04,0,1.78,.48,1.78,1.65,0,.36-.08,.67-.11,.8l-.06,.04c-.46,0-1.29,0-2.06,0-.4,0-.69,0-1.08,.02,0,.05-.03,.21-.03,.38,0,1.15,1,1.18,1.32,1.18,.73,0,1.11-.28,1.45-.53l.07,.04c-.1,.29-.16,.49-.23,.79l-.04,.06Zm-.11-2.56c.04-.2,.04-.29,.04-.39-.02-.8-.68-.86-.91-.86-1.01,0-1.36,.93-1.45,1.26,0,0,1.75,0,2.32,0Z"/>
            <path d="M282.64,53.9c-.29,.07-.52,.08-.63,.08-.84,0-1.05-.43-1.05-.87,0-.33,.19-1.11,.44-2.18l.22-.92h-.18c-.17,0-.29,0-.46,0l-.04-.06c.06-.2,.11-.36,.16-.58l.06-.04c.23,0,.38,0,.61,0,.11-.41,.16-.7,.24-1.1l.06-.06c.34-.07,.58-.13,.92-.22l.04,.05c-.07,.24-.11,.41-.18,.65l-.17,.68c.36,0,.61,0,.96-.02l.04,.06c-.08,.21-.12,.37-.18,.58l-.06,.05c-.33,0-.57,0-.91,0l-.48,1.99c-.04,.18-.17,.72-.17,.9,0,.28,.2,.38,.43,.38s.44-.09,.52-.11l.04,.04c-.07,.23-.12,.39-.18,.62l-.06,.07Z"/>
            <path d="M288,49.4c-1.06,1.71-3.53,5.86-3.87,6.61l-.07,.05h-.4c-.18,0-.34,0-.52,0l-.03-.06c.26-.39,1.13-1.74,1.34-2.12-.33-2.19-.66-4.37-.7-4.47l.06-.06c.33,0,.57-.02,.92-.04l.07,.04c.04,.48,.07,.83,.13,1.3l.26,2.08,.85-1.51c.33-.59,.67-1.19,.99-1.82l.07-.05c.1,0,.19,0,.29,0,.21,0,.36,0,.56-.02l.04,.07Z"/>
          </g>
        </g>
        <g>
          <path d="M82.31,48.94c-.13,1.76-.21,3.6-.3,5.23l-.34,.26c-6.26,0-12.56,.04-18.87,.09l-.21-.3c.17-3.94,.21-7.89,.21-11.88v-8.88c0-3.04-.04-6.05-.3-9.05l.26-.26c4.67,0,15.99-.09,18.82-.09l.21,.26c-.13,1.76-.26,3.3-.3,4.97l-.26,.26c-3.69-.09-7.33-.13-10.98-.13,0,.81-.04,1.97-.04,3.17,0,1.37,0,2.74,.04,3.64,3.47,0,6.9-.04,10.33-.17l.26,.3c-.13,1.63-.21,3.22-.3,4.85l-.26,.26c-6.3-.04-10.03-.04-10.03-.04,0,2.53,.04,5.02,.09,7.5,3.95,0,7.85-.09,11.75-.3l.21,.3Zm36.32,5.49h-1.42c-2.23,0-3.77,.04-6,.13l-.17-.26c-.04-8.06-.13-19.34-.13-24.53-.34,1.46-6.43,23.71-6.6,24.4l-.26,.26h-1.2c-1.93,0-3.3,.04-5.19,.13l-.26-.26c-1.33-5.53-5.96-22.34-6.39-24.74,0,1.76-.56,22.55-.56,24.61l-.26,.26h-1.37c-1.72,0-2.96,.04-4.67,.13l-.21-.26c.73-9.99,1.33-19.77,1.54-29.89l.26-.26h2.14c2.96,0,5.06-.04,8.02-.13l.21,.26c-.04,.17,4.16,16.08,5.23,20.75,1.33-5.02,5.45-19.85,5.7-20.62l.26-.26h2.14c2.87,0,4.93-.04,7.8-.13l.26,.26c.17,9.78,.86,19.98,1.33,29.89l-.21,.26Zm4.03-.17c.17-11.11,.17-14.45,.17-17.75,0-4.03-.09-8.06-.26-12.09l.26-.26c2.06,0,10.16-.17,11.45-.17,3.86,0,6.22,.21,8.28,1.93,1.16,.99,2.32,2.66,2.32,5.23,0,3.99-2.7,5.92-4.97,6.73,3.13,.34,6.26,2.49,6.26,7.2,0,3.04-1.33,6.22-4.89,7.93-2.83,1.37-6,1.5-9,1.5h-9.3l-.3-.26Zm7.46-4.63h1.59c2.66,0,6.52-.17,6.52-4.16,0-2.66-1.54-4.12-4.97-4.12-.94,0-2.23,0-3.17,.04,0,1.54,.04,5.49,.04,8.23Zm2.02-13.29c2.19,0,5.23-.64,5.23-3.99,0-3.52-3.52-3.6-4.46-3.6s-1.89,.04-2.79,.09v7.46s.99,.04,2.02,.04Zm15.22,16.81c.17-2.23,.26-3.82,.3-6.05l.39-.13c1.63,1.24,3.73,2.66,7.42,2.66,3.22,0,5.1-1.5,5.1-3.56s-1.89-3.13-5.06-4.5l-1.59-.69c-2.36-1.03-6.43-3.04-6.43-8.28s3.52-9.09,10.76-9.09c3.99,0,6.22,.77,8.06,1.59l.21,.26c-.17,2.02-.3,3.56-.39,5.66l-.39,.17c-2.79-2.19-5.57-2.4-6.56-2.4-2.79,0-4.29,1.33-4.29,2.92,0,2.06,1.93,2.83,4.59,3.9l2.06,.81c3.86,1.54,6.47,4.16,6.47,8.92,0,5.87-4.33,9.73-11.62,9.73-4.59,0-6.82-.86-8.79-1.59l-.26-.34Z"/>
          <g>
            <path d="M65.7,19.86h-1.55c-.36,0-1.82,.06-1.82,.06l-.09-.11c.06-1.76,.09-3.5,.09-5.26v-1.33c0-2.2-.02-4.41-.17-6.61l.09-.11h1.31c.62,0,1.72-.04,2.12-.06l.08,.11c-.06,2.59-.09,5.21-.09,7.82,0,1.8,.04,3.6,.13,5.38l-.09,.11Z"/>
            <path d="M76.51,17.43c-.06,.78-.09,1.59-.13,2.31l-.15,.11c-2.76,0-5.55,.02-8.33,.04l-.09-.13c.08-1.74,.09-3.48,.09-5.24v-3.92c0-1.34-.02-2.67-.13-4l.11-.11c2.06,0,7.06-.04,8.31-.04l.09,.11c-.06,.78-.11,1.46-.13,2.2l-.11,.11c-1.63-.04-3.24-.06-4.85-.06,0,.36-.02,.87-.02,1.4,0,.61,0,1.21,.02,1.61,1.53,0,3.05-.02,4.56-.08l.11,.13c-.06,.72-.09,1.42-.13,2.14l-.11,.11c-2.78-.02-4.43-.02-4.43-.02,0,1.12,.02,2.22,.04,3.31,1.74,0,3.47-.04,5.19-.13l.09,.13Z"/>
            <path d="M86.4,17.43c-.06,.78-.09,1.59-.13,2.31l-.15,.11c-2.76,0-5.55,.02-8.33,.04l-.09-.13c.08-1.74,.09-3.48,.09-5.24v-3.92c0-1.34-.02-2.67-.13-4l.11-.11c2.06,0,7.06-.04,8.31-.04l.09,.11c-.06,.78-.11,1.46-.13,2.2l-.11,.11c-1.63-.04-3.24-.06-4.85-.06,0,.36-.02,.87-.02,1.4,0,.61,0,1.21,.02,1.61,1.53,0,3.05-.02,4.56-.08l.11,.13c-.06,.72-.09,1.42-.13,2.14l-.11,.11c-2.78-.02-4.43-.02-4.43-.02,0,1.12,.02,2.22,.04,3.31,1.74,0,3.47-.04,5.19-.13l.09,.13Z"/>
            <path d="M96.28,17.43c-.06,.78-.09,1.59-.13,2.31l-.15,.11c-2.76,0-5.55,.02-8.33,.04l-.09-.13c.08-1.74,.09-3.48,.09-5.24v-3.92c0-1.34-.02-2.67-.13-4l.11-.11c2.06,0,7.06-.04,8.31-.04l.09,.11c-.06,.78-.11,1.46-.13,2.2l-.11,.11c-1.63-.04-3.24-.06-4.85-.06,0,.36-.02,.87-.02,1.4,0,.61,0,1.21,.02,1.61,1.53,0,3.05-.02,4.56-.08l.11,.13c-.06,.72-.09,1.42-.13,2.14l-.11,.11c-2.78-.02-4.43-.02-4.43-.02,0,1.12,.02,2.22,.04,3.31,1.74,0,3.47-.04,5.19-.13l.09,.13Z"/>
          </g>
          <g>
            <path d="M45.12,42.19c-1.67-.16-3.06,1.22-2.89,2.89,.12,1.23,1.12,2.23,2.35,2.35,1.67,.17,3.06-1.22,2.89-2.89-.12-1.23-1.12-2.23-2.35-2.35Z"/>
            <path d="M50.4,34.25c-1.67-.16-3.06,1.22-2.89,2.89,.12,1.23,1.12,2.23,2.35,2.35,1.67,.17,3.06-1.22,2.89-2.89-.12-1.23-1.12-2.23-2.35-2.35Z"/>
            <path d="M56.19,26.76c-1.67-.16-3.06,1.22-2.89,2.89,.12,1.23,1.12,2.23,2.35,2.35,1.67,.17,3.06-1.22,2.89-2.89-.12-1.23-1.12-2.23-2.35-2.35Z"/>
            <path d="M51.54,19.94c-1.67-.16-3.06,1.22-2.89,2.89,.12,1.23,1.12,2.23,2.35,2.35,1.67,.17,3.06-1.22,2.89-2.89-.12-1.23-1.12-2.23-2.35-2.35Z"/>
            <path d="M39.11,6.83c-1.67-.16-3.06,1.22-2.89,2.89,.12,1.23,1.12,2.23,2.35,2.35,1.67,.17,3.06-1.22,2.89-2.89-.12-1.23-1.12-2.23-2.35-2.35Z"/>
            <path d="M39.05,49.52c-1.67-.16-3.06,1.22-2.89,2.89,.12,1.23,1.12,2.23,2.35,2.35,1.67,.17,3.06-1.22,2.89-2.89-.12-1.23-1.12-2.23-2.35-2.35Z"/>
            <path d="M46.97,51.51s0,0,0,0"/>
            <path d="M45.12,13.78c-1.67-.17-3.06,1.22-2.89,2.89,.12,1.23,1.12,2.23,2.35,2.35,1.67,.17,3.06-1.22,2.89-2.89-.12-1.23-1.12-2.23-2.35-2.35Z"/>
          </g>
          <g>
            <path d="M51.54,28.9l-14.42,.81c-.36-1.02-1.34-1.75-2.48-1.75-1.46,0-2.63,1.18-2.63,2.63s1.18,2.63,2.63,2.63c1.16,0,2.15-.75,2.5-1.8l14.41-.81c.47,0,.86-.38,.86-.86s-.38-.86-.86-.86Z"/>
            <path d="M46.81,22.06l-5.26,.34c-.41-.92-1.33-1.56-2.4-1.56-1.46,0-2.63,1.18-2.63,2.63s1.18,2.63,2.63,2.63c1.24,0,2.27-.85,2.56-2l5.1-.33c.47,0,.86-.38,.86-.86s-.38-.86-.86-.86Z"/>
            <path d="M45.93,36.38l-4.36,.28c-.4-.94-1.34-1.6-2.42-1.6-1.46,0-2.63,1.18-2.63,2.63s1.18,2.63,2.63,2.63c1.22,0,2.25-.83,2.54-1.96l4.24-.27c.47,0,.86-.38,.86-.86s-.38-.86-.86-.86Z"/>
            <path d="M50.56,6.24c-1.19,0-2.2,.79-2.52,1.87l-4.53,.29c-.47,0-.86,.38-.86,.86s.38,.86,.86,.86l4.59-.3c.38,.98,1.34,1.68,2.45,1.68,1.46,0,2.63-1.18,2.63-2.63s-1.18-2.63-2.63-2.63Z"/>
            <path d="M50.56,48.88c-1.16,0-2.15,.75-2.5,1.8l-4.94,.32c-.47,0-.86,.38-.86,.86s.38,.86,.86,.86l4.95-.32c.36,1.02,1.34,1.75,2.48,1.75,1.46,0,2.63-1.18,2.63-2.63s-1.18-2.63-2.63-2.63Z"/>
          </g>
          <path d="M169.17,28.29h-.43l-.03-.03c.01-.27,.01-.83,.01-1.08v-.77h-.19c-.16,0-.22,0-.39,0l-.03-.03c0-.12,0-.15,0-.24v-.05l.03-.03h1.6l.03,.03c0,.12-.01,.18-.01,.3l-.02,.03h-.57v.78c0,.4,0,.74,.01,1.06l-.03,.04Zm1.98-.46c.19-.69,.33-1.16,.49-1.74l.03-.03h.61l.03,.03s.03,1.22,.07,2.16l-.02,.03c-.19,0-.26,0-.42,.01l-.03-.03c0-.35,0-1.87,0-1.87l-.55,1.87-.03,.03h-.13c-.08,0-.14,0-.28,0l-.02-.03c-.12-.48-.34-1.18-.5-1.87-.03,1.35-.04,1.57-.04,1.87l-.03,.03c-.17,0-.22,0-.39,0l-.03-.04c.04-.61,.06-.84,.11-2.16l.03-.03h.62l.03,.03c.11,.38,.28,1.03,.45,1.74Z"/>
        </g>
      </g>
    </g>
  </g>
</svg>