<?xml version="1.0" encoding="UTF-8"?>
<svg id="Layer_2" data-name="Layer 2" xmlns="http://www.w3.org/2000/svg" viewBox="0 0 320 117.7">
  <g id="Layer_1-2" data-name="Layer 1">
    <g>
      <g>
        <g>
          <g>
            <path d="M138.87,24.99c1.76,4.69,1.6,11.16,.28,16.39-1.27,5-3.37,9.35-5.61,13.24-9.24,16.08-23.74,26.93-38.18,37.34-.96-1.2-1.55-2.57-2.38-4.13-.33-.61-.77-1.32-1.19-2.1-.33-.6-1.03-1.59-1.05-2.17-.04-.76,1.06-2.37,1.54-3.22,8.35-15.11,16.8-31.06,25.15-45.89,1.96-.12,4.4-.12,6.38,0,.4,1.42,.53,2.99,.7,4.55,.34,3.11,.63,6.35,.98,9.53,.16,1.55,.05,3.16,.7,4.48,1.63-.36,2.67-1.94,3.64-3.22,2.94-3.92,5.29-8.93,5.96-14.99,.98-9.03-4.02-14.73-11.35-16.18-4.38-.88-8.8-.28-12.54,.63-7.65,1.86-13.52,4.75-19.55,8.34-2.18,1.3-4.31,2.57-6.45,4.06-.67,.47-1.49,1.3-2.1,1.33-.6,.04-1.44-.48-2.17-.77-2.07-.81-4.5-1.35-7.36-1.4-3.92-.06-6.98,1.02-9.88,1.68,.42-1,1.49-1.48,2.31-2.1,5.75-4.33,12.33-8.26,19.34-11.42,8.13-3.67,16.96-6.63,28.03-7.15,12.44-.58,21.45,4.31,24.8,13.17Z"/>
            <path d="M129.69,91.76c.23,2.63,.71,5.28,.49,7.64-.61,.33-1.72,.21-2.94,.21-1.03,0-2.39,.15-2.94-.21-.4-.26-.93-1.58-1.26-2.24-2.37-4.72-4.46-9-6.94-13.66-.41-.75-1.12-1.86-1.05-2.38,.09-.71,1.16-.95,1.47-1.47,3.64-3.2,6.96-6.73,10.23-10.3,.82-.71,.84,.72,.91,1.33,.7,7.08,1.39,14.07,2.03,21.09Z"/>
            <path d="M94.8,97.08c.34,.58,.81,1.24,.77,1.96-.51,.74-1.93,.49-3.01,.49-1.17,0-2.5,.18-3.43-.07-.6-.15-1.49-.98-2.17-1.54-7.39-6.05-14.78-12.09-22.21-18.01-2.74-2.18-5.54-4.23-8.06-6.59-.13-1.27-.12-3,0-4.27,5.96-1.59,10.64-4.31,14.64-8.06,1.89-1.77,3.57-3.81,5.04-6.31,1.37-2.34,2.85-5.14,2.59-8.76-.39-5.24-4.51-7.85-10.09-7.85-4.33,0-7.45,1.52-10.65,2.8-.99,.4-2.15,1.24-3.36,.7,.27-.7,1-1.17,1.61-1.61,4.06-2.97,9.6-5.99,16.11-6.38,10.66-.63,16.75,6.06,17.73,15.27,1.14,10.85-4.2,18.09-10.86,21.79,5.04,8.9,10.17,17.6,15.34,26.41Z"/>
            <path d="M80.23,96.8c.65,.54,1.27,.97,1.68,1.61-4.43,1.92-9.19,3.22-14.43,4.13-5.35,.92-11.42,1.21-16.96,.21-10.08-1.82-17.52-7.67-18.43-18.71-.48-5.71,.83-11.23,2.59-15.69,1.79-4.55,4.11-8.37,6.73-11.84,5.25-6.98,11.61-13.31,22.56-14.57,3.18-.36,6.01,.35,7.92,1.82,.42,.33,1.54,1.13,1.47,1.68-.07,.5-1.75,1.25-2.31,1.61-5.44,3.54-10.78,7.77-15.2,11.98-3.94,3.88-7.61,7.85-10.58,12.75-2.72,4.48-5.75,11.95-2.8,17.94,3.71,7.58,15.06,9.34,26.13,7.71,2.38-.35,4.94-.79,7.36-1.4,.81-.2,1.7-.62,2.31-.56,.65,.07,1.44,.9,1.96,1.33Z"/>
          </g>
          <path d="M135.9,92.73c.62,0,1.23,.16,1.82,.48,.59,.32,1.05,.78,1.38,1.37,.33,.59,.5,1.21,.5,1.86s-.16,1.25-.49,1.84c-.33,.59-.78,1.05-1.37,1.37-.59,.33-1.2,.49-1.84,.49s-1.26-.16-1.84-.49c-.59-.33-1.04-.78-1.37-1.37-.33-.59-.49-1.2-.49-1.84s.17-1.26,.5-1.86,.79-1.05,1.39-1.37c.59-.32,1.2-.48,1.82-.48Zm0,.61c-.52,0-1.03,.13-1.52,.4-.49,.27-.88,.65-1.16,1.14-.28,.5-.42,1.01-.42,1.55s.14,1.04,.41,1.53c.27,.49,.65,.87,1.15,1.14,.49,.27,1,.41,1.54,.41s1.04-.14,1.54-.41c.49-.27,.87-.65,1.14-1.14s.41-1,.41-1.53-.14-1.05-.41-1.55-.66-.88-1.16-1.14c-.49-.27-1-.4-1.52-.4Zm-1.62,5.14v-3.98h1.37c.47,0,.81,.04,1.02,.11,.21,.07,.38,.2,.5,.39,.12,.18,.19,.38,.19,.58,0,.29-.1,.54-.31,.76-.21,.22-.48,.34-.83,.36,.14,.06,.25,.13,.34,.21,.16,.16,.36,.42,.59,.79l.49,.78h-.78l-.35-.63c-.28-.49-.5-.8-.67-.93-.12-.09-.29-.14-.52-.14h-.38v1.69h-.64Zm.64-2.24h.78c.37,0,.63-.06,.76-.17s.2-.26,.2-.44c0-.12-.03-.22-.1-.32-.07-.09-.16-.16-.27-.21-.12-.05-.33-.07-.65-.07h-.73v1.2Z"/>
        </g>
        <g>
          <path d="M165.96,54c-1.46,.03-2.91,.08-4.37,.18l-.18-.15c-.95-2.89-1.51-4.62-2.31-6.88-.43,.02-.85,.02-1.28,.02-.55,2.21-1,4.55-1.41,6.78l-.18,.13c-1.11,0-4.22,.08-4.22,.08l-.13-.15c.73-3.01,3.29-13.09,3.89-17.51l.15-.13c1.23,0,4.5-.05,6.48-.05,2.89,0,5.4,.93,5.4,4.4,0,2.76-1.66,4.97-4.75,5.7,2.16,5.35,2.59,6.33,3.01,7.38l-.13,.2Zm-6.45-9.72c2.08,0,3.92-.93,3.92-3.14,0-1.63-1.31-1.83-2.61-1.83-.15,0-.38,.03-1.13,.03-.13,.5-.28,1-1.18,4.95h1Z"/>
          <path d="M176.13,40.49c1.58,0,5.75,.65,5.75,5.4,0,5-2.79,8.51-7.69,8.51s-6-3.14-6-5.48c0-1.66,.68-8.44,7.94-8.44Zm-1.86,11.25c2.66,0,3.44-4.6,3.44-6.4,0-.85-.25-2.19-1.88-2.19-3.01,0-3.44,5.58-3.44,6.35,0,1.71,.93,2.24,1.88,2.24Z"/>
          <path d="M181.93,53.95c.38-1.58,.73-2.86,1.05-4.32l1.21-5.22c.73-3.14,1.48-6.23,1.96-9.42l.2-.18c1.43-.23,2.86-.48,4.29-.73l.13,.18c-.2,.9-.43,1.76-.65,2.64l-1.18,4.7c.45-.3,1.68-1.11,3.32-1.11,3.32,0,4.22,2.94,4.22,4.92,0,2.49-1.16,5.27-3.11,6.86-2.21,1.78-4.82,1.83-7.48,1.83h-1.76c-.68,0-1.36,0-2.03,.02l-.15-.18Zm5.35-2.59c.73,0,2.01-.08,3.12-1.16,1.05-1.03,1.78-2.84,1.78-4.32,0-1.91-1.06-2.44-1.96-2.44s-1.58,.5-1.86,.68l-1.66,7.23h.58Z"/>
          <path d="M205.47,40.49c1.58,0,5.75,.65,5.75,5.4,0,5-2.79,8.51-7.69,8.51s-6-3.14-6-5.48c0-1.66,.68-8.44,7.94-8.44Zm-1.86,11.25c2.66,0,3.44-4.6,3.44-6.4,0-.85-.25-2.19-1.88-2.19-3.01,0-3.44,5.58-3.44,6.35,0,1.71,.93,2.24,1.88,2.24Z"/>
          <path d="M219.03,54.08c-1.05,.25-1.96,.28-2.31,.28-2.86,0-3.77-1.23-3.77-2.94,0-.95,.28-2.13,.83-4.35l.85-3.47h-.28c-.55,0-.95,.03-1.48,.05l-.15-.18c.28-.93,.45-1.61,.7-2.54l.18-.15h1.68c.28-1.18,.48-2.01,.7-3.21l.18-.18c1.53-.35,2.61-.63,4.12-1.08l.15,.18c-.2,.7-.33,1.33-1.11,4.37,.96-.02,1.63-.02,2.59-.08l.1,.2c-.33,.9-.55,1.56-.78,2.51l-.23,.15c-.85-.02-1.46-.02-2.31-.02l-1.05,4.4c-.25,1.06-.48,2.01-.48,2.39,0,.45,.28,1.03,1.26,1.03,.65,0,1.1-.2,1.38-.3l.15,.13c-.3,.98-.48,1.66-.75,2.61l-.18,.2Z"/>
          <path d="M226.89,47.7l-.4,1.86c-.3,1.46-.55,2.91-.8,4.4l-.18,.13c-1.46,0-2.91,.02-4.35,.1l-.13-.18c.58-2.21,1.13-4.47,1.63-6.73l.28-1.23c.35-1.56,.68-3.14,.85-4.7l.18-.18c1.48-.2,2.96-.43,4.42-.7l.15,.2c-.58,2.26-1.16,4.67-1.66,7.03Zm2.91-12.96c-.23,1.13-.53,2.24-.8,3.34l-.2,.2c-1.36,.18-2.71,.38-4.09,.58l-.15-.2c.25-1.1,.5-2.24,.73-3.37l.23-.18c1.36-.18,2.91-.4,4.14-.55l.15,.18Z"/>
          <path d="M238.19,53.78c-.65,.28-1.66,.63-3.17,.63-3.74,0-5.98-2.34-5.98-5.85s1.88-5.9,3.72-7.01c1.76-1.05,3.72-1.05,4.19-1.05,1.13,0,2.69,.25,3.79,1.03l.05,.2c-.35,1.03-.58,1.78-.85,2.86l-.25,.05c-.85-1.21-2.24-1.21-2.41-1.21-2.79,0-3.92,2.86-3.92,4.8,0,1.68,.85,3.19,2.86,3.19,1.33,0,2.08-.55,2.69-1l.23,.13c-.33,1.13-.53,1.93-.8,3.06l-.15,.18Z"/>
          <path d="M241.08,50.18c1.08,1.23,2.39,1.63,3.52,1.63,1.33,0,2.13-.6,2.13-1.46,0-.7-.43-1-1.71-1.66l-.55-.28c-.9-.45-2.61-1.28-2.61-3.42s1.56-4.52,5.75-4.52c2.08,0,3.34,.53,4.27,1l.13,.23c-.33,.98-.53,1.68-.78,2.69l-.23,.05c-1.21-1.43-2.59-1.46-2.99-1.46-1.21,0-1.98,.53-1.98,1.28,0,.58,.48,.95,1.53,1.46l.58,.28c.98,.48,2.89,1.38,2.89,3.74s-1.83,4.67-6.08,4.67c-2.31,0-3.79-.63-4.8-1.26l-.08-.23c.33-.98,.5-1.68,.78-2.69l.23-.08Z"/>
          <path d="M274.44,47.37c-.88,1.13-1.96,2.16-3.14,3.29,.68,1.08,1.36,2.16,2.06,3.24l-.08,.23h-1.46c-1.51,0-1.98,0-2.99,.05l-.2-.15c-.18-.4-.4-.75-.63-1.11-1.53,1-2.96,1.51-4.67,1.51-2.94,0-4.95-1.78-4.95-4.4,0-1.23,.53-2.49,1.41-3.37,.7-.7,1.46-1.16,3.52-2.14-.73-1.33-.98-2.24-.98-3.39,0-2.59,2.01-4.34,5.02-4.34,2.79,0,4.6,1.41,4.6,3.59,0,2.01-1.33,3.19-3.94,4.7,.58,1.05,1.16,2.08,1.78,3.06,1.93-2.06,2.06-2.24,2.81-3.62h.25c.48,.9,1.05,1.76,1.61,2.64l-.02,.2Zm-9.67-.15c-1.66,.88-2.19,1.48-2.19,2.46s.7,1.66,1.73,1.66c.7,0,1.33-.25,2.29-.9-.58-1.08-1.23-2.13-1.83-3.21Zm2.71-8.01c-.78,0-1.43,.65-1.43,1.46,0,.58,.15,1,.7,2.11,1.56-.98,2.03-1.48,2.03-2.31,0-.73-.55-1.26-1.31-1.26Z"/>
        </g>
        <g>
          <path d="M160.46,30.97h-.65c-.75,0-1.31,.02-2.06,.05l-.13-.18c.78-3.16,3.39-14.49,3.89-17.46l.15-.15h.73c.75,0,1.31,0,2.06-.05l.1,.15c-.83,3.32-2.81,11.63-3.89,17.51l-.2,.13Z"/>
          <path d="M175.15,30.99h-5.22c-1.68,0-2.84,0-4.52,.05l-.35,.02-.13-.18c1.71-6.68,3.14-13.84,3.92-17.51l.18-.18h.23c.73,0,1.91,.03,3.01,.03h2.91c1.38,0,2.76-.05,3.69-.05l.15,.15c-.23,.68-.35,1.16-.53,1.86l-.2,.15c-1.53,0-3.64-.08-5.78-.08-.43,0-1.23,.03-1.23,.03l-1.23,5.48c5.02-.02,5.78-.08,6.86-.08l.1,.18c-.2,.65-.33,1.1-.5,1.76l-.23,.18c-.88-.02-4.72-.02-6.66-.02-.4,1.76-.8,3.54-1.36,6.08,1.05,0,6.86-.1,7.53-.1l.13,.13c-.23,.73-.4,1.23-.6,1.96l-.18,.15Z"/>
          <path d="M188.76,30.99h-5.22c-1.68,0-2.84,0-4.52,.05l-.35,.02-.13-.18c1.71-6.68,3.14-13.84,3.92-17.51l.18-.18h.23c.73,0,1.91,.03,3.01,.03h2.91c1.38,0,2.76-.05,3.69-.05l.15,.15c-.23,.68-.35,1.16-.53,1.86l-.2,.15c-1.53,0-3.64-.08-5.78-.08-.43,0-1.23,.03-1.23,.03l-1.23,5.48c5.02-.02,5.78-.08,6.86-.08l.1,.18c-.2,.65-.33,1.1-.5,1.76l-.23,.18c-.88-.02-4.72-.02-6.66-.02-.4,1.76-.8,3.54-1.36,6.08,1.05,0,6.86-.1,7.53-.1l.13,.13c-.23,.73-.4,1.23-.6,1.96l-.18,.15Z"/>
          <path d="M202.38,30.99h-5.22c-1.68,0-2.84,0-4.52,.05l-.35,.02-.13-.18c1.71-6.68,3.14-13.84,3.92-17.51l.18-.18h.23c.73,0,1.91,.03,3.01,.03h2.91c1.38,0,2.76-.05,3.69-.05l.15,.15c-.23,.68-.35,1.16-.53,1.86l-.2,.15c-1.53,0-3.64-.08-5.78-.08-.43,0-1.23,.03-1.23,.03l-1.23,5.48c5.02-.02,5.78-.08,6.86-.08l.1,.18c-.2,.65-.33,1.1-.5,1.76l-.23,.18c-.88-.02-4.72-.02-6.66-.02-.4,1.76-.8,3.54-1.36,6.08,1.05,0,6.86-.1,7.53-.1l.13,.13c-.23,.73-.4,1.23-.6,1.96l-.18,.15Z"/>
        </g>
        <g>
          <path d="M146.7,96.19c.28,.53,1.78,1.93,4.19,1.93,2.94,0,4.19-1.68,4.19-3.21s-.98-2.29-2.84-3.24l-.83-.43c-1.63-.83-3.24-1.78-3.24-4.32s1.73-5.27,6.43-5.27c2.34,0,3.84,.7,4.85,1.38l.08,.2c-.25,.75-.45,1.31-.68,2.08l-.23,.05c-.95-1.23-2.76-1.66-3.84-1.66-2.61,0-3.77,1.46-3.77,2.94,0,1.36,.8,1.91,2.84,2.96l.73,.38c1.63,.85,3.39,2.06,3.39,4.6s-1.93,5.65-6.78,5.65c-2.44,0-4.42-.75-5.25-1.56l-.08-.23c.25-.8,.38-1.38,.58-2.21l.25-.05Z"/>
          <path d="M167.24,86.47c3.11,0,5.37,1.58,5.37,4.92,0,2.64-1.21,8.72-7.13,8.72-1.58,0-5.22-.38-5.22-5.02,0-4.07,2.21-8.62,6.98-8.62Zm-1.71,11.78c3.79,0,4.42-6.13,4.42-6.98,0-2.44-1.48-2.96-2.61-2.96-3.47,0-4.42,5.15-4.42,6.96,0,1.61,.75,2.99,2.61,2.99Z"/>
          <path d="M182.89,99.4c-.88,.5-2.36,.7-3.24,.7-3.24,0-5.47-2.44-5.47-5.63,0-2.08,.9-5.33,3.67-7.01,1.46-.88,2.99-1,3.67-1,1.76,0,3.14,.43,3.89,1l.08,.18c-.28,.73-.43,1.26-.63,1.98l-.25,.08c-.4-.68-1.51-1.26-2.84-1.26-3.14,0-4.85,3.32-4.85,5.83,0,2.94,2.29,3.79,3.49,3.79,.43,0,1.73-.05,3.06-1.21l.2,.1c-.28,.83-.43,1.41-.63,2.26l-.15,.18Z"/>
          <path d="M187.76,99.78c-.98,0-1.68,.03-2.66,.08l-.13-.15c.8-2.91,2.59-11.2,2.71-12.56l.18-.18c1.03-.13,1.73-.23,2.74-.4l.13,.18c-.13-.02-2.21,9.54-2.79,12.91l-.18,.13Zm3.59-16.55c-.98,.13-1.66,.2-2.64,.35l-.15-.2c.2-.85,.35-1.46,.53-2.31l.23-.18c.98-.13,1.66-.2,2.61-.35l.2,.18c-.23,.83-.38,1.46-.58,2.31l-.2,.2Z"/>
          <path d="M201.93,99.1c-.85,.5-2.16,1-4.09,1-4.29,0-5.83-2.56-5.83-5.45,0-4.4,2.69-8.19,7.03-8.19,2.96,0,5.07,1.36,5.07,4.7,0,1.03-.23,1.91-.3,2.29l-.18,.13c-1.31,0-3.69-.03-5.88-.03-1.13,0-1.96,0-3.09,.05-.02,.15-.08,.6-.08,1.08,0,3.29,2.86,3.37,3.77,3.37,2.08,0,3.16-.8,4.14-1.51l.2,.13c-.28,.83-.45,1.41-.65,2.26l-.13,.18Zm-.33-7.31c.1-.58,.13-.83,.13-1.11-.05-2.29-1.93-2.46-2.59-2.46-2.89,0-3.87,2.66-4.14,3.59,0,0,5-.02,6.61-.02Z"/>
          <path d="M210.42,99.75c-.83,.2-1.48,.23-1.81,.23-2.39,0-2.99-1.23-2.99-2.49,0-.95,.53-3.17,1.26-6.2l.63-2.61h-.5c-.48,0-.83,0-1.31,.02l-.13-.18c.18-.58,.3-1.03,.45-1.66l.18-.13c.65,.03,1.08,.03,1.73,.03,.3-1.16,.45-1.98,.68-3.14l.18-.18c.98-.2,1.66-.38,2.61-.63l.13,.15c-.2,.68-.33,1.18-.5,1.86l-.48,1.93c1.03,0,1.73,0,2.74-.05l.13,.18c-.23,.6-.35,1.05-.53,1.66l-.18,.15c-.95-.02-1.63-.02-2.59-.02l-1.36,5.68c-.13,.5-.48,2.06-.48,2.56,0,.8,.58,1.08,1.23,1.08s1.26-.25,1.48-.33l.13,.13c-.2,.65-.35,1.1-.53,1.76l-.18,.2Z"/>
          <path d="M225.71,86.92c-3.01,4.87-10.07,16.7-11.03,18.84l-.2,.15h-1.13c-.5,0-.98,0-1.48,.02l-.08-.18c.73-1.1,3.21-4.95,3.82-6.05-.95-6.25-1.88-12.46-2.01-12.76l.18-.18c.95,0,1.63-.05,2.61-.13l.2,.13c.13,1.38,.2,2.36,.38,3.72l.73,5.93,2.44-4.32c.95-1.68,1.91-3.39,2.81-5.2l.2-.15c.28,.03,.55,.03,.83,.03,.6,0,1.03-.03,1.61-.05l.13,.2Z"/>
        </g>
        <g>
          <path d="M163.87,77c-1.58,0-2.71,.03-4.3,.1l-.15-.18c0-1,0-1.73-.13-4.62h-.55c-.5,0-1.63-.03-2.59-.03h-2.13c-1.33,2.79-1.71,3.52-2.19,4.57l-.18,.15h-1c-1.13,0-1.91,.03-3.01,.08l-.1-.28c2.54-4.47,6.98-12.88,9.32-17.38l.2-.13c2.01-.02,3.44-.05,5.45-.1l.13,.15c.43,6.28,.8,11.18,1.38,17.53l-.15,.13Zm-8.39-7.74c.48,.03,.83,.03,1.31,.03h.6c.68,0,1.38,0,1.83-.03-.13-4.95-.2-7.16-.2-7.16l-3.54,7.16Z"/>
          <path d="M177.44,77c-1.46,0-2.49,.05-3.92,.1l-.13-.18,.3-1.26c-.65,.7-2.29,1.63-3.92,1.63-.95,0-3.52-.35-3.52-3.37,0-.96,.35-2.49,.6-3.57l.58-2.49c.33-1.43,.58-2.44,.8-3.89l.18-.15c1.48-.05,2.51-.1,3.97-.2l.15,.2c-.93,3.99-1.93,7.69-1.93,8.84,0,.53,.18,1.46,1.48,1.46,.98,0,1.81-.63,2.13-.88l1.05-4.87c.3-1.43,.6-2.91,.88-4.4l.2-.15c1.48-.05,2.54-.1,4.04-.2l.13,.2c-.6,2.41-1.03,4.19-1.58,6.68l-.55,2.51c-.3,1.41-.53,2.39-.78,3.82l-.18,.15Z"/>
          <path d="M187.61,77c-1.05,.25-1.96,.28-2.31,.28-2.86,0-3.77-1.23-3.77-2.94,0-.95,.28-2.13,.83-4.34l.85-3.47h-.28c-.55,0-.95,.02-1.48,.05l-.15-.18c.28-.93,.45-1.61,.7-2.54l.18-.15h1.68c.28-1.18,.48-2.01,.7-3.21l.18-.18c1.53-.35,2.61-.63,4.12-1.08l.15,.18c-.2,.7-.33,1.33-1.11,4.37,.96-.02,1.63-.02,2.59-.08l.1,.2c-.33,.9-.55,1.56-.78,2.51l-.23,.15c-.85-.03-1.46-.03-2.31-.03l-1.05,4.4c-.25,1.05-.48,2.01-.48,2.39,0,.45,.28,1.03,1.26,1.03,.65,0,1.1-.2,1.38-.3l.15,.13c-.3,.98-.48,1.66-.75,2.61l-.18,.2Z"/>
          <path d="M198.11,63.42c1.58,0,5.75,.65,5.75,5.4,0,5-2.79,8.51-7.69,8.51s-6-3.14-6-5.48c0-1.66,.68-8.44,7.94-8.44Zm-1.86,11.25c2.66,0,3.44-4.6,3.44-6.4,0-.85-.25-2.18-1.88-2.18-3.01,0-3.44,5.58-3.44,6.35,0,1.71,.93,2.24,1.88,2.24Z"/>
          <path d="M223.9,77c-1.38,0-2.74,.05-4.09,.1l-.13-.18c.33-1.48,1.96-7.79,1.96-8.97,0-.35-.13-1.33-1.28-1.33-.45,0-1.21,.13-2.03,.83-.1,1.63-1.48,7.08-1.86,9.39l-.18,.15c-1.36,.03-2.71,.05-4.04,.1l-.13-.2c.2-1.08,1.88-7.56,1.88-8.97,0-.75-.38-1.31-1.26-1.31-.43,0-1.13,.15-1.86,.8l-.85,3.77c-.4,1.81-.85,3.87-1.18,5.65l-.15,.15c-1.38,0-2.76,.05-4.12,.1l-.13-.18c.93-3.49,2.59-11,2.71-12.68l.18-.15c1.36-.2,2.84-.43,4.22-.7l.15,.18-.33,1.48c1.13-.95,2.61-1.63,4.09-1.63,.9,0,2.06,.3,2.69,1.81,1.78-1.43,3.37-1.78,4.37-1.78,.85,0,3.54,.2,3.54,3.21,0,.4-.1,1.11-.4,2.49l-.53,2.41c-.38,1.76-.73,3.54-1.08,5.3l-.18,.15Z"/>
          <path d="M239.12,77c-1.41,.03-2.39,.03-3.79,.1l-.13-.18,.18-1.11c-.63,.65-1.91,1.46-3.62,1.46-2.99,0-4.17-2.41-4.17-4.82s.85-4.07,1.41-4.95c2.34-3.67,5.95-3.82,8.67-3.82h4.27l.15,.2c-1.88,7.86-2.36,9.92-2.79,12.96l-.18,.15Zm-1.73-10.52c-.23-.03-.38-.03-.78-.03-3.47,0-4.65,3.52-4.65,5.45s.93,2.51,1.98,2.51c.18,0,1.1-.08,1.81-.78,.65-2.44,1.06-4.7,1.63-7.16Z"/>
          <path d="M249.19,77c-1.05,.25-1.96,.28-2.31,.28-2.86,0-3.77-1.23-3.77-2.94,0-.95,.28-2.13,.83-4.34l.85-3.47h-.28c-.55,0-.95,.02-1.48,.05l-.15-.18c.28-.93,.45-1.61,.7-2.54l.18-.15h1.68c.28-1.18,.48-2.01,.7-3.21l.18-.18c1.53-.35,2.61-.63,4.12-1.08l.15,.18c-.2,.7-.33,1.33-1.11,4.37,.95-.02,1.63-.02,2.59-.08l.1,.2c-.33,.9-.55,1.56-.78,2.51l-.23,.15c-.85-.03-1.46-.03-2.31-.03l-1.05,4.4c-.25,1.05-.48,2.01-.48,2.39,0,.45,.28,1.03,1.26,1.03,.65,0,1.1-.2,1.38-.3l.15,.13c-.3,.98-.48,1.66-.75,2.61l-.18,.2Z"/>
          <path d="M257.06,70.62l-.4,1.86c-.3,1.46-.55,2.91-.8,4.4l-.18,.13c-1.46,0-2.91,.03-4.35,.1l-.13-.18c.58-2.21,1.13-4.47,1.63-6.73l.28-1.23c.35-1.56,.68-3.14,.85-4.7l.18-.18c1.48-.2,2.96-.43,4.42-.7l.15,.2c-.58,2.26-1.16,4.67-1.66,7.03Zm2.91-12.96c-.23,1.13-.53,2.24-.8,3.34l-.2,.2c-1.36,.18-2.71,.38-4.09,.58l-.15-.2c.25-1.1,.5-2.24,.73-3.37l.23-.18c1.36-.18,2.91-.4,4.14-.55l.15,.18Z"/>
          <path d="M267.28,63.42c1.58,0,5.75,.65,5.75,5.4,0,5-2.79,8.51-7.69,8.51s-6-3.14-6-5.48c0-1.66,.68-8.44,7.94-8.44Zm-1.86,11.25c2.66,0,3.44-4.6,3.44-6.4,0-.85-.25-2.18-1.88-2.18-3.01,0-3.44,5.58-3.44,6.35,0,1.71,.93,2.24,1.88,2.24Z"/>
          <path d="M280.99,63.54l-.33,1.38c.45-.35,2.01-1.51,3.97-1.51,.98,0,3.37,.38,3.37,3.32,0,1.53-1.78,8.97-1.91,10.15l-.18,.13c-1.38,.03-2.74,.05-4.09,.1l-.1-.18c.58-2.69,1.83-7.51,1.83-8.87,0-.83-.5-1.43-1.38-1.43-.73,0-1.41,.38-1.96,.78-.7,3.14-1.66,7.61-1.98,9.44l-.18,.15c-1.38,0-2.76,.05-4.14,.1l-.1-.18c.45-1.96,2.46-10.1,2.61-12.66l.2-.2c1.51-.2,2.84-.43,4.22-.7l.15,.18Z"/>
        </g>
      </g>
      <rect width="320" height="117.7" style="fill: none;"/>
    </g>
  </g>
</svg>