<?xml version="1.0" encoding="UTF-8"?>
<svg id="Layer_2" data-name="Layer 2" xmlns="http://www.w3.org/2000/svg" viewBox="0 0 320 147.93">
  <g id="Layer_1-2" data-name="Layer 1">
    <g>
      <rect width="320" height="147.93" style="fill: none;"/>
      <g>
        <path d="M86.28,121.67c4.81,1.16,9.78,1.47,14.75,.92,5.36-.59,10.48-2.15,15.21-4.64l1.65,3.14c-5.12,2.69-10.66,4.37-16.46,5.02-5.38,.6-10.76,.26-15.97-.99l.83-3.45Zm-5.29-1.74l-1.33,3.29,1.17-3.35,.16,.06Zm-1.2-.48l-1.36,3.28c-1.13-.47-2.26-.99-3.35-1.55l1.61-3.16c1.01,.52,2.05,1,3.09,1.43m-5.09-2.51c.33,.19,.66,.37,.99,.56l-1.7,3.12c-.36-.19-.72-.39-1.07-.6l1.77-3.07Zm-2.87-1.82l-2.02,2.92c-.34-.23-.67-.47-1-.71l2.09-2.87c.31,.22,.62,.44,.93,.66m-1.84-1.34l-2.17,2.81c-.97-.75-1.92-1.54-2.83-2.36l2.38-2.63c.84,.76,1.72,1.49,2.62,2.18m-3.45-2.95l-2.45,2.56c-.3-.28-.59-.57-.88-.86l2.52-2.5c.27,.27,.54,.53,.81,.8m-3.84-4.18c.24,.29,.48,.59,.72,.88l-2.71,2.29c-.26-.31-.52-.63-.78-.95l2.76-2.22Z"/>
        <path d="M102.13,131.63c-5.07,.56-10.1,.39-15.02-.5-1.48-.27-2.96-.61-4.42-1.01l-2.32-1.94c-18.78-6.25-32.33-23-34.51-42.67-2.09-18.89,6.32-37.01,21.98-47.65l1.99,.07c6.48-4.18,13.37-6.53,21.09-7.38,8.89-.98,17.86,.44,25.96,4.11l1.89-1.08c11.28,5.12,19.67,13.9,24.47,24.69h2.38c-5.29-11.96-14.84-21.85-27.03-27.38l1.21,.57-.47-2.18c-9.06-4.11-19.11-5.71-29.05-4.61-8.64,.96-16.7,3.81-23.95,8.48l-.49,1.75c-16.75,11.38-25.74,30.79-23.5,50.99,2.33,21.04,16.82,38.96,36.91,45.64l3.14-.28c1.51,.41,3.04,.76,4.57,1.04,5.01,.9,10.13,1.07,15.3,.5,14.49-1.6,27.49-9,36.29-20.45l-.06-1.89c-8.61,11.87-21.7,19.54-36.36,21.17"/>
        <path d="M42.83,58.48l-6.62-2.54c-.15,.39-.3,.79-.44,1.18l6.68,2.39c.12-.34,.25-.69,.38-1.03"/>
        <path d="M45.57,52.4l-6.28-3.29c-.58,1.1-1.13,2.23-1.64,3.37l6.46,2.93c.46-1.01,.95-2.02,1.46-3"/>
        <path d="M47.79,48.55l-6.01-3.77c-.66,1.06-1.3,2.15-1.9,3.23l6.22,3.42c.53-.97,1.1-1.94,1.69-2.88"/>
        <path d="M50.31,44.87l-5.7-4.22c-.25,.33-.49,.67-.73,1.01l5.77,4.12c.22-.3,.44-.61,.66-.91"/>
        <path d="M54.59,39.75l-5.16-4.86c-.85,.9-1.69,1.85-2.49,2.81l5.44,4.56c.72-.85,1.46-1.69,2.22-2.5"/>
        <path d="M39.32,73.58l-7.07-.64c-.04,.42-.07,.83-.1,1.25l7.08,.5c.03-.37,.06-.74,.09-1.11"/>
        <path d="M41.41,62.68l-6.8-2.01c-.35,1.2-.67,2.42-.96,3.62l6.91,1.6c.25-1.07,.53-2.15,.85-3.22"/>
        <path d="M40.31,66.99l-6.94-1.47c-.26,1.22-.48,2.46-.67,3.7l7.02,1.05c.16-1.09,.36-2.2,.59-3.28"/>
        <path d="M80.98,23.9l-1.86-6.85c-1.2,.33-2.41,.69-3.59,1.09l2.26,6.72c1.05-.35,2.12-.68,3.19-.97"/>
        <path d="M74.66,26.02l-2.65-6.58c-.39,.16-.78,.32-1.16,.48l2.79,6.52c.34-.14,.68-.29,1.02-.42"/>
        <path d="M39.1,78.03l-7.09-.08c-.02,1.24,0,2.5,.06,3.75l7.09-.33c-.05-1.11-.07-2.23-.06-3.34"/>
        <path d="M85.31,22.9l-1.32-6.97c-1.22,.23-2.46,.5-3.66,.81l1.73,6.88c1.07-.27,2.17-.51,3.26-.72"/>
        <path d="M89.72,22.24l-.78-7.05c-.42,.05-.83,.1-1.24,.15l.92,7.04c.37-.05,.74-.09,1.11-.13"/>
        <path d="M61.18,33.77l-4.34-5.61c-.33,.26-.67,.52-.99,.79l4.47,5.51c.29-.23,.57-.46,.86-.69"/>
        <path d="M70.59,27.85l-3.17-6.35c-1.12,.56-2.23,1.16-3.31,1.78l3.54,6.15c.96-.55,1.95-1.08,2.95-1.58"/>
        <path d="M57.77,36.64l-4.77-5.25c-.92,.84-1.83,1.72-2.7,2.61l5.07,4.96c.78-.79,1.58-1.57,2.41-2.32"/>
        <path d="M66.69,30l-3.66-6.08c-1.07,.64-2.13,1.33-3.16,2.03l4.01,5.85c.92-.63,1.87-1.24,2.81-1.81"/>
        <path d="M41.01,93.45l-6.86,1.82c.32,1.21,.68,2.42,1.07,3.6l6.74-2.22c-.35-1.05-.66-2.12-.95-3.2"/>
        <path d="M128.91,32.39l4.11-5.78c-1.01-.72-2.06-1.42-3.12-2.08l-3.77,6.01c.95,.59,1.88,1.22,2.78,1.86"/>
        <path d="M132.43,35.11l4.55-5.45c-.32-.27-.64-.53-.97-.79l-4.44,5.53c.29,.23,.58,.47,.86,.7"/>
        <path d="M128.83,23.87c-1.07-.64-2.17-1.26-3.27-1.83l-3.28,6.29c.98,.51,1.96,1.06,2.91,1.63l3.65-6.09Z"/>
        <path d="M137.3,39.68l5.15-4.88c-.85-.9-1.75-1.79-2.66-2.65l-4.86,5.17c.81,.76,1.61,1.56,2.37,2.36"/>
        <path d="M122.18,20.4c-.38-.17-.76-.34-1.14-.5l-2.79,6.52c.34,.15,.68,.3,1.02,.45l2.91-6.47Z"/>
        <path d="M39.44,85.04c-.09-.86-.17-1.71-.23-2.56l-7.08,.47c.06,.96,.15,1.91,.25,2.88l.1,.86,7.04-.87-.09-.77Z"/>
        <path d="M112.78,17.03c-1.2-.33-2.43-.62-3.65-.88l-1.46,6.94c1.09,.23,2.18,.49,3.24,.78l1.86-6.85Z"/>
        <path d="M115.15,25.21l2.4-6.68c-1.17-.42-2.38-.81-3.57-1.16l-2,6.81c1.06,.31,2.12,.66,3.17,1.03"/>
        <path d="M140.24,43.03l5.51-4.47c-.79-.97-1.61-1.93-2.45-2.85l-5.24,4.78c.74,.82,1.48,1.67,2.18,2.53"/>
        <path d="M38.54,106.97c.18,.38,.37,.76,.57,1.13l6.3-3.26c-.17-.33-.34-.66-.5-.99l-6.37,3.12Z"/>
        <path d="M105.44,15.48c-.41-.06-.83-.12-1.24-.17l-.9,7.04c.37,.05,.73,.1,1.1,.15l1.04-7.02Z"/>
        <path d="M42.32,97.7l-6.69,2.35c.41,1.17,.86,2.35,1.35,3.5l6.54-2.74c-.43-1.03-.84-2.08-1.2-3.12"/>
        <path d="M40.04,89.1l-6.98,1.28c.08,.41,.15,.82,.24,1.23l6.95-1.42c-.07-.36-.14-.73-.21-1.09"/>
        <path d="M142.91,46.6l5.84-4.03c-.24-.35-.48-.69-.72-1.03l-5.76,4.14c.22,.3,.43,.6,.64,.91"/>
        <path d="M146.35,52.31l6.28-3.3c-.57-1.1-1.2-2.2-1.85-3.27l-6.08,3.66c.58,.96,1.13,1.94,1.64,2.91"/>
        <path d="M100.46,14.94c-1.24-.09-2.5-.14-3.75-.15l-.07,7.1c1.11,.01,2.23,.06,3.34,.13l.49-7.08Z"/>
        <path d="M95.52,21.89l-.07-7.1c-1.24,.01-2.5,.06-3.75,.15l.47,7.08c1.11-.07,2.24-.12,3.34-.13"/>
        <path d="M101.42,126.11c5.8-.64,11.34-2.33,16.46-5.02l-1.65-3.14c-4.73,2.48-9.85,4.04-15.21,4.64-4.97,.55-9.94,.24-14.75-.91l-.83,3.45c5.21,1.25,10.59,1.59,15.97,.99"/>
        <polygon points="80.99 119.93 80.83 119.87 79.66 123.22 80.99 119.93"/>
        <path d="M78.43,122.73l1.36-3.28c-1.05-.43-2.09-.91-3.09-1.43l-1.61,3.16c1.09,.56,2.22,1.08,3.35,1.54"/>
        <path d="M64.09,113.39l2.45-2.56c-.27-.26-.55-.53-.81-.8l-2.52,2.5c.29,.29,.58,.58,.88,.86"/>
        <path d="M67.82,116.59l2.17-2.81c-.9-.69-1.78-1.43-2.62-2.18l-2.38,2.63c.91,.82,1.86,1.61,2.83,2.36"/>
        <path d="M63.43,107.53c-.24-.29-.49-.58-.72-.88l-2.76,2.22c.26,.32,.52,.64,.78,.95l2.71-2.29Z"/>
        <path d="M75.69,117.5c-.33-.18-.66-.37-.99-.56l-1.77,3.07c.35,.21,.71,.41,1.07,.6l1.7-3.12Z"/>
        <path d="M69.81,118.04l2.02-2.92c-.31-.22-.62-.44-.93-.66l-2.09,2.87c.33,.24,.66,.48,1,.71"/>
        <path d="M91.32,34.92c-24.82,2.75-42.77,25.18-40.02,50,.46,4.17,1.49,8.2,3.04,12.04,.11-.07,.22-.14,.34-.21,.24-.13,.49-.22,.74-.29-1.5-3.72-2.49-7.63-2.94-11.67-2.68-24.17,14.81-46.01,38.98-48.69,18.08-2,34.85,7.27,43.28,22.19h1.35c-8.54-15.65-25.96-25.45-44.76-23.36"/>
        <path d="M127.12,111.49c.22,.17,.42,.37,.6,.6,.07,.09,.13,.18,.19,.28,4.4-4.28,7.83-9.34,10.15-14.86l-.04-1.27h-.71c-2.26,5.68-5.7,10.88-10.18,15.25"/>
        <path d="M127.12,111.49c-1.27-1.02-3.11-1.08-4.45-.04-1.57,1.22-1.86,3.48-.64,5.05,1.22,1.57,3.48,1.86,5.05,.64,1.48-1.15,1.82-3.22,.84-4.78-.06-.09-.12-.19-.19-.28-.18-.23-.38-.43-.6-.6"/>
        <path d="M54.34,96.95c-1.5,1.02-2.01,3.03-1.14,4.67,.94,1.75,3.12,2.41,4.88,1.47,1.75-.94,2.41-3.12,1.47-4.87-.81-1.51-2.55-2.21-4.14-1.77-.25,.07-.5,.17-.74,.29-.12,.06-.23,.13-.34,.21"/>
        <path d="M152.55,108.69c1.28-1.13,1.44-2.68,1.44-3.57,0-1.09-.26-2.2-1.03-2.98-1.18-1.24-2.8-1.28-4.84-1.3l-.9,.02-3.89,.04-.11,.09c.04,1.5,.07,2.63,.07,4.49,0,2.7-.06,5.65-.13,8.63l.13,.09c1.63-.08,2.08-.08,3.83-.06l.09-.11c-.04-1.03-.06-1.65-.06-2.44,0-.56,.02-1.13,.02-1.69,1.84,0,3.96,.02,5.37-1.22m-5.35-5.14c1,0,1.39,0,1.8,.15,.92,.32,.92,1.28,.92,1.48,0,.7-.3,1.35-.88,1.67-.47,.26-1.14,.28-1.84,.28v-3.58Z"/>
        <path d="M163.32,108.37c.62-.28,1.35-.62,1.86-1.69,.21-.43,.43-1.09,.43-1.99,0-1.67-.82-2.65-1.31-3.02-1.09-.84-2.8-.83-4.65-.79l-.98,.02h-3.38l-.09,.09c.13,1.75,.21,2.83,.21,5.84,0,2.42-.06,4.84-.09,7.26l.09,.11,3.87-.06,.11-.11c-.11-2.04-.13-2.53-.13-4.79l.62-.02,1.18,2.48,1.01,2.36,.21,.15,3.96-.17,.08-.17-1.28-2.2-1.71-3.32Zm-4.07-1.69l.04-3.12c.22,0,.71-.02,.94-.02,1.11,0,1.52,.64,1.52,1.46,0,1.71-1.8,1.69-2.5,1.67"/>
        <path d="M172.84,114.41c1.61,0,4.05-.37,5.41-2.66,.83-1.41,.92-3.36,.9-4.39-.07-2.85-.9-4.34-1.91-5.31-1.28-1.2-3.13-1.45-4.34-1.45-2.97,0-4.45,1.33-5.25,2.68-.79,1.31-.98,2.89-.98,4.43,0,4.3,2.17,6.7,6.17,6.7m.13-10.98c1.61,0,2.03,1.88,2.04,4.03,.02,1.5-.15,4.07-2.12,4.07s-2.1-2.72-2.1-3.92c0-2.37,.43-4.19,2.18-4.19"/>
        <path d="M192.03,107.41c-1.67,.08-2.06,.08-3.81,.06l-.09,.11c.13,1.5,.15,1.88,.13,3.62-.32,.08-.56,.11-.9,.11-1.3,0-1.84-.64-2.01-.84-.75-.86-.83-2.1-.83-2.8,0-1.24,.28-2.53,1.26-3.32,.51-.41,1.31-.71,2.23-.71,1.43,0,2.27,.58,3.08,1.11l.17-.06,.22-3.12-.06-.13c-.86-.36-2.04-.83-3.94-.83-5.57,0-7.13,3.89-7.13,7.06,0,2.93,1.28,4.62,2.29,5.42,1.05,.84,2.61,1.33,4.82,1.33,1.97,0,3.21-.37,4.54-.77l.08-.15c-.02-.99-.04-1.97-.04-2.96,0-1.09,.02-1.78,.07-3.04l-.09-.09Z"/>
        <path d="M205.36,114.06l.07-.17-1.28-2.2-1.71-3.32c.62-.28,1.35-.62,1.86-1.69,.21-.43,.43-1.09,.43-1.99,0-1.67-.82-2.65-1.31-3.02-1.09-.84-2.8-.83-4.65-.79l-.98,.02h-3.38l-.09,.09c.13,1.75,.21,2.83,.21,5.84,0,2.42-.05,4.84-.09,7.26l.09,.11,3.87-.06,.11-.11c-.11-2.04-.13-2.53-.13-4.79l.62-.02,1.18,2.48,1.01,2.36,.21,.15,3.96-.17Zm-6.98-7.38l.04-3.12c.23,0,.71-.02,.94-.02,1.11,0,1.52,.64,1.52,1.46,0,1.71-1.8,1.69-2.5,1.67"/>
        <path d="M218.74,114.15l.13-.15-3.81-13.06-.13-.09-4.77,.06-.11,.09-4.09,13.02,.09,.13h3.45l.13-.08,.73-3.15h3.66l.71,3.19,.13,.09c.66-.02,1.3-.06,1.93-.06h1.93Zm-7.68-5.93l.49-1.9c.41-1.5,.53-1.93,.75-2.93l.62,2.83,.47,1.99h-2.33Z"/>
        <path d="M230.99,106.49l.69-2.55v2.81l.15,7.34,.09,.11c1.6-.06,2.14-.08,3.68-.06l.11-.11c-.11-2.23-.24-4.47-.36-6.7-.17-3.12-.21-4.11-.26-6.38l-.11-.11-5.09,.06-.13,.08c-.19,.81-.39,1.61-.6,2.42-.36,1.33-.75,2.67-1.09,4-.13,.53-.24,1.03-.38,1.54l-2.08-8.03-.11-.06c-.88,.02-1.76,.04-2.66,.06h-2.53l-.11,.09c-.17,6.25-.24,7.84-.62,13.1l.09,.11,3.13-.06,.13-.11c-.02-.99-.04-1.78-.04-2.76,0-1.6,.04-3.19,.08-4.79l.07-2.66,.88,3.25,.3,1.11c.6,2.25,.79,2.98,1.54,5.91l.13,.11c1.35-.08,1.69-.08,2.93-.06l.15-.11,1.71-6.4,.3-1.15Z"/>
        <path d="M252.74,100.96l-.11-.11-5.09,.06-.13,.07c-.19,.81-.39,1.62-.6,2.42-.36,1.33-.75,2.67-1.09,4-.13,.53-.24,1.03-.38,1.54l-2.08-8.03-.11-.06c-.88,.02-1.76,.04-2.66,.06h-2.53l-.11,.09c-.17,6.25-.24,7.84-.62,13.1l.09,.11,3.13-.06,.13-.11c-.02-.99-.04-1.78-.04-2.76,0-1.6,.04-3.19,.08-4.79l.07-2.66,.88,3.25,.3,1.11c.6,2.25,.79,2.98,1.54,5.91l.13,.11c1.35-.08,1.69-.08,2.93-.06l.15-.11,1.71-6.4,.3-1.15,.69-2.55v2.82l.15,7.34,.09,.11c1.6-.06,2.14-.08,3.68-.06l.11-.11c-.11-2.23-.24-4.47-.36-6.7-.17-3.12-.21-4.11-.26-6.38"/>
        <path d="M260.13,100.94l-.07-.09c-1.84,.08-2.23,.08-4.07,.06l-.09,.09c.08,2.01,.11,3.23,.11,4.88,0,1.07-.02,2.14-.04,3.21-.02,1.67-.04,3.34-.04,5.03l.07,.09c1.86-.08,2.31-.08,4.09-.06l.08-.09c-.08-2.63-.13-5.31-.13-7.96,0-2.16,.04-3.28,.09-5.16"/>
        <path d="M274.56,100.92l-.11-.08-3.06,.06-.08,.09c.1,2.72,.11,3.42,.1,6.91-1.46-2.08-1.86-2.63-2.91-4.05-1.01-1.37-1.24-1.69-2.1-2.95l-.11-.06c-.54,.02-1.09,.04-1.63,.06h-1.67l-.11,.11c.15,3.3,.19,6.61,.19,9.91,0,1.16-.02,1.9-.06,3.19l.11,.09c1.39-.06,1.75-.08,3.15-.06l.09-.11-.26-7.58s2.66,3.57,3.49,4.73c.99,1.37,1.11,1.52,2.12,2.95l.15,.08,2.63-.06,.11-.11c-.04-2.04-.06-3-.06-4.78,0-1.31,.02-7.15,.02-8.33"/>
        <path d="M288,107.5l-.09-.09c-1.67,.08-2.06,.08-3.81,.06l-.09,.11c.13,1.5,.15,1.88,.13,3.62-.32,.08-.56,.11-.9,.11-1.3,0-1.84-.64-2.01-.84-.75-.86-.83-2.1-.83-2.8,0-1.24,.28-2.53,1.26-3.32,.51-.41,1.31-.71,2.23-.71,1.43,0,2.27,.58,3.08,1.11l.17-.06,.23-3.12-.06-.13c-.86-.36-2.05-.82-3.94-.82-5.57,0-7.13,3.89-7.13,7.06,0,2.93,1.28,4.62,2.29,5.42,1.05,.84,2.61,1.33,4.82,1.33,1.97,0,3.21-.37,4.54-.77l.07-.15c-.02-.99-.04-1.97-.04-2.96,0-1.09,.02-1.78,.08-3.04"/>
        <path d="M151.63,130.79c-.69,.28-1.39,.41-2.08,.41-3.17,0-5.27-2.53-5.27-5.8,0-2.74,1.45-5.93,5.18-5.93,1.84,0,2.8,.66,3.34,1.03l.13-.09c.04-.51,.06-.6,.15-1l-.09-.15c-.75-.38-1.63-.83-3.53-.83-4.33,0-6.47,3.49-6.47,6.96,0,3.7,2.16,6.85,6.36,6.85,1.2,0,2.33-.26,3.04-.62,.23-.11,.45-.24,.68-.38l.09-.19c0-.52,.02-.64,.09-1.11l-.15-.09c-.43,.36-.75,.62-1.46,.92"/>
        <path d="M159.69,118.44c-4.43,0-6.1,3.45-6.1,6.87,0,2.16,.56,4.17,2.01,5.54,.94,.9,2.29,1.41,4.07,1.41,3.74,0,5.95-2.7,5.95-6.91,0-3.96-1.8-6.91-5.93-6.91m2.2,12.31c-.54,.3-1.31,.51-2.29,.51-3.9,0-4.75-3.68-4.75-5.93,0-2.4,.94-4.11,1.82-4.9,.69-.6,1.73-.99,3.1-.99,.51,0,2.27,0,3.53,1.71,.98,1.35,1.07,3.49,1.07,4.2,.02,2.46-.84,4.54-2.48,5.4"/>
        <path d="M179.6,118.82l-.13-.15c-.69,.04-.92,.06-1.65,.06l-.13,.09c-.13,.43-.3,.92-.43,1.26-.11,.36-.68,1.95-.79,2.29l-2.89,8.71-2.89-9.44c-.39-1.31-.84-2.74-.86-2.83l-.13-.11c-.79,.04-.92,.04-1.73,.04l-.09,.09c-.04,1.75-.06,2.01-.17,4.32l-.22,4.11c-.06,.75-.09,1.52-.15,2.27-.06,1.07-.09,1.61-.17,2.33l.11,.15c.49-.02,.67-.02,1.03-.02l.11-.13c.02-1.62,.04-1.99,.17-5.35l.3-6.89,2.51,8.24c.36,1.18,.43,1.45,1.13,3.75l.07,.24,.13,.13c.73-.02,.84-.02,1.52,0l.15-.11c.38-1.14,.98-2.98,1.35-4.11l2.76-8.39,.15,8.07c.02,.83,.04,1.5,.04,2.25v2.2l.11,.13c.49-.04,.62-.04,1.15-.04l.09-.13c-.17-2.72-.24-5.44-.3-7l-.15-6.02Z"/>
        <path d="M186.39,118.67l-.66,.02-2.48,.06-.13,.09c.09,1.88,.09,1.99,.13,4.47,0,.88,.06,4.82,.06,5.61,0,1.09-.02,1.78-.04,2.96l.09,.13,1.16-.04,.09-.11c-.08-1.97-.09-2.61-.11-5.27h.43c1.86-.02,3.77-.06,5.05-1.07,.68-.54,1.43-1.54,1.43-3.08,0-1.33-.58-2.21-1.13-2.72-1.11-1.01-2.42-1.03-3.9-1.05m3.13,5.65c-1.03,1.28-2.36,1.28-5.05,1.28v-5.89l.71-.02c.37,0,.73-.02,1.09-.02,1.03,0,2.31,.06,3.1,.81,.3,.26,.79,.88,.79,1.93,0,.7-.19,1.35-.64,1.92"/>
        <path d="M196.39,130.96h-1.63l-.09-5.4h1.78c.64-.02,1.28-.02,1.91-.02,.75,0,1.24,.02,1.99,.04l.17-.09,.04-.84-.11-.11-3.94,.04h-1.86v-4.84l1.07,.02,4.94,.06,.15-.11,.06-.9-.11-.09-2.65,.04h-3.36l-1.31-.02-.11,.11c.11,3.4,.17,6.79,.17,10.19,0,.99-.02,1.71-.04,2.91l.13,.13,1.52-.08h5.72l.08-.06,.07-.92-.07-.11-4.5,.08Z"/>
        <path d="M207.89,118.73h-4.45l-1.93-.06-.13,.09-.07,.92,.13,.11,3.98-.08c.02,2.08,.04,4.19,.04,6.29,0,1.95-.02,3.92-.04,5.87l.13,.11,1.13-.02,.11-.13c-.13-5.27-.15-6.64-.15-12.14,2.05,0,2.48,.04,3.87,.09l.11-.09,.08-.94-.11-.09-2.68,.06Z"/>
        <path d="M213.47,118.8l-.11-.11-1.16,.04-.11,.09c.13,3.17,.17,7.58,.17,10.04,0,1.2-.02,1.95-.04,3.02l.11,.11,1.16-.02,.11-.11c-.09-3.57-.15-5.44-.15-8.67,0-1.46,.02-2.93,.02-4.39"/>
        <path d="M221.57,118.73h-4.45l-1.93-.06-.13,.09-.07,.92,.13,.11,3.98-.08c.02,2.08,.04,4.19,.04,6.29,0,1.95-.02,3.92-.04,5.87l.13,.11,1.13-.02,.11-.13c-.13-5.27-.15-6.64-.15-12.14,2.05,0,2.48,.04,3.87,.09l.11-.09,.07-.94-.11-.09-2.68,.06Z"/>
        <path d="M226.77,118.8l-.11-.11-1.16,.04-.11,.09c.13,3.17,.17,7.58,.17,10.04,0,1.2-.02,1.95-.04,3.02l.11,.11,1.16-.02,.11-.11c-.09-3.57-.15-5.44-.15-8.67,0-1.46,.02-2.93,.02-4.39"/>
        <path d="M235.22,118.44c-4.43,0-6.1,3.45-6.1,6.87,0,2.16,.56,4.17,2.01,5.54,.94,.9,2.29,1.41,4.07,1.41,3.73,0,5.95-2.7,5.95-6.91,0-3.96-1.8-6.91-5.93-6.91m2.2,12.31c-.55,.3-1.31,.51-2.29,.51-3.9,0-4.75-3.68-4.75-5.93,0-2.4,.94-4.11,1.82-4.9,.7-.6,1.73-.99,3.1-.99,.51,0,2.27,0,3.53,1.71,.98,1.35,1.07,3.49,1.07,4.2,.02,2.46-.84,4.54-2.48,5.4"/>
        <path d="M252.95,118.76l-.11-.09-.99,.04-.09,.09c.15,4.82,.17,6.34,.21,12.22l-3.92-6.96c-.92-1.56-1.65-2.8-2.23-3.81-.47-.83-.49-.86-.86-1.46l-.17-.11-1.65,.04-.11,.11c.09,3.66,.15,5.78,.15,8.86,0,1.41-.02,2.8-.02,4.2l.11,.11,1-.02,.11-.13c-.09-2.93-.11-3.32-.13-6.61-.02-1.86-.04-3.72-.06-5.57l5.2,9.21c1.03,1.78,1.48,2.55,1.78,3.02l.15,.09,1.67-.04,.11-.11c-.13-3.1-.17-6.96-.17-10.12,0-1.2,.02-1.99,.04-2.97"/>
        <path d="M69.03,69.55l-.13-.17c-3.26,.13-3.96,.13-7.23,.1l-.17,.17c.13,3.56,.2,5.73,.2,8.66,0,1.9-.03,3.8-.07,5.7-.03,2.96-.07,5.93-.07,8.92l.13,.17c3.3-.13,4.1-.13,7.26-.1l.13-.17c-.13-4.66-.23-9.42-.23-14.12,0-3.83,.07-5.83,.17-9.16"/>
        <path d="M81.21,87.86v-4.6h6.93l.23-.2,.27-4.36-.2-.23-7.29,.13v-4.23h7.69l.2-.17,.23-4.6-.17-.13h-14.99l-.2,.2c.17,3.4,.23,4.76,.23,12.75,0,4.53-.03,6.59-.13,10.42l.17,.23c3.16-.07,5.06-.13,8.73-.13,1,0,1.76,.03,6.33,.03l.3-.2,.33-4.93-.2-.2c-3.43,.13-5.86,.2-8.46,.2"/>
        <path d="M100.63,87.86v-4.6h6.93l.23-.2,.27-4.36-.2-.23-7.29,.13v-4.23h7.69l.2-.17,.23-4.6-.17-.13h-14.99l-.2,.2c.17,3.4,.23,4.76,.23,12.75,0,4.53-.03,6.59-.13,10.42l.17,.23c3.16-.07,5.06-.13,8.72-.13,1,0,1.77,.03,6.33,.03l.3-.2,.33-4.93-.2-.2c-3.43,.13-5.86,.2-8.46,.2"/>
        <path d="M167.72,68.61l-4.92,.1h-8.16l-3.54-.1-.04,.03,1.27-1.62c1.16-1.43,2.94-3.79,4.1-5.17l-.18-.45c-3.3,.13-4.19,.13-7.04,.09l-.36,.31c-.49,.71-.98,1.47-1.47,2.18-.76,1.11-4.24,5.88-4.9,6.87l-2.59-9.23-.27-.31-7.98,.31-.27,.36,2.67,7.22,2.76,7.53-7.85,9.98-.77,.96c-3.18,.12-5.52,.18-7.99,.18v-4.6h6.93l.23-.2,.27-4.36-.2-.23-7.29,.13v-4.23h7.69l.2-.17,.23-4.6-.17-.13h-14.99l-.2,.2c.17,3.4,.23,4.76,.23,12.75,0,4.53-.03,6.59-.13,10.42l.17,.23c.16,0,.31,0,.47-.01h0c2.75-.05,4.4-.11,7.58-.11,.87,0,1.53,.03,5.5,.03h0c.43,0,.81-.01,1.2-.01,.1,0,.19,0,.29,0h0c.99,0,2.01,0,3.58,.01l.36-.22c1.34-1.96,1.83-2.72,3.48-4.99l3.43-4.64,1.6,5.26,1.34,4.46,.31,.27c3.16-.13,4.15-.18,7.93-.13l.27-.4c-1.52-3.79-1.74-4.41-3.08-7.89l-2.9-7.8,4.9-6.25,8.78-.13c.03,3.82,.07,7.67,.07,11.53,0,3.58-.03,7.19-.07,10.77l.24,.21,2.07-.03,.21-.24c-.24-9.67-.28-12.18-.28-22.26,3.75,0,4.54,.07,7.09,.17l.21-.17,.14-1.72-.21-.17Z"/>
        <path d="M171.43,92.83l.21,.21,2.1-.03,.21-.21c-.21-4.78-.21-6.09-.24-10.87l3.13-.03c.45,.55,.65,.79,3.13,4.09,3.1,4.13,3.44,4.58,5.09,6.88l.34,.21c.45-.03,.86-.07,1.31-.1h1.14l.14-.31c-.58-.72-3.17-4.03-3.68-4.71-.79-1-1.55-2-2.34-3.03l-2.51-3.3c1.51-.21,3.41-.52,5.02-2.2,1-1,1.82-2.61,1.82-4.47,0-.58-.1-4.51-3.99-5.88-1.44-.48-3.06-.52-5.95-.48l-4.95,.1-.21,.21c.24,6.16,.31,12.35,.31,18.55,0,1.96,0,3.03-.07,5.4m2.24-22.33c1.51-.03,2.75-.1,4.06-.1,1.93,0,6.3,0,6.3,4.58,0,2.93-1.89,3.99-2.99,4.44-1.55,.62-3.13,.69-7.36,.72v-9.63Z"/>
        <path d="M191.49,92.9l.24,.24,2.79-.14h10.5l.14-.1,.14-1.69-.14-.21-8.26,.14h-2.99l-.17-9.91h3.27c1.17-.03,2.34-.03,3.51-.03,1.38,0,2.27,.03,3.65,.07l.31-.17,.07-1.55-.21-.21-7.23,.07h-3.41v-8.88l1.96,.03,9.05,.1,.28-.21,.1-1.65-.21-.17-4.85,.07h-6.16l-2.41-.03-.21,.21c.21,6.23,.31,12.46,.31,18.68,0,1.82-.03,3.13-.07,5.33"/>
        <path d="M211.37,93.01l.21-.24c.03-2.96,.07-3.65,.31-9.81l.55-12.63,4.61,15.11c.65,2.17,.79,2.65,2.06,6.88l.14,.45,.24,.24c1.34-.03,1.55-.03,2.79,0l.27-.21c.69-2.1,1.79-5.47,2.48-7.54l5.06-15.38,.28,14.8c.03,1.51,.07,2.75,.07,4.13v4.03l.21,.24c.9-.07,1.14-.07,2.1-.07l.17-.24c-.31-4.99-.45-9.98-.55-12.83l-.28-11.04-.24-.27c-1.27,.07-1.69,.1-3.03,.1l-.24,.17c-.24,.79-.55,1.69-.79,2.31-.21,.65-1.24,3.58-1.44,4.2l-5.3,15.97-5.3-17.31c-.72-2.41-1.55-5.02-1.58-5.2l-.24-.21c-1.44,.07-1.69,.07-3.17,.07l-.17,.17c-.07,3.2-.1,3.68-.31,7.92l-.41,7.54c-.1,1.38-.17,2.79-.28,4.16-.1,1.96-.17,2.96-.31,4.27l.21,.27c.89-.04,1.24-.04,1.89-.04"/>
        <path d="M238.79,92.9l.24,.24,2.79-.14h10.49l.14-.1,.14-1.69-.14-.21-8.26,.14h-2.99l-.17-9.91h3.27c1.17-.03,2.34-.03,3.51-.03,1.38,0,2.27,.03,3.65,.07l.31-.17,.07-1.55-.21-.21-7.23,.07h-3.41v-8.88l1.96,.03,9.05,.1,.28-.21,.1-1.65-.21-.17-4.85,.07h-6.16l-2.41-.03-.21,.21c.21,6.23,.31,12.46,.31,18.68,0,1.82-.03,3.13-.07,5.33"/>
      </g>
    </g>
  </g>
</svg>