<?xml version="1.0" encoding="UTF-8"?>
<svg id="Layer_2" data-name="Layer 2" xmlns="http://www.w3.org/2000/svg" viewBox="0 0 320 182.12">
  <g id="Layer_1-2" data-name="Layer 1">
    <g>
      <rect width="320" height="182.12" style="fill: none;"/>
      <g>
        <path d="M45.07,109.7l-4.53,8.73c.63,.04,1.17,.04,1.72,.04h1.72c.66,0,1.11,0,1.75-.04l-.65-8.73Zm3.97,16.38c-1.01,0-1.72,.03-2.71,.05l-.15-.15c-.08-1.18-.1-2.03-.2-3.21l-.18-2.23c-.63-.03-1.87-.03-2.51-.03h-1.37c-.68,0-1.34,0-2.43,.03l-.99,1.93c-.61,1.18-1.01,2.03-1.59,3.21l-.1,.23-.2,.16c-.96,0-1.64,0-2.63,.03l-.1-.23c.46-.87,7.29-13.14,9.67-17.82l.2-.1c1.32-.03,2.58-.07,3.54-.07l.15,.12c.1,2.16,1.04,11.89,1.75,17.95l-.15,.16Z"/>
        <path d="M61.45,114.65c-.2-.05-.63-.08-1.17-.08-3.44,0-5.13,1.52-6.05,3.46-.18,.39-.63,1.52-.63,2.75,0,1.9,1.04,3.42,3.14,3.42,.61,0,2.23-.46,2.88-1.28l1.82-8.27Zm.08,11.37c-.89,0-1.49,.03-2.38,.08l-.1-.18,.2-.97c-.81,.59-1.87,1.3-3.64,1.3-3.04,0-4.78-2.31-4.78-5.13,0-1.41,.48-3.26,1.34-4.67,2.13-3.41,5.47-3.86,8.02-3.86,.63,0,1.09,.03,1.72,.08,.89-4.19,1.06-5.08,1.24-6.37l.2-.18c1.02-.15,1.7-.28,2.71-.46l.13,.16c-1.14,4.34-3.82,16.33-4.45,20.05l-.2,.16Z"/>
        <path d="M70.78,126.05c-1.09,.03-1.85,.05-2.94,.1l-.23-.16c-.18-2.39-1.14-10.27-1.47-13.01l.15-.18c.96,0,1.64-.05,2.58-.13l.18,.15c.1,1.46,.15,2.49,.28,3.95l.61,7.16c4.28-8.42,4.83-9.5,5.59-11.09l.23-.1h.96c.5,0,.86,0,1.37-.03l.12,.18c-.76,1.33-1.72,2.92-2.5,4.36l-2.13,3.87c-.91,1.64-1.72,3.09-2.58,4.78l-.23,.13Z"/>
        <path d="M83.23,124.23c.78,0,2.05-.37,2.94-1.29,.63-2.62,1.14-5.31,1.82-8.27-.3,0-.68-.05-1.09-.05-2.43,0-4.88,.77-6.15,3.82-.15,.36-.56,1.39-.56,2.59,0,1.83,1.06,3.19,3.04,3.19m4.88,1.85h-.66c-.63,0-1.09,.03-1.72,.05l-.13-.15,.18-1.02c-1.19,.97-2.45,1.28-3.7,1.28-2.99,0-4.68-2.26-4.68-5.01,0-1.9,.81-3.67,1.19-4.34,2.1-3.75,5.84-4.18,8.5-4.18,1.19,0,3.77,.05,3.77,.05l.13,.18c-2.05,9.06-2.38,10.52-2.71,12.99l-.18,.16Z"/>
        <path d="M102.74,126.08c-.96,0-1.62,.03-2.58,.08l-.1-.18c.35-1.72,.71-2.88,1.06-4.57l.61-2.93c.08-.38,.28-1.2,.28-1.9,0-1.9-1.64-1.98-2.15-1.98-1.54,0-2.76,.93-3.34,1.36-.71,3.31-1.44,6.62-2.05,9.96l-.18,.16c-.96,0-1.62,.03-2.58,.08l-.13-.18c.84-3.39,2.43-10.53,2.66-12.84l.18-.18c.99-.13,1.69-.26,2.68-.46l.13,.18-.35,1.31c1.85-1.43,3.67-1.57,4.25-1.57,.76,0,3.67,.13,3.67,3.41,0,.85-.33,2.57-.83,4.96l-.38,1.82c-.25,1.23-.48,2.08-.63,3.31l-.2,.16Z"/>
        <path d="M115.63,125.67c-.89,.51-2.38,.72-3.27,.72-3.26,0-5.52-2.49-5.52-5.75,0-2.13,.91-5.44,3.7-7.16,1.47-.9,3.01-1.03,3.7-1.03,1.77,0,3.16,.44,3.92,1.03l.08,.18c-.28,.74-.43,1.28-.63,2.03l-.25,.08c-.41-.69-1.52-1.28-2.86-1.28-3.16,0-4.88,3.39-4.88,5.96,0,3,2.3,3.88,3.52,3.88,.43,0,1.75-.05,3.09-1.23l.2,.1c-.28,.85-.43,1.44-.63,2.31l-.15,.18Z"/>
        <path d="M124.03,109.13c-.99,.13-1.67,.21-2.66,.36l-.15-.21c.2-.87,.35-1.49,.53-2.36l.23-.18c.99-.13,1.67-.21,2.63-.36l.2,.18c-.22,.85-.38,1.49-.58,2.36l-.2,.2Zm-3.62,16.92c-.99,0-1.7,.03-2.68,.08l-.13-.15c.81-2.98,2.61-11.45,2.73-12.84l.18-.18c1.04-.13,1.75-.23,2.76-.41l.13,.18c-.13-.03-2.23,9.75-2.81,13.19l-.18,.13Z"/>
        <path d="M135.04,126.08c-.96,0-1.62,.03-2.58,.08l-.1-.18c.35-1.72,.71-2.88,1.06-4.57l.61-2.93c.07-.38,.28-1.2,.28-1.9,0-1.9-1.65-1.98-2.15-1.98-1.54,0-2.76,.93-3.34,1.36-.71,3.31-1.44,6.62-2.05,9.96l-.18,.16c-.96,0-1.62,.03-2.58,.08l-.13-.18c.84-3.39,2.43-10.53,2.66-12.84l.18-.18c.99-.13,1.7-.26,2.68-.46l.13,.18-.35,1.31c1.85-1.43,3.67-1.57,4.25-1.57,.76,0,3.67,.13,3.67,3.41,0,.85-.33,2.57-.84,4.96l-.38,1.82c-.25,1.23-.48,2.08-.63,3.31l-.2,.16Z"/>
        <path d="M149.59,114.73s-.76-.02-.99-.02c-2.28,0-4.73,.41-6.12,3.41-.61,1.34-.68,2.39-.68,2.95,0,2.67,1.7,3.29,2.96,3.29,1.39,0,2.41-.72,2.96-1.26l1.87-8.37Zm3.11-1.85c-.71,2.9-1.34,5.55-1.95,8.44l-.71,3.39c-.89,4.26-1.62,7.85-7.16,7.85-1.52,0-3.79-.36-5.21-1.92v-.21c.38-.59,.63-1.02,1.01-1.64h.2c.68,.9,1.95,1.82,3.82,1.82,3.77,0,4.07-3.54,4.35-4.42l.25-1.05c-1.67,1.18-3.16,1.21-3.72,1.21-2.99,0-4.56-2.31-4.56-4.98,0-.64,.1-2.82,1.44-4.93,2.38-3.72,6.18-3.72,9.08-3.72,1.27,0,3.04-.05,3.04-.05l.1,.2Z"/>
        <path d="M166.7,126.08c-.99,0-1.67,.03-2.68,.05l-.13-.15c.61-2.52,3.44-14.45,3.67-15.89-2.79,.03-4,.08-5.19,.1l-.13-.16c.23-.74,.38-1.25,.56-2l.2-.13c1.16,.03,3.01,.05,4.53,.05s6.65-.03,8.17-.08l.13,.15c-.2,.67-.36,1.26-.56,2l-.17,.13c-1.02-.08-2.51-.08-4.73-.1-.5,1.75-.71,3.03-1.11,4.83l-1.29,5.85c-.38,1.74-.74,3.39-1.06,5.18l-.2,.16Z"/>
        <path d="M181.74,117.89c.1-.59,.13-.85,.13-1.13-.05-2.34-1.95-2.52-2.61-2.52-2.91,0-3.9,2.73-4.17,3.68,0,0,5.03-.03,6.65-.03m.33,7.47c-.86,.51-2.18,1.03-4.13,1.03-4.33,0-5.87-2.62-5.87-5.57,0-4.49,2.71-8.37,7.09-8.37,2.99,0,5.11,1.38,5.11,4.8,0,1.05-.22,1.95-.31,2.34l-.17,.12c-1.32,0-3.72-.02-5.92-.02-1.14,0-1.98,0-3.12,.05-.03,.15-.08,.61-.08,1.1,0,3.36,2.88,3.44,3.8,3.44,2.1,0,3.19-.83,4.18-1.54l.2,.13c-.28,.85-.46,1.44-.65,2.31l-.13,.18Z"/>
        <path d="M194.39,125.67c-.89,.51-2.38,.72-3.26,.72-3.27,0-5.52-2.49-5.52-5.75,0-2.13,.91-5.44,3.7-7.16,1.47-.9,3.01-1.03,3.7-1.03,1.77,0,3.16,.44,3.92,1.03l.08,.18c-.28,.74-.43,1.28-.63,2.03l-.25,.08c-.41-.69-1.52-1.28-2.86-1.28-3.16,0-4.89,3.39-4.89,5.96,0,3,2.3,3.88,3.52,3.88,.43,0,1.74-.05,3.08-1.23l.2,.1c-.28,.85-.43,1.44-.63,2.31l-.15,.18Z"/>
        <path d="M207.6,126.08c-.96,0-1.64,.03-2.58,.05l-.13-.15c.23-.93,.5-2.03,.71-2.95l.73-3.24c.15-.69,.58-2.67,.58-3.36,0-1.8-1.57-1.87-2.02-1.87-1.57,0-3.06,1.05-3.49,1.43l-1.01,4.57c-.41,1.79-.71,3.52-1.06,5.34l-.18,.16c-.93,0-1.62,.03-2.56,.05l-.15-.15c.35-1.64,3.82-15.82,4.2-19.67l.2-.15c1.01-.15,1.75-.26,2.76-.46l.12,.18c-.71,2.7-1.27,5.39-1.93,8.11,.79-.54,2.28-1.52,4.38-1.52,.65,0,3.49,.15,3.49,3.24,0,1.13-.25,2.31-.46,3.23l-.68,3.1c-.28,1.28-.53,2.62-.76,3.9l-.18,.16Z"/>
        <path d="M222.23,126.08c-.96,0-1.62,.03-2.58,.08l-.1-.18c.35-1.72,.71-2.88,1.06-4.57l.61-2.93c.08-.38,.28-1.2,.28-1.9,0-1.9-1.65-1.98-2.15-1.98-1.54,0-2.76,.93-3.34,1.36-.71,3.31-1.44,6.62-2.05,9.96l-.18,.16c-.96,0-1.62,.03-2.58,.08l-.13-.18c.83-3.39,2.43-10.53,2.65-12.84l.18-.18c.99-.13,1.7-.26,2.69-.46l.13,.18-.35,1.31c1.85-1.43,3.67-1.57,4.25-1.57,.76,0,3.67,.13,3.67,3.41,0,.85-.33,2.57-.84,4.96l-.38,1.82c-.25,1.23-.48,2.08-.63,3.31l-.2,.16Z"/>
        <path d="M231.59,124.49c3.82,0,4.46-6.27,4.46-7.14,0-2.49-1.5-3.03-2.63-3.03-3.49,0-4.45,5.27-4.45,7.11,0,1.64,.76,3.05,2.63,3.05m1.72-12.04c3.14,0,5.41,1.62,5.41,5.04,0,2.69-1.21,8.9-7.19,8.9-1.59,0-5.26-.39-5.26-5.13,0-4.16,2.23-8.81,7.04-8.81"/>
        <path d="M242.62,126.08c-.94,.03-1.62,.03-2.58,.08l-.1-.16c.38-2.08,3.08-13.32,3.97-19.71l.18-.18c1.04-.15,1.75-.28,2.79-.48l.12,.15c-1.27,5.55-3.82,17.79-4.17,20.15l-.2,.16Z"/>
        <path d="M251.88,124.49c3.83,0,4.46-6.27,4.46-7.14,0-2.49-1.5-3.03-2.63-3.03-3.49,0-4.45,5.27-4.45,7.11,0,1.64,.76,3.05,2.63,3.05m1.72-12.04c3.14,0,5.42,1.62,5.42,5.04,0,2.69-1.22,8.9-7.19,8.9-1.6,0-5.26-.39-5.26-5.13,0-4.16,2.23-8.81,7.04-8.81"/>
        <path d="M271.17,114.73s-.76-.02-.98-.02c-2.28,0-4.73,.41-6.12,3.41-.61,1.34-.69,2.39-.69,2.95,0,2.67,1.7,3.29,2.97,3.29,1.39,0,2.4-.72,2.96-1.26l1.87-8.37Zm3.11-1.85c-.71,2.9-1.34,5.55-1.95,8.44l-.7,3.39c-.89,4.26-1.62,7.85-7.17,7.85-1.52,0-3.79-.36-5.21-1.92v-.21c.38-.59,.63-1.02,1.01-1.64h.2c.69,.9,1.95,1.82,3.82,1.82,3.77,0,4.08-3.54,4.36-4.42l.25-1.05c-1.67,1.18-3.16,1.21-3.72,1.21-2.99,0-4.56-2.31-4.56-4.98,0-.64,.1-2.82,1.44-4.93,2.38-3.72,6.18-3.72,9.09-3.72,1.26,0,3.03-.05,3.03-.05l.1,.2Z"/>
        <path d="M288,112.91c-3.04,4.98-10.15,17.07-11.11,19.25l-.2,.15h-1.14c-.5,0-.98,0-1.49,.03l-.08-.18c.73-1.13,3.24-5.06,3.85-6.19-.97-6.39-1.9-12.73-2.03-13.04l.18-.18c.96,0,1.64-.05,2.63-.13l.2,.13c.13,1.42,.2,2.41,.38,3.8l.73,6.06,2.46-4.42c.95-1.72,1.92-3.47,2.83-5.31l.2-.15c.28,.02,.56,.02,.84,.02,.6,0,1.04-.02,1.62-.05l.13,.21Z"/>
        <path d="M128.07,157.65c-.96,.03-1.62,.05-2.56,.1l-.13-.16c.89-4.18,.38-1.72,2.45-11.32-.48,0-1.21,.03-1.92,.03l-.15-.15c.18-.64,.3-1.08,.46-1.72l.2-.18c.66,.05,1.14,.08,1.79,.08l.38-1.85c.56-2.75,1.04-5.06,4.58-5.06,.89,0,1.47,.16,1.85,.23l.13,.2c-.18,.64-.3,1.1-.46,1.75l-.2,.16c-.18-.03-.53-.18-.99-.18-1.6,0-1.85,1.05-2.3,3.1l-.35,1.64h.43c.74,0,1.24,0,1.97-.03l.13,.21c-.18,.51-.3,1.03-.48,1.64l-.2,.18c-.81-.03-1.39-.05-2.23-.05-.81,4.08-1.64,7.22-2.23,11.22l-.18,.15Z"/>
        <path d="M138.15,156.06c3.82,0,4.45-6.27,4.45-7.14,0-2.49-1.49-3.03-2.63-3.03-3.49,0-4.46,5.26-4.46,7.11,0,1.64,.76,3.05,2.63,3.05m1.72-12.04c3.14,0,5.42,1.62,5.42,5.03,0,2.69-1.21,8.91-7.19,8.91-1.59,0-5.26-.38-5.26-5.13,0-4.16,2.23-8.81,7.04-8.81"/>
        <path d="M149.05,157.65c-.99,0-1.67,.03-2.63,.05l-.12-.16c1.06-4.03,2.5-10.65,2.76-12.84l.18-.18c1.02-.13,1.75-.23,2.73-.44l.13,.18c-.2,.74-.35,1.41-.56,2.26,.38-.64,1.49-2.54,3.29-2.54,.56,0,.91,.13,1.17,.29l.08,.23c-.38,.92-.63,1.57-.99,2.51l-.25,.08c-.18-.13-.58-.36-1.06-.36-.68,0-2.25,.36-3.04,3.7-.23,.98-1.24,5.39-1.47,7.04l-.2,.18Z"/>
        <path d="M176.54,157.62c-.74,0-1.72,.05-2.73,.05l-.1-.13c.76-3.18,1.29-5.41,1.97-8.63-.96-.02-1.64-.02-2.58-.02h-2.66c-1.11,0-1.9,0-3.03,.08-.68,2.82-1.22,5.7-1.8,8.52l-.18,.15c-1.01,0-1.72,0-2.71,.05l-.13-.18c.28-1.16,3.39-14.66,3.95-17.87l.18-.15c1.01,0,1.72-.03,2.71-.05l.12,.15c-.73,3.08-.65,2.6-1.64,7.16,.1,0,1.04,.03,1.72,.03,2.25,0,4.81-.03,6.53-.08,.89-4.11,1.19-5.62,1.47-7.06l.18-.15c1.02,0,1.72-.03,2.73-.05l.1,.15c-1.59,6.93-3.34,14.69-3.92,17.87l-.17,.15Z"/>
        <path d="M191.26,157.62c-.91,.03-1.57,.05-2.48,.1l-.13-.18,.3-1.23c-1.32,1.1-2.78,1.59-4.12,1.59-3.09,0-3.77-2.13-3.77-3.52,0-.92,.2-1.9,.65-3.93l.53-2.39c.25-1.13,.46-1.92,.74-3.54l.18-.18c.93,0,1.59-.05,2.53-.1l.12,.16c-.93,3.9-1.97,7.98-1.97,9.14,0,.74,.2,2.21,2.18,2.21,1.14,0,2.28-.49,3.37-1.49,1.32-6,1.9-8.91,2.02-9.72l.2-.16c.94-.03,1.6-.08,2.56-.13l.1,.18c-.78,3-2.58,11.3-2.84,13.04l-.18,.15Z"/>
        <path d="M213.38,157.65c-.91,0-1.57,.03-2.48,.05l-.15-.18c.38-1.49,.73-3.05,1.08-4.57l.46-1.98c.35-1.54,.5-2.52,.5-3,0-1.72-1.47-1.77-1.9-1.77-1.57,0-2.83,.93-3.39,1.41-.03,.51-.18,1.77-.53,3.36l-.58,2.7c-.28,1.31-.54,2.51-.76,3.83l-.18,.15c-.93,0-1.6,.03-2.53,.05l-.13-.2c.41-1.57,1.95-7.88,1.95-9.47,0-1.7-1.42-1.83-1.9-1.83-1.36,0-2.61,.95-3.06,1.36l-.84,3.83c-.48,2.26-.83,3.82-1.22,6.11l-.17,.13c-.96,.03-1.62,.03-2.56,.08l-.15-.18c.98-3.77,2.45-10.71,2.71-12.84l.15-.15c1.02-.13,1.72-.26,2.69-.44l.15,.18-.33,1.31c.71-.62,2.35-1.57,4.33-1.57,.58,0,2.12,.18,2.75,1.88,2.1-1.7,4.1-1.88,4.78-1.88,1.85,0,3.44,1.03,3.44,3.13,0,.87-.2,1.82-.43,2.85l-.44,1.94c-.45,2.03-.68,3.49-1.11,5.55l-.18,.15Z"/>
        <path d="M223.15,155.8c.78,0,2.05-.36,2.93-1.28,.63-2.62,1.14-5.31,1.83-8.26-.31,0-.69-.05-1.09-.05-2.43,0-4.88,.77-6.15,3.83-.15,.36-.56,1.39-.56,2.6,0,1.82,1.06,3.18,3.04,3.18m4.88,1.85h-.66c-.63,0-1.09,.03-1.72,.05l-.13-.16,.18-1.03c-1.19,.98-2.45,1.28-3.7,1.28-2.99,0-4.68-2.26-4.68-5.01,0-1.9,.81-3.67,1.19-4.34,2.1-3.75,5.85-4.18,8.5-4.18,1.19,0,3.77,.05,3.77,.05l.12,.18c-2.05,9.06-2.38,10.52-2.71,12.99l-.18,.15Z"/>
        <path d="M242.66,157.65c-.96,0-1.62,.03-2.58,.08l-.1-.18c.35-1.72,.71-2.87,1.06-4.57l.61-2.93c.07-.38,.28-1.2,.28-1.9,0-1.9-1.64-1.98-2.15-1.98-1.55,0-2.76,.93-3.34,1.36-.71,3.31-1.44,6.62-2.05,9.96l-.18,.15c-.96,0-1.62,.03-2.58,.08l-.12-.18c.83-3.39,2.43-10.53,2.66-12.84l.18-.18c.99-.13,1.7-.26,2.69-.46l.12,.18-.35,1.31c1.85-1.43,3.67-1.57,4.25-1.57,.76,0,3.67,.13,3.67,3.41,0,.85-.33,2.57-.84,4.96l-.38,1.82c-.26,1.23-.48,2.08-.63,3.31l-.21,.15Z"/>
        <path d="M252.48,140.7c-.99,.13-1.67,.21-2.66,.36l-.15-.2c.2-.88,.35-1.49,.53-2.36l.23-.18c.99-.13,1.67-.21,2.63-.36l.2,.18c-.23,.85-.38,1.49-.58,2.36l-.2,.2Zm-3.62,16.92c-.99,0-1.7,.03-2.68,.08l-.13-.16c.81-2.98,2.61-11.45,2.73-12.84l.18-.18c1.04-.13,1.75-.23,2.76-.41l.13,.18c-.13-.02-2.23,9.75-2.81,13.2l-.18,.13Z"/>
        <path d="M257.85,157.6c-.84,.2-1.49,.23-1.82,.23-2.41,0-3.01-1.25-3.01-2.54,0-.98,.53-3.24,1.26-6.34l.63-2.67h-.5c-.48,0-.84,0-1.32,.03l-.13-.18c.18-.59,.3-1.05,.46-1.69l.17-.13c.66,.03,1.09,.03,1.75,.03,.3-1.18,.46-2.03,.68-3.21l.18-.18c.99-.21,1.67-.38,2.63-.64l.13,.15c-.2,.69-.33,1.21-.5,1.9l-.48,1.98c1.04,0,1.74,0,2.75-.05l.13,.18c-.23,.62-.35,1.08-.53,1.7l-.18,.15c-.96-.03-1.64-.03-2.61-.03l-1.37,5.8c-.12,.52-.48,2.11-.48,2.62,0,.82,.59,1.1,1.24,1.1s1.26-.26,1.49-.33l.13,.13c-.2,.67-.35,1.13-.53,1.8l-.18,.2Z"/>
        <path d="M273.3,144.48c-3.04,4.98-10.15,17.07-11.11,19.25l-.2,.16h-1.14c-.5,0-.98,0-1.49,.02l-.08-.18c.74-1.13,3.24-5.06,3.85-6.19-.96-6.39-1.9-12.73-2.03-13.04l.18-.18c.96,0,1.64-.05,2.63-.13l.2,.13c.12,1.42,.2,2.41,.38,3.8l.74,6.06,2.45-4.42c.96-1.72,1.92-3.47,2.83-5.32l.2-.15c.28,.03,.55,.03,.83,.03,.61,0,1.04-.03,1.62-.05l.13,.2Z"/>
        <rect x="117.36" y="28.23" width="15.66" height="57.35"/>
        <polygon points="141.24 85.58 141.24 28.23 184.3 28.23 184.3 39.35 156.9 39.35 156.9 51.18 182.11 51.18 182.11 62.31 156.9 62.31 156.9 74.46 184.3 74.46 184.3 85.58 141.24 85.58"/>
        <polygon points="193.08 85.58 193.08 28.23 236.13 28.23 236.13 39.35 208.73 39.35 208.73 51.18 233.93 51.18 233.93 62.31 208.73 62.31 208.73 74.46 236.13 74.46 236.13 85.58 193.08 85.58"/>
        <polygon points="244.9 85.58 244.9 28.23 287.96 28.23 287.96 39.35 260.57 39.35 260.57 51.18 285.77 51.18 285.77 62.31 260.57 62.31 260.57 74.46 287.96 74.46 287.96 85.58 244.9 85.58"/>
        <path d="M67.72,62.66c-.21,4.05-.26,7.8-.55,11.86,1.58,.14,3.36,.28,5.05,.03l-.5-11.32-.09-.54c-1.28,.05-2.5,.11-3.9-.04m-9.87-11.37c-1.94,.99-4.81,2.49-4.49,5.19,.42,1.48,1.99,2.43,3.24,3.04,6.9,3.08,16.06,3.19,23.35,.89,1.8-.71,4.21-1.73,4.54-3.96-.02-1.85-1.95-3.01-3.33-3.72v-.09c.48-.2,1.04-.37,1.54-.42v-.05c-2.44-.44-4.8-1.09-7.16-1.73,.46,1.05,.78,2.16,1.16,3.26,.71-.23,1.44-.41,2.21-.51,1.25,.49,3.03,1.2,3.21,2.78,.14,1.48-1.46,2.2-2.46,2.8-5.35,1.97-11.36,2.17-16.93,.67-1.54-.49-3.76-1.13-3.95-3.11,1.09-2.62,3.92-3.16,6.28-3.8-1.21-.79-2.45-1.5-3.62-2.38-1.27,.07-2.43,.63-3.58,1.14m11.81-15.8l-.69,2.25-3.47,10.08c.87,.09,1.94,0,2.8,.09v.08l-.51,11.4,.09,.12c1.11,.11,2.5,.17,3.63-.03v-.18l-.45-11.06,.07-.37,3.05-.05c-1.52-4.08-3-8.2-4.42-12.33h-.09Zm-1.61-5.07c2.55-1.77,4.84,.7,6.82,2.11,7.65,6.24,14.86,13.39,20.36,21.46,.69,1.04,1.01,2.66,.39,3.84-1.43,2.41-3.35,4.62-5.18,6.85v.12c-4.55,4.91-9.35,9.96-14.54,14.11-2.53,1.56-4.86,4.98-8.12,2.86-7.43-5.51-14.53-12.35-20.56-19.69-1.02-1.62-2.62-2.94-3.33-4.77-.99-2.48,1.19-4.26,2.45-6.12,6.14-7.69,13.77-15.22,21.7-20.78m6.4-7.34l-2.83-4.06c-.35-.21-.78-.57-1.16-.67-.84-.37-1.73,.08-2.41,.6l-5.11,6.76c-8.2,10.31-17.92,19.94-28.52,27.31-.84,.66-2.09,1.31-2.34,2.41-.28,.98,.23,1.79,.83,2.41,8.49,5.93,16.6,12.97,23.82,21,1.28,1.37,2.32,2.73,3.57,4.01,2.11,2.85,4.6,5.72,6.53,8.78,.61,.65,.72,1.71,1.67,2.02,.74,.26,1.66,.44,2.38,0l.71-.72c8.78-12.62,19.92-23.95,32.36-33.1,1.25-1.13,3.62-1.55,3.66-3.65-.09-.96-.64-1.92-1.46-2.44l-.2-.03c-6.4-4.42-12.37-9.42-17.99-15.08l-6.21-6.58c-2.52-2.83-4.96-5.96-7.29-8.95m-7.32,5.79c2.5-1.97,5.64-.33,7.74,1.48,2.2,1.71,4.49,3.64,6.5,5.62l.37,.21c5.57,5.24,10.74,11.07,14.99,17.22,.69,1.07,1.3,2.29,.91,3.71-1.42,3.59-4.3,6.46-6.81,9.59-5.45,5.95-11.19,11.7-17.62,16.3-1.3,.93-3.05,1.79-4.61,1.05-4.73-2.51-8.73-6.63-12.87-10.38-4.81-4.52-9.63-9.78-13.27-15.29-.54-.77-.7-1.73-.68-2.74,.47-1.9,1.75-3.47,2.97-5.07,4.3-5.56,9.57-10.84,14.9-15.66,.12-.12,.35-.39,.54-.51,2.28-2,4.56-3.78,6.95-5.52"/>
        <path d="M82.56,88.23h-.54v-.69h.42c.23,0,.55,.02,.55,.32,0,.32-.16,.37-.43,.37m1.07-.31c0-.66-.43-.87-1.16-.87h-1.06v2.87h.61v-1.21h.29l.65,1.21h.72l-.73-1.26c.38-.03,.68-.22,.68-.74m-1.17,2.62h0c-1.04,0-1.88-.83-1.88-2.05s.84-2.04,1.88-2.04,1.88,.82,1.88,2.04-.87,2.05-1.88,2.05m0-4.72c-1.4,0-2.64,.98-2.64,2.66s1.24,2.67,2.64,2.67,2.63-.98,2.63-2.67-1.24-2.66-2.63-2.66"/>
      </g>
    </g>
  </g>
</svg>