<?xml version="1.0" encoding="UTF-8"?>
<svg id="Layer_2" data-name="Layer 2" xmlns="http://www.w3.org/2000/svg" viewBox="0 0 320 93.29">
  <g id="Layer_1-2" data-name="Layer 1">
    <g>
      <rect width="320" height="93.29" style="fill: none;"/>
      <g>
        <rect x="117.37" y="19.2" width="15.66" height="56.54" style="fill: #fff;"/>
        <polygon points="141.25 75.75 141.25 19.2 184.32 19.2 184.32 30.17 156.91 30.17 156.91 41.83 182.13 41.83 182.13 52.8 156.91 52.8 156.91 64.78 184.32 64.78 184.32 75.75 141.25 75.75" style="fill: #fff;"/>
        <polygon points="193.1 75.75 193.1 19.2 236.16 19.2 236.16 30.17 208.76 30.17 208.76 41.83 233.96 41.83 233.96 52.8 208.76 52.8 208.76 64.78 236.16 64.78 236.16 75.75 193.1 75.75" style="fill: #fff;"/>
        <polygon points="244.93 75.75 244.93 19.2 288 19.2 288 30.17 260.6 30.17 260.6 41.83 285.81 41.83 285.81 52.8 260.6 52.8 260.6 64.78 288 64.78 288 75.75 244.93 75.75" style="fill: #fff;"/>
        <g>
          <path d="M67.73,53.15c-.21,3.99-.26,7.69-.55,11.69,1.58,.14,3.36,.28,5.05,.03l-.5-11.16-.09-.53c-1.28,.05-2.5,.1-3.91-.03m-9.87-11.21c-1.95,.97-4.81,2.45-4.5,5.12,.42,1.46,2,2.4,3.24,3,6.9,3.04,16.07,3.14,23.36,.87,1.8-.69,4.21-1.7,4.54-3.91-.02-1.82-1.95-2.96-3.33-3.66v-.09c.48-.19,1.04-.36,1.54-.42v-.05c-2.44-.44-4.79-1.08-7.16-1.7,.45,1.04,.78,2.13,1.16,3.21,.71-.23,1.44-.4,2.2-.51,1.25,.49,3.03,1.18,3.21,2.74,.14,1.46-1.46,2.17-2.47,2.76-5.35,1.95-11.36,2.13-16.93,.66-1.54-.49-3.76-1.11-3.96-3.07,1.09-2.58,3.92-3.12,6.28-3.75-1.21-.78-2.45-1.47-3.62-2.34-1.27,.07-2.43,.63-3.57,1.13m11.81-15.57l-.69,2.22-3.47,9.94c.87,.09,1.94,0,2.8,.09v.08l-.51,11.24,.09,.12c1.11,.11,2.5,.16,3.63-.03v-.18l-.45-10.9,.07-.37,3.06-.05c-1.52-4.02-3-8.09-4.42-12.16h-.09Zm-1.61-5c2.55-1.74,4.84,.69,6.82,2.08,7.65,6.16,14.87,13.2,20.36,21.16,.69,1.03,1.01,2.62,.39,3.78-1.43,2.38-3.35,4.55-5.17,6.75v.12c-4.55,4.84-9.35,9.82-14.54,13.92-2.53,1.54-4.86,4.9-8.12,2.82-7.43-5.43-14.53-12.17-20.56-19.41-1.02-1.59-2.62-2.9-3.33-4.7-.99-2.44,1.19-4.2,2.45-6.04,6.14-7.58,13.77-15.01,21.7-20.48m6.4-7.23l-2.83-4.01c-.35-.21-.78-.56-1.16-.67-.83-.36-1.73,.08-2.41,.59l-5.12,6.66c-8.21,10.16-17.92,19.65-28.52,26.93-.84,.65-2.08,1.29-2.34,2.37-.28,.97,.23,1.77,.83,2.37,8.49,5.85,16.6,12.79,23.82,20.7,1.28,1.35,2.32,2.69,3.57,3.95,2.11,2.81,4.59,5.64,6.54,8.66,.61,.64,.71,1.68,1.67,1.99,.75,.26,1.67,.43,2.38,0l.7-.71c8.78-12.44,19.92-23.61,32.36-32.63,1.25-1.11,3.63-1.52,3.66-3.59-.09-.95-.64-1.89-1.46-2.41l-.2-.03c-6.4-4.36-12.37-9.28-17.99-14.87l-6.21-6.49c-2.52-2.79-4.96-5.88-7.29-8.83m-7.32,5.71c2.5-1.94,5.64-.33,7.74,1.46,2.2,1.68,4.49,3.58,6.51,5.53l.36,.21c5.57,5.17,10.74,10.91,14.99,16.98,.69,1.06,1.3,2.25,.91,3.66-1.41,3.54-4.29,6.37-6.81,9.46-5.45,5.86-11.19,11.54-17.62,16.06-1.3,.92-3.06,1.77-4.62,1.04-4.74-2.48-8.73-6.54-12.87-10.23-4.8-4.46-9.63-9.65-13.27-15.07-.54-.76-.69-1.7-.68-2.71,.47-1.87,1.75-3.41,2.97-5,4.3-5.48,9.58-10.69,14.9-15.44,.12-.12,.35-.38,.54-.51,2.29-1.97,4.56-3.73,6.95-5.45" style="fill: #fff;"/>
          <path d="M82.56,80.64h-.54v-.69h.42c.23,0,.55,.03,.55,.32,0,.31-.16,.37-.43,.37m1.08-.31c0-.65-.43-.85-1.16-.85h-1.06v2.83h.6v-1.19h.29l.65,1.19h.72l-.73-1.24c.38-.03,.68-.22,.68-.74m-1.18,2.59h0c-1.04,0-1.88-.81-1.88-2.02s.84-2.01,1.88-2.01,1.88,.8,1.88,2.01-.87,2.02-1.88,2.02m0-4.65c-1.4,0-2.64,.97-2.64,2.63s1.24,2.63,2.64,2.63,2.63-.97,2.63-2.63-1.25-2.63-2.63-2.63" style="fill: #fff;"/>
        </g>
      </g>
    </g>
  </g>
</svg>