<?xml version="1.0" encoding="UTF-8"?>
<svg id="Layer_2" data-name="Layer 2" xmlns="http://www.w3.org/2000/svg" viewBox="0 0 392 392">
  <g id="Layer_2-2" data-name="Layer 2">
    <g id="LogoCentrado-IEEEStudentBranch-Blanco-FondoNegroCircular">
      <circle cx="196" cy="196" r="196"/>
      <g id="Isotipo-UACh-Blanco">
        <path id="_Group_" data-name="&amp;lt;Group&amp;gt;" d="M196.09,77.16l-60.61-.09-.09,58.96-.08,58.95v1.38s0,1.38,0,1.38c-.01,.69,.04,1.37,.13,2.05,.1,.68,.25,1.35,.45,2.02h0c.44,1.49,1.13,2.94,2,4.32,.87,1.38,1.93,2.68,3.13,3.88h0c1.66,1.67,3.59,3.13,5.66,4.3,2.07,1.17,4.27,2.05,6.49,2.55,.67,.15,1.34,.27,2.02,.35,.67,.08,1.34,.12,2,.12l15.94,.02,15.94,.02c.06,0,1.18-.07,2.41,.32,1.23,.39,2.57,1.24,3.07,3.06l.42,1.5,.42,1.5,.4-1.51,.4-1.51c.48-1.8,1.91-2.64,3.23-3.03,1.33-.39,2.55-.32,2.64-.32l16.43,.02,16.43,.02c.66,0,1.32-.04,1.99-.11,.67-.08,1.33-.19,2-.34h0c2.19-.49,4.37-1.37,6.4-2.53,2.03-1.17,3.93-2.62,5.55-4.28h0c1.17-1.2,2.21-2.5,3.06-3.88,.85-1.37,1.53-2.82,1.97-4.31h0c.2-.66,.35-1.33,.45-2.01,.1-.68,.16-1.36,.16-2.04l.09-60.35,.09-60.35-60.61-.09Zm58.82,61.28l-.08,59.5c0,.68-.06,1.36-.18,2.03-.12,.68-.29,1.35-.52,2.01h0c-.51,1.5-1.28,2.97-2.26,4.35-.97,1.38-2.15,2.68-3.47,3.83h0c-1.89,1.67-4.08,3.07-6.38,4.04-2.3,.97-4.72,1.53-7.08,1.53l-16.41-.02-16.41-.02c-.84-.05-1.74,.03-2.61,.23-.87,.2-1.72,.53-2.47,1h0c-.33,.21-.63,.44-.91,.7-.28,.26-.53,.55-.75,.86-.21-.32-.45-.6-.72-.87-.27-.26-.56-.5-.88-.71h0c-.69-.46-1.48-.8-2.3-1-.82-.21-1.66-.29-2.47-.24l-15.91-.02-15.91-.02c-2.38,0-4.83-.57-7.17-1.55-2.34-.98-4.57-2.38-6.5-4.06h0c-1.35-1.16-2.55-2.46-3.55-3.85-1-1.38-1.78-2.85-2.29-4.35h0c-.23-.67-.4-1.35-.51-2.02-.11-.67-.17-1.35-.16-2.03v-1.39s0-1.39,0-1.39l.08-58.11,.08-58.11,58.91,.08,58.91,.08-.09,59.5Zm-71.48-35.88l2.53-1.98-.26,3.57-.26,3.57-2.27-1.59-2.27-1.59,2.53-1.98Zm-1.68,4.91l2.41,1.68-4.62,.06-4.62,.06,2.21-1.73,2.21-1.73,2.41,1.67Zm-8.9-2.79l-.16-3.63,2.55,1.81,2.55,1.81-2.38,1.82-2.38,1.82-.16-3.63Zm6.46-1.25s-1.28-.87-2.56-1.8c-1.28-.93-2.56-1.87-2.56-1.87l5.32-.32,5.32-.32s-1.38,1.05-2.76,2.12c-1.38,1.07-2.76,2.14-2.76,2.19m16.81-8.7l-42.49-.06-.07,46.24-.07,46.24c0,.17,0,.35,0,.52,0,.17,.02,.34,.03,.52,.09,1.27,.36,2.49,.79,3.63,.42,1.15,.99,2.22,1.69,3.2,1.22,1.7,2.83,3.11,4.69,4.09,1.87,.98,3.99,1.54,6.24,1.54l29.02,.04,29.02,.04c2.25,0,4.38-.55,6.25-1.52,1.87-.98,3.48-2.38,4.7-4.08,.7-.97,1.28-2.04,1.7-3.19,.43-1.14,.7-2.36,.8-3.63h0c.01-.17,.03-.34,.03-.51,0-.17,0-.35,0-.52l.07-46.24,.07-46.24-42.49-.06Zm-32.01,93.45l-2.82-1.77-2.83,1.76,.81-3.23-2.55-2.14,3.32-.23,1.25-3.09,1.25,3.09,3.32,.24-2.55,2.14,.8,3.23Zm-.78-13.63l.8,3.23-2.82-1.77-2.83,1.76,.81-3.23-2.54-2.14,3.32-.23,1.25-3.08,1.24,3.09,3.32,.24-2.55,2.13Zm.01-10.4l.8,3.23-2.82-1.77-2.83,1.76,.81-3.23-2.54-2.14,3.32-.23,1.25-3.08,1.24,3.09,3.32,.24-2.55,2.14Zm.01-10.4l.8,3.23-2.82-1.77-2.83,1.76,.81-3.23-2.54-2.14,3.32-.23,1.25-3.09,1.24,3.09,3.32,.24-2.55,2.13Zm14.71,44.85l-2.82-1.77-2.83,1.76,.81-3.23-2.54-2.14,3.32-.23,1.25-3.09,1.24,3.09,3.32,.24-2.55,2.14,.8,3.23Zm-.79-13.63l.8,3.23-2.82-1.77-2.83,1.76,.81-3.23-2.54-2.14,3.32-.23,1.25-3.08,1.25,3.09,3.32,.24-2.55,2.13Zm.02-10.4l.8,3.23-2.82-1.77-2.83,1.76,.81-3.23-2.54-2.14,3.32-.23,1.25-3.09,1.24,3.09,3.32,.24-2.55,2.13Zm.01-10.4l.8,3.23-2.82-1.77-2.83,1.76,.81-3.23-2.54-2.14,3.32-.23,1.25-3.09,1.24,3.09,3.32,.24-2.55,2.13Zm.01-10.4l.8,3.23-2.82-1.77-2.83,1.76,.81-3.23-2.55-2.14,3.32-.23,1.25-3.09,1.24,3.09,3.32,.24-2.55,2.14Zm1.67-16.75c-2.03-.04-4.05,1.94-3.8,5.96-.01-.02-1.5,.02-3.01,.06-1.51,.04-3.05,.07-3.17,.03-.31-.11-.42-.32-.53-.54-.11-.21-.23-.43-.53-.54-.31-.11-.52-.03-.71,.03-.19,.05-.36,.07-.59-.16-.23-.24-.21-.42-.19-.61,.02-.18,.04-.37-.18-.61-.23-.24-.41-.2-.56-.18-.15,.02-.28,.02-.4-.28-.04-.08-.03-.16,.01-.22,.04-.06,.12-.11,.22-.16,.93-.11,1.03-.36,.86-.57-.17-.21-.61-.38-.77-.32-.11,.04-.27-.03-.38-.16-.11-.13-.18-.32-.1-.5,.06-.13-.11-.43-.29-.71-.18-.29-.37-.57-.37-.67,0-.04,0-.13,0-.24s0-.24,0-.35h0c0-.06,0-.11,.01-.16,0-.05,.01-.08,.02-.1,.18-.07,.19-.36,.16-.66-.02-.24-.07-.49-.09-.65,0-.04,0-.07,0-.1,0-.11,.02-.18,.03-.24,.03-.12,.07-.17,.11-.21,.06-.06,.13-.13,.15-.45,.02-.33-.07-.52-.15-.7,0-.01-.01-.03-.02-.04-.08-.17-.15-.36-.13-.66,0-.06,.03-.08,.08-.09,.03,0,.06-.01,.1-.02,.03,0,.06-.01,.1-.02,.45-.06,.6-.22,.59-.39,0-.17-.18-.34-.37-.41-.11-.04-.18-.11-.24-.18-.11-.14-.16-.32-.17-.53,0-.32,.06-.7,.09-1.02,.03-.33-.01-.32-.05-.31-.04,0-.08,.02-.05-.31,.03-.33-.03-.54-.08-.76-.05-.21-.11-.43-.08-.76,.03-.33,.16-.61,.28-.84,.12-.23,.24-.42,.26-.56,0-.15,.04-.29,.07-.41,.04-.12,.08-.23,.13-.32h0c.09-.16,.19-.27,.26-.35,.08-.08,.13-.11,.13-.11,1.25-.19,3.13-.34,4.94-.45,1.82-.11,3.58-.17,4.6-.18,.05,0,.11,0,.15,0,.05,0,.09,0,.13-.02,1.57,.02,3.61,.07,5.49,.18,1.87,.11,3.57,.28,4.45,.55,0,0,0,.04,.01,.11,0,.07,.02,.18,.03,.31l1.18,10.91c.08,.8,.15,1.49,.2,1.99,.05,.5,.08,.82,.07,.88,0,.08,.05,.94,.12,1.81,.06,.87,.13,1.74,.15,1.85,.02,.16,.02,.33-.02,.48-.04,.14-.13,.26-.29,.3-.07,.02-1.08-.1-2.08-.22-.99-.12-1.97-.25-1.97-.25,.23-4.05-1.8-6.11-3.83-6.15m-13.86-16.57s-.08-.02-.04-.35c.03-.33,.06-.67,.09-1.01,.03-.34,.06-.68,.09-1.01,.03-.33,.04-.43,.04-.53,0-.11,0-.21,.01-.55,0-.17,.02-.56,.05-1.02,.03-.47,.07-1.02,.13-1.53h0c.04-.33,.09-.64,.14-.91,.06-.26,.12-.47,.19-.57,.13-.19,.24-.34,.4-.48,.16-.14,.38-.27,.72-.43,.09,.41,.16,.9,.21,1.29,.05,.39,.09,.68,.12,.68,.21-.03,.82-.07,1.39-.1,.57-.03,1.1-.06,1.14-.07,.04,0,.07-.03,.1-.05,.02-.02,.04-.05,.04-.09,.02-.15,.07-.63,.12-1.11,.05-.49,.1-.98,.12-1.16,.16-.01,.3-.02,.44-.03,.13,0,.25-.01,.35-.02,.21-.01,.71,.08,1.17,.41,.47,.33,.9,.9,.96,1.83,.14,0,.73,0,1.39-.01,.66,0,1.39-.02,1.82-.04,.06,0,.13-.03,.19-.06,.06-.04,.11-.09,.12-.14,.04-.28,.09-.69,.15-1.08,.05-.39,.1-.76,.12-.97,.47,.04,1.1,.1,1.62,.15,.52,.05,.93,.1,.95,.11,.01,0,.05,.45,.09,.94,.04,.49,.08,1.02,.1,1.2,0,.04,.04,.08,.08,.1,.04,.03,.1,.04,.15,.06,.32,.04,.74,.11,1.16,.18,.42,.07,.83,.14,1.13,.19,.07,.01,.11,0,.14-.02,.03-.02,.05-.06,.05-.11,.04-.34,.11-.82,.16-1.24,.06-.41,.1-.76,.12-.82,.15,.03,.46,.1,.78,.19,.32,.08,.66,.17,.88,.22,.02,.07,.06,.32,.1,.67,.04,.36,.09,.82,.14,1.31h0c.05,.5,.1,1.04,.14,1.53,.04,.5,.07,.95,.08,1.29l-.36-.1-.36-.1c-.1-.02-.2,0-.27,.06-.07,.06-.11,.15-.11,.25l.08,1.4,.08,1.4,.59,.26,.59,.26s.06,.46,.14,1.11c.08,.65,.16,1.49,.22,2.25-.74-.15-2.23-.34-3.97-.5-1.74-.15-3.75-.27-5.53-.28-1.93-.04-3.72,0-5.32,.08-1.6,.08-3.02,.21-4.2,.35-.13-.02-.34,0-.51-.01-.17-.01-.32-.07-.32-.23,.07-.2,0-.32-.09-.43-.08-.12-.18-.24-.16-.43,.03-.33-.06-.38-.15-.44-.09-.06-.18-.11-.15-.44,.03-.33,.07-.4,.11-.47,.04-.07,.08-.15,.11-.48,.03-.33,0-.34-.04-.35m2.21-8.4l.17,.04,.17,.04,.15,.79,.15,.79h-.21s-.21-.03-.21-.03l-.11-.81-.11-.82Zm5.94-.84l.17,.05,.17,.05,.14,.96,.14,.96h-.2s-.2-.01-.2-.01l-.11-1-.11-1Zm18.04,77l-2.82-1.77-2.83,1.76,.81-3.23-2.54-2.14,3.32-.23,1.25-3.09,1.24,3.09,3.32,.24-2.55,2.14,.8,3.23Zm-.79-13.63l.8,3.23-2.82-1.77-2.83,1.76,.81-3.23-2.54-2.14,3.32-.23,1.25-3.08,1.25,3.09,3.32,.24-2.55,2.14Zm.02-10.4l.8,3.23-2.82-1.77-2.83,1.76,.81-3.23-2.54-2.14,3.32-.23,1.25-3.09,1.24,3.09,3.32,.24-2.55,2.13Zm.01-10.4l.8,3.23-2.82-1.77-2.83,1.76,.81-3.23-2.54-2.14,3.32-.23,1.25-3.09,1.24,3.09,3.32,.24-2.55,2.13Zm4.61-48.64v9.35s-.04,15.3-.04,15.3l-.02,15.3c-.83-.18-2.46-.53-3.88-.83-1.42-.3-2.64-.56-2.64-.56l-1.13-9.08-1.13-9.08s.07-.04,.11-.06c.04-.02,.07-.05,.1-.08h0c.08-.07,.15-.16,.2-.25,.05-.09,.07-.17,.07-.24-.02-.19-.16-.32-.29-.41-.13-.09-.27-.13-.27-.14l-.6-4.86-.6-4.86s0-.06-.01-.08c0-.03,0-.06,0-.09h0c-.06-.66,.02-1.21,.11-1.59,.1-.38,.2-.6,.2-.6,0-.04-.18-.1-.35-.15-.18-.05-.36-.1-.38-.11-.26-.06-.58-.14-.93-.22-.34-.08-.7-.16-1.05-.24-.11,.02-.23,.06-.34,.09-.11,.04-.2,.07-.25,.08-.02,.11-.06,.37-.09,.6-.03,.23-.06,.44-.06,.44,0,0-.38-.04-.8-.09-.42-.05-.89-.1-1.06-.12-.03-.18-.05-.42-.08-.66-.02-.24-.04-.48-.06-.64,0-.07-.02-.11-.04-.15-.02-.03-.06-.05-.12-.06-.08-.01-.83-.07-1.59-.13-.76-.06-1.51-.12-1.59-.12-.03,0-.07,0-.1,.02-.03,.02-.06,.05-.07,.1-.02,.13-.05,.38-.08,.66-.03,.28-.07,.58-.1,.82-.18,0-.64,.03-1.09,.07-.45,.04-.88,.08-.99,.09-.04-.23-.09-.49-.13-.76-.04-.27-.08-.54-.13-.79-.08-.02-.22-.07-.36-.12-.14-.05-.27-.09-.35-.1-.06,0-.27,0-.54,.03-.27,.02-.59,.04-.84,.06,0-.03-.12-2.79-.25-5.56-.12-2.77-.25-5.55-.26-5.65,.07-.02,.17-.08,.26-.17,.08-.09,.15-.22,.16-.38-.01,.07-.06,.15-.13,.21-.07,.06-.17,.11-.29,.11-.14,0-.25-.08-.32-.17-.07-.09-.11-.2-.11-.26,0-.22,.12-.35,.26-.4,.13-.06,.29-.04,.38,.02-.06-.06-.15-.1-.22-.12-.07-.02-.14-.03-.17-.03-.23,0-.39,.11-.48,.24-.1,.13-.14,.29-.13,.38,0,.1,.04,.24,.12,.35,.08,.11,.2,.21,.39,.24,0,.14,0,2.9,0,5.65,0,2.75-.01,5.49-.02,5.61-.51,.04-.79,.05-.95,.07-.16,.01-.2,.02-.23,.06-.06,.06-.14,.63-.2,1.19-.06,.57-.11,1.13-.12,1.18-.17,.02-.36,.05-.57,.07-.2,.03-.42,.05-.65,.08,0,.01-.08-.42-.16-.85-.08-.43-.15-.87-.15-.88,0-.04-.02-.07-.04-.1-.03-.03-.07-.04-.15-.06-.13-.02-.26-.05-.41-.08-.15-.03-.33-.06-.54-.09-.03,0-.49,.09-.98,.2-.49,.11-1,.23-1.14,.27,0,0-.03,.02-.06,.04-.03,.02-.06,.06-.05,.1l-.65,5.97-.65,5.96s-.14,.06-.28,.17c-.14,.1-.29,.25-.3,.41-.01,.14,.04,.28,.13,.4,.08,.12,.19,.22,.28,.28l-.95,9.1-.95,9.1s-1.23,.23-2.66,.53c-1.44,.3-3.09,.69-3.93,1.01l.04-24.69,.04-24.7,20.27,.03,20.27,.03v9.35Zm1.06-9.35l20.63,.03,20.63,.03-.08,49.28c-2.34-.62-4.47-1.14-6.87-1.54-2.4-.41-5.04-.7-8.34-.89-.54-.84-1.05-1.79-1.42-2.85-.37-1.06-.6-2.22-.57-3.48h0c0-.29,.03-.59,.06-.89,.04-.3,.09-.6,.15-.91,.04-.03,.11-.07,.19-.1,.08-.03,.17-.06,.25-.06,.36,0,.34,.12,.32,.23-.02,.12-.03,.23,.32,.23,.36,0,.42,.05,.49,.11,.07,.05,.14,.11,.49,.11,.36,0,.42-.07,.49-.13,.07-.06,.13-.13,.49-.13,.36,0,.42,.11,.49,.21,.07,.11,.13,.21,.49,.21,.36,0,.41-.21,.46-.45,.05-.24,.09-.5,.44-.59,.34-.09,.47-.01,.6,.07,.13,.08,.25,.16,.6,.07,.35-.09,.45-.09,.54-.12,.09-.03,.16-.08,.45-.3,.29-.21,.28-.37,.28-.54,0-.16,0-.32,.28-.54,.29-.21,.38-.19,.45-.2,.07,0,.12-.03,.32-.33,.19-.3,.32-.33,.45-.36,.13-.03,.26-.06,.45-.36,.19-.3,.17-.4,.12-.51-.05-.11-.13-.23-.06-.58,.07-.35,.34-.64,.6-.93,.27-.29,.53-.58,.6-.93,.07-.35-.03-.47-.17-.6-.14-.12-.3-.25-.36-.6-.06-.35,.01-.44,.09-.53,.07-.09,.15-.18,.09-.53-.06-.34-.09-.44-.15-.52-.06-.08-.14-.15-.29-.4h0s-.01-.03-.02-.04c0-.01-.02-.03-.02-.04-.17-.31-.26-.34-.35-.37-.09-.03-.18-.06-.35-.37-.17-.31-.14-.44-.14-.55s0-.2-.27-.44c-.26-.24-.34-.25-.42-.26-.08,0-.16-.02-.42-.26-.27-.24-.38-.17-.51-.08-.13,.09-.27,.21-.6,.07-.33-.14-.28-.42-.23-.7,.05-.28,.09-.56-.23-.7-.09-.04-.16-.05-.22-.05-.06,0-.11,.02-.16,.04,.08-.29-.02-.36-.11-.44-.09-.08-.17-.17-.07-.5,.11-.34,.13-.38,.16-.43,.03-.04,.05-.09,.16-.43,.11-.34,.22-.36,.33-.37,.11-.02,.22-.04,.32-.38,.11-.34,.15-.43,.15-.51,0-.09-.05-.18-.12-.53-.06-.35-.28-.41-.5-.46-.22-.05-.43-.11-.5-.46-.06-.35,.11-.48,.25-.59,.14-.11,.25-.22,.07-.52-.18-.31-.34-.31-.49-.31-.15,0-.31,0-.49-.31-.14-.24-.11-.4-.05-.54,.06-.13,.15-.24,.11-.38h0s-.03-.07-.06-.11-.08-.08-.13-.13c-.28-.23-.35-.26-.42-.3-.07-.04-.15-.08-.42-.3-.28-.23-.31-.38-.36-.52-.05-.13-.11-.23-.45-.35-.34-.12-.59-.45-.73-.84-.14-.39-.17-.83-.07-1.18,.1-.34,.09-.38,.08-.42-.01-.03-.02-.07,.08-.41,.1-.34,.08-.42,.02-.51-.06-.08-.16-.17-.23-.52-.07-.35,0-.48,.06-.62,.07-.13,.14-.27,.07-.62-.07-.35-.27-.38-.5-.39s-.49-.02-.69-.32c-.2-.3-.27-.38-.34-.46s-.14-.17-.34-.46c-.2-.3-.09-.53-.02-.74,.08-.21,.13-.4-.16-.59-.3-.2-.41-.23-.52-.26-.11-.03-.22-.06-.52-.26-.3-.2-.43-.09-.59,.05-.15,.14-.32,.32-.67,.25-.35-.07-.46-.15-.56-.22-.11-.08-.21-.15-.56-.22-.35-.07-.43-.13-.5-.15-.08-.02-.15,0-.5,.07-.35,.07-.52-.14-.68-.36-.16-.21-.33-.43-.68-.36-.35,.07-.38,.31-.39,.59-.02,.28-.02,.58-.32,.78-.3,.2-.53,.04-.76-.11-.23-.16-.47-.31-.76-.11-.3,.2-.4,.32-.49,.46-.08,.14-.14,.31-.34,.6,.43,.09,.58,.34,.58,.66,0,.31-.16,.68-.36,.97-.2,.29-.52,.56-.81,.83-.29,.28-.54,.56-.61,.91-.07,.35-.04,.43,.04,.51s.2,.16,.3,.5c.1,.34,.13,.37,.15,.39,.03,.03,.05,.05,.15,.39,.1,.34-.07,.43-.24,.51-.17,.08-.34,.16-.24,.51,.1,.34,.11,.37,.12,.41,0,.04,.02,.08,.13,.46-.3,.11-.34,.2-.4,.3s-.12,.19-.45,.3c-.34,.12-.33,.26-.31,.42,.02,.17,.06,.36-.22,.59-.21,.17-.31,.23-.38,.26-.07,.03-.11,.03-.21,.09-.03,.02-.07,.05-.12,.08-.05,.04-.1,.08-.17,.13-.28,.23-.27,.27-.24,.34,.03,.07,.08,.16-.1,.46-.18,.31-.41,.27-.63,.23-.22-.04-.45-.08-.63,.23-.18,.31-.11,.41,0,.53,.1,.12,.24,.25,.17,.6-.06,.35-.22,.41-.38,.48-.16,.06-.31,.13-.38,.48-.07,.35-.22,.48-.32,.6-.11,.12-.17,.25-.06,.59,.11,.34,0,1.11-.2,1.86-.2,.75-.5,1.47-.76,1.71-.27,.24-.18,.43-.1,.62,.08,.19,.17,.38-.1,.62-.27,.24-.49,.16-.69,.1-.2-.06-.37-.1-.55,.21-.17,.3-.09,.43,0,.55,.09,.12,.2,.24,.08,.5h0s-.02,.03-.02,.05c0,.01-.02,.03-.03,.05-.17,.31-.39,.33-.58,.37-.19,.03-.35,.08-.41,.43-.06,.35,0,.44,.06,.53,.06,.09,.12,.17,.06,.53-.06,.35-.18,.49-.26,.64-.08,.14-.14,.28-.07,.63,.07,.35,.09,.7,.11,1.05,.02,.35,.04,.7,.11,1.05,.07,.35,.14,.5,.25,.64,.11,.14,.24,.26,.44,.56,.2,.3,.36,.32,.52,.33,.16,.02,.32,.04,.52,.34,.1,.15,.16,.25,.2,.33,.04,.07,.07,.12,.11,.16,.03,.04,.07,.07,.14,.12,.07,.05,.16,.12,.31,.22,.29,.2,.46,.15,.63,.09,.17-.06,.33-.12,.63,.09,.29,.2,.32,.29,.37,.35,.04,.06,.1,.09,.45,.16,.35,.08,.42,.27,.49,.46,.07,.19,.14,.39,.49,.47,.18,.04,.29,.07,.37,.08,.08,.02,.13,.03,.19,.04,.06,0,.11,0,.19,0,.08,0,.2,0,.38,0,.36,0,.43-.04,.49-.07,.07-.04,.13-.07,.49-.07,.36,0,.49-.12,.62-.25,.13-.12,.25-.25,.6-.25,.08,.32,.13,.63,.17,.93,.04,.3,.06,.6,.07,.89h0c.03,1.31-.24,2.5-.66,3.58-.42,1.08-.99,2.04-1.57,2.89-2.73,.25-5.7,.65-8.23,1.07-2.52,.42-4.6,.86-5.55,1.18l.07-49.28Zm16.48,35.9c-.35-.29-.86-.49-1.04-.8-.18-.31-1.01-.3-1.57-.46-.56-.16-.85-.49,.04-1.45,.24-.26,.12-.57-.12-.88-.23-.31-.56-.64-.75-.94-.18-.31,.2-.44,.58-.57,.38-.13,.76-.27,.57-.58-.06-.1-.09-.2-.11-.29-.01-.09,0-.18,0-.27h0c.03-.17,.09-.34,.11-.51,.02-.17,.01-.35-.11-.56-.18-.31-.06-.67-.1-.87-.04-.2-.26-.24-1.13,.1-.77,.19-.96-.19-.96-.62s.19-.91,.19-.91c.91-.19,1.05-.71,1.05-1.21,0-.5-.14-.98,.2-1.09,1.2-.38,1.74-.64,1.91-.87,.17-.23-.02-.42-.28-.66-.53-.48-.38-1.2-.06-1.7,.32-.5,.83-.79,1.02-.41,.44,.87,1.06,1,1.5,.86s.71-.55,.42-.76c-.51-.37-.63-.69-.56-.97,.08-.28,.35-.52,.61-.74h0c.18-.15,.36-.28,.47-.41,.11-.13,.16-.25,.08-.37-.2-.29-.35-.39-.49-.48-.14-.09-.28-.19-.49-.48-.21-.29,.06-.44,.33-.6,.27-.15,.54-.3,.34-.6-.21-.29-.47-.32-.67-.36-.2-.04-.34-.1-.29-.46,.04-.35,.06-.54,.08-.72,.02-.18,.04-.37,.07-.72,.04-.35,.24-.58,.45-.81,.2-.23,.41-.46,.45-.81,.04-.35,.21-.39,.39-.43,.17-.04,.35-.08,.39-.43,.04-.35,.12-.39,.2-.43,.08-.04,.16-.07,.18-.43,.02-.36,.3-.19,.58-.03,.28,.16,.56,.33,.58-.03,0-.08,.19-.14,.44-.14,.26,0,.58,.08,.88,.28,.29,.2,.48-.11,.67-.42,.19-.31,.38-.62,.67-.42,.3,.2,.24,.39,.16,.59-.08,.21-.18,.44,.02,.74,.2,.3,.27,.38,.34,.46,.07,.08,.14,.17,.34,.46,.2,.3,.46,.3,.69,.31,.23,.02,.43,.04,.5,.39,.07,.35,0,.48-.07,.62-.07,.13-.14,.27-.07,.62,.07,.35,.17,.44,.24,.52,.06,.08,.08,.17-.02,.51-.1,.34-.09,.38-.08,.41,.01,.04,.02,.07-.08,.41-.1,.34-.07,.79,.07,1.18,.14,.39,.39,.72,.73,.84,.34,.12,.4,.22,.45,.35,.05,.13,.08,.29,.36,.52,.2,.16,.29,.23,.36,.27,.06,.04,.1,.05,.18,.1h0s.07,.05,.12,.09c.05,.04,.11,.09,.19,.15,.28,.23,.22,.36,.14,.52-.08,.16-.18,.33,0,.64,.18,.31,.34,.31,.49,.31,.16,0,.31,0,.49,.31,.18,.31,.07,.41-.07,.52-.14,.11-.31,.24-.25,.59,.06,.35,.28,.4,.49,.46,.22,.05,.43,.11,.5,.46,.06,.35,.11,.44,.12,.53,0,.09-.04,.17-.15,.51-.11,.34-.22,.36-.33,.38-.11,.02-.22,.04-.33,.38-.11,.34-.14,.38-.16,.43-.03,.05-.05,.09-.16,.43-.11,.33-.02,.42,.07,.5,.09,.08,.19,.15,.11,.44,.04-.02,.09-.04,.16-.04,.06,0,.13,.01,.22,.05,.33,.14,.28,.42,.23,.7-.05,.28-.09,.56,.23,.7,.33,.14,.47,.02,.6-.07,.13-.09,.24-.16,.5,.08,.27,.24,.35,.25,.43,.26,.08,0,.16,.02,.42,.26,.27,.24,.28,.33,.28,.44s-.04,.24,.13,.55c.07,.12,.12,.19,.16,.25,.05,.05,.08,.08,.12,.1h0c.06,.03,.11,.03,.17,.07,.06,.04,.13,.13,.24,.32,.17,.31,.27,.39,.33,.48,.07,.09,.1,.18,.16,.53,.06,.35-.14,.35-.33,.35-.2,0-.39,0-.33,.35,.06,.35,.26,.67,.44,.98,.17,.31,.31,.63,.24,.98-.28-.15-.46,.15-.61,.54-.16,.39-.29,.88-.49,1.09-.67,.72-1.26,1.29-1.72,1.6-.46,.31-.78,.36-.92,.03-.14-.33-.53,.05-.91,.43-.38,.38-.77,.76-.91,.43-.14-.33-.39-.32-.63-.31-.24,0-.48,.01-.62-.31-.14-.33-.63-.2-1.13-.07-.49,.13-.98,.25-1.13-.07-.14-.33-.67,0-1.2,.31-.53,.32-1.06,.64-1.2,.31-.14-.33-.57-.09-1.01,.14-.43,.23-.87,.47-1.01,.14-.14-.33-.98-.34-1.73-.35-.75,0-1.42-.01-1.24-.32,.43-.72,.23-1.12-.12-1.41m2.13,7.6c.17-1.25,.28-2.42,.35-2.94h0c.01-.08,.02-.15,.03-.2,0-.05,.02-.07,.02-.07,.02,0,.06,.06,.17,.12,.11,.06,.3,.1,.62,.07-.01-.04,.01-.04,.05-.02,.04,.02,.1,.07,.17,.1h0c.06,.03,.13,.06,.19,.06,.06,0,.13,0,.18-.06h0s.06-.09,.08-.16c.02-.07,.04-.17,.04-.29,.18-.02,.36-.03,.5-.03,.14,0,.23,0,.23,0,0,0,.03,.09,.07,.19,.04,.1,.1,.21,.17,.29h0s.03,.04,.05,.06c.02,.01,.04,.03,.05,.03,.04,.02,.07,.01,.1,0,.03-.02,.05-.05,.08-.08h0c.04-.05,.07-.12,.09-.18,.03-.05,.06-.1,.08-.09,.04,0,.15,.05,.28,.1,.12,.06,.26,.12,.34,.17h.04s.04,0,.04,0c.11-.07,.15-.2,.2-.29,.05-.08,.12-.12,.27,.04,0,.04,0,.08-.01,.13,0,.04,0,.09-.01,.13h0c-.09,1.46,.23,2.7,.63,3.75,.4,1.05,.86,1.9,1.06,2.59l-3.46-.02-3.46-.02c.34-.81,.58-2.13,.76-3.38m22.51,48.49c0,.17-.02,.34-.03,.51-.11,1.29-.41,2.53-.88,3.67-.47,1.15-1.11,2.21-1.89,3.15-1.14,1.39-2.57,2.53-4.21,3.31-1.63,.79-3.46,1.23-5.4,1.22l-28.86-.04,.08-52.95,41.27,.06-.06,40.53c0,.17,0,.35-.01,.52m-3.23-24.98c-.31-1.27-.81-2.45-1.34-3.08,0,0-.17-.19-.42-.47-.26-.28-.61-.65-.97-1.01h0c-.23-.23-.46-.45-.68-.64-.22-.19-.43-.36-.61-.47-.56-.34-1.38-.36-2.24-.34-.86,.01-1.75,.05-2.44-.18-2.3-.77-4.5-1.28-6.13-1.59-1.63-.31-2.69-.44-2.69-.44l-2.12-1.05-2.13-1.05c.55-.23,.65-1.21,.57-2.13-.08-.92-.33-1.77-.46-1.73-.23,.07-.23,.83-.52,1.55-.29,.72-.87,1.39-2.25,1.28-.04,.06-.33-.12-.72-.32-.39-.2-.87-.42-1.31-.45-.44-.03-.97,.08-1.39,.2-.42,.12-.73,.24-.73,.24-.14,0-.31,.01-.53,0-.21-.02-.47-.07-.77-.18-.52-.18-.69-.88-.77-1.48-.08-.6-.07-1.1-.22-.89-.17,.24-.62,1.12-.67,2.09-.05,.97,.3,2.03,1.74,2.6,0,0-.03,.04-.07,.12-.04,.08-.08,.2-.1,.36-.02,.15-.02,.34-.02,.48,0,.14,0,.25,0,.25l-.34,1.34-.35,1.34c-.02,.08-.2,.16-.38,.25-.18,.09-.35,.18-.35,.25,0,.09,0,.19,.02,.28,.01,.09,.03,.18,.05,.27h0c.14,.54,.5,1.01,.98,1.35,.48,.33,1.1,.54,1.77,.54,.23,0,.46-.02,.68-.07,.22-.04,.43-.11,.62-.2h0s0,0,0,0c.27-.16,.35,.14,.38,.59,.03,.45,.02,1.05,.08,1.49,.04,.25,.14,.44,.29,.67,.15,.24,.36,.53,.6,.99,.24,.46,.33,.77,.33,1.03,0,.26-.08,.45-.18,.68-.15,.32-.14,.48-.17,.58s-.11,.16-.42,.28c-.1,.04-.19,.08-.26,.13-.07,.05-.14,.1-.19,.15h0c-.17,.17-.23,.37-.28,.61-.04,.24-.07,.53-.17,.88-.12,.43-.3,.85-.32,1.16-.03,.32,.09,.52,.56,.52h6.72s6.71,.02,6.71,.02c.18,0,.09,.33,.1,.65,.02,.32,.14,.65,.75,.65,1.18,0,2.16,0,3.11-.01,.95,0,1.87,0,2.93,.03,.62,.07,1.11,.17,1.5,.15,.39-.02,.7-.17,.96-.6,.3,0,1.22-.03,2.16-.53,.94-.51,1.91-1.49,2.31-3.4,0-.02,0-.03,.01-.05,0-.02,0-.03,0-.05h0c.18-.99,.05-2.35-.26-3.63m-28.07-11.22c.2-.12,.66-.28,1.11-.33,.45-.05,.89,.02,1.07,.37-.4,0-1.13,.64-1.66,.95-.54,.31-.88,.3-.52-1m3.43,5.98c-.23,.05-.41,.09-.58,.17-.17,.08-.32,.18-.47,.36-.02,.02-.04,.04-.05,.06-.02,.02-.04,.04-.05,.06h0c-1.14,1.3-1.74,1.43-2,1.2-.25-.23-.16-.82,.07-.94,.06-.03,.11-.07,.16-.11s.08-.1,.11-.15h0c.07-.13,.08-.29-.05-.4-.12-.11-.38-.18-.81-.15l.72-.67,.72-.66c.11,.04,.3-.43,.49-.89,.18-.46,.35-.9,.4-.79,.31,.74,.78,.64,1.02,.24,.25-.4,.27-1.1-.33-1.56l.1-.02,.09-.02c.1,.14,.3,.43,.48,.68s.34,.46,.33,.44c-.01-.03,.15,.02,.33,.09,.18,.07,.36,.17,.4,.22,.47,.5,.44,1.17,.17,1.73-.27,.56-.77,1.03-1.23,1.13m6.62,1.18c-.05,.16-.15,.3-.31,.41-.72,.55-1.5,1.32-2,2.08-.5,.75-.71,1.49-.29,1.96,.46,.51,.92,1.1,1.27,1.67s.59,1.11,.61,1.54v.06c0,.14-.06,.23-.15,.3-.09,.07-.21,.12-.33,.19-.16-.17-.78-.4-1.6-.49-.82-.09-1.82-.04-2.76,.35-.12-.08-.2-.16-.26-.23-.06-.07-.09-.13-.1-.19h0c-.07-.38,.84-.51,1.78-.57,.94-.06,1.9-.06,1.95-.2,.32-.95-.5-1.68-1.42-2.42-.93-.74-1.97-1.49-2.1-2.48-.09-.71,.18-1.17,.57-1.53,.39-.36,.89-.63,1.25-.99h0c.17-.16,.3-.34,.37-.56,.08-.22,.09-.47,.01-.78,.35-.96,1.16-.97,1.92-.57,.76,.4,1.46,1.21,1.61,1.91,.04,.19,.04,.37-.01,.52m9.09,5.81c-.17,.38-.24,.72-.27,1.03-.02,.31,0,.59,.04,.83h0c.06,.42,.15,.74,.05,.95-.11,.21-.4,.32-1.12,.32-2.29,.88-3,.86-2.86,.59,.13-.28,1.11-.81,2.19-.99,.21-.04,.45-.13,.67-.27,.22-.14,.42-.34,.55-.6h0c.06-.11,.1-.23,.14-.36,.03-.13,.05-.27,.04-.43-.05-1.71,.12-3.74,.82-5.21,.71-1.47,1.95-2.39,4.05-1.86,.74,.19,1.75,1.54,2.5,2.77,.74,1.22,1.22,2.31,.9,1.96-.6-.65-1.48-1.1-2.22-1.39-.74-.29-1.33-.41-1.33-.42s-.87,.38-1.82,.96-1.99,1.36-2.33,2.12m8.08,1.88h0c-.02,.13-.04,.3-.09,.49-.05,.19-.12,.41-.21,.65-.28,.58-.75,.99-1.29,1.24-.54,.25-1.16,.33-1.72,.27-.03-.05-.06-.09-.08-.13s-.04-.07-.05-.09c-.08-.04-.13-.08-.18-.13-.04-.05-.08-.1-.14-.16-.39-.34-.93-.22-1.37-.02-.44,.2-.79,.49-.79,.49,.31-.29,.56-.49,.84-.64s.58-.24,.99-.31c.37-.07,.61-.03,.79,.07,.18,.09,.3,.24,.42,.4,.22,0,.45,.04,.71-.01,.26-.05,.56-.19,.92-.56,.22-.23,.43-.51,.62-.79,.18-.28,.34-.56,.45-.77h0c.07-.14,.12-.25,.16-.33,.04-.08,.06-.12,.06-.12,0,0,0,.04,0,.12,0,.08,0,.19-.03,.33m-2.18,21.58c-.31-1.27-.81-2.45-1.34-3.08,0,0-.17-.19-.42-.47-.26-.28-.61-.65-.97-1.01h0c-.23-.23-.46-.45-.68-.64-.22-.19-.43-.36-.61-.47-.56-.34-1.38-.36-2.24-.34-.86,.01-1.75,.05-2.44-.18-2.3-.77-4.5-1.28-6.13-1.59-1.63-.31-2.69-.44-2.69-.44l-2.12-1.05-2.13-1.05c.55-.23,.65-1.21,.57-2.13-.08-.92-.33-1.77-.46-1.73-.23,.07-.23,.83-.52,1.55-.29,.72-.87,1.39-2.25,1.28-.04,.06-.33-.12-.72-.32-.39-.2-.87-.42-1.31-.45-.44-.03-.97,.08-1.39,.2-.42,.12-.73,.24-.73,.24-.14,0-.31,.01-.53,0-.21-.02-.47-.07-.77-.18-.52-.18-.69-.88-.77-1.48-.08-.6-.07-1.1-.22-.89-.17,.24-.62,1.12-.67,2.09-.05,.97,.3,2.03,1.74,2.6,0,0-.03,.04-.07,.12-.04,.08-.08,.2-.1,.36-.02,.15-.02,.34-.02,.48,0,.15,0,.25,0,.25l-.34,1.34-.35,1.34c-.02,.08-.2,.16-.38,.25-.18,.09-.35,.18-.35,.25,0,.09,0,.19,.02,.28,.01,.09,.03,.18,.05,.27h0c.14,.54,.5,1.01,.98,1.35,.48,.33,1.1,.54,1.77,.54,.23,0,.46-.02,.68-.07,.22-.04,.43-.11,.62-.2h0s0,0,0,0c.27-.16,.35,.14,.38,.59,.03,.45,.02,1.05,.08,1.49,.04,.25,.14,.44,.29,.68,.15,.24,.36,.53,.6,.99,.24,.46,.33,.77,.33,1.03,0,.26-.08,.45-.18,.68-.15,.32-.14,.48-.17,.58s-.11,.16-.42,.28c-.1,.04-.19,.08-.26,.13-.07,.05-.14,.1-.19,.15h0c-.17,.17-.23,.37-.28,.61s-.07,.53-.17,.88c-.12,.43-.3,.85-.32,1.16-.03,.32,.09,.52,.56,.52h6.72s6.71,.02,6.71,.02c.18,0,.09,.33,.1,.65,.02,.32,.14,.65,.75,.65,1.18,0,2.16,0,3.11-.01,.95,0,1.87,0,2.93,.03,.62,.07,1.11,.17,1.5,.15,.39-.02,.7-.17,.96-.6,.3,0,1.22-.03,2.16-.53,.94-.51,1.91-1.49,2.31-3.4,0-.02,0-.03,.01-.05,0-.02,0-.03,0-.05h0c.18-.99,.05-2.35-.26-3.63m-28.07-11.22c.2-.12,.66-.28,1.11-.33,.45-.05,.89,.02,1.07,.37-.4,0-1.13,.64-1.66,.95-.54,.31-.88,.3-.52-1m3.43,5.98c-.23,.05-.41,.09-.58,.17-.17,.08-.32,.18-.47,.36-.02,.02-.04,.04-.05,.06-.02,.02-.04,.04-.05,.06h0c-1.14,1.3-1.74,1.43-2,1.2-.25-.23-.16-.82,.07-.94,.06-.03,.11-.07,.16-.11s.08-.1,.11-.15h0c.07-.13,.08-.29-.05-.4-.12-.11-.38-.18-.81-.15l.72-.67,.72-.66c.11,.04,.3-.43,.49-.89,.18-.46,.35-.9,.4-.79,.31,.74,.78,.64,1.03,.24,.25-.4,.27-1.1-.33-1.56l.1-.02,.09-.02c.1,.14,.3,.43,.48,.68,.18,.25,.34,.46,.33,.44-.01-.03,.15,.02,.33,.09,.18,.07,.36,.17,.4,.22,.47,.5,.44,1.17,.17,1.73-.27,.56-.77,1.03-1.23,1.13m6.62,1.18c-.05,.16-.15,.3-.31,.41-.72,.55-1.5,1.32-2,2.08-.5,.75-.71,1.49-.29,1.96,.46,.51,.92,1.1,1.27,1.67,.35,.57,.59,1.11,.61,1.54v.06c0,.14-.06,.23-.15,.3-.09,.07-.21,.12-.33,.19-.16-.17-.78-.4-1.6-.49-.82-.09-1.82-.04-2.76,.35-.12-.08-.2-.16-.26-.23-.06-.07-.09-.13-.1-.19h0c-.07-.38,.84-.51,1.78-.57,.94-.06,1.9-.06,1.95-.2,.32-.95-.5-1.68-1.42-2.42-.93-.74-1.97-1.49-2.1-2.48-.09-.71,.18-1.17,.57-1.53,.39-.36,.89-.63,1.25-.99h0c.17-.16,.3-.34,.37-.56,.08-.22,.09-.47,.01-.78,.35-.96,1.16-.97,1.92-.57,.76,.4,1.46,1.21,1.61,1.91,.04,.19,.04,.36-.01,.52m9.09,5.81c-.17,.38-.24,.72-.27,1.03-.02,.31,0,.59,.04,.83h0c.06,.42,.15,.74,.05,.95-.11,.21-.4,.32-1.12,.32-2.29,.88-3,.86-2.86,.59,.13-.28,1.11-.81,2.19-.99,.21-.04,.45-.13,.67-.27,.22-.15,.42-.34,.55-.6h0c.06-.11,.1-.23,.14-.36,.03-.13,.05-.27,.04-.43-.05-1.71,.12-3.74,.82-5.21,.71-1.47,1.95-2.39,4.05-1.86,.74,.19,1.75,1.54,2.5,2.76,.74,1.22,1.22,2.31,.9,1.96-.6-.65-1.48-1.1-2.22-1.39-.74-.29-1.33-.41-1.33-.42s-.87,.38-1.82,.96c-.95,.58-1.99,1.36-2.33,2.12m8.08,1.88h0c-.02,.13-.04,.3-.09,.49-.05,.19-.12,.41-.21,.65-.28,.58-.75,.99-1.29,1.24-.54,.25-1.16,.33-1.72,.27-.03-.05-.06-.09-.08-.13-.02-.04-.04-.07-.05-.09-.08-.04-.13-.08-.18-.13-.04-.05-.08-.1-.14-.16-.39-.34-.93-.22-1.37-.02-.44,.2-.79,.49-.79,.49,.31-.29,.56-.49,.84-.64,.28-.15,.58-.24,.99-.31,.37-.07,.61-.03,.79,.07,.18,.1,.3,.24,.42,.4,.22,0,.45,.04,.71-.01s.56-.19,.92-.56c.22-.23,.43-.51,.62-.79,.18-.28,.34-.56,.45-.77h0c.07-.14,.12-.25,.16-.33,.04-.08,.06-.12,.06-.12,0,0,0,.04,0,.12,0,.08,0,.19-.03,.33m-56.43-74.97h1.41s1.41,0,1.41,0c.11,0,.2,.04,.27,.11,.07,.07,.11,.16,.11,.27v1.41s0,1.41,0,1.41c0,.1-.04,.2-.11,.27-.07,.07-.16,.11-.27,.11l-.18-.29-.19-.29h-1.09s-1.09,0-1.09,0v-1.08s0-1.08,0-1.08l-.32-.23-.32-.23c0-.11,.04-.2,.11-.27,.07-.07,.16-.11,.27-.11m-6.54,3.74l-.5-.17-.5-.17h-.28s-.28,0-.28,0v-.66s0-.66,0-.66l-.22-.47-.22-.47c0-.06,.02-.11,.04-.16,.03-.04,.06-.07,.1-.08l.92-.29,.92-.29s.08,.01,.1,.05c.03,.04,.04,.09,.04,.15v1.49s0,1.48,0,1.48c0,.06-.02,.12-.04,.16-.03,.04-.06,.07-.1,.08m15.34-29.5c.15,.05,.3,.05,.41,.06,.11,.02,.18,.06,.18,.2,0,.05-.02,.1-.07,.13-.05,.03-.12,.05-.21,.05-.14,0-.32-.02-.53-.05-.21-.02-.46-.05-.74-.05-.28,0-.52,.02-.74,.05-.21,.02-.39,.05-.53,.05-.09,0-.16-.02-.21-.06-.05-.04-.07-.09-.07-.16,0-.13,.07-.17,.18-.19,.11-.01,.26,0,.4-.05,.17-.05,.26-.11,.31-.23,.05-.12,.05-.29,.05-.58v-1.47s0-1.47,0-1.47v-1.79s0-1.79,0-1.79c0-.05-.02-.12-.05-.17-.03-.05-.07-.09-.13-.09h-.38c-.27,0-.49,.05-.68,.16-.19,.11-.36,.27-.52,.48-.16,.27-.27,.48-.37,.63-.1,.15-.18,.23-.29,.23-.05,0-.08,0-.11-.03-.02-.03-.04-.07-.04-.16,0,0,0-.04,.02-.08,.01-.04,.02-.1,.04-.15l.17-.68,.17-.68c.05-.2,.07-.37,.1-.49s.08-.19,.17-.19c.08,0,.12,.11,.15,.22,.04,.11,.07,.23,.15,.23,.05,.05,.12,.08,.23,.1,.11,.02,.24,.03,.4,.03,.13,0,.27,0,.43,0,.16,0,.34,0,.53,0h.82s.82,0,.82,0c.22,0,.42,0,.59,.01,.17,0,.32,.01,.45,.01,.1,0,.19,0,.26-.01,.07,0,.13-.03,.17-.05,.12-.07,.19-.21,.25-.32,.06-.12,.11-.21,.17-.21,.05,0,.09,.04,.11,.09,.02,.05,.03,.11,.03,.15v.15l-.04,.88-.04,.88c0,.15-.02,.24-.05,.3-.03,.06-.07,.08-.14,.08-.12,0-.18-.09-.23-.25-.05-.16-.08-.38-.16-.64-.12-.29-.28-.45-.51-.55-.23-.09-.53-.11-.94-.11h-.21c-.05,0-.1,.03-.13,.07-.03,.04-.05,.1-.05,.14v1.81s0,1.81,0,1.81v1.47s0,1.47,0,1.47c0,.28,0,.45,.05,.57,.05,.12,.14,.18,.31,.24m-27.4-1.6s.06,.02,.08,.04c.02,.02,.04,.05,.04,.07,0,0,0,.04,0,.08,0,.04,0,.1-.01,.16l-.07,.63-.07,.63c0,.06-.01,.11-.02,.14,0,.04,0,.06,0,.08,0,.07-.02,.13-.07,.17-.05,.04-.11,.06-.2,.06-.28,0-.69-.03-1.23-.06-.54-.03-1.21-.06-2-.06-.35,0-.63,.02-.84,.04-.21,.02-.35,.04-.43,.04-.09,0-.16-.02-.21-.06-.05-.04-.07-.09-.07-.16,0-.13,.07-.17,.17-.18,.1-.02,.23-.01,.36-.04,.21-.05,.32-.11,.38-.23,.05-.12,.05-.3,.05-.58v-1.47s0-1.47,0-1.47v-1.59s0-1.6,0-1.6c0-.2,0-.34-.04-.43-.04-.09-.1-.15-.23-.19-.16-.05-.3-.05-.41-.06-.1-.01-.17-.05-.17-.18,0-.05,.02-.1,.05-.13,.03-.03,.07-.05,.13-.05,.07,0,.19,.03,.39,.05,.2,.03,.48,.05,.84,.06,.4,0,.71-.03,.93-.05,.22-.03,.36-.05,.43-.05,.06,0,.11,.02,.15,.05,.04,.03,.05,.08,.05,.13,0,.12-.06,.16-.16,.18-.1,.02-.25,.01-.41,.05-.17,.03-.25,.08-.3,.18-.05,.1-.05,.24-.05,.45v1.6s0,1.59,0,1.59v1.47s0,1.47,0,1.47c0,.29,.08,.5,.22,.65,.15,.15,.36,.22,.65,.22,.29,0,.54-.06,.77-.18,.23-.12,.43-.31,.61-.55,.2-.27,.34-.49,.44-.65,.11-.16,.18-.25,.25-.25m2.94,1.57c.15,.05,.3,.04,.41,.06,.11,.02,.18,.06,.18,.21,0,.05-.02,.1-.07,.13-.05,.03-.12,.05-.21,.05-.08,0-.22-.02-.44-.04-.21-.02-.49-.04-.84-.04-.35,0-.63,.02-.84,.04-.21,.02-.36,.04-.44,.04-.09,0-.16-.02-.21-.06-.05-.04-.07-.09-.07-.16,0-.13,.07-.17,.17-.18,.1-.02,.23-.01,.36-.04,.21-.05,.32-.11,.38-.23,.05-.12,.05-.3,.05-.58v-1.47s0-1.47,0-1.47v-1.6s0-1.59,0-1.59c0-.21,0-.35-.05-.44-.04-.09-.11-.14-.25-.18-.17-.05-.33-.04-.44-.06-.11-.01-.18-.05-.18-.19,0-.05,.02-.1,.05-.13s.08-.05,.15-.05,.21,.03,.43,.05c.22,.03,.52,.05,.9,.05,.38,0,.68-.03,.89-.05,.22-.03,.36-.05,.43-.05,.06,0,.11,.02,.15,.05,.04,.03,.05,.08,.05,.13,0,.12-.06,.16-.16,.18-.1,.02-.25,.01-.41,.05-.17,.03-.25,.08-.3,.18-.05,.1-.05,.24-.05,.45v1.59s0,1.6,0,1.6v1.47s0,1.47,0,1.47c0,.28,0,.45,.05,.57,.05,.12,.14,.18,.31,.23m32.08,.03c-.17-.11-.29-.26-.39-.46-.1-.2-.17-.44-.27-.75l-.4-1.26-.4-1.26-.61-1.92-.61-1.92c-.06-.19-.09-.34-.14-.45-.04-.11-.09-.17-.19-.18-.07,0-.11,.03-.14,.09-.03,.05-.05,.13-.08,.24l-.64,2.08-.64,2.08-.43,1.38-.43,1.38c-.07,.24-.13,.44-.21,.61-.07,.16-.16,.29-.28,.38-.13,.1-.3,.11-.44,.12-.13,.02-.23,.04-.23,.18,0,.05,.02,.1,.06,.13,.04,.03,.1,.05,.18,.05,.09,0,.22-.02,.37-.03,.15-.02,.32-.03,.52-.03,.29,0,.53,.02,.73,.04,.2,.02,.34,.04,.44,.04,.07,0,.13,0,.17-.04,.04-.03,.06-.06,.06-.12,0-.1-.04-.16-.13-.2-.09-.04-.22-.07-.4-.09-.12-.02-.21-.04-.27-.1-.06-.05-.08-.13-.08-.27,0-.08,.02-.21,.05-.38,.03-.17,.08-.39,.15-.65l.16-.6,.16-.6s.03-.06,.06-.09,.06-.03,.09-.03h.83s.83,0,.83,0c.05,0,.1,0,.13,.02,.03,.01,.06,.04,.07,.09l.26,.86,.26,.86c.04,.14,.07,.26,.09,.36,.02,.1,.03,.18,.03,.24,0,.12-.03,.2-.11,.25-.08,.05-.22,.07-.44,.07-.08,0-.15,.02-.2,.06-.05,.04-.07,.09-.07,.15s.02,.1,.05,.13c.04,.03,.09,.04,.18,.04,.09,0,.24-.02,.47-.03,.23-.02,.53-.03,.9-.03,.27,0,.49,.02,.68,.04,.19,.02,.33,.04,.45,.04,.1,0,.17,0,.22-.04,.05-.03,.07-.08,.07-.15,0-.08-.06-.11-.15-.14s-.22-.07-.34-.15m-2.7-3.16h-.67s-.67,0-.67,0c-.03,0-.05-.01-.07-.03-.02-.02-.03-.04-.03-.06,0,0,0-.02,0-.05,0-.02,0-.05,.01-.09l.05-.18,.05-.18,.27-1.01,.27-1.01s.02-.06,.04-.08c.01-.02,.03-.03,.05-.03,.01,0,.03,0,.04,.03,.01,.02,.03,.05,.04,.09l.31,1,.31,1,.05,.16,.05,.17s.01,.05,.02,.07c0,.02,0,.04,0,.06,0,.03-.02,.05-.04,.07-.02,.02-.05,.03-.08,.03m-22.74-.6h0c-.13-.1-.27-.19-.43-.26-.16-.07-.33-.12-.52-.16,.45-.17,.78-.39,.99-.68,.22-.29,.32-.65,.32-1.09,0-.72-.28-1.24-.84-1.57-.56-.33-1.4-.49-2.52-.49-.83,0-1.46,.04-1.87,.1-.42,.07-.63,.17-.63,.31,0,.06,.01,.11,.04,.14,.03,.03,.07,.05,.12,.05,.07,0,.14-.02,.22-.03,.08-.02,.16-.03,.25-.03,.12,0,.21,.04,.27,.13,.06,.09,.09,.22,.09,.4v1.59s0,1.59,0,1.59v1.47s0,1.47,0,1.47c0,.07,0,.13,0,.17,0,.04,0,.07,0,.09,0,.18-.03,.32-.11,.42-.08,.1-.21,.15-.41,.15-.11,0-.19,.01-.24,.05-.05,.03-.08,.08-.08,.16,0,.07,.02,.12,.07,.16,.04,.04,.11,.06,.19,.06,.09,0,.21-.02,.38-.04s.37-.04,.62-.04c.33,0,.69,.05,1.09,.1,.4,.05,.84,.1,1.32,.1,.76,0,1.38-.25,1.82-.69,.44-.43,.69-1.05,.69-1.76,0-.41-.07-.78-.2-1.09s-.33-.57-.59-.78m-3.34-3.17c0-.24,.02-.4,.13-.5,.11-.1,.3-.14,.64-.14,.53,0,.94,.15,1.21,.44,.28,.29,.42,.71,.42,1.26,0,.51-.17,.91-.48,1.18-.31,.27-.77,.41-1.34,.41h-.17c-.2,0-.3,0-.36-.06-.05-.05-.06-.16-.06-.35v-1.12s0-1.12,0-1.12Zm1.07,7.01c-.4,0-.67-.08-.84-.25-.17-.17-.24-.42-.24-.76v-1.37s0-1.37,0-1.37c0-.01,0-.03,0-.04,0-.01,0-.03,0-.04h0s.03-.05,.06-.07c.03-.02,.06-.03,.1-.03h.41s.42,0,.42,0c.11,0,.22,0,.32,.02,.1,.01,.2,.04,.29,.06h.01s.01,0,.01,0c.38,.11,.68,.33,.87,.64,.2,.31,.3,.7,.3,1.16,0,.65-.17,1.16-.46,1.5-.3,.35-.73,.53-1.26,.53m32.38-3.79h0c.18,.23,.32,.48,.41,.76,.09,.28,.14,.6,.14,.97,0,.78-.27,1.46-.73,1.95-.46,.48-1.1,.77-1.85,.77-.59,0-1.09-.1-1.43-.29-.35-.19-.55-.48-.55-.86,0-.15,0-.3,.01-.44,0-.14,.01-.27,.01-.4,0-.1,0-.18,0-.24,0-.06,0-.1,0-.11,0-.14,.02-.24,.06-.31,.04-.07,.08-.1,.15-.1,.12,0,.16,.11,.2,.28,.03,.17,.05,.4,.12,.66,.13,.45,.36,.81,.65,1.05,.28,.25,.62,.38,.96,.38,.4,0,.76-.17,1.02-.46,.26-.28,.42-.69,.42-1.15,0-.41-.13-.77-.38-1.1-.25-.33-.63-.63-1.14-.92-.13-.08-.26-.15-.39-.22-.13-.07-.25-.14-.36-.22h0c-.35-.23-.64-.47-.85-.8-.21-.33-.33-.76-.33-1.35,0-.69,.23-1.27,.64-1.68,.41-.41,1.01-.65,1.73-.64,.37,0,.72,.07,1,.15,.27,.08,.47,.19,.53,.27,.03,.04,.06,.18,.08,.43,.02,.24,.03,.59,.03,1.03,0,.09-.02,.16-.05,.21-.03,.05-.07,.07-.13,.07-.09,0-.14-.06-.19-.18-.05-.12-.1-.3-.19-.53-.14-.36-.28-.63-.47-.82-.18-.19-.41-.28-.73-.28-.4,0-.72,.13-.94,.37-.22,.24-.35,.58-.35,1.01,0,.35,.1,.63,.31,.87,.2,.24,.52,.45,.94,.67,.36,.19,.69,.38,.97,.57,.28,.2,.52,.4,.7,.64h0Zm25.91,3.78c.15,.05,.3,.04,.41,.06,.11,.02,.18,.06,.18,.21,0,.05-.02,.1-.07,.13-.05,.03-.12,.05-.21,.05-.08,0-.22-.02-.43-.04-.21-.02-.49-.04-.84-.04-.35,0-.63,.02-.84,.04-.21,.02-.36,.04-.44,.04-.09,0-.16-.02-.21-.06-.05-.04-.07-.09-.07-.16,0-.13,.07-.17,.17-.18,.1-.02,.23-.01,.36-.04,.21-.05,.32-.11,.38-.23,.05-.12,.05-.3,.05-.58v-1.47s0-1.47,0-1.47v-1.6s0-1.59,0-1.59c0-.21,0-.35-.05-.44-.04-.09-.12-.14-.25-.18-.17-.05-.33-.04-.44-.06-.11-.01-.18-.05-.18-.19,0-.05,.02-.1,.05-.13,.03-.03,.08-.05,.15-.05s.21,.03,.43,.05c.22,.03,.52,.05,.9,.05,.38,0,.68-.03,.89-.05,.22-.03,.36-.05,.43-.05,.06,0,.11,.02,.15,.05,.04,.03,.05,.08,.05,.13,0,.12-.06,.16-.16,.18-.1,.02-.25,.01-.41,.05-.17,.03-.25,.08-.3,.18-.04,.09-.05,.24-.05,.45v1.59s0,1.6,0,1.6v1.47s0,1.47,0,1.47c0,.28,0,.45,.05,.57,.05,.12,.14,.18,.31,.23m-47.36-3.81v1.47s0,1.47,0,1.47c0,.29,0,.46-.06,.58-.05,.12-.16,.18-.38,.23-.13,.03-.26,.03-.36,.04-.1,.02-.16,.06-.16,.18,0,.07,.02,.12,.07,.16,.05,.04,.12,.06,.21,.06,.08,0,.22-.02,.44-.04,.21-.02,.49-.04,.84-.04,.35,0,.62,.02,.82,.04,.2,.02,.33,.04,.4,.04,.08,0,.15-.02,.19-.05,.05-.03,.07-.08,.07-.13,0-.08-.02-.14-.07-.17-.05-.04-.12-.05-.23-.05-.29,0-.43-.08-.51-.23-.08-.15-.08-.36-.08-.62v-1.32s0-1.32,0-1.32c0-.05,.02-.1,.05-.13s.07-.05,.13-.05h.13c.21,0,.35,.03,.46,.13,.11,.09,.19,.24,.29,.48l.6,1.52,.6,1.52c.06,.15,.1,.26,.15,.33,.06,.07,.13,.11,.26,.11,.1,0,.2,0,.29-.02,.1,0,.19-.02,.29-.02,.16,0,.3,.01,.44,.02,.14,0,.26,.02,.38,.02,.08,0,.14,0,.17-.02,.04-.02,.05-.05,.05-.11,0-.1-.07-.15-.17-.18-.1-.04-.25-.06-.39-.13-.09-.03-.17-.15-.26-.35-.1-.2-.21-.48-.36-.84l-.39-.92-.39-.92c-.06-.14-.12-.27-.18-.4-.06-.12-.14-.23-.23-.32h0s-.05-.05-.07-.07c-.02-.02-.05-.04-.07-.06,.44-.1,.8-.35,1.05-.7,.25-.36,.39-.82,.39-1.36,0-.62-.19-1.14-.56-1.51-.37-.36-.92-.57-1.64-.57-.3,0-.61,.02-.93,.04-.32,.02-.65,.04-.98,.04-.23,0-.43-.01-.58-.03s-.25-.03-.31-.03c-.12,0-.21,0-.27,.03-.06,.03-.09,.07-.09,.16,0,.13,.07,.17,.18,.19,.11,.01,.27,0,.45,.05,.13,.04,.21,.09,.25,.18,.04,.09,.05,.23,.05,.44v1.59s0,1.59,0,1.59m1.82-.3c-.23,0-.38,0-.48-.05-.1-.04-.14-.12-.14-.26v-1.27s0-1.27,0-1.27c0-.22,.01-.39,.11-.5,.09-.11,.26-.17,.56-.17,.44,0,.77,.18,1,.49,.23,.32,.34,.77,.34,1.33,0,.56-.12,.98-.36,1.27-.24,.29-.58,.43-1.04,.43m-8.08,.29v-1.59s0-1.6,0-1.6c0-.2,0-.34-.03-.43-.03-.09-.09-.15-.22-.19-.15-.05-.29-.04-.4-.05s-.18-.05-.18-.19c0-.06,.02-.11,.06-.14,.04-.03,.1-.05,.17-.05,.05,0,.24,.01,.58,.03,.33,.01,.8,.03,1.42,.03,.78,0,1.4-.01,1.83-.03,.44-.01,.7-.03,.79-.03,.18,0,.28,.03,.32,.1,.05,.07,.05,.17,.05,.31v.63s0,.58,0,.58c0,.11,0,.2-.03,.25-.02,.06-.06,.08-.12,.08-.12,0-.16-.14-.24-.34-.07-.2-.18-.45-.42-.67-.18-.17-.4-.3-.67-.38-.27-.08-.59-.13-.96-.13-.35,0-.54,.05-.64,.17-.1,.13-.11,.33-.11,.64v1.1s0,1.1,0,1.1c0,.11,0,.18,.03,.22,.03,.04,.09,.05,.21,.05h.3s.3,0,.3,0c.28,0,.53-.03,.72-.07,.2-.04,.34-.1,.4-.16,.18-.17,.23-.38,.27-.54,.04-.16,.06-.28,.2-.28,.06,0,.1,.01,.12,.04,.02,.03,.04,.08,.03,.14,0,.17-.02,.36-.03,.59-.02,.22-.03,.47-.04,.74v.06c0,.3,.01,.54,.02,.72,0,.18,.02,.3,.02,.36,0,.08-.02,.14-.05,.18-.03,.04-.07,.06-.11,.06-.11,0-.16-.1-.21-.27-.05-.17-.11-.4-.25-.66-.06-.11-.13-.19-.2-.25s-.17-.1-.27-.13h-.01c-.09-.03-.18-.04-.29-.05-.11,0-.22-.01-.35-.01h-.59s-.08,0-.12,0c-.03,0-.06,.02-.07,.04h0s-.03,.04-.04,.08c0,.03-.01,.07-.01,.12v1.38s0,1.38,0,1.38c0,.37,.04,.58,.18,.7,.14,.12,.38,.15,.78,.15,.42,0,.73-.03,1-.13,.27-.11,.48-.3,.69-.63,.16-.25,.27-.48,.36-.65,.09-.17,.18-.28,.28-.28,.03,0,.06,.02,.09,.05,.03,.03,.05,.05,.05,.08,0,0,0,.02,0,.06,0,.04-.01,.1-.02,.18l-.07,.65-.07,.65c-.02,.21-.03,.33-.08,.39-.05,.07-.14,.08-.34,.08-.27,0-.7-.03-1.27-.06s-1.29-.06-2.14-.06c-.4,0-.7,.02-.91,.03-.22,.02-.35,.03-.4,.03-.1,0-.17-.02-.22-.05-.05-.04-.07-.09-.07-.16,0-.12,.06-.16,.16-.18,.1-.02,.25,0,.41-.04,.19-.03,.29-.1,.35-.24,.05-.14,.06-.33,.06-.59v-1.47s0-1.47,0-1.47m68.07-4.14c.09,0,.16,.01,.21,.04,.05,.03,.07,.08,.07,.14,0,.08-.03,.13-.09,.15-.06,.03-.16,.03-.29,.03-.28,0-.43,.11-.5,.39-.08,.28-.08,.73-.08,1.4v1.03s0,1.03,0,1.03v.61s0,.61,0,.61c0,.46,0,.87-.05,1.23-.05,.36-.14,.69-.32,.99-.19,.32-.47,.57-.83,.74-.36,.17-.81,.26-1.32,.26-.57,0-1.05-.08-1.44-.23-.39-.16-.69-.4-.92-.73-.18-.26-.28-.55-.33-.88-.05-.33-.06-.69-.06-1.1v-.75s0-.75,0-.75v-1.59s0-1.59,0-1.59c0-.22,0-.36-.04-.44-.04-.09-.11-.13-.25-.17-.18-.05-.33-.05-.44-.06-.11-.01-.18-.05-.18-.18,0-.05,.02-.1,.06-.13,.04-.03,.09-.05,.15-.05,.07,0,.21,.03,.43,.05,.22,.03,.52,.05,.9,.06,.38,0,.68-.03,.9-.05,.22-.03,.36-.05,.43-.05s.11,.02,.15,.05c.03,.03,.05,.08,.05,.13,0,.14-.08,.18-.19,.19-.12,.01-.27,0-.43,.05-.13,.04-.21,.09-.25,.18-.04,.09-.05,.22-.05,.44v1.6s0,1.6,0,1.6v.74s0,.74,0,.74c0,.82,.08,1.44,.34,1.86,.26,.42,.69,.63,1.4,.64,.36,0,.67-.06,.93-.18,.26-.12,.48-.3,.64-.52,.16-.24,.24-.52,.29-.86s.05-.73,.05-1.19v-1.21s0-1.01,0-1.01v-1.01c0-.51,0-.89-.03-1.17-.03-.28-.09-.46-.21-.55-.12-.09-.3-.09-.45-.11-.15-.01-.27-.04-.27-.19,0-.06,.02-.11,.06-.14,.04-.03,.1-.05,.17-.05,.08,0,.19,.01,.34,.02,.15,.01,.34,.02,.56,.02,.24,0,.44,0,.59-.02,.15,0,.26-.02,.33-.02m-7.37-.58c.05,0,.09,.04,.12,.09,.02,.05,.03,.11,.03,.15v.15l-.04,.88-.04,.88c0,.15-.02,.24-.05,.3-.03,.06-.07,.08-.14,.08-.12,0-.18-.09-.22-.25-.05-.16-.08-.38-.16-.64-.12-.29-.28-.45-.51-.55-.23-.09-.53-.11-.94-.11h-.22c-.06,0-.1,.03-.13,.07-.03,.04-.05,.1-.05,.14v1.81s0,1.81,0,1.81v1.47s0,1.47,0,1.47c0,.28,0,.45,.05,.57,.05,.12,.14,.18,.31,.24,.16,.05,.3,.05,.41,.06,.11,.02,.18,.06,.18,.2,0,.05-.02,.1-.07,.13-.05,.03-.12,.05-.21,.05-.14,0-.32-.02-.53-.05s-.46-.05-.74-.05c-.27,0-.52,.02-.74,.05-.22,.02-.4,.05-.54,.05-.09,0-.16-.02-.21-.06-.05-.04-.07-.09-.07-.16,0-.13,.07-.17,.19-.18,.11-.01,.26,0,.41-.06,.17-.05,.26-.11,.31-.23,.05-.12,.05-.29,.05-.58v-1.47s0-1.47,0-1.47v-1.79s0-1.79,0-1.79c0-.05-.02-.12-.05-.17-.03-.05-.07-.09-.13-.09h-.19s-.19,0-.19,0c-.27,0-.49,.05-.68,.16-.19,.11-.36,.27-.52,.48-.16,.27-.27,.48-.37,.63-.1,.15-.18,.23-.29,.23-.04,0-.08,0-.11-.03-.03-.02-.04-.07-.04-.16,0,0,0-.04,.02-.08,0-.04,.02-.09,.04-.15l.17-.68,.17-.68c.05-.2,.07-.37,.11-.49,.03-.12,.08-.19,.17-.19,.08,0,.12,.11,.15,.22,.04,.11,.07,.23,.15,.23,.05,.05,.12,.08,.23,.1,.11,.02,.24,.03,.4,.03,.13,0,.27,0,.43,0,.16,0,.34,0,.53,0h.82s.82,0,.82,0c.22,0,.42,0,.59,.01,.17,0,.33,.01,.45,.01,.1,0,.18,0,.26-.01,.07,0,.13-.03,.17-.05,.12-.07,.19-.21,.25-.32,.06-.12,.11-.21,.17-.21m9,4.82v1.47s0,1.47,0,1.47c0,.29,0,.46-.06,.58-.05,.12-.16,.18-.38,.23-.12,.03-.26,.03-.35,.04-.1,.02-.17,.06-.17,.18,0,.07,.02,.12,.07,.16,.05,.04,.12,.06,.21,.06,.08,0,.23-.02,.44-.04,.21-.02,.49-.04,.84-.04,.35,0,.62,.02,.82,.04,.2,.02,.33,.04,.4,.04,.08,0,.15-.02,.19-.05,.05-.03,.07-.08,.07-.13,0-.08-.02-.14-.07-.17-.05-.04-.12-.05-.22-.05-.29,0-.44-.08-.51-.23-.08-.15-.08-.36-.08-.62v-1.32s0-1.32,0-1.32c0-.05,.02-.1,.05-.13,.03-.03,.07-.05,.13-.05h.14c.21,0,.35,.03,.46,.13,.11,.09,.2,.24,.29,.48l.6,1.52,.6,1.52c.06,.15,.1,.26,.15,.33,.06,.07,.13,.11,.26,.11,.1,0,.2,0,.3-.02,.1,0,.2-.02,.3-.02,.15,0,.3,.01,.44,.02,.14,0,.26,.02,.38,.02,.08,0,.14,0,.18-.02,.04-.02,.06-.05,.06-.11,0-.1-.07-.15-.17-.18-.1-.04-.24-.06-.39-.13-.09-.03-.17-.15-.26-.35-.1-.2-.21-.48-.37-.84l-.39-.92-.39-.92c-.06-.14-.11-.27-.18-.4-.06-.12-.14-.23-.23-.32h0s-.04-.05-.07-.07c-.02-.02-.05-.04-.07-.06,.44-.1,.8-.35,1.05-.7,.25-.36,.39-.82,.39-1.36,0-.62-.19-1.14-.56-1.5-.37-.36-.92-.57-1.63-.57-.3,0-.61,.02-.93,.04-.32,.02-.65,.04-.98,.04-.23,0-.43-.01-.58-.03-.15-.01-.25-.03-.31-.03-.12,0-.21,0-.27,.03-.06,.03-.09,.07-.09,.16,0,.13,.07,.17,.18,.19,.11,.02,.27,0,.44,.06,.13,.04,.21,.09,.25,.18,.04,.09,.05,.22,.05,.44v1.6s0,1.59,0,1.59m1.82-.3c-.23,0-.38,0-.48-.05-.1-.04-.14-.12-.14-.26v-1.27s0-1.27,0-1.27c0-.22,.01-.39,.11-.5,.09-.11,.26-.17,.57-.17,.43,0,.77,.18,.99,.49,.23,.32,.34,.77,.34,1.33,0,.56-.12,.98-.36,1.27-.23,.29-.58,.43-1.04,.43m-39.41,.24h0v-.03c0-1.25,.45-2.36,1.18-3.16,.73-.8,1.74-1.29,2.86-1.29,.49,0,.94,.08,1.29,.18,.35,.1,.61,.23,.69,.32,.05,.05,.09,.19,.12,.43,.03,.23,.05,.56,.05,.95,0,.07-.01,.13-.03,.18-.02,.04-.05,.07-.08,.07-.06,0-.12-.05-.19-.14-.07-.09-.15-.23-.25-.39-.24-.4-.48-.7-.75-.91-.27-.21-.56-.31-.91-.32-.72,0-1.37,.41-1.84,1.12-.47,.72-.76,1.75-.77,2.99v.04c0,1.16,.28,2.16,.74,2.86,.45,.71,1.07,1.13,1.73,1.13,.41,0,.76-.11,1.04-.34,.29-.23,.53-.57,.74-1.04,.11-.24,.19-.43,.26-.56,.07-.13,.13-.2,.22-.2,.04,0,.08,.02,.1,.07,.03,.05,.04,.12,.04,.21,0,.05,0,.18-.02,.37-.01,.19-.02,.45-.02,.77,0,.31-.24,.6-.65,.81-.41,.21-.98,.34-1.66,.34-1.12,0-2.09-.49-2.79-1.29-.69-.8-1.11-1.91-1.12-3.16h0Zm16.16-4.2c-.3,0-.55,0-.78,.01-.22,0-.41,.01-.56,.01h-.11s-.11,0-.11,0c-.32,0-.57-.01-.75-.02-.18,0-.28-.02-.31-.02-.08,0-.14,.01-.19,.04-.04,.03-.07,.08-.07,.14,0,.13,.07,.17,.18,.19,.11,.02,.26,.01,.43,.07,.12,.04,.2,.09,.23,.19,.04,.09,.05,.22,.04,.42v1.6s0,1.59,0,1.59v1.42s0,1.42,0,1.42c0,.3,0,.5-.05,.65-.05,.14-.15,.22-.36,.28-.12,.03-.23,.03-.32,.04-.09,.01-.16,.04-.18,.13-.04-.04-.1-.05-.18-.08-.08-.03-.18-.06-.28-.13-.17-.11-.29-.26-.39-.46-.1-.2-.17-.44-.27-.75l-.4-1.26-.4-1.26-.61-1.92-.61-1.92c-.06-.19-.09-.34-.13-.46-.04-.11-.09-.17-.19-.17-.07,0-.11,.03-.14,.08-.03,.05-.05,.14-.08,.24l-.64,2.08-.64,2.08-.43,1.38-.43,1.38c-.07,.24-.13,.44-.21,.61-.07,.17-.16,.29-.28,.38-.13,.1-.3,.11-.43,.12-.13,.02-.23,.04-.23,.18,0,.05,.02,.1,.06,.13,.04,.03,.1,.05,.18,.05,.09,0,.22-.02,.37-.03,.15-.02,.32-.03,.52-.03,.29,0,.53,.02,.73,.04,.2,.02,.34,.04,.43,.04,.08,0,.13,0,.17-.04,.04-.02,.06-.07,.06-.12,0-.1-.04-.16-.13-.2-.09-.04-.22-.07-.4-.09-.12-.02-.21-.04-.27-.09-.06-.05-.08-.13-.08-.27,0-.08,.02-.21,.05-.38,.03-.17,.09-.39,.15-.65l.16-.6,.16-.6s.03-.06,.06-.09c.03-.02,.06-.03,.09-.03h.83s.83,0,.83,0c.05,0,.1,0,.13,.02,.03,.01,.06,.04,.07,.09l.26,.86,.26,.86c.04,.14,.07,.26,.09,.36,.02,.1,.03,.18,.03,.24,0,.12-.03,.2-.11,.25-.08,.05-.22,.07-.44,.07-.08,0-.15,.02-.2,.06-.05,.04-.08,.09-.08,.15s.02,.1,.05,.13c.04,.03,.1,.04,.18,.04,.09,0,.24-.02,.47-.03,.23-.02,.53-.03,.91-.03,.27,0,.49,.02,.68,.04,.19,.02,.33,.04,.44,.04,.08,0,.14,0,.18-.02,.04-.02,.07-.04,.09-.08,.02,.03,.05,.06,.09,.08,.04,.02,.09,.03,.15,.03,.1,0,.24-.02,.45-.04,.2-.02,.46-.05,.77-.05,.34,0,.61,.02,.82,.05,.21,.02,.36,.05,.45,.05s.16-.02,.21-.06c.05-.04,.08-.09,.08-.14,0-.16-.08-.2-.19-.21-.12-.02-.28,0-.45-.08-.13-.06-.19-.13-.23-.24-.03-.11-.04-.27-.04-.49v-1.25s0-1.25,0-1.25c0-.09,0-.15,.02-.19,.02-.04,.05-.06,.1-.06,.01,0,.02,0,.04,0,.01,0,.03,.01,.05,.02l.11,.05,.11,.05c.16,.07,.31,.13,.44,.18,.14,.04,.27,.07,.39,.07,.23,0,.45-.05,.66-.15,.21-.1,.4-.24,.56-.43,.19-.21,.34-.47,.45-.77,.11-.3,.17-.64,.17-1,0-.81-.19-1.42-.58-1.83-.39-.41-.97-.62-1.74-.62m-6.06,4.78h-.67s-.67,0-.67,0c-.03,0-.05-.01-.07-.03-.02-.02-.03-.04-.03-.06,0,0,0-.02,0-.05,0-.02,0-.05,.01-.09l.05-.18,.05-.18,.27-1.01,.27-1.01s.02-.06,.04-.08c.02-.02,.03-.03,.04-.03,.02,0,.03,0,.04,.03,.01,.02,.03,.05,.04,.09l.31,1,.31,1,.05,.17,.05,.16s.01,.05,.02,.07c0,.02,0,.04,0,.06,0,.03-.02,.05-.04,.08-.02,.02-.05,.03-.08,.03m5.28-3.75c0-.23,.02-.4,.11-.5,.09-.11,.25-.15,.52-.15,.32,0,.63,.2,.85,.55,.22,.35,.36,.85,.36,1.46,0,.56-.14,1.01-.35,1.33-.21,.32-.5,.49-.8,.49-.17,0-.34-.05-.47-.14-.13-.1-.22-.24-.22-.43v-1.3s0-1.3,0-1.3Zm32.18,116.06c-.36-.59-.9-1.13-1.59-1.6-1.13-.76-2.31-1.06-3.41-.89-1.09,.17-2.09,.8-2.84,1.91-.36,.53-.65,1.01-.88,1.42-.22,.41-.38,.76-.47,1.03h0c-.06,.17-.08,.31-.08,.42,0,.11,.03,.19,.09,.23,.05,.04,.11,.05,.15,.05,.05,0,.08-.02,.11-.06,.05-.07,.07-.16,.09-.24,.02-.09,.05-.18,.11-.27,.07-.1,.14-.14,.23-.13,.09,0,.19,.06,.31,.14l2.71,1.83,2.71,1.83c.25,.17,.4,.27,.48,.39,.07,.12,.06,.24-.02,.46-.05,.13-.13,.24-.17,.34-.04,.1-.05,.18,.06,.25,.06,.04,.12,.05,.18,.03,.06-.02,.12-.07,.17-.15,.1-.15,.18-.31,.27-.49,.09-.18,.19-.36,.31-.54,.14-.2,.32-.41,.52-.64,.2-.23,.42-.49,.62-.79,.3-.45,.53-.9,.68-1.34,.15-.44,.22-.88,.21-1.3h0c0-.67-.19-1.31-.55-1.89m-.26,3.13c-.05,.41-.19,.81-.45,1.19-.24,.35-.45,.51-.71,.51-.26,0-.56-.15-.96-.42l-1.87-1.26-1.87-1.26-.65-.44-.65-.44c-.23-.15-.38-.29-.4-.49-.03-.2,.07-.46,.35-.86,.49-.72,1.25-1.08,2.14-1.09,.89-.01,1.9,.32,2.88,.99,.52,.35,.95,.73,1.29,1.12,.34,.39,.58,.8,.74,1.22h0c.15,.41,.21,.83,.16,1.24m-5.48-8.07h0c.01-.14,.02-.3,.03-.47,0-.17,.02-.36,.02-.56,.03-.82,.04-1.47,.04-1.93,0-.46,0-.74,0-.83,0-.19,.04-.29,.11-.34,.07-.05,.18-.05,.32-.04h.06l.61,.02,.61,.02c.12,0,.21,.02,.26,.04,.06,.02,.09,.06,.08,.13,0,.13-.16,.17-.36,.24-.21,.07-.48,.17-.72,.41-.18,.18-.32,.42-.42,.7-.1,.28-.16,.61-.17,1-.01,.37,.03,.57,.16,.68,.13,.11,.34,.13,.67,.14l1.16,.04,1.16,.04c.12,0,.19,0,.23-.02,.04-.03,.05-.09,.06-.22v-.32s.03-.32,.03-.32c.01-.29-.01-.56-.05-.76-.04-.21-.1-.36-.16-.43-.18-.2-.39-.25-.56-.3-.17-.04-.29-.08-.28-.23,0-.06,.02-.1,.05-.13,.03-.03,.08-.03,.15-.03,.18,0,.38,.03,.62,.06,.23,.03,.49,.05,.78,.06,.33,.01,.6,.01,.8,0,.2,0,.33,0,.4,0,.09,0,.15,.02,.19,.05,.04,.03,.06,.08,.06,.12,0,.12-.12,.16-.29,.21-.18,.05-.43,.1-.71,.24-.22,.11-.34,.25-.41,.44-.07,.19-.09,.43-.1,.73v.31s-.02,.31-.02,.31c0,.1,0,.16,.04,.2,.04,.04,.1,.06,.2,.06l1.45,.05,1.45,.05c.39,.01,.61-.03,.75-.17,.13-.15,.17-.4,.19-.81,.02-.44,0-.77-.1-1.06-.1-.28-.3-.52-.63-.75-.26-.18-.5-.3-.67-.4-.17-.11-.28-.19-.28-.31,0-.03,.02-.06,.05-.09,.03-.03,.06-.05,.08-.04,0,0,.02,0,.07,.01,.04,0,.11,.02,.18,.02l.68,.1,.68,.1c.22,.03,.34,.04,.41,.1s.08,.15,.07,.36c0,.28-.05,.72-.1,1.31s-.1,1.32-.14,2.2h0s0,.03,0,.04c0,.01,0,.02,0,.04-.01,.42,0,.73,0,.96,0,.23,.02,.37,.02,.42,0,.11-.03,.18-.07,.23-.04,.05-.1,.07-.17,.07-.13,0-.17-.07-.18-.18-.01-.11,0-.26-.02-.44-.02-.21-.1-.31-.24-.37-.14-.06-.35-.07-.62-.08l-3.22-.12-3.22-.12c-.21,0-.35-.01-.45,.02s-.16,.09-.2,.23c-.06,.15-.05,.3-.07,.42-.02,.11-.06,.19-.2,.18-.06,0-.11-.03-.14-.07-.03-.04-.05-.1-.05-.18,0-.04,.01-.15,.03-.32,.01-.18,.03-.42,.05-.74h0Zm.05-15.02h0s0-.06,0-.08c0-.03,0-.05,0-.08,0-.51,.08-.99,.19-1.36,.11-.37,.24-.63,.33-.72,.05-.05,.2-.1,.45-.13,.25-.03,.58-.05,1-.05,.08,0,.14,.01,.19,.03,.04,.02,.07,.05,.07,.08,0,.06-.05,.13-.15,.2-.1,.07-.24,.16-.42,.26-.41,.25-.73,.51-.95,.79-.22,.28-.33,.59-.33,.96v.1h0c.04,.74,.48,1.4,1.24,1.87,.76,.47,1.83,.77,3.12,.77,1.22,0,2.27-.3,3.01-.78,.75-.48,1.19-1.13,1.19-1.82h0v-.02h0c0-.43-.13-.78-.37-1.09-.24-.3-.6-.55-1.08-.77-.25-.11-.45-.19-.59-.27-.14-.07-.21-.14-.21-.23,0-.04,.02-.08,.07-.11s.12-.04,.22-.04c.05,0,.18,0,.38,.02,.2,.01,.47,.02,.81,.02,.32,0,.63,.25,.85,.68,.22,.43,.36,1.03,.36,1.74v.05h0c-.01,1.17-.54,2.18-1.39,2.91-.85,.72-2.02,1.15-3.34,1.15-1.28,0-2.42-.45-3.26-1.19s-1.36-1.76-1.4-2.9h0Zm.29-6.84h0c0-.05-.01-.1-.02-.14,0-.04,0-.07,0-.09,0-.06,.02-.12,.05-.15,.03-.04,.08-.06,.14-.06,.11,0,.15,.05,.18,.12,.02,.08,.02,.19,.04,.32h0s0,.05,0,.08c0,.03,0,.06,.01,.08,.04,.18,.09,.27,.19,.32,.1,.05,.25,.05,.48,.05h1.28s1.28,0,1.28,0c.06,0,.11-.01,.14-.04,.03-.03,.04-.08,.04-.14v-1.77s0-1.42,0-1.42c0-.06-.02-.1-.06-.13-.04-.03-.08-.04-.14-.04h-1.27s-1.27,0-1.27,0c-.23,0-.37,0-.46,.04-.1,.04-.15,.11-.19,.25-.05,.18-.04,.35-.06,.47-.02,.12-.05,.19-.2,.19-.06,0-.11-.02-.14-.05-.03-.04-.05-.09-.05-.16s.03-.22,.06-.45c.03-.23,.06-.54,.06-.94,0-.4-.03-.71-.05-.94-.03-.23-.05-.38-.05-.45,0-.06,.02-.12,.05-.15,.03-.04,.08-.06,.14-.06,.12,0,.17,.06,.18,.17,.02,.11,.02,.26,.05,.43,.04,.18,.09,.27,.19,.32,.1,.05,.25,.05,.47,.05h3.22s3.23,0,3.23,0c.29,0,.48,0,.6-.04,.12-.05,.19-.14,.24-.32,.05-.16,.04-.32,.06-.44,.02-.12,.06-.19,.22-.19,.06,0,.11,.03,.14,.08,.04,.05,.06,.13,.06,.23,0,.09-.02,.23-.04,.45-.02,.22-.04,.51-.04,.87,0,.37,.02,.66,.04,.88,.02,.22,.04,.37,.04,.46,0,.1-.02,.18-.06,.23-.04,.05-.1,.08-.17,.08-.13,0-.17-.07-.19-.17-.02-.1,0-.24-.04-.38-.06-.23-.12-.34-.25-.4-.12-.06-.31-.06-.61-.06h-1.51s-1.51,0-1.51,0c-.06,0-.11,.01-.14,.04-.04,.03-.06,.07-.06,.13v1.42s0,1.42,0,1.42v.17s0,.17,0,.17c0,.06,.02,.1,.06,.13,.04,.03,.09,.05,.14,.05h1.51s1.51,0,1.51,0c.29,0,.48,0,.6-.05,.12-.05,.19-.14,.24-.33,0-.03,.01-.05,.02-.08,0-.03,0-.05,.02-.08h0c.02-.13,.01-.24,.04-.33s.08-.13,.21-.13c.06,0,.11,.02,.14,.07,.04,.05,.06,.12,.06,.22,0,.02,0,.04,0,.07,0,.03,0,.06,0,.1h0c-.01,.11-.03,.27-.04,.46-.02,.19-.03,.43-.03,.7,0,.37,.02,.66,.04,.88,.02,.22,.04,.37,.04,.46,0,.1-.02,.17-.06,.22-.04,.05-.1,.07-.17,.07-.13,0-.17-.07-.19-.17-.02-.1,0-.24-.04-.37-.06-.23-.12-.34-.25-.4-.12-.06-.31-.06-.61-.06h-3.22s-3.22,0-3.22,0c-.23,0-.37,0-.46,.05-.1,.04-.15,.12-.19,.26-.05,.18-.04,.35-.06,.47-.02,.12-.05,.19-.2,.19-.06,0-.11-.02-.14-.05-.03-.04-.05-.09-.05-.16s.03-.22,.06-.45c.03-.23,.06-.54,.06-.95,0-.28-.01-.51-.03-.7-.02-.19-.04-.35-.05-.46m-.02-6.82h0c0-.08,.03-.23,.06-.46,.03-.23,.05-.53,.05-.92,0-.4-.03-.71-.06-.94-.03-.23-.06-.38-.06-.45,0-.06,.02-.12,.06-.15,.04-.04,.09-.06,.14-.06,.12,0,.17,.06,.19,.17,.02,.11,.01,.26,.05,.44,.04,.18,.09,.27,.19,.32,.1,.05,.25,.05,.47,.05h3.22s3.22,0,3.22,0c.3,0,.48,0,.6-.05,.12-.05,.19-.14,.25-.33,.05-.16,.04-.32,.06-.43,.02-.12,.07-.19,.22-.19,.06,0,.11,.02,.14,.07,.04,.05,.06,.12,.06,.22,0,.08-.02,.24-.04,.46-.02,.22-.04,.51-.04,.88,0,.37,.02,.66,.04,.88,.02,.22,.04,.37,.04,.46,0,0,0,.02,0,.02,0,0,0,.01,0,.02h0c0,.08-.03,.14-.07,.19-.04,.04-.09,.06-.16,.06-.08,0-.13-.03-.16-.07-.03-.05-.04-.11-.04-.18,0-.05,0-.09-.01-.14,0-.05,0-.1-.02-.15-.06-.23-.12-.34-.25-.4-.12-.06-.31-.06-.62-.06h-3.22s-3.22,0-3.22,0c-.22,0-.36,0-.46,.05-.09,.04-.14,.12-.19,.26-.02,.08-.03,.16-.04,.23,0,.07,0,.14-.01,.19h0c0,.07-.02,.13-.05,.17-.03,.04-.08,.06-.15,.06-.06,0-.11-.02-.14-.05-.04-.04-.06-.09-.06-.16,0,0,0,0,0,0,0,0,0,0,0-.01h0Zm8.32-8.17h0c-.06-.14-.15-.27-.25-.39-.1-.12-.23-.23-.37-.34-.28-.21-.52-.36-.68-.47-.16-.11-.26-.19-.26-.27,0-.03,.02-.06,.04-.08,.02-.02,.05-.04,.08-.04,0,0,.04,0,.08,0,.04,0,.1,0,.17,.01l.66,.07,.66,.07c.06,0,.11,.01,.15,.02,.04,0,.07,0,.09,0,.08,0,.14,.03,.18,.07s.06,.12,.06,.21c0,.13,0,.29-.02,.48-.01,.19-.03,.4-.04,.64h0c-.02,.3-.04,.64-.05,1.02-.01,.38-.02,.8-.02,1.26,0,.37,.02,.66,.04,.88,.02,.22,.04,.37,.04,.46,0,.1-.02,.17-.06,.22-.04,.05-.09,.07-.17,.07-.13,0-.17-.07-.19-.17-.02-.1,0-.24-.04-.37-.06-.23-.12-.34-.25-.4-.12-.06-.31-.06-.61-.06h-3.22s-3.22,0-3.22,0c-.21,0-.35,0-.45,.04-.1,.04-.15,.11-.2,.24-.05,.17-.05,.32-.06,.43-.01,.11-.05,.17-.19,.17-.06,0-.11-.02-.14-.05-.04-.03-.06-.08-.06-.13,0-.07,.03-.2,.06-.41,.03-.21,.06-.5,.06-.88,0-.42-.03-.75-.06-.98-.03-.24-.06-.38-.06-.45,0-.06,.02-.12,.06-.15,.04-.04,.09-.06,.14-.06,.13,0,.17,.06,.19,.17,.02,.11,.01,.26,.05,.43,.04,.18,.09,.27,.19,.32,.1,.05,.25,.05,.47,.05h3.22s3.22,0,3.22,0c.3,0,.53-.08,.69-.23,.15-.16,.23-.38,.23-.68,0-.14-.01-.26-.04-.38-.03-.12-.07-.24-.12-.34h0Zm-7.82-8.22h.6s.6,0,.6,0c.12,0,.21,0,.27,.03,.06,.02,.09,.06,.09,.13,0,.13-.15,.17-.36,.25-.21,.08-.47,.19-.7,.44-.18,.19-.31,.42-.4,.71-.09,.28-.14,.62-.14,1.01,0,.37,.05,.57,.18,.67,.13,.1,.35,.11,.68,.11h1.16s1.16,0,1.16,0c.12,0,.19,0,.23-.03,.04-.03,.05-.09,.05-.22v-.64c0-.29-.03-.55-.08-.76-.05-.21-.11-.36-.18-.42-.18-.19-.4-.24-.57-.28-.17-.04-.29-.07-.29-.21,0-.06,.01-.11,.04-.13,.03-.03,.08-.04,.15-.04,.18,0,.39,.02,.62,.04,.23,.02,.49,.04,.77,.04,.33,0,.6,0,.8-.02,.2-.01,.34-.02,.4-.02,.08,0,.15,.02,.19,.05,.04,.03,.06,.07,.06,.12,0,.12-.11,.16-.29,.22-.18,.05-.43,.11-.7,.26-.21,.11-.33,.26-.39,.45-.06,.19-.08,.43-.08,.73v.62c0,.1,.01,.16,.05,.2,.04,.04,.1,.05,.2,.05h1.45s1.45,0,1.45,0c.39,0,.61-.04,.74-.19,.13-.15,.16-.4,.16-.82,0-.44-.03-.77-.14-1.05-.11-.28-.31-.51-.66-.72-.26-.17-.5-.28-.68-.38-.18-.1-.29-.18-.29-.3,0-.03,.02-.06,.05-.09,.03-.03,.06-.05,.08-.05,0,0,.02,0,.07,0,.04,0,.11,.01,.18,.02l.68,.08,.68,.08c.22,.02,.34,.03,.41,.08,.07,.05,.08,.15,.08,.36,0,.29-.03,.74-.06,1.34-.03,.6-.06,1.35-.06,2.25,0,.41,.02,.73,.03,.96,.02,.23,.04,.36,.04,.42,0,.11-.02,.18-.06,.23-.04,.05-.09,.08-.17,.08-.12,0-.17-.06-.18-.17-.02-.11-.01-.26-.04-.44-.03-.2-.11-.31-.25-.36-.14-.05-.35-.06-.62-.06h-3.22s-3.22,0-3.22,0c-.21,0-.35,0-.45,.03-.1,.03-.15,.1-.2,.23-.05,.15-.04,.31-.06,.42-.02,.11-.05,.19-.19,.19-.06,0-.11-.02-.15-.06-.04-.04-.05-.1-.05-.18,0-.06,.02-.26,.03-.61,.02-.35,.03-.84,.03-1.49,0-.82-.01-1.47-.03-1.93-.01-.46-.03-.74-.03-.83,0-.19,.03-.29,.1-.34,.07-.05,.18-.05,.32-.05h.05Zm-53.95,60.03h0l.12,.38,.12,.38c.1,.32,.18,.58,.28,.79,.1,.21,.23,.36,.41,.48,.13,.09,.26,.13,.36,.16,.1,.03,.16,.07,.16,.15,0,.08-.02,.13-.07,.16-.05,.03-.12,.04-.23,.04-.12,0-.28-.02-.47-.04-.2-.02-.43-.04-.71-.04-.39,0-.71,.02-.95,.03-.24,.02-.41,.03-.5,.03-.08,0-.15-.01-.18-.04-.04-.03-.06-.07-.06-.13s.03-.12,.08-.16c.05-.04,.12-.07,.2-.07,.23,0,.38-.02,.46-.07,.09-.05,.12-.14,.12-.26,0-.06-.01-.15-.03-.25-.02-.11-.05-.23-.1-.38l-.17-.57-.17-.57-.1-.33-.1-.33s-.04-.08-.07-.09c-.04-.02-.08-.02-.14-.02h-.87s-.87,0-.87,0c-.03,0-.06,.01-.09,.04-.03,.02-.05,.05-.06,.09l-.09,.32-.09,.32-.08,.31-.08,.31c-.07,.27-.12,.5-.16,.68-.04,.18-.05,.32-.05,.4,0,.14,.03,.22,.09,.28,.06,.05,.15,.08,.28,.1,.19,.03,.33,.05,.42,.1,.09,.04,.14,.11,.14,.21,0,.06-.02,.1-.06,.13-.04,.03-.1,.04-.18,.04-.1,0-.25-.02-.46-.04-.21-.02-.46-.04-.77-.04-.2,0-.39,.02-.54,.04-.16,.02-.29,.04-.38,.04-.09,0-.15-.02-.19-.05-.04-.03-.06-.08-.06-.13,0-.15,.11-.18,.25-.19,.14-.02,.32-.02,.46-.13,.13-.09,.21-.22,.29-.4,.08-.17,.14-.39,.22-.64l.15-.5,.15-.49,.97-3.14,.97-3.14c.04-.11,.06-.19,.09-.25,.03-.06,.07-.09,.15-.09,.1,0,.15,.07,.2,.18,.04,.12,.08,.28,.14,.48l.94,2.98,.94,2.98Zm8.08,.01c-.01,.34-.03,.65-.09,.93-.06,.28-.15,.55-.29,.79-.2,.34-.49,.6-.87,.78-.38,.18-.85,.27-1.39,.27-.6,0-1.1-.08-1.51-.25-.41-.17-.73-.42-.97-.77-.17-.24-.27-.5-.32-.8-.06-.29-.08-.62-.08-.97h0s0-.1,0-.15v-2.63s0-2.47,0-2.47c0-.23,0-.37-.04-.47-.04-.09-.12-.14-.26-.18-.18-.06-.35-.05-.46-.06-.12-.01-.19-.05-.19-.19,0-.06,.02-.11,.06-.14,.04-.03,.09-.05,.15-.05,.07,0,.22,.03,.45,.06,.23,.03,.54,.06,.94,.06,.4,0,.71-.03,.95-.06s.38-.06,.45-.06,.12,.02,.16,.06c.03,.04,.05,.08,.05,.14,0,.15-.08,.19-.2,.2s-.29,0-.46,.05c-.14,.04-.22,.09-.26,.19-.04,.09-.05,.24-.05,.46v2.46s0,2.46,0,2.46c0,.06,0,.12,0,.18,0,.06,0,.11,0,.17h0c.02,.74,.13,1.31,.41,1.69,.28,.38,.72,.58,1.41,.58,.37,0,.7-.07,.98-.19,.28-.13,.5-.31,.67-.55,.13-.19,.21-.41,.26-.66,.05-.25,.07-.53,.08-.85h0c0-.1,0-.2,0-.31,0-.11,0-.22,0-.33v-1.7s0-1.7,0-1.7c0-.53,0-.94-.04-1.23-.03-.3-.1-.48-.22-.58-.13-.1-.32-.1-.47-.11-.16-.01-.28-.04-.28-.2,0-.06,.02-.11,.06-.14,.04-.03,.1-.05,.18-.05,.08,0,.2,0,.36,.02,.16,.01,.36,.02,.6,.02,.25,0,.46,0,.62-.02,.16,0,.28-.02,.35-.02,.1,0,.17,.01,.22,.05,.05,.03,.07,.08,.07,.15,0,.08-.03,.13-.1,.16-.07,.03-.17,.04-.31,.03-.3,0-.45,.12-.53,.41-.08,.3-.09,.77-.09,1.47v1.73s0,1.73,0,1.73c0,.11,0,.21,0,.32,0,.1,0,.2,0,.3m7.22,0c-.02,.8-.31,1.5-.79,1.99-.48,.49-1.15,.79-1.93,.78-.62,0-1.14-.1-1.51-.31-.37-.2-.58-.51-.58-.91,0-.16,0-.32,.02-.46,0-.15,.02-.29,.02-.42,0-.1,0-.19,0-.25s0-.1,0-.11c0-.07,0-.13,.01-.18,0-.05,.02-.1,.04-.13,.02-.04,.04-.07,.07-.09s.06-.03,.09-.03c.04,0,.07,.01,.1,.03,.03,.02,.05,.05,.06,.09,.04,.08,.06,.21,.08,.36,.02,.15,.05,.32,.1,.51,.14,.47,.38,.85,.68,1.11,.3,.26,.65,.4,1.01,.4,.42,0,.8-.18,1.08-.48,.28-.3,.44-.72,.45-1.21,0-.12,0-.24-.03-.35-.02-.11-.05-.22-.09-.33-.11-.27-.29-.53-.53-.76-.25-.24-.56-.46-.95-.68-.57-.33-1.08-.59-1.45-.99-.37-.39-.59-.91-.59-1.73,0-.73,.24-1.34,.67-1.77,.43-.43,1.06-.68,1.82-.68,.39,0,.76,.07,1.05,.16,.29,.09,.49,.2,.56,.28,.04,.04,.06,.19,.08,.45,.02,.26,.03,.62,.03,1.09,0,.1-.02,.17-.05,.22-.03,.05-.08,.08-.13,.08-.1,0-.15-.07-.21-.2-.05-.13-.1-.31-.2-.55-.15-.37-.29-.66-.49-.86s-.43-.3-.76-.3c-.41,0-.75,.14-.99,.39-.23,.25-.36,.61-.37,1.06,0,.37,.1,.66,.32,.91,.22,.25,.54,.47,.99,.71,.75,.4,1.34,.77,1.74,1.25,.4,.48,.61,1.06,.61,1.85v.08h0Zm5.3,.01h0v.59s0,.59,0,.59c0,.3,0,.48,.05,.6,.05,.12,.14,.18,.33,.25,.16,.06,.32,.05,.43,.07,.11,.02,.19,.06,.19,.22,0,.06-.02,.1-.07,.14-.05,.03-.12,.06-.22,.06-.15,0-.34-.02-.56-.05-.22-.02-.48-.05-.78-.05-.29,0-.55,.02-.77,.05-.23,.02-.42,.05-.56,.05-.1,0-.17-.02-.22-.06-.05-.04-.07-.1-.07-.17,0-.14,.08-.18,.19-.2,.12-.02,.27,0,.43-.06,.18-.05,.28-.12,.33-.24,.05-.12,.05-.31,.05-.61v-.59s0-.59,0-.59v-2.83s0-2.84,0-2.84c0-.06-.02-.12-.05-.18-.03-.05-.08-.09-.13-.09h-.4c-.29,0-.52,.06-.72,.17-.2,.11-.37,.28-.55,.51-.17,.28-.29,.51-.39,.66-.1,.16-.19,.24-.3,.24-.05,0-.09,0-.12-.03-.03-.03-.04-.08-.04-.17,0,0,0-.04,.02-.08,0-.04,.02-.1,.04-.16l.18-.72,.18-.72c.05-.21,.07-.39,.11-.52,.04-.13,.08-.2,.17-.2,.08,0,.12,.12,.16,.23,.04,.12,.08,.24,.16,.25,.05,.05,.13,.08,.24,.1,.11,.02,.25,.03,.42,.03,.13,0,.28,0,.45,0,.17,0,.36,0,.56,0h.87s.87,0,.87,0c.23,0,.44,0,.62,.01,.18,0,.34,.01,.48,.01,.11,0,.2,0,.27-.01,.08-.01,.14-.03,.18-.06,.13-.08,.2-.22,.27-.34,.06-.12,.11-.22,.18-.22,.06,0,.1,.04,.12,.1,.02,.05,.03,.12,.03,.16v.15l-.04,.93-.04,.93c0,.16-.02,.25-.05,.31-.03,.06-.08,.08-.15,.08-.13,0-.19-.1-.24-.27-.05-.17-.09-.4-.17-.68-.13-.3-.29-.48-.53-.57-.24-.1-.56-.12-.99-.12h-.11s-.11,0-.11,0c-.06,0-.1,.03-.14,.08-.03,.04-.05,.1-.05,.15v2.86s0,2.86,0,2.86Zm7.53,.01l-.23-.57-.23-.57c-.1-.25-.19-.41-.3-.5-.12-.1-.27-.13-.48-.13h-.14c-.06,0-.1,.02-.14,.06-.03,.03-.05,.08-.05,.14v.79s0,.79,0,.79v.59s0,.59,0,.59c0,.28,0,.5,.08,.65,.08,.15,.23,.24,.54,.24,.11,0,.19,.02,.24,.06,.05,.04,.07,.1,.07,.18,0,.06-.03,.11-.08,.14-.05,.04-.12,.06-.2,.06-.07,0-.21-.02-.42-.04-.21-.02-.49-.04-.86-.04-.37,0-.66,.02-.88,.04-.22,.02-.37,.04-.46,.04-.1,0-.17-.02-.22-.06-.05-.04-.08-.09-.08-.17,0-.13,.07-.17,.17-.19,.1-.02,.24-.01,.38-.05,.23-.05,.34-.12,.4-.24,.06-.13,.06-.31,.06-.62v-.59s0-.59,0-.59v-2.63s0-2.63,0-2.63c0-.23,0-.37-.05-.46s-.12-.14-.26-.19c-.18-.05-.35-.04-.47-.06-.12-.02-.19-.05-.19-.2,0-.09,.03-.14,.09-.17,.06-.03,.16-.03,.29-.03,.05,0,.16,.01,.32,.03,.16,.01,.36,.03,.61,.03,.35,0,.7-.02,1.03-.04,.34-.02,.66-.04,.98-.04,.75,0,1.33,.22,1.72,.6,.39,.38,.59,.93,.59,1.58,0,.56-.15,1.05-.41,1.43-.26,.37-.64,.64-1.11,.74,.15,.11,.25,.24,.34,.39,.09,.15,.16,.32,.24,.5l.24,.57,.24,.57,.16,.4,.16,.4c.16,.38,.28,.68,.38,.88,.1,.21,.19,.33,.28,.37,.16,.06,.3,.09,.41,.13,.11,.04,.18,.09,.18,.19,0,.06-.02,.1-.06,.12-.04,.02-.1,.02-.18,.02-.12,0-.25-.01-.4-.02-.14-.01-.3-.02-.46-.02-.11,0-.21,0-.31,.02-.1,.01-.2,.02-.31,.02-.14,0-.22-.04-.28-.12-.06-.08-.1-.19-.16-.35l-.4-1.02-.4-1.02Zm4.56,0h0l.97-3.14,.97-3.14c.04-.11,.06-.19,.09-.25,.03-.06,.07-.09,.15-.09,.1,0,.15,.07,.2,.18s.08,.28,.15,.48l.94,2.98,.94,2.98,.12,.38,.12,.38c.1,.32,.18,.58,.28,.79,.1,.21,.22,.36,.41,.48,.14,.09,.27,.13,.36,.16,.1,.03,.16,.06,.16,.15,0,.08-.02,.13-.07,.16-.05,.03-.12,.04-.23,.04-.12,0-.28-.02-.47-.04-.2-.02-.43-.04-.71-.04-.39,0-.71,.02-.95,.03-.24,.02-.41,.03-.5,.03s-.15-.01-.18-.04c-.04-.03-.06-.07-.06-.13,0-.06,.03-.12,.08-.16,.05-.04,.12-.07,.2-.07,.23,0,.38-.02,.47-.07,.09-.05,.12-.14,.12-.26,0-.06-.01-.15-.03-.26-.02-.11-.05-.23-.1-.38l-.17-.57-.17-.57-.1-.33-.1-.33s-.04-.08-.08-.09c-.04-.02-.08-.02-.13-.02h-.88s-.88,0-.88,0c-.03,0-.06,.01-.09,.04-.03,.02-.05,.05-.06,.09l-.09,.32-.09,.32-.08,.31-.08,.31c-.07,.27-.12,.5-.16,.68-.04,.18-.05,.32-.05,.4,0,.14,.03,.22,.09,.28,.06,.05,.15,.08,.28,.1,.19,.03,.33,.05,.43,.1,.09,.04,.14,.11,.14,.21,0,.06-.02,.11-.06,.13-.04,.03-.1,.04-.18,.04-.1,0-.26-.02-.46-.04-.21-.02-.46-.04-.76-.04-.21,0-.39,.02-.55,.04-.16,.02-.29,.04-.39,.04-.09,0-.15-.02-.19-.05-.04-.03-.06-.08-.06-.13,0-.15,.11-.18,.25-.19,.14-.02,.32-.03,.46-.13,.13-.09,.21-.22,.29-.4,.08-.17,.14-.39,.22-.64l.15-.49,.15-.5Zm7.46,.01h0v-2.63s0-2.63,0-2.63c0-.21,0-.35-.04-.45-.04-.1-.11-.16-.24-.2-.17-.06-.32-.05-.43-.06-.11-.01-.18-.05-.18-.19,0-.06,.02-.11,.05-.14,.03-.04,.08-.06,.13-.06,.07,0,.21,.03,.42,.06,.21,.03,.5,.06,.88,.06,.42,0,.75-.03,.98-.05,.24-.03,.38-.06,.45-.06,.06,0,.12,.02,.15,.06,.04,.04,.06,.08,.06,.14,0,.13-.06,.17-.17,.19-.11,.02-.26,.02-.43,.05-.18,.04-.27,.09-.32,.19-.05,.1-.05,.25-.05,.47v2.63s0,2.63,0,2.63v.59s0,.59,0,.59c0,.3,.08,.53,.23,.69,.15,.15,.38,.23,.68,.23,.3,0,.57-.06,.81-.19,.24-.13,.45-.32,.64-.58,.21-.28,.36-.52,.47-.68,.11-.16,.19-.26,.26-.26,.03,0,.06,.02,.08,.04,.02,.02,.04,.05,.04,.07,0,0,0,.04,0,.08,0,.04,0,.1,0,.17l-.07,.66-.07,.66c0,.06-.02,.11-.02,.15,0,.04,0,.07,0,.09,0,.08-.03,.14-.07,.18-.05,.04-.12,.06-.21,.06-.3,0-.73-.03-1.3-.07-.57-.03-1.27-.07-2.1-.07-.37,0-.66,.02-.88,.04-.22,.02-.37,.04-.46,.04-.1,0-.17-.02-.22-.06-.05-.04-.07-.09-.07-.17,0-.13,.07-.17,.18-.19,.1-.02,.24,0,.38-.04,.23-.06,.34-.12,.4-.24,.06-.13,.06-.31,.06-.62v-.59s0-.59,0-.59Zm-5.63-4.02s-.03-.07-.04-.09c-.01-.02-.03-.03-.04-.03-.01,0-.03,.01-.05,.03-.02,.02-.03,.05-.04,.08l-.33,1.25-.33,1.25s0,.07,0,.09c0,.02,0,.04,0,.05,0,.02,0,.04,.03,.06,.02,.02,.04,.03,.07,.03h.7s.7,0,.7,0c.03,0,.06-.01,.08-.04,.02-.02,.04-.05,.04-.08,0-.02,0-.04,0-.07,0-.02-.01-.05-.02-.08l-.38-1.23-.38-1.23Zm-7.96,1.46c0,.15,.04,.23,.14,.27,.1,.04,.26,.05,.5,.05,.48,0,.84-.15,1.09-.45,.25-.3,.37-.75,.37-1.33,0-.58-.12-1.06-.36-1.4-.24-.33-.59-.52-1.05-.52-.32,0-.5,.06-.59,.18-.09,.12-.11,.29-.11,.53v1.34s0,1.34,0,1.34Zm-29.13-1.51s-.03-.07-.04-.09c-.01-.02-.03-.03-.04-.03-.01,0-.03,.01-.05,.03-.02,.02-.03,.05-.04,.08l-.33,1.25-.33,1.25s0,.07-.01,.09c0,.02,0,.04,0,.05,0,.02,.01,.04,.03,.06,.02,.02,.04,.03,.07,.03h.7s.71,0,.71,0c.03,0,.06-.01,.08-.04,.02-.02,.04-.05,.04-.08,0-.02,0-.04,0-.07,0-.02-.01-.05-.02-.08l-.38-1.23-.38-1.23Zm-11.5,2.07c0-1.36-.41-2.51-1.17-3.32-.75-.81-1.84-1.29-3.18-1.29-1.06,0-1.89,.06-2.46,.18-.57,.11-.87,.27-.87,.45,0,.06,.02,.12,.05,.15,.03,.04,.07,.06,.11,.06,.08,0,.17-.03,.25-.06,.09-.03,.18-.06,.28-.06,.12,0,.19,.04,.24,.12,.04,.08,.06,.19,.06,.33v2.68s0,2.68,0,2.68v.59s0,.59,0,.59c0,.3,0,.49-.06,.61-.06,.13-.17,.19-.39,.24-.13,.04-.27,.03-.37,.05-.1,.02-.17,.06-.17,.19,0,.07,.02,.13,.07,.17,.05,.04,.12,.06,.22,.06,.18,0,.36-.02,.56-.05,.2-.02,.4-.05,.62-.05,.25,0,.52,.04,.83,.07,.3,.04,.64,.07,1,.07,1.04,0,1.9-.23,2.59-.67,.68-.44,1.18-1.07,1.48-1.88h0c.11-.28,.19-.58,.24-.9,.05-.32,.08-.66,.08-1.02m-1.51,.99c-.05,.33-.12,.64-.22,.93h0c-.23,.67-.58,1.2-1.04,1.56-.45,.36-1.01,.56-1.64,.56-.42,0-.68-.09-.82-.3-.15-.21-.19-.55-.19-1.03v-.39s0-.39,0-.39v-2.64s0-2.64,0-2.64c0-.28,.03-.48,.18-.61,.15-.13,.42-.2,.91-.19,.87,0,1.59,.43,2.1,1.16,.51,.73,.8,1.75,.8,2.94,0,.37-.03,.73-.08,1.06m-6.95,3.1c-.1-.03-.23-.07-.36-.16-.18-.12-.31-.27-.41-.48-.1-.21-.18-.46-.28-.79l-.12-.38-.12-.38-.94-2.98-.94-2.98c-.06-.2-.1-.36-.14-.48-.04-.12-.1-.18-.2-.18-.08,0-.12,.03-.15,.09-.03,.06-.05,.14-.09,.25l-.97,3.14-.97,3.14-.15,.49-.15,.5c-.08,.25-.14,.47-.22,.64-.08,.17-.16,.31-.29,.4-.14,.11-.32,.11-.46,.13-.14,.02-.25,.05-.25,.19,0,.05,.02,.1,.06,.13,.04,.03,.11,.05,.19,.05,.1,0,.23-.02,.39-.04,.16-.02,.34-.04,.54-.04,.3,0,.56,.02,.76,.04,.21,.02,.36,.04,.46,.04,.08,0,.14-.01,.18-.04,.04-.03,.06-.07,.06-.13,0-.11-.05-.17-.14-.21-.09-.04-.23-.07-.42-.09-.13-.02-.22-.05-.28-.1s-.09-.14-.09-.28c0-.08,.02-.22,.05-.4,.04-.18,.09-.41,.16-.68l.08-.31,.08-.31,.09-.32,.09-.32s.03-.06,.06-.09c.03-.02,.07-.04,.09-.04h.87s.87,0,.87,0c.06,0,.1,0,.14,.02,.03,.02,.06,.04,.07,.09l.1,.33,.1,.33,.17,.57,.17,.57c.04,.15,.07,.28,.09,.38,.02,.11,.03,.19,.03,.25,0,.12-.03,.21-.12,.26-.09,.05-.23,.07-.46,.07-.09,0-.16,.02-.21,.07-.05,.04-.08,.1-.08,.16s.02,.1,.06,.13c.04,.03,.1,.04,.18,.04,.09,0,.26-.02,.5-.03,.24-.02,.56-.03,.95-.03,.28,0,.52,.02,.71,.04,.2,.02,.35,.04,.47,.04,.11,0,.18-.01,.23-.04,.05-.03,.07-.08,.07-.16,0-.08-.06-.12-.16-.15m-3.12-3.52s-.06,.04-.08,.04h-.7s-.7,0-.7,0c-.03,0-.05-.01-.07-.03-.02-.02-.03-.04-.03-.06,0,0,0-.03,0-.05,0-.02,0-.06,.01-.09l.33-1.25,.33-1.25s.02-.06,.04-.08c.02-.02,.03-.03,.05-.03,.01,0,.03,.01,.04,.03,.01,.02,.03,.05,.04,.09l.38,1.23,.38,1.23s.01,.05,.02,.08c0,.02,0,.04,0,.07,0,.03-.02,.06-.04,.08m-17.7-6.88h0l2.27-1.41,2.27-1.41c.19-.12,.31-.2,.36-.28,.06-.09,.06-.18,.02-.32-.05-.18-.15-.32-.2-.43-.05-.11-.06-.19,.06-.27,.05-.03,.1-.04,.15-.03,.05,.01,.09,.04,.13,.11,.04,.06,.09,.2,.19,.41,.1,.21,.24,.49,.45,.83,.21,.34,.4,.59,.54,.77,.15,.18,.25,.29,.29,.36,.03,.05,.04,.11,.03,.16-.01,.05-.04,.09-.09,.12-.11,.07-.18,.04-.25-.05-.07-.08-.15-.21-.27-.34-.12-.13-.22-.18-.33-.17-.11,.01-.24,.09-.43,.21l-1.41,.88-1.41,.88-1.33,.83-1.33,.83c-.25,.16-.4,.26-.48,.36-.08,.11-.08,.22-.03,.41,.04,.16,.13,.29,.18,.4,.04,.11,.04,.19-.09,.28-.05,.03-.1,.04-.16,.01-.06-.02-.11-.08-.16-.16-.05-.07-.11-.21-.21-.41-.1-.2-.24-.46-.43-.77-.19-.31-.37-.55-.5-.72-.14-.18-.23-.3-.28-.37-.05-.08-.07-.16-.07-.22,0-.06,.04-.11,.1-.15,.11-.07,.19-.03,.26,.05,.07,.08,.14,.2,.24,.29,.17,.16,.28,.22,.42,.21,.14-.02,.29-.12,.55-.28l.47-.29,.47-.29Zm12.39,3.47c-.32-1.06-1.09-1.96-2.29-2.55-.46-.22-.88-.41-1.25-.56-.37-.15-.7-.27-.98-.35h0c-.28-.07-.51-.11-.68-.11-.17,0-.29,.04-.34,.11h0s0,0,0,0c0,0,0,0,0,.02-.03,.06-.04,.11-.03,.16,0,.05,.04,.08,.07,.1,.08,.04,.16,.04,.25,.05,.09,0,.19,.02,.28,.07,.11,.05,.16,.12,.16,.21,0,.09-.03,.2-.09,.33l-1.44,2.94-1.44,2.94c-.13,.27-.21,.44-.32,.53-.11,.09-.23,.09-.46,.04-.14-.03-.26-.09-.36-.12-.1-.03-.18-.02-.24,.1-.03,.06-.03,.12,0,.18,.03,.06,.08,.11,.17,.15,.16,.08,.34,.14,.52,.2,.19,.06,.39,.13,.58,.23,.02,0,.04,.02,.05,.03,.02,0,.04,.02,.05,.04h0c.21,.1,.42,.25,.67,.4,.24,.15,.51,.32,.81,.46,1.02,.5,1.98,.65,2.84,.5,.86-.15,1.63-.62,2.26-1.36,.15-.17,.29-.36,.42-.57,.13-.21,.26-.43,.37-.67,.6-1.22,.73-2.44,.41-3.5m-1.67,2.8c-.21,.42-.43,.79-.67,1.11-.24,.32-.5,.6-.77,.82h0c-.47,.39-.97,.63-1.48,.71-.51,.08-1.04,0-1.55-.25-.14-.07-.26-.14-.35-.22-.09-.08-.16-.16-.2-.25h0c-.07-.14-.08-.3-.04-.49,.04-.19,.13-.42,.27-.69l1.33-2.73,1.33-2.73c.12-.25,.23-.41,.43-.47,.19-.05,.46,0,.9,.22,.78,.38,1.24,1.09,1.38,1.96,.14,.88-.05,1.93-.57,2.99m-14.94-13.11h0c.05-.25,.15-.46,.29-.61,.14-.16,.32-.26,.54-.3,.16-.03,.31-.05,.46-.07,.15-.02,.29-.04,.42-.06,.1-.02,.19-.04,.25-.06,.06-.02,.1-.03,.11-.03,.14-.03,.26-.03,.33,0,.08,.02,.12,.07,.13,.13,.03,.12-.08,.19-.25,.26-.17,.07-.41,.13-.65,.26-.13,.07-.26,.15-.37,.23-.11,.08-.21,.17-.3,.27h0c-.2,.22-.35,.46-.43,.7-.08,.25-.1,.5-.06,.75,.08,.41,.33,.75,.68,.97,.35,.21,.8,.3,1.27,.21,.42-.08,.77-.29,1.06-.61,.29-.33,.52-.78,.72-1.36,.04-.11,.07-.22,.11-.32,.04-.1,.07-.21,.11-.31h0c.17-.47,.35-.88,.66-1.2s.74-.56,1.41-.69c.7-.13,1.33-.02,1.84,.3,.5,.33,.87,.87,1.03,1.59h0s0,.03,0,.04c0,.02,0,.03,0,.05,.07,.39,.08,.76,.05,1.06-.03,.3-.1,.52-.17,.6-.04,.04-.18,.1-.43,.17-.25,.07-.6,.15-1.06,.23-.1,.02-.17,.02-.23,0-.05-.02-.09-.06-.1-.12-.02-.1,.04-.16,.15-.24,.11-.08,.29-.16,.5-.31,.34-.21,.59-.41,.75-.64,.16-.23,.21-.48,.15-.81,0,0,0-.01,0-.02,0,0,0-.01,0-.02h0c-.08-.39-.29-.69-.58-.86-.29-.17-.66-.23-1.09-.15-.28,.05-.51,.16-.69,.33s-.33,.4-.45,.69h0c-.04,.08-.07,.17-.1,.27-.03,.1-.07,.2-.1,.3-.24,.81-.5,1.46-.9,1.95-.39,.48-.92,.8-1.7,.95-.81,.16-1.57,.01-2.16-.36-.59-.38-1.02-.99-1.17-1.76-.05-.26-.08-.51-.08-.74,0-.23,.01-.44,.05-.62h0Zm9.04-6.58c0-.08,0-.16-.01-.24h0c-.01-.25-.03-.5-.04-.76-.02-.26-.03-.52-.03-.78,0-.24,.02-.45,.03-.61,.01-.16,.03-.27,.03-.32,0-.12,0-.22-.03-.28-.03-.06-.08-.1-.17-.1-.14,0-.18,.07-.2,.19-.02,.12,0,.28-.06,.47-.04,.14-.09,.22-.19,.26-.1,.04-.24,.05-.46,.05h-3.22s-3.22,0-3.22,0c-.3,0-.49,0-.61-.06-.13-.06-.19-.17-.24-.39-.04-.13-.03-.27-.05-.37-.02-.1-.06-.17-.19-.17-.07,0-.13,.02-.17,.07-.04,.05-.06,.12-.06,.22,0,.08,.02,.24,.04,.46,.02,.22,.04,.51,.04,.88,0,.34-.02,.61-.04,.81-.02,.2-.04,.35-.05,.43,0,0,0,.01,0,.02v.02c0,.08,.02,.16,.06,.21,.04,.05,.08,.08,.14,.08,.08,0,.14-.02,.18-.07,.04-.05,.06-.13,.06-.24h0v-.02c0-.29,.09-.45,.24-.52,.15-.08,.37-.08,.64-.08h1.39s1.39,0,1.39,0c.06,0,.11,.02,.14,.05,.04,.03,.06,.08,.06,.13v.14c0,.05,0,.1,0,.15,0,.05-.01,.09-.02,.13h0c-.03,.11-.09,.2-.19,.28-.1,.08-.23,.15-.42,.22l-1.6,.63-1.6,.63c-.15,.06-.27,.1-.35,.16-.08,.06-.12,.14-.12,.28,0,.1,0,.21,.02,.31,.01,.1,.02,.2,.02,.31,0,.16-.01,.32-.02,.46-.01,.14-.02,.28-.02,.4,0,.08,0,.14,.02,.18,.02,.04,.05,.06,.12,.06,.11,0,.15-.07,.19-.18,.04-.11,.07-.26,.13-.41,.04-.09,.16-.18,.37-.28,.21-.1,.51-.22,.89-.38l.97-.41,.97-.41c.18-.08,.35-.15,.5-.23,.15-.09,.28-.19,.39-.34,.1,.47,.36,.84,.74,1.1s.86,.41,1.43,.41c.65,0,1.2-.2,1.58-.59,.38-.39,.6-.97,.6-1.72,0-.08,0-.16,0-.24m-.98,.9c-.33,.24-.81,.36-1.4,.36-.58,0-1.03-.13-1.33-.37-.3-.25-.45-.61-.45-1.09v-.04h0c0-.23,0-.38,.05-.47,.04-.1,.12-.13,.27-.13h1.34s1.34,0,1.34,0c.22,0,.39,.01,.51,.1,.12,.08,.18,.24,.2,.52h0s0,.03,0,.04,0,.03,0,.05c0,.46-.19,.81-.52,1.05m-7.83-9.35h0s0-.1,0-.15c0-.05,0-.1,0-.15,0-.42-.02-.73-.04-.96-.02-.23-.04-.36-.04-.42,0-.11,.02-.18,.06-.23s.09-.08,.17-.08c.13,0,.17,.06,.19,.17,.02,.11,.01,.26,.04,.43,.03,.2,.11,.31,.25,.36,.14,.06,.35,.06,.62,.06h3.22s3.23,0,3.23,0c.21,0,.35,0,.45-.03,.1-.03,.16-.1,.2-.23,.05-.16,.04-.31,.06-.42,.02-.11,.06-.19,.2-.19,.06,0,.11,.02,.14,.06,.03,.04,.05,.1,.05,.18,0,.05-.01,.2-.02,.47-.01,.26-.03,.64-.03,1.12h0c0,.08,0,.16,0,.25,0,.08,0,.17,0,.26,0,.82,.01,1.47,.02,1.93,.01,.46,.03,.74,.03,.83,0,.19-.03,.29-.1,.34-.07,.05-.17,.05-.32,.05h-.66s-.61,0-.61,0c-.12,0-.21,0-.26-.03-.06-.02-.09-.06-.09-.12,0-.13,.15-.17,.36-.25,.21-.08,.47-.19,.7-.44,.18-.19,.31-.43,.4-.71,.09-.28,.14-.62,.14-1.01,0-.37-.05-.57-.18-.67-.13-.1-.35-.12-.68-.12h-1.16s-1.16,0-1.16,0c-.12,0-.19,0-.23,.03-.04,.03-.05,.09-.05,.22v.63c0,.29,.03,.55,.08,.76,.05,.21,.11,.36,.17,.42,.18,.19,.4,.24,.57,.28s.29,.07,.29,.22c0,.06-.02,.11-.05,.13-.03,.03-.08,.04-.15,.04-.18,0-.38-.02-.62-.04-.23-.02-.49-.04-.78-.04-.33,0-.6,0-.8,.02-.2,.01-.33,.02-.4,.02-.09,0-.15-.02-.19-.05-.04-.03-.06-.07-.06-.12,0-.12,.11-.17,.29-.22,.18-.05,.42-.11,.7-.26,.21-.11,.33-.26,.39-.45,.06-.19,.07-.43,.07-.73v-.31s0-.31,0-.31c0-.1-.01-.16-.05-.2-.04-.04-.1-.05-.2-.05h-1.45s-1.45,0-1.45,0c-.39,0-.61,.04-.74,.19s-.16,.4-.16,.82c0,.44,.03,.77,.14,1.05,.11,.28,.31,.51,.66,.72,.26,.17,.5,.28,.68,.38,.18,.1,.29,.18,.29,.29,0,.03-.02,.07-.05,.09-.03,.03-.06,.05-.08,.05,0,0-.02,0-.07,0-.04,0-.11-.01-.18-.02l-.68-.08-.68-.08c-.22-.02-.34-.03-.41-.08-.07-.05-.08-.15-.08-.36,0-.27,.03-.69,.05-1.24,.03-.55,.06-1.24,.06-2.06h0Zm8.51-6.83c-.12-.06-.12-.23-.16-.4-.03-.16-.1-.31-.36-.31-.07,0-.15,0-.25,.03-.1,.02-.21,.05-.34,.09l-.84,.29-.84,.29-1.43,.49-1.43,.49c-.11,.04-.18,.06-.23,.09-.05,.03-.08,.05-.08,.08,0,.03,.03,.06,.08,.08,.05,.03,.13,.06,.23,.08l2.06,.61,2.05,.61c.22,.06,.4,.11,.56,.14,.15,.03,.27,.04,.36,.04,.36,0,.44-.21,.48-.41,.04-.21,.04-.41,.24-.41,.06,0,.11,.02,.14,.07,.04,.05,.06,.11,.06,.2,0,.07-.02,.19-.04,.35-.02,.16-.04,.38-.04,.64,0,.29,.01,.51,.03,.68,.01,.16,.03,.26,.03,.3,0,.09-.01,.16-.04,.2-.03,.04-.08,.07-.14,.07-.14,0-.18-.08-.19-.2-.01-.11,0-.25-.06-.37-.06-.11-.15-.2-.27-.27-.12-.07-.28-.13-.47-.2l-3.76-1.24-3.76-1.24c-.08-.03-.15-.06-.19-.09-.04-.03-.06-.06-.06-.1,0-.06,.07-.11,.19-.15,.12-.04,.28-.09,.45-.15l.57-.2,.57-.2,2.73-.93,2.73-.93c.35-.12,.64-.21,.85-.31,.21-.1,.36-.2,.43-.34,.05-.1,.05-.24,.07-.35,.02-.12,.05-.21,.15-.21,.06,0,.12,.02,.15,.05,.04,.04,.06,.09,.06,.17,0,.04-.02,.2-.04,.49-.02,.29-.04,.71-.04,1.27,0,.22,.02,.41,.03,.56,.02,.16,.03,.28,.03,.35,0,.05,0,.09-.02,.12-.01,.03-.04,.05-.07,.06,0,0-.02,0-.04,0-.01,0-.03,0-.04,0-.02,0-.04,0-.05,0-.02,0-.03,0-.04,0m-.06-6.82h0s.03-.06,.06-.07c.03-.02,.07-.03,.12-.03,.04,0,.08,0,.11,.03,.03,.02,.05,.05,.07,.08h0s.01,.03,.01,.04c0,.02,0,.04,0,.06,0,.07-.03,.22-.06,.45-.03,.23-.06,.54-.06,.94,0,.4,.03,.71,.06,.94s.06,.38,.06,.45c0,.06-.02,.12-.06,.15-.04,.04-.09,.06-.14,.06-.13,0-.17-.06-.19-.17-.02-.11-.01-.26-.05-.43-.04-.18-.09-.27-.19-.32-.1-.05-.25-.05-.47-.05h-3.22s-3.22,0-3.22,0c-.3,0-.48,0-.6,.05-.12,.05-.19,.15-.24,.33-.05,.16-.04,.32-.06,.43-.02,.11-.07,.19-.22,.19-.06,0-.11-.03-.14-.08-.04-.05-.06-.12-.06-.22,0-.08,.02-.24,.04-.46,.02-.22,.04-.51,.04-.88,0-.37-.02-.66-.04-.88-.02-.22-.04-.37-.04-.46,0-.03,0-.06,0-.09,0-.03,.01-.05,.02-.07h0s.04-.08,.08-.1c.03-.02,.07-.03,.12-.03,.05,0,.09,.01,.12,.03,.03,.02,.05,.05,.06,.09h0c.02,.06,.02,.12,.03,.2,0,.07,.01,.15,.03,.23,.06,.23,.12,.34,.24,.4,.12,.06,.31,.06,.61,.06h3.22s3.22,0,3.22,0c.23,0,.37,0,.46-.05,.09-.04,.14-.12,.19-.26,.03-.12,.04-.23,.05-.32,0-.1,.01-.18,.03-.23m-7.88-8.2h0c.11,.07,.26,.11,.48,.14,.22,.02,.49,.03,.83,.03h2.93s2.93,0,2.93,0c.17,0,.3,0,.39-.02,.09-.02,.16-.06,.2-.13h0s.02-.04,.03-.06c0-.02,.02-.04,.03-.07,.05-.17,.05-.33,.06-.45,.02-.12,.06-.2,.19-.2,.06,0,.11,.02,.15,.05,.03,.03,.05,.08,.05,.15v.28s0,.28,0,.28v.62s0,.61,0,.61c0,.06,0,.1-.02,.14-.02,.03-.05,.06-.12,.1l-3.07,1.88-3.07,1.88s0,.05,.04,.06c.03,.01,.07,.02,.11,.02h1.93s1.93,0,1.93,0c.2,0,.36,0,.48,0,.12,0,.2,0,.24,0,.51,0,.79,0,.95-.12,.16-.11,.19-.31,.19-.7,0-.07,.02-.13,.06-.18,.03-.04,.08-.07,.14-.07,.07,0,.12,.04,.15,.1,.04,.06,.06,.16,.06,.27,0,.13-.01,.27-.02,.43-.01,.16-.02,.34-.02,.54s0,.37,.02,.51c.01,.14,.02,.26,.02,.36s-.02,.18-.06,.23c-.04,.05-.09,.08-.15,.08-.08,0-.12-.01-.15-.05-.03-.04-.03-.1-.03-.19v-.14c0-.25-.11-.38-.35-.45-.24-.07-.61-.08-1.13-.08h-3.51s-3.51,0-3.51,0c-.09,0-.18-.03-.24-.06-.06-.04-.11-.09-.11-.15,0-.05,.02-.09,.06-.14,.04-.04,.1-.09,.17-.13l3.78-2.31,3.78-2.31s0-.05-.03-.06c-.03-.01-.07-.02-.11-.02h-2.74s-2.74,0-2.74,0c-.53,0-.87,.01-1.08,.1-.21,.08-.29,.24-.29,.52,0,.04,0,.09,0,.13,0,.04,0,.08,0,.13,0,.06-.02,.11-.06,.14-.04,.04-.1,.06-.17,.06-.06,0-.12-.03-.15-.09-.04-.06-.06-.15-.06-.27,0-.13,.01-.27,.03-.43,.01-.16,.03-.34,.03-.54,0-.07,0-.14,0-.2,0-.07,0-.13-.01-.19,0-.09-.02-.18-.02-.27,0-.09-.01-.17-.01-.24,0-.11,.02-.2,.06-.25,.04-.06,.09-.08,.15-.08,.08,0,.13,.02,.17,.06,.04,.04,.05,.11,.05,.21v.13c0,.11,.01,.2,.04,.27,.03,.07,.08,.13,.14,.18m7.18-7.18h-2.46s-2.46,0-2.46,0c-.86,0-1.51,.08-1.95,.35-.44,.27-.67,.73-.67,1.47,0,.37,.07,.7,.19,.98,.13,.28,.31,.5,.55,.67,.25,.17,.55,.26,.9,.3,.35,.05,.77,.05,1.25,.05h1.7s1.7,0,1.7,0c.53,0,.94,0,1.24-.03,.3-.03,.48-.1,.58-.22,.1-.13,.1-.32,.11-.48,.01-.16,.04-.28,.2-.28,.06,0,.11,.02,.15,.06,.03,.04,.05,.1,.05,.18,0,.08-.01,.2-.02,.36,0,.16-.02,.36-.02,.6,0,.25,0,.46,.02,.62,0,.16,.02,.28,.02,.35,0,.1-.01,.17-.05,.22-.03,.05-.08,.07-.15,.07-.08,0-.13-.03-.16-.1-.03-.07-.03-.17-.03-.31,0-.3-.12-.45-.41-.53-.3-.08-.77-.09-1.47-.09h-1.73s-1.73,0-1.73,0c-.49,0-.91,0-1.3-.06-.38-.05-.72-.15-1.04-.33-.34-.2-.6-.49-.78-.88-.18-.38-.27-.85-.27-1.39,0-.6,.08-1.1,.25-1.51,.17-.41,.42-.73,.77-.97,.27-.19,.58-.29,.93-.34,.34-.05,.73-.06,1.16-.06h2.47s2.47,0,2.47,0c.23,0,.37,0,.47-.04,.09-.04,.14-.12,.18-.27,.06-.18,.05-.35,.06-.46,.01-.12,.05-.19,.19-.19,.06,0,.11,.02,.14,.06,.04,.04,.06,.09,.06,.15,0,.07-.03,.22-.06,.45-.03,.23-.06,.54-.06,.95,0,.4,.03,.71,.05,.95,.03,.23,.06,.38,.06,.45s-.02,.12-.06,.16c-.04,.04-.08,.05-.14,.05-.15,0-.19-.08-.2-.2-.01-.12,0-.29-.05-.46-.04-.14-.09-.22-.19-.26-.09-.04-.24-.05-.46-.05" style="fill: #fff;"/>
      </g>
      <g>
        <path d="M39.62,247.2l-.08,7.73v2.65c-.05,3.31-.16,4.81-1.54,6.27-1.93,2.03-4.79,2.03-5.72,2.03-3.49,0-5.49-1.3-6.48-2.71-.91-1.25-1.07-2.65-1.15-5.46v-1.93c-.03-4.06-.03-4.79-.13-8.51l.16-.15c1.77,.03,2.37,.03,4.58-.08l.13,.16c-.05,2.57-.08,4.58-.08,6.69,0,1.38,0,2.76,.05,4.14,.05,1.64,.21,2.55,.6,3.22,.57,.91,1.59,1.38,2.65,1.38,.86,0,1.72-.29,2.29-.94,.7-.83,.78-2.08,.78-4.81,0-3.2-.13-6.4-.26-9.6l.16-.15c1.48,.03,2,.03,3.9-.08l.13,.16Z" style="fill: #fff;"/>
        <path d="M55.13,265.46c-2.08,0-2.52,.03-4.24,.08l-.16-.16c0-.89,.03-1.8,.03-2.68,0-.99-.03-4.55-.08-5.41-.08-.94-.21-2.47-1.64-2.47-.83,0-1.46,.44-2,.81,.03,4.66,.05,5.67,.21,9.68l-.16,.16c-2.08,0-2.47,0-4.34,.08l-.16-.16c.03-1.67,.05-3.33,.05-5,0-4.24-.16-5.88-.36-8.14l.16-.18c1.95-.26,2.39-.34,4.4-.75l.26,.18-.05,1.43c1.2-.7,2.58-1.53,4.16-1.53,.94,0,2.42,.21,3.23,1.56,.65,1.07,.68,2.26,.7,4.76v2.03c.05,2.55,.05,3.28,.18,5.57l-.18,.16Z" style="fill: #fff;"/>
        <path d="M62.8,265.49c-2.11-.03-2.63,0-4.5,.08l-.16-.18c.08-2.13,.16-3.72,.16-6.56,0-3.69-.08-4.6-.29-6.58l.16-.16,4.48-.78,.18,.21c-.03,2.21-.08,4.45-.08,6.66,0,3.59,.1,5.13,.23,7.13l-.18,.18Zm-.36-16.5c-1.85,.23-2.34,.29-4.11,.6l-.18-.16c.03-.49,.03-1.01,.03-1.51,0-.62-.03-1.17-.08-2.11l.16-.18,4.24-.52,.16,.15-.08,3.54-.13,.18Z" style="fill: #fff;"/>
        <path d="M72.9,265.49c-1.87-.03-2.55,0-4.24,.08l-.18-.18c-.57-2.13-.86-3.1-4.32-13.35l.1-.21c1.98-.03,2.5-.05,4.55-.29l.18,.16c.36,1.72,.47,2.21,1.12,4.63l.49,2,.65,2.81,1.33-5.13c.52-2.03,.6-2.39,.96-4.14l.18-.18,3.64-.08,.13,.18c-.73,2.13-1.87,5.52-2.58,7.62-.55,1.64-1.04,3.25-1.87,5.86l-.16,.21Z" style="fill: #fff;"/>
        <path d="M90.62,261.72l-.18,2.94-.16,.21c-1.38,.55-2.32,.94-4.47,.94-1.87,0-5.41-.31-6.92-3.82-.42-.91-.62-2.19-.62-3.41,0-4.5,2.71-7.18,6.79-7.18,.6,0,1.2,.05,1.85,.23,.88,.21,2.89,.83,3.8,3.9,.36,1.3,.39,2.6,.42,3.88l-.16,.18-8.4,.16c.1,.52,.18,1.04,.57,1.59,.62,.94,1.69,1.43,3.25,1.43,1.9,0,3.07-.6,4.06-1.12l.18,.08Zm-3.72-4.84c0-.6-.03-1.22-.39-1.8-.29-.47-.81-.91-1.67-.91-.36,0-.73,.08-1.04,.29-.99,.62-1.17,1.72-1.25,2.52l4.34-.1Z" style="fill: #fff;"/>
        <path d="M100.79,255.94c-.36-.21-.62-.37-1.07-.37-1.77,0-1.77,1.72-1.77,2.89,0,1.79,.16,4.74,.26,6.84l-.13,.18c-2.08-.03-2.5,0-4.42,.08l-.16-.16c.05-2.16,.08-4.29,.08-6.43,0-3.62-.08-4.79-.23-6.74l.16-.16c1.9-.29,2.39-.36,4.32-.78l.21,.21-.08,2.39c.83-1.93,2.03-2.52,3.1-2.52,.18,0,.36,.03,.55,.03l.16,.18-.73,4.24-.23,.11Z" style="fill: #fff;"/>
        <path d="M110,256.98c1.43,.55,3.44,1.3,3.44,4.16,0,.18,0,.36-.03,.57-.47,3.72-4.37,4.08-6.35,4.08s-2.99-.42-4.27-.89l-.13-.23c.1-1.3,.13-1.59,.18-2.94l.23-.1c.39,.31,.6,.49,1.04,.73,.96,.49,2.03,.73,2.76,.73,1.46,0,2.06-.7,2.06-1.35,0-.94-1.15-1.33-1.85-1.56l-.99-.36c-1.22-.47-3.38-1.3-3.38-4.08,0-1.04,.36-1.82,.7-2.29,1.35-1.95,3.9-2.06,5.18-2.06,1.69,0,2.76,.31,3.98,.65l.13,.16-.26,2.84-.23,.08c-.65-.42-1.67-1.09-3.25-1.09s-1.82,.86-1.82,1.17c0,.73,.7,1.02,1.59,1.33l1.27,.47Z" style="fill: #fff;"/>
        <path d="M120.25,265.49c-2.11-.03-2.63,0-4.5,.08l-.16-.18c.08-2.13,.16-3.72,.16-6.56,0-3.69-.08-4.6-.29-6.58l.16-.16,4.48-.78,.18,.21c-.03,2.21-.08,4.45-.08,6.66,0,3.59,.1,5.13,.23,7.13l-.18,.18Zm-.36-16.5c-1.85,.23-2.34,.29-4.11,.6l-.18-.16c.03-.49,.03-1.01,.03-1.51,0-.62-.03-1.17-.08-2.11l.16-.18,4.24-.52,.16,.15-.08,3.54-.13,.18Z" style="fill: #fff;"/>
        <path d="M135.94,265.49c-1.95,0-2.45,0-4.24,.08l-.13-.16,.05-1.01c-.62,.55-1.59,1.41-3.44,1.41-.86,0-2.26-.21-3.41-1.15-1.54-1.27-2.08-3.3-2.08-5.33,0-2.68,.75-4.84,2.58-6.24,1.98-1.56,4.42-1.51,6.37-1.46,.03-2.97,0-3.62-.16-6.06l.13-.16,4.29-.68,.18,.16c-.1,3.43-.21,6.27-.21,13.14,0,3.41,.08,4.97,.18,7.31l-.13,.16Zm-5.18-10.82c-2.91,0-3.49,2.24-3.49,4.24,0,.52,0,3.75,2.52,3.75,.73,0,1.25-.31,1.77-.62,.08-3.15,.1-3.82,.08-7.29-.36-.05-.6-.08-.88-.08Z" style="fill: #fff;"/>
        <path d="M150.59,259.66c0,2.45,0,3.1,.18,5.65l-.13,.18c-1.69-.03-2.26,0-4.14,.08l-.16-.18v-.96c-.55,.44-1.67,1.38-3.62,1.38-2.55,0-4.55-1.8-4.55-4.58,0-1.17,.49-2.65,1.95-3.57,1.56-.96,3.02-1.25,6.14-1.67,0-.39-.08-.86-.34-1.12-.34-.34-.73-.49-1.69-.49-1.74,0-3.43,.68-4.34,1.04l-.21-.1,.13-2.84,.16-.21c1.48-.44,2.86-.86,5.1-.86,3.33,0,4.37,1.04,4.89,1.87,.68,1.09,.68,2.11,.65,4.45l-.03,1.93Zm-4.27-.94c-1.77,.23-3.82,.52-3.82,2.24,0,1.09,.78,1.59,1.72,1.59,.86,0,1.56-.36,2.11-.68v-3.15Z" style="fill: #fff;"/>
        <path d="M166.28,265.49c-1.95,0-2.45,0-4.24,.08l-.13-.16,.05-1.01c-.62,.55-1.59,1.41-3.44,1.41-.86,0-2.26-.21-3.41-1.15-1.54-1.27-2.08-3.3-2.08-5.33,0-2.68,.75-4.84,2.58-6.24,1.98-1.56,4.42-1.51,6.37-1.46,.03-2.97,0-3.62-.16-6.06l.13-.16,4.29-.68,.18,.16c-.1,3.43-.21,6.27-.21,13.14,0,3.41,.08,4.97,.18,7.31l-.13,.16Zm-5.18-10.82c-2.91,0-3.49,2.24-3.49,4.24,0,.52,0,3.75,2.52,3.75,.73,0,1.25-.31,1.77-.62,.08-3.15,.1-3.82,.08-7.29-.36-.05-.6-.08-.88-.08Z" style="fill: #fff;"/>
        <path d="M187.66,247.2c1.48,5.72,1.85,6.95,5,18.08l-.13,.21c-2.11-.03-2.63,0-4.53,.08l-.18-.16-1.12-4.81h-5.62l-1.27,4.74-.18,.16h-4.06l-.1-.18c3.82-10.98,4.66-13.61,6.04-18.03l.18-.15c2.78,0,3.3,0,5.8-.08l.18,.16Zm-1.72,10.25l-.96-4.06-.78-3.38-.91,3.05-1.3,4.4h3.95Z" style="fill: #fff;"/>
        <path d="M207,251.78c-.05,2.45-.08,4.89-.08,7.34,0,3.38,.05,4.37,.18,6.22l-.16,.16c-1.69,0-2.26,0-4.16,.08l-.18-.16,.03-1.17c-.94,.73-2,1.56-3.85,1.56-1.3,0-2.55-.42-3.41-1.38-.94-1.09-1.07-2.29-1.04-5.12v-1.82c0-2.63-.03-3.36-.18-5.54l.18-.15,4.29-.21,.18,.21-.05,5.26c-.03,.65-.03,1.33-.03,1.98,0,1.54,0,3.51,1.87,3.51,.7,0,1.25-.39,1.95-.86,.03-1.04,.03-1.46,.03-2.21,0-.42,0-4.58-.18-7.52l.18-.15,4.24-.21,.18,.21Z" style="fill: #fff;"/>
        <path d="M216.78,256.98c1.43,.55,3.44,1.3,3.44,4.16,0,.18,0,.36-.03,.57-.47,3.72-4.37,4.08-6.35,4.08s-2.99-.42-4.27-.89l-.13-.23c.1-1.3,.13-1.59,.18-2.94l.23-.1c.39,.31,.6,.49,1.04,.73,.96,.49,2.03,.73,2.76,.73,1.46,0,2.06-.7,2.06-1.35,0-.94-1.15-1.33-1.85-1.56l-.99-.36c-1.22-.47-3.38-1.3-3.38-4.08,0-1.04,.36-1.82,.7-2.29,1.35-1.95,3.9-2.06,5.18-2.06,1.69,0,2.76,.31,3.98,.65l.13,.16-.26,2.84-.23,.08c-.65-.42-1.67-1.09-3.25-1.09s-1.82,.86-1.82,1.17c0,.73,.7,1.02,1.59,1.33l1.27,.47Z" style="fill: #fff;"/>
        <path d="M230,262.6l-.26,2.68-.18,.18c-.91,.16-1.72,.31-2.73,.31-4.06,0-4.11-2.58-4.11-4.97,0-.68,.03-1.33,.05-1.98l.08-4.14-1.64,.05-.16-.16,.23-2.78,.16-.13,1.41,.05-.03-3.25,.1-.18c1.85-.47,2.32-.6,4.08-1.12l.18,.16-.08,4.37h2.6l.16,.15-.26,2.79-.16,.16-2.34-.1-.05,3.67c-.03,1.04-.03,2.47,.05,3.15,.05,.39,.16,1.22,1.48,1.22,.44,0,.75-.1,1.2-.23l.21,.11Z" style="fill: #fff;"/>
        <path d="M239,255.94c-.36-.21-.63-.37-1.07-.37-1.77,0-1.77,1.72-1.77,2.89,0,1.79,.16,4.74,.26,6.84l-.13,.18c-2.08-.03-2.5,0-4.42,.08l-.16-.16c.05-2.16,.08-4.29,.08-6.43,0-3.62-.08-4.79-.23-6.74l.16-.16c1.9-.29,2.39-.36,4.32-.78l.21,.21-.08,2.39c.83-1.93,2.03-2.52,3.1-2.52,.18,0,.36,.03,.55,.03l.16,.18-.73,4.24-.23,.11Z" style="fill: #fff;"/>
        <path d="M253.02,259.66c0,2.45,0,3.1,.18,5.65l-.13,.18c-1.69-.03-2.26,0-4.14,.08l-.16-.18v-.96c-.55,.44-1.67,1.38-3.62,1.38-2.55,0-4.55-1.8-4.55-4.58,0-1.17,.49-2.65,1.95-3.57,1.56-.96,3.02-1.25,6.14-1.67,0-.39-.08-.86-.34-1.12-.34-.34-.73-.49-1.69-.49-1.74,0-3.44,.68-4.35,1.04l-.21-.1,.13-2.84,.16-.21c1.48-.44,2.86-.86,5.1-.86,3.33,0,4.37,1.04,4.89,1.87,.68,1.09,.68,2.11,.65,4.45l-.03,1.93Zm-4.27-.94c-1.77,.23-3.82,.52-3.82,2.24,0,1.09,.78,1.59,1.72,1.59,.86,0,1.56-.36,2.11-.68v-3.15Z" style="fill: #fff;"/>
        <path d="M260.52,265.49c-1.9-.03-2.6,0-4.35,.08l-.16-.18c.1-2.58,.16-4.14,.16-6.95,0-1.54,0-3.07-.03-4.61-.05-4.21-.08-5.07-.34-8.25l.1-.16,4.45-.7,.18,.18c-.1,2.81-.13,3.98-.13,6.45,0,8.22,.13,10.95,.26,13.95l-.16,.18Z" style="fill: #fff;"/>
        <path d="M283.91,265.49c-1.95,0-2.45,0-4.24,.08l-.13-.16,.05-1.01c-.62,.55-1.59,1.41-3.44,1.41-.86,0-2.26-.21-3.41-1.15-1.53-1.27-2.08-3.3-2.08-5.33,0-2.68,.76-4.84,2.58-6.24,1.98-1.56,4.42-1.51,6.38-1.46,.03-2.97,0-3.62-.16-6.06l.13-.16,4.29-.68,.18,.16c-.1,3.43-.21,6.27-.21,13.14,0,3.41,.08,4.97,.18,7.31l-.13,.16Zm-5.18-10.82c-2.91,0-3.49,2.24-3.49,4.24,0,.52,0,3.75,2.52,3.75,.73,0,1.25-.31,1.77-.62,.08-3.15,.1-3.82,.08-7.29-.36-.05-.6-.08-.89-.08Z" style="fill: #fff;"/>
        <path d="M298.74,261.72l-.18,2.94-.16,.21c-1.38,.55-2.32,.94-4.47,.94-1.87,0-5.41-.31-6.92-3.82-.42-.91-.62-2.19-.62-3.41,0-4.5,2.71-7.18,6.79-7.18,.6,0,1.2,.05,1.85,.23,.88,.21,2.89,.83,3.8,3.9,.36,1.3,.39,2.6,.42,3.88l-.16,.18-8.4,.16c.1,.52,.18,1.04,.57,1.59,.62,.94,1.69,1.43,3.25,1.43,1.9,0,3.07-.6,4.06-1.12l.18,.08Zm-3.72-4.84c0-.6-.03-1.22-.39-1.8-.29-.47-.81-.91-1.67-.91-.36,0-.73,.08-1.04,.29-.99,.62-1.17,1.72-1.25,2.52l4.34-.1Z" style="fill: #fff;"/>
        <path d="M322.91,260.94l-.18,3.88-.13,.16c-.83,.34-2.26,.91-4.45,.91-6.35,0-9.39-4.4-9.39-9.39,0-4.55,2.34-9.76,9.08-9.76,2.29,0,3.88,.6,4.81,.96l.1,.13-.23,3.59-.23,.05c-.65-.49-1.72-1.25-3.67-1.25-4.24,0-5.02,3.93-5.02,6.17,0,3.69,2.08,5.91,5.05,5.91,2.16,0,3.49-.99,4.08-1.46l.18,.11Z" style="fill: #fff;"/>
        <path d="M337.53,265.46c-2,0-2.42,0-4.29,.1l-.13-.18c0-.86,.03-1.69,.03-2.55,0-.96-.03-4.66-.08-5.46-.1-1.04-.21-2.53-1.64-2.53-.88,0-1.51,.44-2,.78,.03,4.6,.05,5.78,.23,9.68l-.16,.16c-2.11,0-2.5,0-4.42,.1l-.13-.18c.05-2.55,.1-4.08,.1-6.66,0-2.11-.03-4.22-.08-6.32-.05-3.36-.1-4.29-.34-6.82l.13-.16,4.45-.7,.16,.18-.08,8.01c1.04-.62,2.52-1.53,4.42-1.53,1.15,0,2.24,.34,2.99,1.41,.75,1.09,.78,2.52,.81,5v1.95c.05,2.71,.08,3.43,.18,5.57l-.16,.16Z" style="fill: #fff;"/>
        <path d="M345.18,265.49c-2.11-.03-2.63,0-4.5,.08l-.16-.18c.08-2.13,.16-3.72,.16-6.56,0-3.69-.08-4.6-.29-6.58l.16-.16,4.47-.78,.18,.21c-.03,2.21-.08,4.45-.08,6.66,0,3.59,.1,5.13,.23,7.13l-.18,.18Zm-.36-16.5c-1.85,.23-2.34,.29-4.11,.6l-.18-.16c.03-.49,.03-1.01,.03-1.51,0-.62-.03-1.17-.08-2.11l.16-.18,4.24-.52,.16,.15-.08,3.54-.13,.18Z" style="fill: #fff;"/>
        <path d="M352.67,265.49c-1.9-.03-2.6,0-4.35,.08l-.16-.18c.1-2.58,.16-4.14,.16-6.95,0-1.54,0-3.07-.03-4.61-.05-4.21-.08-5.07-.34-8.25l.1-.16,4.45-.7,.18,.18c-.1,2.81-.13,3.98-.13,6.45,0,8.22,.13,10.95,.26,13.95l-.16,.18Z" style="fill: #fff;"/>
        <path d="M367.58,261.72l-.18,2.94-.16,.21c-1.38,.55-2.32,.94-4.47,.94-1.87,0-5.41-.31-6.92-3.82-.42-.91-.63-2.19-.63-3.41,0-4.5,2.71-7.18,6.79-7.18,.6,0,1.2,.05,1.85,.23,.88,.21,2.89,.83,3.8,3.9,.36,1.3,.39,2.6,.42,3.88l-.16,.18-8.4,.16c.1,.52,.18,1.04,.57,1.59,.62,.94,1.69,1.43,3.25,1.43,1.9,0,3.07-.6,4.06-1.12l.18,.08Zm-3.72-4.84c0-.6-.03-1.22-.39-1.8-.29-.47-.81-.91-1.67-.91-.36,0-.73,.08-1.04,.29-.99,.62-1.17,1.72-1.25,2.52l4.34-.1Z" style="fill: #fff;"/>
      </g>
      <g>
        <path d="M83.59,287.95c-.08,1.74-.13,3.8-.13,8.28,0,5,.05,7.13,.21,9.81l-.16,.18c-1.15,.03-1.51,.03-2.89,.08l-.16-.18c.05-1.59,.1-2.96,.1-6.32,0-3.93,0-7.83-.18-11.73l.13-.21c1.14,0,1.56,0,2.89-.08l.18,.18Z" style="fill: #fff;"/>
        <path d="M99.28,304.08c-.08,.89-.08,1.07-.13,1.95l-.18,.18c-5.07,0-5.88,.03-10.82,.08l-.13-.18c.08-2.05,.16-3.46,.16-8.22,0-4.37,0-6.87-.18-9.86l.16-.18c5.13-.03,6.14-.03,10.93-.08l.16,.18c-.08,.78-.13,1.09-.18,2.03l-.16,.18c-3.36-.1-4.47-.1-7.78-.13-.08,2.39-.08,3.15-.08,5.54,3.2,.03,4.19,0,7.36-.05l.13,.18c-.1,.91-.1,1.17-.13,2.01l-.16,.18c-3.02-.08-3.67-.08-7.21-.08-.05,3.02-.03,3.75,0,6.22,3.93,0,4.74,0,8.09-.13l.16,.18Z" style="fill: #fff;"/>
        <path d="M113.8,304.08c-.08,.89-.08,1.07-.13,1.95l-.18,.18c-5.07,0-5.88,.03-10.82,.08l-.13-.18c.08-2.05,.16-3.46,.16-8.22,0-4.37,0-6.87-.18-9.86l.16-.18c5.13-.03,6.14-.03,10.93-.08l.16,.18c-.08,.78-.13,1.09-.18,2.03l-.16,.18c-3.36-.1-4.47-.1-7.78-.13-.08,2.39-.08,3.15-.08,5.54,3.2,.03,4.19,0,7.36-.05l.13,.18c-.1,.91-.1,1.17-.13,2.01l-.16,.18c-3.02-.08-3.67-.08-7.21-.08-.05,3.02-.03,3.75,0,6.22,3.93,0,4.74,0,8.09-.13l.16,.18Z" style="fill: #fff;"/>
        <path d="M128.31,304.08c-.08,.89-.08,1.07-.13,1.95l-.18,.18c-5.07,0-5.88,.03-10.82,.08l-.13-.18c.08-2.05,.16-3.46,.16-8.22,0-4.37,0-6.87-.18-9.86l.16-.18c5.13-.03,6.14-.03,10.93-.08l.16,.18c-.08,.78-.13,1.09-.18,2.03l-.16,.18c-3.36-.1-4.48-.1-7.78-.13-.08,2.39-.08,3.15-.08,5.54,3.2,.03,4.19,0,7.36-.05l.13,.18c-.1,.91-.1,1.17-.13,2.01l-.16,.18c-3.02-.08-3.67-.08-7.21-.08-.05,3.02-.03,3.75,0,6.22,3.93,0,4.73,0,8.09-.13l.16,.18Z" style="fill: #fff;"/>
        <path d="M143.82,295.8c1.9,.83,4.42,1.93,4.42,5.26,0,2.91-2.16,5.54-6.69,5.54-2.76,0-4.53-.83-5.15-1.14l-.1-.18c.1-.91,.13-1.4,.21-2.39l.26-.11c.65,.44,2.16,1.54,4.58,1.54,2.68,0,3.8-1.38,3.8-2.94,0-1.82-1.51-2.53-3.2-3.18l-1.3-.57c-1.85-.86-4.32-1.98-4.32-5.15,0-.96,.26-1.95,.81-2.73,1.2-1.72,3.36-2.29,5.46-2.29s3.3,.39,4.68,.83l.13,.21c-.1,.99-.13,1.35-.21,2.29l-.21,.11c-1.12-.57-2.34-1.2-4.29-1.2-2.16,0-3.51,1.01-3.51,2.55,0,1.17,.78,1.72,1.33,2.06,.34,.21,.44,.26,2,.94l1.3,.57Z" style="fill: #fff;"/>
        <path d="M157.06,304.16c-.08,.86-.08,1.04-.1,1.8l-.13,.15c-.55,.13-.99,.23-1.95,.23-.62,0-2.26,0-3.07-1.35-.47-.75-.47-1.38-.47-4.45l.05-5.72c-.91,0-.94,.03-1.87,.05l-.1-.15c.05-.83,.05-1.04,.05-1.87l.16-.16c.57,0,.91,.03,1.77,0-.03-.55-.03-1.12-.03-1.67-.03-.49-.05-.99-.08-1.48l.13-.18c1.17-.29,1.46-.36,2.65-.73l.18,.13c-.08,1.72-.1,2.06-.1,3.96,1.09-.03,1.41-.03,2.89-.08l.13,.15c-.05,.68-.08,.96-.08,1.85l-.13,.16c-1.3-.03-1.46-.05-2.84-.05l-.05,4.84c.03,.31,.03,1.8,.03,2.16,0,1.9,.23,2.5,1.54,2.5,.55,0,.96-.13,1.25-.23l.18,.16Z" style="fill: #fff;"/>
        <path d="M170.75,292.76c-.05,1.98-.08,3.82-.08,5.93,0,3.2,.08,5.13,.13,6.24,0,.37,.03,.73,.05,1.09l-.1,.15c-1.25,.03-1.46,.05-2.65,.11l-.16-.16,.03-1.09c-.57,.42-1.95,1.48-4.08,1.48-1.01,0-2.13-.23-2.97-.88-1.67-1.35-1.67-3.57-1.69-5.59v-1.61c-.05-3.72-.05-4.14-.13-5.54l.13-.18c1.22-.03,1.46-.03,2.68-.13l.16,.18-.1,5.7c0,.7-.03,1.22,0,2.47,.03,1.09,.08,3.44,2.71,3.44,1.54,0,2.63-.86,3.25-1.35,.03-1.41,.03-2.6,.03-4.11,0-3.62-.03-4.34-.18-6.04l.16-.18c1.2-.03,1.48-.03,2.68-.1l.16,.18Z" style="fill: #fff;"/>
        <path d="M183.13,285.99c1.33-.23,1.59-.29,2.76-.55l.18,.16c-.18,3.62-.21,10.07-.21,12.67,0,4.03,.1,5.96,.21,7.76l-.13,.18c-1.15,0-1.46,.03-2.65,.08l-.18-.16,.05-.96c-.62,.47-1.69,1.3-3.59,1.3-3.46,0-5.85-2.73-5.85-6.69,0-2.84,1.2-4.63,2.29-5.6,1.9-1.72,4.37-1.79,5.72-1.79,.55,0,.81,0,1.51,.05,.03-3.22-.1-4.79-.23-6.3l.13-.16Zm.03,8.56c-.44-.03-.75-.08-1.3-.08-.81,0-2.52,.05-3.77,1.22-.57,.55-1.51,1.77-1.51,4.09,0,1.48,.42,2.55,.96,3.2,.47,.55,1.33,1.17,2.68,1.17,1.59,0,2.55-.83,2.91-1.15,.05-3.41,.05-4.19,.03-8.46Z" style="fill: #fff;"/>
        <path d="M200.39,303.04c-.13,1.04-.16,1.3-.21,2.31l-.16,.18c-.44,.23-1.85,.99-4.16,.99-4.27,0-6.95-2.45-6.95-6.97,0-4.84,2.91-7.21,6.32-7.21,2.06,0,3.49,.86,4.27,1.8,1.48,1.77,1.43,4.34,1.41,5.49l-.18,.16c-4.06-.03-4.76-.03-9.03,0,.03,.91,.1,2.19,.99,3.25,1.07,1.27,2.55,1.4,3.36,1.4,.75,0,1.54-.13,2.26-.39,.96-.39,1.54-.86,1.87-1.15l.21,.13Zm-2.42-6.79c-.52-1.43-1.67-2.03-2.84-2.03-1.46,0-3.17,.99-3.44,3.59,3.15,.03,4.14,0,6.53-.03-.03-.36-.05-.94-.26-1.53Z" style="fill: #fff;"/>
        <path d="M215.22,306.18c-1.25,.03-1.41,.03-2.6,.11l-.18-.18c0-.29,.03-.57,.03-.86,.03-1.27,.03-2.55,.03-3.82,0-4.01-.03-4.27-.16-4.81-.49-1.98-1.98-1.98-2.34-1.98-1.56,0-2.76,.91-3.46,1.46-.03,4.53,.03,6.9,.21,9.94l-.16,.15c-1.28,.03-1.48,.03-2.73,.11l-.13-.18c.03-1.46,.08-2.86,.08-4.79,0-4.16-.18-6.38-.31-8.12l.16-.18c1.3-.23,1.54-.29,2.76-.52l.18,.18-.03,1.35c.68-.47,2.29-1.61,4.58-1.61,.65,0,1.46,.1,2.16,.49,.68,.39,1.22,.99,1.51,1.69,.34,.78,.36,1.56,.39,3.17v3.05c.08,3.05,.1,4.22,.18,5.2l-.16,.15Z" style="fill: #fff;"/>
        <path d="M224.82,304.16c-.08,.86-.08,1.04-.1,1.8l-.13,.15c-.55,.13-.99,.23-1.95,.23-.62,0-2.26,0-3.07-1.35-.47-.75-.47-1.38-.47-4.45l.05-5.72c-.91,0-.94,.03-1.87,.05l-.1-.15c.05-.83,.05-1.04,.05-1.87l.16-.16c.57,0,.91,.03,1.77,0-.03-.55-.03-1.12-.03-1.67-.03-.49-.05-.99-.08-1.48l.13-.18c1.17-.29,1.46-.36,2.65-.73l.18,.13c-.08,1.72-.1,2.06-.1,3.96,1.09-.03,1.41-.03,2.89-.08l.13,.15c-.05,.68-.08,.96-.08,1.85l-.13,.16c-1.3-.03-1.46-.05-2.84-.05l-.05,4.84c.03,.31,.03,1.8,.03,2.16,0,1.9,.23,2.5,1.53,2.5,.55,0,.96-.13,1.25-.23l.18,.16Z" style="fill: #fff;"/>
        <path d="M234.91,306.29l-.13-.18c.05-1.25,.08-2.45,.08-4.81,0-1.12,.03-6.56,.03-7.78,0-2.73-.08-4.14-.18-5.49l.13-.18,3.49-.05c.52-.03,1.33-.03,2.03-.03,1.54,0,3.17,.05,4.47,.81,.96,.55,2.06,1.64,2.06,3.57,0,.91-.26,3.51-3.88,4.4,.6,.03,1.46,.05,2.39,.47,2.24,.99,2.47,2.97,2.47,3.93,0,2.39-1.48,4.08-3.57,4.84-1.38,.49-2.76,.49-4.81,.49l-4.58,.03Zm2.81-10.59c2.34,.03,4.14,0,5.23-.86,.65-.55,1.07-1.41,1.07-2.26,0-.7-.29-1.38-.73-1.85-.91-.89-2.52-.89-3.12-.89-.83,0-1.64,.03-2.45,.08v5.78Zm0,2.19c0,2.96,0,3.41,.1,6.24h.49c1.95,0,3.54,.03,4.55-.39,1.25-.47,1.95-1.56,1.95-2.86,0-3.05-3.36-3.07-4.6-3.07-.23,0-.47,0-1.87,.05l-.62,.03Z" style="fill: #fff;"/>
        <path d="M256.92,295.39c-.26-.11-.6-.23-1.04-.23-.49,0-.86,.18-1.09,.34-1.07,.75-1.07,1.9-1.07,4.6,0,2.94,.08,4.48,.18,5.93l-.13,.18c-1.22,0-1.51,.03-2.76,.08l-.13-.16c.03-1.98,.05-3.77,.05-6.19,0-4.16-.08-5.23-.23-6.74l.16-.18c.99-.18,1.61-.31,2.71-.52l.16,.16-.13,2.21c.31-.83,.96-2.5,3.18-2.5,.34,0,.52,.03,.73,.08l.1,.16c-.26,1.25-.31,1.51-.49,2.65l-.18,.13Z" style="fill: #fff;"/>
        <path d="M269.46,300.85c0,3.23,.03,3.51,.16,5.2l-.13,.13c-1.22,.03-1.43,.05-2.63,.11l-.1-.16,.03-.94c-.49,.39-1.67,1.33-3.64,1.33-2.6,0-4.42-1.77-4.42-4.34,0-3.49,2.91-4.6,7.6-5.15l.44-.05c0-.7,0-1.2-.23-1.61-.26-.47-.86-.96-2.16-.96-1.69,0-2.86,.52-3.95,.99l-.21-.13c.05-1.2,.05-1.35,.08-1.9l.16-.16c1.46-.52,2.97-.86,4.5-.86,1.93,0,3.8,.65,4.34,2.68,.18,.73,.18,2.16,.18,3.25v2.58Zm-2.91-1.9c-2.63,.39-5.07,.75-5.07,3.07,0,.13,0,2.37,2.47,2.37,1.61,0,2.55-.89,2.84-1.15v-4.34l-.23,.05Z" style="fill: #fff;"/>
        <path d="M284.61,306.18c-1.25,.03-1.41,.03-2.6,.11l-.18-.18c0-.29,.03-.57,.03-.86,.03-1.27,.03-2.55,.03-3.82,0-4.01-.03-4.27-.16-4.81-.49-1.98-1.98-1.98-2.34-1.98-1.56,0-2.76,.91-3.46,1.46-.03,4.53,.03,6.9,.21,9.94l-.16,.15c-1.28,.03-1.48,.03-2.73,.11l-.13-.18c.03-1.46,.08-2.86,.08-4.79,0-4.16-.18-6.38-.31-8.12l.16-.18c1.3-.23,1.54-.29,2.76-.52l.18,.18-.03,1.35c.68-.47,2.29-1.61,4.58-1.61,.65,0,1.46,.1,2.16,.49,.68,.39,1.22,.99,1.51,1.69,.34,.78,.36,1.56,.39,3.17v3.05c.08,3.05,.1,4.22,.18,5.2l-.16,.15Z" style="fill: #fff;"/>
        <path d="M298.03,303.12c-.1,1.12-.13,1.25-.21,2.31l-.18,.18c-.75,.36-1.77,.88-3.59,.88-3.93,0-6.48-2.84-6.48-6.9s2.5-7.26,6.53-7.26c1.69,0,2.89,.55,3.57,.83l.1,.18c-.1,.94-.13,1.28-.18,2.06l-.21,.1c-.86-.62-1.85-1.01-2.89-1.01-2.16,0-4.06,1.67-4.06,5,0,3.54,2,4.81,4.03,4.81,1.77,0,2.86-.91,3.36-1.3l.21,.11Z" style="fill: #fff;"/>
        <path d="M311.69,306.18c-1.25,.03-1.41,.03-2.6,.11l-.18-.18,.03-.86c.03-1.35,.03-2.73,.03-4.08l-.03-2.78c0-.6,0-1.2-.13-1.77-.29-1.2-1.01-1.98-2.34-1.98-1.48,0-2.63,.83-3.49,1.46-.03,4.53,.03,6.9,.18,9.94l-.13,.15c-1.2,.03-1.51,.03-2.78,.11l-.13-.18c.05-1.85,.13-4.19,.13-9.18,0-2.19-.03-4.37-.05-6.56-.05-2.29-.13-3.04-.21-4.21l.13-.16c1.25-.21,1.67-.29,2.84-.55l.16,.18c-.16,2.78-.16,5.59-.16,8.4,.83-.55,2.47-1.61,4.66-1.61,.6,0,1.2,.08,1.74,.31,1.17,.47,1.87,1.41,2.13,2.47,.13,.52,.13,.83,.18,2.57v3.05l.03,1.22c.05,2.19,.05,2.55,.16,3.98l-.16,.15Z" style="fill: #fff;"/>
      </g>
      <rect x="32.21" y="276.2" width="327.58" height="1" style="fill: #fff;"/>
    </g>
  </g>
</svg>