<?xml version="1.0" encoding="UTF-8"?>
<svg id="Layer_2" data-name="Layer 2" xmlns="http://www.w3.org/2000/svg" viewBox="0 0 392 392">
  <g id="Layer_2-2" data-name="Layer 2">
    <g id="LogoHorizontal-IEEEStudentBranch-Color-FondoBlancoCircular">
      <circle cx="196" cy="196" r="196" style="fill: #fff;"/>
      <g>
        <path id="_Group_" data-name="&amp;lt;Group&amp;gt;" d="M61.71,152.43l-36.05-.05-.05,35.07-.05,35.07v.82s0,.82,0,.82c0,.41,.02,.82,.08,1.22,.06,.4,.15,.8,.27,1.2h0c.26,.89,.67,1.75,1.19,2.57,.52,.82,1.15,1.59,1.86,2.31h0c.99,.99,2.14,1.86,3.37,2.56,1.23,.7,2.54,1.22,3.86,1.51,.4,.09,.8,.16,1.2,.21,.4,.05,.8,.07,1.19,.07h9.48s9.48,.03,9.48,.03c.04,0,.7-.04,1.43,.19,.73,.23,1.53,.73,1.83,1.82l.25,.89,.25,.89,.24-.9,.24-.9c.29-1.07,1.14-1.57,1.92-1.8,.79-.23,1.52-.19,1.57-.19h9.77s9.77,.03,9.77,.03c.39,0,.79-.02,1.18-.07,.4-.05,.79-.11,1.19-.2h0c1.31-.29,2.6-.81,3.81-1.51,1.21-.69,2.33-1.56,3.3-2.54h0c.7-.72,1.31-1.49,1.82-2.31,.51-.82,.91-1.68,1.17-2.56h0c.12-.39,.21-.79,.27-1.19,.06-.4,.09-.81,.1-1.21l.05-35.89,.05-35.89-36.05-.05Zm34.99,36.45l-.05,35.39c0,.4-.04,.81-.11,1.21-.07,.4-.17,.8-.31,1.2h0c-.3,.89-.76,1.77-1.34,2.59-.58,.82-1.28,1.59-2.06,2.28h0c-1.13,1-2.43,1.82-3.8,2.4-1.37,.58-2.81,.91-4.21,.91h-9.76s-9.76-.03-9.76-.03c-.5-.03-1.03,.02-1.55,.14-.52,.12-1.03,.32-1.47,.6h0c-.19,.12-.38,.26-.54,.42-.17,.16-.32,.33-.45,.51-.13-.19-.27-.36-.43-.52-.16-.16-.34-.3-.52-.42h0c-.41-.28-.88-.47-1.37-.6-.49-.12-.99-.17-1.47-.14h-9.46s-9.46-.03-9.46-.03c-1.41,0-2.87-.34-4.27-.92-1.39-.59-2.72-1.42-3.87-2.41h0c-.8-.69-1.52-1.47-2.11-2.29-.59-.82-1.06-1.7-1.36-2.59h0c-.13-.4-.24-.8-.31-1.2-.07-.4-.1-.8-.1-1.21v-.83s0-.83,0-.83l.05-34.56,.05-34.56,35.04,.05,35.04,.05-.05,35.39Zm-42.51-21.34l1.51-1.18-.16,2.12-.16,2.12-1.35-.95-1.35-.95,1.51-1.18Zm-1,2.92l1.44,1-2.75,.03-2.75,.03,1.31-1.03,1.31-1.03,1.44,1Zm-5.29-1.66l-.1-2.16,1.51,1.07,1.51,1.07-1.42,1.08-1.42,1.08-.1-2.16Zm3.84-.74s-.76-.52-1.52-1.07c-.76-.55-1.52-1.11-1.52-1.11l3.17-.19,3.17-.19s-.82,.63-1.64,1.26c-.82,.63-1.64,1.27-1.64,1.3m10-5.17l-25.27-.04-.04,27.5-.04,27.5c0,.1,0,.21,0,.31,0,.1,0,.2,.02,.31,.06,.75,.22,1.48,.47,2.16,.25,.68,.59,1.32,1.01,1.9,.73,1.01,1.68,1.85,2.79,2.43,1.11,.58,2.37,.91,3.71,.92l17.26,.02,17.26,.02c1.34,0,2.6-.33,3.72-.91,1.11-.58,2.07-1.41,2.8-2.43,.42-.58,.76-1.22,1.01-1.9,.25-.68,.42-1.41,.47-2.16h0c0-.1,.02-.2,.02-.3,0-.1,0-.21,0-.31l.04-27.5,.04-27.5-25.27-.04Zm-19.04,55.58l-1.68-1.05-1.68,1.05,.48-1.92-1.51-1.27,1.98-.14,.74-1.84,.74,1.84,1.97,.14-1.52,1.27,.48,1.92Zm-.47-8.11l.48,1.92-1.68-1.05-1.68,1.05,.48-1.92-1.51-1.27,1.97-.14,.74-1.83,.74,1.84,1.97,.14-1.52,1.27Zm0-6.18l.48,1.92-1.68-1.05-1.68,1.05,.48-1.92-1.51-1.27,1.97-.14,.74-1.83,.74,1.84,1.97,.14-1.52,1.27Zm0-6.19l.48,1.92-1.68-1.05-1.68,1.05,.48-1.92-1.51-1.27,1.98-.14,.74-1.84,.74,1.84,1.97,.14-1.52,1.27Zm8.75,26.68l-1.68-1.05-1.68,1.05,.48-1.92-1.51-1.27,1.97-.14,.74-1.84,.74,1.84,1.97,.14-1.52,1.27,.48,1.92Zm-.47-8.11l.48,1.92-1.68-1.05-1.68,1.05,.48-1.92-1.51-1.27,1.97-.14,.74-1.83,.74,1.84,1.97,.14-1.52,1.27Zm0-6.19l.48,1.92-1.68-1.05-1.68,1.05,.48-1.92-1.51-1.27,1.98-.14,.74-1.84,.74,1.84,1.97,.14-1.52,1.27Zm0-6.19l.48,1.92-1.68-1.05-1.68,1.05,.48-1.92-1.51-1.27,1.97-.14,.74-1.84,.74,1.84,1.97,.14-1.52,1.27Zm0-6.19l.48,1.92-1.68-1.05-1.68,1.05,.48-1.92-1.51-1.27,1.98-.14,.74-1.84,.74,1.84,1.97,.14-1.52,1.27Zm1-9.96c-1.21-.02-2.41,1.15-2.26,3.55,0-.01-.89,.01-1.79,.04-.9,.02-1.81,.04-1.88,.02-.18-.07-.25-.19-.32-.32-.07-.13-.13-.25-.32-.32-.18-.07-.31-.02-.42,.02-.11,.03-.21,.04-.35-.1-.14-.14-.12-.25-.11-.36,.01-.11,.03-.22-.11-.36-.14-.14-.24-.12-.33-.11-.09,.01-.16,.01-.24-.17-.02-.05-.02-.09,0-.13,.02-.04,.07-.07,.13-.09,.55-.06,.62-.21,.51-.34-.1-.13-.36-.23-.46-.19-.06,.02-.16-.02-.22-.1-.07-.08-.11-.19-.06-.3,.03-.08-.07-.25-.17-.42-.11-.17-.22-.34-.22-.4,0-.02,0-.08,0-.14s0-.14,0-.21h0s0-.07,0-.09c0-.03,0-.05,.01-.06,.1-.04,.11-.21,.1-.39-.01-.15-.04-.29-.05-.38,0-.02,0-.04,0-.06,0-.06,0-.11,.02-.14,.02-.07,.04-.1,.07-.13,.04-.04,.08-.07,.09-.27,0-.2-.04-.31-.09-.42,0,0,0-.02-.01-.02-.05-.1-.09-.21-.08-.39,0-.04,.02-.05,.05-.05,.02,0,.04,0,.06-.01,.02,0,.04,0,.06-.01,.27-.03,.35-.13,.35-.23,0-.1-.11-.2-.22-.25-.06-.02-.11-.06-.14-.11-.07-.08-.1-.19-.1-.31,0-.19,.04-.41,.05-.61,.02-.19,0-.19-.03-.18-.02,0-.05,.01-.03-.18,.02-.19-.02-.32-.05-.45-.03-.13-.06-.25-.05-.45,.02-.2,.09-.36,.17-.5,.07-.14,.15-.25,.15-.33,0-.09,.02-.17,.04-.24,.02-.07,.05-.13,.08-.19h0c.05-.09,.11-.16,.16-.21,.05-.04,.08-.07,.08-.07,.74-.11,1.86-.2,2.94-.27,1.08-.06,2.13-.1,2.74-.11,.03,0,.06,0,.09,0,.03,0,.05,0,.08,0,.93,.01,2.15,.04,3.26,.11,1.11,.07,2.12,.17,2.65,.32,0,0,0,.02,0,.07,0,.04,.01,.1,.02,.19l.7,6.49c.05,.48,.09,.89,.12,1.19,.03,.3,.05,.49,.04,.53,0,.05,.03,.56,.07,1.08,.04,.52,.08,1.04,.09,1.1,.01,.1,.01,.2-.01,.28-.03,.08-.08,.15-.17,.18-.04,.01-.64-.06-1.23-.13-.59-.07-1.17-.15-1.17-.15,.14-2.41-1.07-3.63-2.28-3.66m-8.24-9.85s-.04-.01-.03-.21c.02-.19,.04-.4,.05-.6,.02-.2,.03-.41,.05-.6,.02-.19,.02-.26,.02-.32,0-.06,0-.13,0-.32,0-.1,.01-.33,.03-.61,.02-.28,.04-.6,.08-.91h0c.02-.19,.05-.38,.08-.54,.03-.16,.07-.28,.11-.34,.08-.11,.14-.2,.24-.29,.1-.08,.23-.16,.43-.25,.05,.24,.09,.54,.13,.77,.03,.23,.06,.4,.07,.41,.12-.02,.49-.04,.83-.06,.34-.02,.65-.04,.68-.04,.02,0,.04-.02,.06-.03,.01-.01,.02-.03,.03-.05,.01-.09,.04-.37,.07-.66,.03-.29,.06-.58,.07-.69,.1,0,.18-.01,.26-.02,.08,0,.15,0,.21-.01,.12,0,.42,.05,.7,.25,.28,.2,.53,.53,.57,1.09,.09,0,.43,0,.82,0,.39,0,.82-.01,1.08-.03,.03,0,.08-.02,.11-.04,.04-.02,.06-.05,.07-.08,.02-.17,.06-.41,.09-.64,.03-.23,.06-.45,.07-.58,.28,.02,.65,.06,.97,.09,.31,.03,.56,.06,.56,.07,0,0,.03,.27,.05,.56,.02,.29,.05,.61,.06,.71,0,.03,.02,.04,.05,.06,.03,.02,.06,.03,.09,.03,.19,.03,.44,.07,.69,.11,.25,.04,.49,.08,.67,.11,.04,0,.07,0,.08-.01,.02-.01,.03-.04,.03-.06,.03-.2,.06-.49,.1-.74,.03-.25,.06-.45,.07-.49,.09,.02,.27,.06,.46,.11,.19,.05,.39,.1,.52,.13,.01,.04,.03,.19,.06,.4,.03,.21,.05,.49,.08,.78h0c.03,.3,.06,.62,.08,.91,.02,.29,.04,.56,.05,.77l-.22-.06-.22-.06c-.06-.01-.12,0-.16,.04-.04,.03-.07,.09-.07,.15l.05,.83,.05,.83,.35,.15,.35,.15s.04,.27,.08,.66c.04,.39,.1,.89,.13,1.34-.44-.09-1.33-.2-2.36-.3-1.04-.09-2.23-.16-3.29-.17-1.15-.02-2.21,0-3.16,.05-.95,.05-1.79,.12-2.5,.21-.08-.01-.2,0-.31,0-.1,0-.19-.04-.19-.14,.04-.12,0-.19-.05-.26-.05-.07-.11-.14-.09-.26,.02-.19-.04-.23-.09-.26-.05-.03-.11-.07-.09-.26,.02-.19,.04-.24,.07-.28,.02-.04,.05-.09,.07-.28,.02-.19,0-.2-.03-.21m1.32-4.99l.1,.02,.1,.02,.09,.47,.09,.47h-.12s-.12-.02-.12-.02l-.07-.48-.07-.49Zm3.53-.5l.1,.03,.1,.03,.08,.57,.08,.57h-.12s-.12,0-.12,0l-.06-.6-.07-.6Zm10.73,45.8l-1.68-1.05-1.68,1.05,.48-1.92-1.51-1.27,1.97-.14,.74-1.84,.74,1.84,1.97,.14-1.52,1.27,.48,1.92Zm-.47-8.11l.48,1.92-1.68-1.05-1.68,1.05,.48-1.92-1.51-1.27,1.97-.14,.74-1.83,.74,1.84,1.97,.14-1.52,1.27Zm0-6.19l.48,1.92-1.68-1.05-1.68,1.05,.48-1.92-1.51-1.27,1.98-.14,.74-1.84,.74,1.84,1.97,.14-1.52,1.27Zm0-6.19l.48,1.92-1.68-1.05-1.68,1.05,.48-1.92-1.51-1.27,1.97-.14,.74-1.84,.74,1.84,1.97,.14-1.52,1.27Zm2.74-28.93v5.56s-.02,9.1-.02,9.1v9.1c-.51-.11-1.48-.31-2.32-.49-.85-.18-1.57-.33-1.57-.33l-.67-5.4-.67-5.4s.04-.02,.07-.04c.02-.01,.04-.03,.06-.05h0s.09-.1,.12-.15c.03-.05,.04-.1,.04-.14,0-.11-.09-.19-.17-.25-.08-.05-.16-.08-.16-.08l-.36-2.89-.36-2.89s0-.03,0-.05c0-.02,0-.03,0-.05h0c-.04-.39,.01-.72,.07-.95,.06-.23,.12-.35,.12-.35,0-.02-.11-.06-.21-.09-.1-.03-.21-.06-.23-.06-.16-.04-.35-.08-.55-.13-.2-.05-.42-.1-.62-.14-.07,.01-.14,.03-.2,.06-.06,.02-.12,.04-.15,.05-.01,.07-.03,.22-.05,.36-.02,.14-.03,.26-.03,.26,0,0-.22-.03-.47-.05-.25-.03-.53-.06-.63-.07-.02-.11-.03-.25-.05-.4-.01-.14-.02-.28-.04-.38,0-.04-.01-.07-.03-.09-.01-.02-.04-.03-.07-.03-.05,0-.5-.04-.95-.08s-.9-.07-.95-.07c-.02,0-.04,0-.06,.01-.02,.01-.04,.03-.04,.06-.01,.08-.03,.23-.05,.39-.02,.17-.04,.35-.06,.49-.11,0-.38,.02-.65,.04-.27,.02-.52,.04-.59,.05-.03-.14-.05-.29-.08-.45-.02-.16-.05-.32-.08-.47-.05-.01-.13-.04-.21-.07-.08-.03-.16-.06-.21-.06-.03,0-.16,0-.32,.02-.16,.01-.35,.03-.5,.04,0-.02-.07-1.66-.15-3.31-.07-1.65-.15-3.3-.16-3.36,.04-.01,.1-.05,.15-.1,.05-.05,.09-.13,.09-.23,0,.04-.03,.09-.08,.13-.04,.04-.1,.06-.17,.06-.08,0-.15-.05-.19-.1-.04-.05-.07-.12-.06-.16,0-.13,.07-.21,.15-.24,.08-.03,.17-.02,.22,.01-.04-.04-.09-.06-.13-.07-.04-.01-.08-.02-.1-.02-.14,0-.23,.07-.29,.14-.06,.08-.08,.17-.08,.22,0,.06,.02,.14,.07,.21,.05,.07,.12,.12,.23,.15,0,.08,0,1.72,0,3.36,0,1.64,0,3.27-.01,3.34-.3,.02-.47,.03-.57,.04-.1,0-.12,.01-.13,.04-.03,.03-.08,.37-.12,.71-.04,.34-.07,.67-.07,.7-.1,.01-.22,.03-.34,.04-.12,.02-.25,.03-.38,.05,0,0-.05-.25-.09-.51-.05-.26-.09-.52-.09-.52,0-.03,0-.04-.03-.06-.02-.02-.04-.03-.09-.03-.08-.01-.15-.03-.24-.05-.09-.02-.19-.04-.32-.05-.02,0-.29,.05-.58,.12-.29,.06-.6,.13-.68,.16,0,0-.02,0-.03,.02-.02,.01-.03,.04-.03,.06l-.39,3.55-.39,3.55s-.08,.04-.17,.1c-.09,.06-.17,.15-.18,.24,0,.09,.03,.17,.08,.24,.05,.07,.11,.13,.17,.17l-.57,5.42-.56,5.42s-.73,.13-1.58,.32c-.85,.18-1.84,.41-2.34,.6l.02-14.69,.02-14.69,12.05,.02,12.06,.02v5.56Zm.63-5.56l12.27,.02,12.27,.02-.05,29.31c-1.39-.37-2.66-.68-4.09-.92-1.43-.24-3-.42-4.96-.53-.32-.5-.62-1.07-.84-1.69-.22-.63-.36-1.32-.34-2.07h0c0-.17,.02-.35,.04-.53,.02-.18,.05-.36,.09-.54,.02-.02,.06-.04,.11-.06,.05-.02,.1-.04,.15-.04,.21,0,.2,.07,.19,.14-.01,.07-.02,.14,.19,.14,.21,0,.25,.03,.29,.06,.04,.03,.08,.06,.29,.07,.21,0,.25-.04,.29-.08,.04-.04,.08-.08,.29-.08,.21,0,.25,.06,.29,.13,.04,.06,.08,.13,.29,.13,.21,0,.24-.13,.27-.27,.03-.14,.05-.3,.26-.35,.2-.05,.28,0,.36,.04,.08,.05,.15,.1,.36,.04,.21-.06,.27-.05,.32-.07,.05-.02,.1-.05,.27-.18,.17-.13,.17-.22,.17-.32,0-.1,0-.19,.17-.32,.17-.13,.23-.12,.27-.12,.04,0,.07-.02,.19-.2,.11-.18,.19-.2,.27-.22,.08-.02,.15-.04,.27-.22,.11-.18,.1-.24,.07-.3-.03-.06-.08-.14-.04-.34,.04-.21,.2-.38,.36-.55,.16-.17,.32-.35,.36-.55,.04-.21-.02-.28-.1-.36-.08-.07-.18-.15-.22-.36-.04-.21,0-.26,.05-.32,.04-.05,.09-.11,.05-.32-.03-.2-.06-.26-.09-.31-.04-.05-.08-.09-.17-.24h0s0-.02-.01-.03c0,0,0-.02-.01-.02-.1-.19-.15-.2-.21-.22-.05-.02-.1-.03-.21-.22-.1-.19-.08-.26-.08-.33s0-.12-.16-.26c-.16-.14-.2-.15-.25-.15-.05,0-.09-.01-.25-.15-.16-.14-.23-.1-.3-.05-.08,.06-.16,.13-.36,.04-.19-.08-.17-.25-.14-.42,.03-.17,.06-.33-.14-.42-.05-.02-.09-.03-.13-.03-.04,0-.07,0-.09,.02,.05-.17-.01-.22-.07-.26-.05-.05-.1-.1-.04-.3,.06-.2,.08-.23,.1-.26,.02-.03,.03-.05,.1-.26,.07-.2,.13-.21,.2-.22,.06-.01,.13-.02,.19-.22,.07-.2,.09-.25,.09-.31,0-.05-.03-.11-.07-.32-.04-.21-.17-.24-.3-.27-.13-.03-.26-.06-.29-.27-.04-.21,.06-.28,.15-.35,.08-.07,.15-.13,.04-.31-.11-.18-.2-.18-.29-.19-.09,0-.18,0-.29-.19-.09-.14-.07-.24-.03-.32,.04-.08,.09-.14,.06-.23h0s-.02-.04-.04-.07-.04-.05-.08-.08c-.16-.13-.21-.16-.25-.18-.04-.02-.09-.05-.25-.18-.17-.13-.19-.23-.21-.31-.03-.08-.07-.14-.27-.21-.2-.07-.35-.27-.44-.5-.08-.23-.1-.5-.04-.7,.06-.2,.05-.23,.05-.25,0-.02-.01-.04,.05-.25,.06-.2,.05-.25,.01-.3-.04-.05-.1-.1-.14-.31-.04-.21,0-.29,.04-.37,.04-.08,.08-.16,.04-.37-.04-.21-.16-.23-.3-.23s-.29-.01-.41-.19c-.12-.18-.16-.23-.2-.28s-.08-.1-.2-.28c-.12-.18-.06-.32,0-.44,.05-.12,.08-.24-.1-.35-.18-.12-.24-.14-.31-.15-.07-.02-.13-.03-.31-.15-.18-.12-.26-.05-.35,.03-.09,.08-.19,.19-.4,.15-.21-.04-.27-.09-.33-.13-.06-.05-.12-.09-.33-.13-.21-.04-.25-.08-.3-.09-.05-.01-.09,0-.3,.04-.21,.04-.31-.09-.4-.21-.1-.13-.2-.25-.4-.21-.21,.04-.22,.19-.23,.35-.01,.16-.01,.35-.19,.46-.18,.12-.32,.03-.45-.07-.14-.09-.28-.19-.46-.07-.18,.12-.24,.19-.29,.27-.05,.08-.08,.18-.2,.36,.25,.05,.35,.2,.35,.39,0,.19-.09,.4-.21,.58-.12,.18-.31,.33-.48,.5-.17,.16-.32,.34-.36,.54-.04,.21-.02,.26,.02,.31s.12,.09,.18,.3c.06,.2,.07,.22,.09,.23,.02,.02,.03,.03,.09,.23,.06,.2-.04,.25-.15,.3-.1,.05-.2,.1-.15,.3,.06,.2,.06,.22,.07,.24,0,.02,.01,.05,.08,.27-.18,.07-.2,.12-.24,.18s-.07,.11-.27,.18c-.2,.07-.2,.15-.19,.25,.01,.1,.03,.22-.13,.35-.12,.1-.18,.13-.22,.15-.04,.02-.07,.02-.13,.05-.02,.01-.04,.03-.07,.05-.03,.02-.06,.05-.1,.08-.17,.13-.16,.16-.14,.2,.02,.04,.05,.09-.06,.28-.11,.18-.24,.16-.38,.13-.13-.02-.27-.05-.38,.13-.11,.18-.07,.25,0,.32,.06,.07,.14,.15,.1,.36-.04,.21-.13,.25-.22,.28-.09,.04-.19,.08-.22,.28-.04,.21-.13,.28-.19,.36-.06,.07-.1,.15-.04,.35,.07,.2,0,.66-.12,1.11-.12,.44-.3,.87-.45,1.02-.16,.14-.11,.26-.06,.37,.05,.11,.1,.22-.06,.37-.16,.14-.29,.1-.41,.06-.12-.04-.22-.06-.33,.12-.1,.18-.05,.26,0,.33,.05,.07,.12,.14,.05,.3h0s0,.02-.01,.03c0,0-.01,.02-.02,.03-.1,.19-.23,.2-.34,.22-.11,.02-.21,.05-.25,.25-.04,.21,0,.26,.04,.31,.04,.05,.07,.1,.04,.31-.04,.21-.11,.29-.15,.38-.05,.08-.08,.17-.04,.38,.04,.21,.05,.42,.06,.62,.01,.21,.02,.41,.06,.62,.04,.21,.09,.3,.15,.38,.06,.08,.14,.15,.26,.33,.12,.18,.21,.19,.31,.2,.1,.01,.19,.02,.31,.2,.06,.09,.1,.15,.12,.19,.03,.04,.04,.07,.06,.1,.02,.02,.04,.04,.08,.07,.04,.03,.1,.07,.18,.13,.17,.12,.27,.09,.37,.05,.1-.03,.2-.07,.37,.05,.17,.12,.19,.18,.22,.21,.03,.03,.06,.05,.27,.1,.21,.05,.25,.16,.29,.28,.04,.11,.09,.23,.29,.28,.1,.02,.17,.04,.22,.05,.05,.01,.08,.02,.11,.02,.03,0,.07,0,.12,0,.05,0,.12,0,.22,0,.21,0,.25-.02,.29-.04,.04-.02,.08-.04,.29-.04,.21,0,.29-.07,.37-.15,.08-.07,.15-.15,.36-.15,.04,.19,.08,.37,.1,.55,.02,.18,.04,.36,.04,.53h0c.02,.78-.14,1.49-.39,2.13-.25,.64-.59,1.21-.93,1.72-1.63,.15-3.39,.39-4.89,.64-1.5,.25-2.74,.51-3.3,.7l.04-29.31Zm9.8,21.36c-.21-.18-.51-.29-.62-.47-.11-.18-.6-.18-.93-.28-.33-.1-.51-.29,.02-.87,.14-.16,.07-.34-.07-.52-.14-.19-.34-.38-.44-.56-.11-.18,.12-.26,.34-.34,.23-.08,.45-.16,.34-.34-.04-.06-.06-.12-.06-.17,0-.06,0-.11,0-.16h0c.02-.1,.05-.2,.07-.3,.01-.1,0-.21-.06-.33-.11-.18-.03-.4-.06-.51-.03-.12-.16-.14-.67,.06-.46,.11-.57-.11-.57-.37s.12-.54,.12-.54c.54-.11,.63-.42,.62-.72,0-.3-.09-.58,.12-.65,.71-.23,1.03-.38,1.14-.52,.1-.14-.01-.25-.17-.39-.31-.29-.23-.71-.03-1.01,.19-.3,.49-.47,.61-.24,.26,.52,.63,.59,.89,.51s.42-.33,.25-.45c-.31-.22-.38-.41-.33-.58,.05-.17,.21-.31,.36-.44h0c.11-.09,.21-.17,.28-.25,.07-.08,.09-.15,.05-.22-.12-.17-.21-.23-.29-.29-.08-.06-.17-.11-.29-.28-.12-.17,.04-.26,.2-.35,.16-.09,.32-.18,.2-.35-.12-.17-.28-.19-.4-.22-.12-.03-.2-.06-.18-.27,.02-.21,.03-.32,.05-.43,.01-.11,.02-.22,.04-.43,.02-.21,.15-.35,.27-.48,.12-.14,.24-.27,.27-.48,.02-.21,.13-.23,.23-.26,.1-.02,.21-.05,.23-.26,.02-.21,.07-.23,.12-.25,.05-.02,.09-.04,.11-.26,.01-.21,.18-.11,.34-.02,.17,.1,.33,.19,.35-.02,0-.05,.11-.08,.26-.08,.15,0,.35,.05,.52,.17,.18,.12,.29-.07,.4-.25,.11-.18,.22-.37,.4-.25,.18,.12,.14,.23,.1,.35-.05,.12-.11,.26,.01,.44,.12,.18,.16,.23,.2,.28,.04,.05,.08,.1,.2,.28,.12,.18,.28,.18,.41,.19,.14,0,.25,.03,.3,.23,.04,.21,0,.29-.04,.37-.04,.08-.08,.16-.04,.37,.04,.21,.1,.26,.14,.31,.04,.05,.05,.1-.01,.3-.06,.2-.05,.22-.05,.25,0,.02,.01,.04-.05,.25-.06,.2-.04,.47,.04,.7,.08,.23,.23,.43,.44,.5,.2,.07,.24,.13,.27,.21,.03,.08,.05,.17,.21,.31,.12,.1,.18,.14,.21,.16,.04,.02,.06,.03,.11,.06h0s.04,.03,.07,.05c.03,.02,.07,.05,.11,.09,.16,.13,.13,.22,.08,.31-.05,.09-.11,.2,0,.38,.11,.18,.2,.18,.29,.19,.09,0,.19,0,.29,.19,.11,.18,.04,.24-.04,.31-.08,.07-.19,.14-.15,.35,.04,.21,.17,.24,.29,.27,.13,.03,.26,.06,.3,.27,.04,.21,.07,.26,.07,.32,0,.05-.02,.1-.09,.31-.06,.2-.13,.21-.19,.22-.06,.01-.13,.02-.19,.22-.07,.2-.08,.23-.1,.26-.02,.03-.03,.05-.1,.26-.06,.19-.01,.25,.04,.3,.05,.05,.11,.09,.07,.26,.03-.01,.06-.02,.09-.02,.04,0,.08,0,.13,.03,.19,.08,.17,.25,.14,.42-.03,.17-.06,.33,.14,.42,.2,.08,.28,.01,.36-.04,.08-.06,.14-.1,.3,.05,.16,.14,.21,.15,.25,.15,.05,0,.09,.01,.25,.15,.16,.14,.17,.2,.16,.26s-.02,.14,.08,.33c.04,.07,.07,.12,.1,.15,.03,.03,.05,.05,.07,.06h0s.06,.02,.1,.04c.04,.03,.08,.08,.14,.19,.1,.19,.16,.23,.2,.28,.04,.05,.06,.11,.1,.32,.04,.21-.08,.21-.2,.21-.12,0-.23,0-.2,.21,.04,.21,.16,.4,.26,.58,.1,.19,.19,.37,.14,.58-.17-.09-.27,.09-.36,.32-.09,.23-.17,.52-.29,.65-.4,.43-.75,.77-1.02,.95-.27,.18-.46,.21-.55,.02-.08-.19-.31,.03-.54,.26-.23,.23-.46,.45-.54,.26-.09-.19-.23-.19-.37-.19-.14,0-.28,0-.37-.19-.08-.19-.38-.12-.67-.04-.29,.08-.58,.15-.67-.04-.08-.2-.4,0-.71,.18-.31,.19-.63,.38-.71,.18-.08-.19-.34-.06-.6,.08-.26,.14-.52,.28-.6,.08-.08-.19-.58-.2-1.03-.21-.45,0-.85,0-.74-.19,.26-.43,.14-.66-.07-.84m1.27,4.52c.1-.74,.17-1.44,.21-1.75h0c0-.05,.01-.09,.02-.12,0-.03,0-.04,.01-.04,.01,0,.04,.04,.1,.07,.07,.03,.18,.06,.37,.04,0-.03,0-.03,.03-.01,.02,.01,.06,.04,.1,.06h0s.07,.03,.11,.04c.04,0,.08,0,.11-.04h0s.03-.05,.05-.1c.01-.04,.02-.1,.02-.17,.11-.01,.22-.02,.3-.02,.08,0,.14,0,.14,0,0,0,.02,.05,.04,.11,.03,.06,.06,.13,.1,.17h0s.02,.03,.03,.03c.01,0,.02,.02,.03,.02,.02,0,.04,0,.06,0,.02-.01,.03-.03,.05-.05h0s.04-.07,.06-.1c.02-.03,.03-.06,.05-.06,.02,0,.09,.03,.16,.06,.07,.03,.15,.07,.2,.1h.02s.02,0,.02,0c.06-.04,.09-.12,.12-.17,.03-.05,.07-.07,.16,.02,0,.03,0,.05,0,.08,0,.03,0,.05,0,.08h0c-.06,.87,.14,1.61,.37,2.23,.24,.62,.51,1.13,.63,1.54h-2.06s-2.06-.02-2.06-.02c.2-.48,.35-1.27,.45-2.01m13.39,28.84c0,.1-.01,.2-.02,.31-.06,.77-.25,1.5-.53,2.19-.28,.68-.66,1.31-1.13,1.87-.68,.83-1.53,1.5-2.5,1.97-.97,.47-2.06,.73-3.21,.73l-17.17-.02,.05-31.49,24.55,.04-.03,24.11c0,.1,0,.21,0,.31m-1.92-14.86c-.19-.76-.48-1.46-.8-1.83,0,0-.1-.11-.25-.28-.15-.17-.36-.39-.58-.6h0c-.13-.14-.27-.27-.4-.38-.13-.11-.26-.21-.36-.28-.33-.2-.82-.21-1.33-.2-.51,0-1.04,.03-1.45-.11-1.37-.46-2.68-.76-3.65-.95-.97-.19-1.6-.26-1.6-.26l-1.26-.63-1.26-.63c.33-.13,.38-.72,.34-1.27-.05-.55-.2-1.05-.27-1.03-.14,.04-.14,.49-.31,.92-.17,.43-.51,.83-1.34,.76-.03,.04-.2-.07-.43-.19-.23-.12-.52-.25-.78-.27-.26-.02-.58,.05-.83,.12-.25,.07-.43,.14-.43,.14-.08,0-.19,0-.31,0-.13-.01-.28-.04-.46-.1-.31-.11-.41-.52-.46-.88-.05-.36-.04-.66-.13-.53-.1,.14-.37,.67-.4,1.25-.03,.58,.18,1.2,1.04,1.54,0,0-.02,.03-.04,.07-.02,.05-.05,.12-.06,.21-.01,.09-.01,.2-.01,.29,0,.09,0,.15,0,.15l-.2,.8-.21,.8s-.12,.1-.22,.15c-.11,.05-.21,.1-.21,.15,0,.06,0,.11,.01,.17,0,.05,.02,.11,.03,.16h0c.09,.32,.3,.6,.58,.8,.29,.2,.65,.32,1.05,.32,.14,0,.28-.01,.41-.04,.13-.03,.26-.07,.37-.12h0s0,0,0,0c.16-.1,.21,.08,.23,.35,.02,.27,0,.62,.05,.88,.02,.15,.08,.26,.18,.4,.09,.14,.21,.32,.35,.59,.14,.27,.19,.46,.2,.61,0,.15-.05,.27-.11,.4-.09,.19-.08,.28-.1,.34s-.06,.09-.25,.17c-.06,.02-.11,.05-.16,.08-.04,.03-.08,.06-.11,.09h0c-.1,.1-.14,.22-.16,.36-.03,.15-.04,.32-.1,.52-.07,.25-.18,.5-.19,.69-.02,.19,.05,.31,.34,.31h3.99s3.99,.01,3.99,.01c.1,0,.05,.19,.06,.39,.01,.19,.08,.39,.44,.39,.7,0,1.28,0,1.85,0,.56,0,1.11,0,1.74,.02,.37,.04,.66,.1,.89,.09,.23-.01,.42-.1,.57-.36,.18,0,.72-.02,1.29-.32,.56-.3,1.14-.89,1.38-2.02,0,0,0-.02,0-.03,0,0,0-.02,0-.03h0c.11-.59,.03-1.4-.15-2.16m-16.7-6.67c.12-.07,.39-.17,.66-.2,.27-.03,.53,.01,.64,.22-.24,0-.67,.38-.99,.57-.32,.19-.52,.18-.31-.59m2.04,3.56c-.13,.03-.25,.05-.35,.1-.1,.04-.19,.11-.28,.21-.01,.01-.02,.02-.03,.04-.01,.01-.02,.02-.03,.03h0c-.68,.77-1.04,.85-1.19,.71-.15-.14-.1-.49,.04-.56,.03-.02,.07-.04,.09-.07s.05-.06,.07-.09h0c.04-.08,.05-.17-.03-.24-.07-.07-.22-.11-.48-.09l.43-.4,.43-.4c.06,.02,.18-.26,.29-.53,.11-.27,.21-.53,.24-.47,.18,.44,.46,.38,.61,.14,.15-.24,.16-.66-.19-.93h.06s.06-.03,.06-.03c.06,.09,.18,.26,.29,.4s.2,.27,.2,.26c0-.02,.09,.01,.19,.05,.1,.04,.22,.1,.24,.13,.28,.3,.26,.69,.1,1.03-.16,.34-.46,.61-.73,.67m3.94,.7c-.03,.1-.09,.18-.18,.25-.43,.33-.89,.79-1.19,1.23-.3,.45-.42,.88-.17,1.17,.27,.31,.55,.66,.75,.99s.35,.66,.36,.91v.04c0,.08-.04,.14-.09,.18-.05,.04-.12,.07-.2,.11-.09-.1-.46-.24-.95-.29-.49-.05-1.09-.02-1.64,.21-.07-.05-.12-.1-.15-.14-.03-.04-.05-.08-.06-.11h0c-.04-.23,.5-.3,1.06-.34,.56-.04,1.13-.04,1.16-.12,.19-.57-.29-1-.85-1.44-.55-.44-1.17-.89-1.25-1.48-.06-.42,.11-.69,.34-.91,.23-.22,.53-.38,.74-.59h0c.1-.09,.18-.2,.22-.33,.04-.13,.05-.28,0-.46,.21-.57,.69-.58,1.14-.34,.45,.24,.87,.72,.96,1.14,.02,.11,.02,.22,0,.31m5.41,3.45c-.1,.22-.14,.43-.16,.61-.01,.19,0,.35,.02,.49h0c.04,.25,.09,.44,.03,.57-.06,.13-.24,.19-.66,.19-1.36,.52-1.78,.51-1.7,.35,.08-.16,.66-.48,1.31-.59,.13-.02,.27-.07,.4-.16,.13-.09,.25-.2,.33-.36h0c.03-.06,.06-.13,.08-.21,.02-.08,.03-.16,.02-.25-.03-1.01,.07-2.22,.49-3.1,.42-.88,1.16-1.42,2.41-1.11,.44,.11,1.04,.92,1.49,1.64,.44,.73,.73,1.37,.53,1.16-.35-.39-.88-.66-1.32-.83-.44-.17-.79-.25-.79-.25s-.52,.23-1.08,.57-1.18,.81-1.39,1.26m4.81,1.12h0c0,.08-.03,.18-.05,.29-.03,.12-.07,.25-.13,.39-.17,.35-.45,.59-.77,.74-.32,.15-.69,.2-1.03,.16-.02-.03-.03-.05-.05-.08s-.02-.04-.03-.06c-.05-.02-.08-.05-.1-.08-.03-.03-.05-.06-.09-.09-.23-.2-.55-.13-.81,0-.26,.12-.47,.29-.47,.29,.18-.17,.33-.29,.5-.38s.34-.14,.59-.18c.22-.04,.36-.02,.47,.04,.11,.06,.18,.15,.25,.24,.13,0,.27,.02,.42,0,.16-.03,.33-.11,.55-.33,.13-.14,.26-.31,.37-.47,.11-.17,.2-.33,.27-.46h0c.04-.08,.07-.15,.09-.2,.02-.05,.03-.07,.03-.07,0,0,0,.02,0,.07,0,.05,0,.11-.02,.2m-1.3,12.84c-.19-.76-.48-1.46-.8-1.83,0,0-.1-.11-.25-.28-.15-.17-.36-.39-.58-.6h0c-.13-.14-.27-.27-.4-.38-.13-.11-.26-.21-.36-.28-.33-.2-.82-.21-1.33-.2-.51,0-1.04,.03-1.45-.11-1.37-.46-2.68-.76-3.65-.95-.97-.19-1.6-.26-1.6-.26l-1.26-.63-1.26-.63c.33-.13,.38-.72,.34-1.27-.05-.55-.2-1.05-.27-1.03-.14,.04-.14,.49-.31,.92-.17,.43-.51,.83-1.34,.76-.03,.03-.2-.07-.43-.19-.23-.12-.52-.25-.78-.27-.26-.02-.58,.05-.83,.12-.25,.07-.43,.14-.43,.14-.08,0-.19,0-.31,0-.13-.01-.28-.04-.46-.1-.31-.11-.41-.52-.46-.88-.05-.36-.04-.66-.13-.53-.1,.14-.37,.67-.4,1.25-.03,.58,.18,1.2,1.04,1.54,0,0-.02,.03-.04,.07-.02,.05-.05,.12-.06,.21-.01,.09-.01,.2-.01,.29,0,.09,0,.15,0,.15l-.2,.8-.21,.8s-.12,.1-.22,.15c-.11,.05-.21,.11-.21,.15,0,.06,0,.11,.01,.17,0,.05,.02,.11,.03,.16h0c.09,.32,.3,.6,.58,.8,.29,.2,.65,.32,1.05,.32,.14,0,.28-.01,.41-.04,.13-.03,.26-.07,.37-.12h0s0,0,0,0c.16-.1,.21,.08,.23,.35,.02,.27,0,.62,.05,.88,.02,.15,.08,.26,.18,.4,.09,.14,.21,.32,.35,.59,.14,.27,.19,.46,.2,.61,0,.15-.05,.27-.11,.4-.09,.19-.08,.28-.1,.34s-.06,.09-.25,.17c-.06,.02-.11,.05-.16,.08-.04,.03-.08,.06-.11,.09h0c-.1,.1-.14,.22-.16,.36s-.04,.32-.1,.52c-.07,.25-.18,.5-.19,.69-.02,.19,.05,.31,.34,.31h3.99s3.99,.01,3.99,.01c.1,0,.05,.19,.06,.39,.01,.19,.08,.39,.44,.39,.7,0,1.28,0,1.85,0,.56,0,1.11,0,1.74,.02,.37,.04,.66,.1,.89,.09,.23-.01,.42-.1,.57-.36,.18,0,.72-.02,1.29-.32,.56-.3,1.14-.89,1.38-2.02,0,0,0-.02,0-.03,0,0,0-.02,0-.03h0c.11-.59,.03-1.4-.15-2.16m-16.7-6.67c.12-.07,.39-.17,.66-.2,.27-.03,.53,.01,.64,.22-.24,0-.67,.38-.99,.57-.32,.19-.52,.18-.31-.59m2.04,3.56c-.13,.03-.25,.05-.35,.1-.1,.04-.19,.11-.28,.21-.01,.01-.02,.02-.03,.04-.01,.01-.02,.02-.03,.03h0c-.68,.77-1.04,.85-1.19,.71-.15-.14-.1-.49,.04-.56,.03-.02,.07-.04,.09-.07s.05-.06,.07-.09h0c.04-.08,.05-.17-.03-.24-.07-.07-.22-.11-.48-.09l.43-.4,.43-.4c.06,.02,.18-.26,.29-.53,.11-.27,.21-.53,.24-.47,.18,.44,.46,.38,.61,.14,.15-.24,.16-.66-.19-.93h.06s.06-.03,.06-.03c.06,.09,.18,.26,.29,.4,.11,.15,.2,.27,.2,.26,0-.02,.09,.01,.19,.05,.1,.04,.22,.1,.24,.13,.28,.3,.26,.69,.1,1.03-.16,.34-.46,.61-.73,.67m3.94,.7c-.03,.1-.09,.18-.18,.25-.43,.33-.89,.79-1.19,1.23-.3,.45-.42,.88-.17,1.17,.27,.31,.55,.66,.75,.99s.35,.66,.36,.91v.04c0,.08-.04,.14-.09,.18-.05,.04-.12,.07-.2,.11-.09-.1-.46-.24-.95-.29-.49-.05-1.09-.02-1.64,.21-.07-.05-.12-.1-.15-.14-.03-.04-.05-.08-.06-.11h0c-.04-.23,.5-.3,1.06-.34,.56-.04,1.13-.04,1.16-.12,.19-.57-.29-1-.85-1.44-.55-.44-1.17-.89-1.25-1.48-.06-.42,.11-.69,.34-.91,.23-.22,.53-.38,.74-.59h0c.1-.09,.18-.2,.22-.33,.04-.13,.05-.28,0-.46,.21-.57,.69-.58,1.14-.34,.45,.24,.87,.72,.96,1.14,.02,.11,.02,.22,0,.31m5.41,3.45c-.1,.22-.14,.43-.16,.61-.01,.19,0,.35,.02,.49h0c.04,.25,.09,.44,.03,.57-.06,.13-.24,.19-.66,.19-1.36,.52-1.78,.51-1.7,.35,.08-.16,.66-.48,1.31-.59,.13-.02,.27-.07,.4-.16,.13-.09,.25-.2,.33-.36h0c.03-.06,.06-.13,.08-.21,.02-.08,.03-.16,.02-.25-.03-1.01,.07-2.22,.49-3.1,.42-.88,1.16-1.42,2.41-1.11,.44,.11,1.04,.92,1.49,1.64,.44,.73,.73,1.37,.53,1.16-.35-.39-.88-.66-1.32-.83-.44-.17-.79-.25-.79-.25s-.52,.23-1.08,.57c-.57,.35-1.18,.81-1.39,1.26m4.81,1.12h0c0,.08-.03,.18-.05,.29-.03,.12-.07,.25-.13,.39-.17,.35-.45,.59-.77,.74-.32,.15-.69,.2-1.03,.16-.02-.03-.03-.05-.05-.08-.01-.02-.02-.04-.03-.06-.05-.02-.08-.05-.1-.08-.03-.03-.05-.06-.09-.09-.23-.2-.55-.13-.81,0-.26,.12-.47,.29-.47,.29,.18-.17,.33-.29,.5-.38,.16-.09,.34-.14,.59-.19,.22-.04,.36-.02,.47,.04,.11,.06,.18,.15,.25,.24,.13,0,.27,.02,.42,0s.33-.11,.55-.33c.13-.14,.26-.31,.37-.47,.11-.17,.2-.33,.27-.46h0c.04-.08,.07-.15,.09-.2,.02-.05,.03-.07,.03-.07,0,0,0,.02,0,.07,0,.05,0,.11-.02,.2m-33.57-44.59h.84s.84,0,.84,0c.06,0,.12,.03,.16,.07,.04,.04,.07,.1,.07,.16v.84s0,.84,0,.84c0,.06-.03,.12-.07,.16-.04,.04-.1,.07-.16,.07l-.11-.17-.11-.17h-.65s-.65,0-.65,0v-.64s0-.64,0-.64l-.19-.13-.19-.14c0-.06,.03-.12,.07-.16,.04-.04,.1-.07,.16-.07m-3.89,2.23l-.29-.1-.3-.1h-.17s-.17,0-.17,0v-.39s0-.39,0-.39l-.13-.28-.13-.28s.01-.07,.03-.09c.02-.03,.04-.04,.06-.05l.55-.17,.55-.17s.05,0,.06,.03c.02,.02,.03,.05,.03,.09v.88s0,.88,0,.88c0,.04,0,.07-.03,.09-.02,.03-.04,.04-.06,.05m9.12-17.55c.09,.03,.18,.03,.24,.04,.06,.01,.11,.03,.11,.12,0,.03-.01,.06-.04,.08-.03,.02-.07,.03-.13,.03-.08,0-.19-.01-.32-.03-.13-.01-.27-.03-.44-.03-.16,0-.31,.01-.44,.03-.13,.01-.23,.03-.32,.03-.06,0-.1-.01-.13-.03-.03-.02-.04-.05-.04-.09,0-.08,.04-.1,.11-.11,.07,0,.15,0,.24-.03,.1-.03,.16-.07,.19-.13,.03-.07,.03-.17,.03-.34v-.88s0-.87,0-.87v-1.06s0-1.06,0-1.06c0-.03-.01-.07-.03-.1-.02-.03-.04-.05-.07-.05h-.22c-.16,0-.29,.03-.41,.1-.11,.06-.21,.16-.31,.29-.1,.16-.16,.29-.22,.37-.06,.09-.11,.13-.17,.13-.03,0-.05,0-.07-.02-.01-.02-.02-.04-.02-.09,0,0,0-.02,.01-.05,0-.03,.01-.06,.02-.09l.1-.41,.1-.41c.03-.12,.04-.22,.06-.29s.05-.11,.1-.11c.05,0,.07,.07,.09,.13,.02,.07,.04,.13,.09,.14,.03,.03,.07,.05,.14,.06,.06,.01,.14,.02,.24,.02,.08,0,.16,0,.26,0,.1,0,.2,0,.32,0h.49s.49,0,.49,0c.13,0,.25,0,.35,0,.1,0,.19,0,.27,0,.06,0,.11,0,.15,0,.04,0,.08-.02,.1-.03,.07-.04,.12-.12,.15-.19,.04-.07,.06-.13,.1-.13,.03,0,.05,.02,.07,.05,.01,.03,.02,.07,.02,.09v.09l-.02,.53-.02,.53c0,.09-.01,.14-.03,.18-.02,.03-.04,.05-.08,.05-.07,0-.11-.06-.13-.15-.03-.09-.05-.23-.1-.38-.07-.17-.16-.27-.3-.32-.14-.05-.32-.07-.56-.07h-.13s-.06,.02-.08,.04c-.02,.02-.03,.06-.03,.09v1.08s0,1.08,0,1.08v.87s0,.88,0,.88c0,.17,0,.27,.03,.34,.03,.07,.08,.1,.19,.14m-16.29-.95s.03,0,.05,.02c.01,.01,.02,.03,.02,.04,0,0,0,.02,0,.05,0,.02,0,.06,0,.1l-.04,.37-.04,.37s0,.06-.01,.09c0,.02,0,.04,0,.05,0,.04-.01,.08-.04,.1-.03,.02-.07,.03-.12,.03-.17,0-.41-.02-.73-.04-.32-.02-.72-.04-1.19-.04-.21,0-.37,.01-.5,.02-.13,.01-.21,.02-.26,.02-.06,0-.1-.01-.13-.03-.03-.02-.04-.05-.04-.09,0-.08,.04-.1,.1-.11,.06,0,.14,0,.21-.03,.13-.03,.19-.07,.22-.14,.03-.07,.03-.18,.03-.35v-.88s0-.87,0-.87v-.95s0-.95,0-.95c0-.12,0-.2-.02-.26-.02-.06-.06-.09-.14-.11-.1-.03-.18-.03-.24-.04-.06,0-.1-.03-.1-.11,0-.03,0-.06,.03-.08,.02-.02,.04-.03,.08-.03,.04,0,.12,.02,.23,.03,.12,.02,.28,.03,.5,.03,.24,0,.42-.02,.56-.03,.13-.02,.22-.03,.26-.03,.04,0,.07,.01,.09,.03,.02,.02,.03,.05,.03,.08,0,.07-.04,.1-.1,.11-.06,.01-.15,0-.25,.03-.1,.02-.15,.05-.18,.11-.03,.06-.03,.14-.03,.27v.95s0,.95,0,.95v.87s0,.88,0,.88c0,.17,.05,.3,.13,.39,.09,.09,.22,.13,.38,.13,.17,0,.32-.04,.46-.11,.13-.07,.25-.18,.37-.33,.12-.16,.2-.29,.26-.39,.06-.09,.11-.15,.15-.15m1.75,.93c.09,.03,.18,.02,.24,.04,.06,.01,.11,.04,.11,.12,0,.03-.01,.06-.04,.08-.03,.02-.07,.03-.13,.03-.05,0-.13-.01-.26-.02-.13-.01-.29-.02-.5-.02-.21,0-.37,.01-.5,.02-.13,.01-.21,.02-.26,.02-.06,0-.1-.01-.12-.03-.03-.02-.04-.05-.04-.09,0-.08,.04-.1,.1-.11,.06-.01,.14,0,.21-.03,.13-.03,.19-.07,.22-.14,.03-.07,.03-.18,.03-.35v-.88s0-.87,0-.87v-.95s0-.95,0-.95c0-.13,0-.21-.03-.26-.02-.05-.07-.08-.15-.11-.1-.03-.2-.02-.26-.03-.07,0-.11-.03-.11-.11,0-.03,.01-.06,.03-.08s.05-.03,.09-.03,.12,.02,.25,.03c.13,.02,.31,.03,.54,.03,.23,0,.4-.02,.53-.03,.13-.02,.21-.03,.26-.03,.04,0,.07,.01,.09,.03,.02,.02,.03,.05,.03,.08,0,.07-.04,.1-.1,.11-.06,.01-.15,0-.25,.03-.1,.02-.15,.05-.18,.11-.03,.06-.03,.14-.03,.27v.95s0,.95,0,.95v.87s0,.88,0,.88c0,.17,0,.27,.03,.34,.03,.07,.08,.11,.19,.14m19.08,.02c-.1-.07-.17-.16-.23-.27-.06-.12-.1-.26-.16-.45l-.24-.75-.24-.75-.36-1.14-.36-1.14c-.04-.11-.06-.2-.08-.27-.03-.07-.06-.1-.11-.1-.04,0-.07,.02-.08,.05-.02,.03-.03,.08-.05,.14l-.38,1.24-.38,1.23-.25,.82-.25,.82c-.04,.14-.08,.26-.12,.36-.04,.1-.09,.17-.16,.23-.08,.06-.18,.06-.26,.07-.08,.01-.14,.03-.14,.11,0,.03,.01,.06,.04,.08,.02,.02,.06,.03,.11,.03,.06,0,.13,0,.22-.02,.09,0,.19-.02,.31-.02,.17,0,.32,.01,.43,.02,.12,.01,.2,.02,.26,.02,.04,0,.08,0,.1-.02,.02-.02,.03-.04,.04-.07,0-.06-.03-.1-.08-.12-.05-.02-.13-.04-.24-.06-.07-.01-.12-.03-.16-.06-.03-.03-.05-.08-.05-.16,0-.05,0-.12,.03-.23,.02-.1,.05-.23,.09-.39l.1-.35,.1-.35s.02-.04,.04-.05,.04-.02,.05-.02h.49s.49,0,.49,0c.03,0,.06,0,.08,.01,.02,0,.03,.02,.04,.05l.15,.51,.15,.51c.02,.08,.04,.15,.05,.21,.01,.06,.02,.11,.02,.14,0,.07-.02,.12-.06,.15-.05,.03-.13,.04-.26,.04-.05,0-.09,.01-.12,.04-.03,.02-.04,.05-.04,.09s0,.06,.03,.07c.02,.02,.06,.02,.1,.02,.05,0,.14,0,.28-.02,.14,0,.32-.02,.54-.02,.16,0,.29,.01,.4,.02,.11,.01,.2,.02,.27,.02,.06,0,.1,0,.13-.02,.03-.02,.04-.04,.04-.09,0-.05-.04-.07-.09-.08s-.13-.04-.2-.09m-1.61-1.88h-.4s-.4,0-.4,0c-.02,0-.03,0-.04-.02,0,0-.02-.02-.02-.03,0,0,0-.01,0-.03,0-.01,0-.03,0-.05l.03-.11,.03-.11,.16-.6,.16-.6s.01-.03,.02-.05c0-.01,.02-.02,.03-.02,0,0,.02,0,.02,.02,0,.01,.02,.03,.02,.05l.18,.59,.18,.59,.03,.1,.03,.1s0,.03,.01,.04c0,.01,0,.02,0,.04,0,.02,0,.03-.02,.04-.01,.01-.03,.02-.05,.02m-13.53-.36h0c-.08-.06-.16-.11-.26-.15-.09-.04-.2-.07-.31-.1,.27-.1,.46-.23,.59-.4,.13-.17,.19-.38,.19-.65,0-.43-.17-.74-.5-.94-.33-.2-.83-.29-1.5-.29-.49,0-.87,.02-1.11,.06-.25,.04-.37,.1-.37,.18,0,.04,0,.06,.02,.08,.02,.02,.04,.03,.07,.03,.04,0,.08,0,.13-.02,.05,0,.1-.02,.15-.02,.07,0,.13,.02,.16,.07,.04,.05,.05,.13,.05,.24v.95s0,.95,0,.95v.88s0,.87,0,.87c0,.04,0,.08,0,.1,0,.03,0,.04,0,.06,0,.11-.02,.19-.07,.25-.05,.06-.13,.09-.25,.09-.07,0-.11,0-.15,.03-.03,.02-.04,.05-.04,.09,0,.04,.01,.07,.04,.09,.03,.02,.06,.03,.11,.03,.05,0,.13-.01,.23-.02s.22-.02,.37-.02c.2,0,.41,.03,.65,.06,.24,.03,.5,.06,.78,.06,.45,0,.82-.15,1.08-.41,.26-.26,.41-.62,.41-1.05,0-.25-.04-.46-.12-.65s-.2-.34-.35-.46m-1.99-1.89c0-.14,.01-.24,.08-.3,.06-.06,.18-.08,.38-.08,.31,0,.56,.09,.72,.26,.16,.17,.25,.42,.25,.75,0,.3-.1,.54-.29,.7-.19,.16-.46,.25-.8,.25h-.1c-.12,0-.18,0-.21-.04-.03-.03-.03-.09-.03-.21v-.66s0-.67,0-.67Zm.64,4.17c-.24,0-.4-.05-.5-.15-.1-.1-.14-.25-.14-.45v-.82s0-.82,0-.82c0,0,0-.02,0-.02,0,0,0-.02,0-.02h0s.02-.03,.04-.04c.02,0,.04-.02,.06-.02h.25s.25,0,.25,0c.07,0,.13,0,.19,.01,.06,0,.12,.02,.17,.04h0s0,0,0,0c.23,.07,.4,.2,.52,.38,.12,.18,.18,.42,.18,.69,0,.39-.1,.69-.27,.89-.18,.21-.43,.32-.75,.31m19.26-2.26h0c.11,.14,.19,.28,.25,.45,.06,.17,.08,.36,.08,.58,0,.47-.16,.87-.44,1.16-.27,.29-.66,.46-1.1,.46-.35,0-.65-.06-.85-.17-.21-.11-.33-.29-.33-.51,0-.09,0-.18,0-.26,0-.08,0-.16,0-.24,0-.06,0-.11,0-.14,0-.03,0-.06,0-.07,0-.08,.01-.15,.03-.19,.02-.04,.05-.06,.09-.06,.07,0,.1,.06,.12,.17,.02,.1,.03,.24,.07,.39,.08,.27,.22,.48,.38,.63,.17,.15,.37,.23,.57,.23,.24,0,.45-.1,.61-.27,.16-.17,.25-.41,.25-.68,0-.24-.07-.46-.23-.66-.15-.2-.38-.38-.68-.55-.08-.05-.16-.09-.23-.13-.08-.04-.15-.09-.22-.13h0c-.21-.13-.38-.28-.51-.48-.12-.2-.2-.45-.19-.8,0-.41,.14-.76,.38-1,.24-.24,.6-.38,1.03-.38,.22,0,.43,.04,.59,.09,.16,.05,.28,.11,.31,.16,.02,.02,.04,.11,.05,.25,.01,.15,.02,.35,.02,.61,0,.06,0,.1-.03,.12-.02,.03-.04,.04-.08,.04-.05,0-.08-.04-.11-.11-.03-.07-.06-.18-.11-.31-.08-.21-.17-.37-.28-.49-.11-.11-.24-.17-.43-.17-.24,0-.43,.08-.56,.22-.13,.14-.21,.35-.21,.6,0,.21,.06,.37,.18,.52,.12,.14,.31,.27,.56,.4,.22,.11,.41,.22,.58,.34,.17,.12,.31,.24,.42,.38h0Zm15.41,2.25c.09,.03,.18,.02,.24,.04,.06,.01,.11,.04,.11,.12,0,.03-.01,.06-.04,.08-.03,.02-.07,.03-.13,.03-.05,0-.13-.01-.26-.02-.12-.01-.29-.02-.5-.02-.21,0-.37,.01-.5,.02-.13,.01-.21,.02-.26,.02-.06,0-.1-.01-.12-.03-.03-.02-.04-.05-.04-.09,0-.08,.04-.1,.1-.11,.06-.01,.14,0,.21-.03,.13-.03,.19-.07,.22-.14,.03-.07,.03-.18,.03-.35v-.87s0-.87,0-.87v-.95s0-.95,0-.95c0-.13,0-.21-.03-.26-.02-.05-.07-.08-.15-.11-.1-.03-.2-.02-.26-.03-.07,0-.11-.03-.11-.11,0-.03,0-.06,.03-.08,.02-.02,.05-.03,.09-.03s.12,.02,.26,.03c.13,.02,.31,.03,.54,.03,.23,0,.4-.02,.53-.03,.13-.02,.21-.03,.26-.03,.04,0,.07,.01,.09,.03,.02,.02,.03,.05,.03,.08,0,.07-.04,.1-.1,.11-.06,.01-.15,0-.25,.03-.1,.02-.15,.05-.18,.11-.03,.06-.03,.14-.03,.27v.95s0,.95,0,.95v.87s0,.88,0,.88c0,.17,0,.27,.03,.34,.03,.07,.08,.11,.19,.14m-28.17-2.27v.88s0,.87,0,.87c0,.17,0,.28-.03,.35-.03,.07-.1,.11-.22,.14-.08,.02-.15,.02-.21,.03-.06,0-.1,.03-.1,.11,0,.04,.01,.07,.04,.09,.03,.02,.07,.03,.13,.03,.05,0,.13-.01,.26-.02,.12-.01,.29-.02,.5-.02,.21,0,.37,.01,.49,.02,.12,.01,.2,.02,.24,.02,.05,0,.09-.01,.12-.03,.03-.02,.04-.05,.04-.08,0-.05-.01-.08-.04-.1-.03-.02-.07-.03-.14-.03-.17,0-.26-.05-.3-.13-.05-.09-.05-.21-.05-.37v-.78s0-.78,0-.78c0-.03,.01-.06,.03-.08s.04-.03,.08-.03h.08c.12,0,.21,.02,.27,.08,.07,.05,.12,.14,.17,.28l.36,.9,.36,.9c.04,.09,.06,.15,.09,.2,.03,.04,.08,.07,.16,.07,.06,0,.12,0,.18-.01,.06,0,.12-.01,.17-.01,.09,0,.18,0,.26,.01,.08,0,.16,.01,.23,.01,.05,0,.08,0,.1-.01,.02-.01,.03-.03,.03-.07,0-.06-.04-.09-.1-.11-.06-.02-.15-.04-.23-.07-.05-.02-.1-.09-.16-.21-.06-.12-.13-.29-.22-.5l-.23-.55-.23-.55c-.04-.08-.07-.16-.11-.24-.04-.07-.08-.14-.13-.19h0s-.03-.03-.04-.04c-.01-.01-.03-.02-.04-.04,.26-.06,.48-.21,.62-.42,.15-.21,.23-.49,.23-.81,0-.37-.11-.68-.33-.9-.22-.22-.55-.34-.97-.34-.18,0-.36,.01-.55,.02-.19,.01-.39,.02-.58,.02-.14,0-.25,0-.34-.02s-.15-.02-.18-.02c-.07,0-.13,0-.16,.02-.04,.02-.05,.04-.05,.09,0,.08,.04,.1,.11,.11,.07,0,.16,0,.27,.03,.08,.02,.12,.05,.15,.11,.02,.05,.03,.13,.03,.26v.95s0,.95,0,.95m1.08-.18c-.14,0-.23,0-.29-.03-.06-.02-.08-.07-.08-.15v-.76s0-.76,0-.76c0-.13,0-.23,.06-.3,.05-.07,.15-.1,.34-.1,.26,0,.46,.11,.59,.29,.13,.19,.2,.46,.2,.79,0,.33-.07,.58-.21,.75-.14,.17-.35,.26-.62,.26m-4.81,.17v-.95s0-.95,0-.95c0-.12,0-.2-.02-.26-.02-.06-.06-.09-.13-.11-.09-.03-.17-.02-.24-.03s-.11-.03-.11-.11c0-.04,.01-.06,.03-.08,.02-.02,.06-.03,.1-.03,.03,0,.15,0,.34,.02,.2,0,.48,.02,.84,.02,.47,0,.83,0,1.09-.02,.26,0,.42-.02,.47-.02,.11,0,.16,.02,.19,.06,.03,.04,.03,.1,.03,.18v.37s0,.34,0,.34c0,.07,0,.12-.02,.15-.01,.03-.04,.05-.07,.05-.07,0-.1-.08-.14-.2-.04-.12-.11-.27-.25-.4-.11-.1-.24-.18-.4-.23-.16-.05-.35-.08-.57-.08-.21,0-.32,.03-.38,.1-.06,.07-.07,.2-.07,.38v.66s0,.66,0,.66c0,.07,0,.11,.02,.13,.02,.02,.05,.03,.12,.03h.18s.18,0,.18,0c.16,0,.31-.02,.43-.04,.12-.03,.2-.06,.24-.1,.11-.1,.14-.22,.16-.32,.02-.1,.04-.17,.12-.17,.04,0,.06,0,.07,.03,.01,.02,.02,.05,.02,.08,0,.1,0,.22-.02,.35-.01,.13-.02,.28-.02,.44v.03c0,.18,0,.32,.01,.43,0,.11,.01,.18,.01,.21,0,.05,0,.08-.03,.11-.02,.02-.04,.04-.07,.04-.07,0-.09-.06-.12-.16-.03-.1-.06-.24-.15-.4-.03-.06-.07-.11-.12-.15s-.1-.06-.16-.08h0c-.05-.02-.11-.02-.17-.03-.06,0-.13,0-.21,0h-.35s-.05,0-.07,0c-.02,0-.03,.01-.04,.02h0s-.02,.03-.02,.04c0,.02,0,.04,0,.07v.82s0,.82,0,.82c0,.22,.02,.35,.11,.42,.08,.07,.23,.09,.46,.09,.25,0,.44-.02,.59-.08,.16-.06,.29-.18,.41-.37,.1-.15,.16-.28,.22-.38,.06-.1,.1-.16,.17-.16,.02,0,.04,.01,.05,.03,.02,.02,.03,.03,.03,.04,0,0,0,.01,0,.04,0,.03,0,.06-.01,.1l-.04,.39-.04,.39c-.01,.12-.02,.19-.05,.23-.03,.04-.08,.05-.2,.05-.16,0-.42-.02-.76-.03s-.77-.03-1.27-.03c-.24,0-.42,0-.54,.02-.13,.01-.21,.02-.24,.02-.06,0-.1-.01-.13-.03-.03-.02-.04-.05-.04-.1,0-.07,.04-.1,.1-.1,.06-.01,.15,0,.25-.02,.12-.02,.17-.06,.21-.14,.03-.08,.03-.2,.03-.35v-.87s0-.88,0-.88m40.49-2.46c.06,0,.1,0,.13,.03,.03,.02,.04,.05,.04,.09,0,.05-.02,.08-.06,.09-.04,.02-.1,.02-.17,.02-.17,0-.25,.07-.3,.23-.05,.17-.05,.43-.05,.83v.61s0,.61,0,.61v.36s0,.36,0,.36c0,.28,0,.52-.03,.73-.03,.22-.08,.41-.19,.59-.11,.19-.28,.34-.49,.44-.22,.1-.48,.15-.79,.15-.34,0-.62-.04-.85-.14-.23-.09-.41-.24-.55-.44-.11-.16-.17-.33-.2-.52-.03-.2-.04-.41-.03-.66v-.45s0-.45,0-.45v-.95s0-.95,0-.95c0-.13,0-.21-.02-.26-.02-.05-.07-.08-.15-.1-.1-.03-.2-.03-.26-.04-.07,0-.11-.03-.11-.11,0-.03,.01-.06,.03-.08,.02-.02,.05-.03,.09-.03,.04,0,.12,.02,.25,.03,.13,.02,.31,.03,.53,.03,.23,0,.4-.02,.54-.03,.13-.02,.22-.03,.26-.03s.07,.01,.09,.03c.02,.02,.03,.05,.03,.08,0,.08-.05,.11-.12,.11-.07,0-.16,0-.26,.03-.08,.02-.12,.05-.15,.11-.02,.05-.03,.13-.03,.26v.95s0,.95,0,.95v.44s0,.44,0,.44c0,.49,.05,.86,.2,1.1,.15,.25,.41,.38,.83,.38,.21,0,.4-.04,.55-.11,.16-.07,.28-.18,.38-.31,.1-.14,.15-.31,.17-.51s.03-.43,.03-.71v-.72s0-.6,0-.6v-.6c0-.3,0-.53-.02-.7-.02-.17-.05-.27-.12-.33-.07-.05-.18-.06-.27-.06-.09,0-.16-.02-.16-.11,0-.04,.01-.06,.03-.08,.02-.02,.06-.03,.1-.03,.05,0,.11,0,.2,.01,.09,0,.2,.01,.34,.01,.14,0,.26,0,.35-.01,.09,0,.16-.01,.2-.01m-4.38-.35s.05,.02,.07,.05c.01,.03,.02,.07,.02,.09v.09l-.02,.53-.02,.53c0,.09-.01,.14-.03,.18-.02,.03-.04,.05-.08,.05-.07,0-.11-.06-.13-.15-.03-.09-.05-.23-.1-.38-.07-.17-.17-.27-.3-.32-.14-.05-.32-.07-.56-.07h-.13s-.06,.02-.08,.04c-.02,.02-.03,.06-.03,.09v1.08s0,1.08,0,1.08v.87s0,.87,0,.87c0,.17,0,.27,.03,.34,.03,.07,.08,.1,.18,.14,.09,.03,.18,.03,.25,.04,.07,0,.11,.03,.11,.12,0,.03-.01,.06-.04,.08-.03,.02-.07,.03-.12,.03-.08,0-.19-.01-.32-.03s-.27-.03-.44-.03c-.16,0-.31,.01-.44,.03-.13,.01-.24,.03-.32,.03-.05,0-.1-.01-.12-.03-.03-.02-.04-.05-.04-.09,0-.08,.04-.1,.11-.11,.07,0,.15,0,.24-.03,.1-.03,.16-.07,.19-.13,.03-.07,.03-.17,.03-.34v-.87s0-.88,0-.88v-1.06s0-1.06,0-1.06c0-.03,0-.07-.03-.1-.02-.03-.04-.05-.08-.05h-.11s-.11,0-.11,0c-.16,0-.29,.03-.4,.1-.11,.06-.21,.16-.31,.29-.1,.16-.16,.29-.22,.37-.06,.09-.11,.13-.17,.13-.03,0-.05,0-.06-.02-.02-.01-.02-.04-.02-.09,0,0,0-.02,0-.05,0-.02,.01-.06,.02-.09l.1-.41,.1-.41c.03-.12,.04-.22,.06-.29,.02-.07,.05-.11,.1-.11,.05,0,.07,.07,.09,.13,.02,.07,.04,.13,.09,.14,.03,.03,.07,.05,.14,.06,.06,.01,.14,.02,.24,.02,.07,0,.16,0,.25,0,.1,0,.2,0,.32,0h.49s.49,0,.49,0c.13,0,.25,0,.35,0,.1,0,.19,0,.27,0,.06,0,.11,0,.15,0,.04,0,.08-.02,.1-.03,.07-.04,.12-.12,.15-.19,.04-.07,.06-.13,.1-.13m5.35,2.87v.88s0,.87,0,.87c0,.17,0,.28-.03,.35-.03,.07-.1,.11-.22,.14-.07,.02-.15,.02-.21,.03-.06,.01-.1,.03-.1,.11,0,.04,.01,.07,.04,.09,.03,.02,.07,.03,.12,.03,.05,0,.13-.01,.26-.02,.13-.01,.29-.02,.5-.02,.21,0,.37,.01,.49,.02,.12,.01,.2,.02,.24,.02,.05,0,.09-.01,.12-.03,.03-.02,.04-.05,.04-.08,0-.05-.01-.08-.04-.1-.03-.02-.07-.03-.13-.03-.17,0-.26-.05-.3-.13-.05-.09-.05-.21-.05-.37v-.78s0-.78,0-.78c0-.03,.01-.06,.03-.08,.02-.02,.04-.03,.08-.03h.08c.12,0,.21,.02,.27,.08,.07,.05,.12,.14,.17,.28l.36,.9,.36,.9c.04,.09,.06,.15,.09,.2,.03,.04,.08,.07,.16,.07,.06,0,.12,0,.18-.01,.06,0,.12-.01,.18-.01,.09,0,.18,0,.26,.01,.08,0,.16,.01,.22,.01,.05,0,.08,0,.1-.01,.02-.01,.03-.03,.03-.07,0-.06-.04-.09-.1-.11-.06-.02-.15-.04-.23-.07-.05-.02-.1-.09-.16-.21-.06-.12-.13-.29-.22-.5l-.23-.55-.23-.55c-.03-.08-.07-.16-.1-.24-.04-.07-.08-.14-.14-.19h0s-.03-.03-.04-.04c-.01-.01-.03-.02-.04-.04,.26-.06,.48-.21,.62-.42,.15-.21,.23-.49,.23-.81,0-.37-.11-.68-.33-.89-.22-.22-.55-.34-.97-.34-.18,0-.36,.01-.55,.02-.19,.01-.39,.02-.59,.02-.14,0-.25,0-.34-.02-.09,0-.15-.02-.18-.02-.07,0-.13,0-.16,.02-.04,.02-.05,.04-.05,.09,0,.08,.04,.1,.11,.11,.07,0,.16,0,.26,.03,.08,.02,.12,.05,.15,.11,.02,.05,.03,.13,.03,.26v.95s0,.95,0,.95m1.08-.18c-.14,0-.23,0-.29-.03-.06-.02-.08-.07-.08-.15v-.76s0-.76,0-.76c0-.13,0-.23,.06-.3,.05-.07,.15-.1,.34-.1,.26,0,.46,.11,.59,.29,.13,.19,.2,.46,.2,.79,0,.33-.07,.58-.21,.75-.14,.17-.35,.26-.62,.26m-23.44,.14h0v-.02c0-.74,.27-1.4,.7-1.88,.43-.48,1.03-.77,1.7-.76,.29,0,.56,.05,.77,.11,.21,.06,.36,.13,.41,.19,.03,.03,.05,.12,.07,.25,.02,.14,.03,.33,.03,.57,0,.04,0,.08-.02,.1-.01,.02-.03,.04-.05,.04-.04,0-.07-.03-.11-.08-.04-.05-.09-.13-.15-.23-.14-.24-.29-.42-.44-.54-.16-.12-.33-.19-.54-.19-.43,0-.81,.24-1.09,.67-.28,.43-.45,1.04-.46,1.78h0v.02c0,.69,.17,1.28,.44,1.7,.27,.42,.64,.67,1.03,.67,.25,0,.45-.07,.62-.2,.17-.14,.31-.34,.44-.62,.06-.14,.11-.26,.15-.33,.04-.08,.08-.12,.13-.12,.02,0,.05,.01,.06,.04,.02,.03,.03,.07,.03,.13,0,.03,0,.11-.01,.22,0,.11-.01,.27-.01,.46,0,.18-.14,.35-.38,.48-.24,.12-.58,.2-.99,.2-.67,0-1.25-.29-1.66-.77-.41-.48-.66-1.14-.66-1.88h0Zm9.61-2.5c-.18,0-.33,0-.46,0-.13,0-.24,0-.33,0h-.06s-.06,0-.06,0c-.19,0-.34,0-.44-.01-.1,0-.17-.01-.19-.01-.05,0-.09,0-.11,.03-.03,.02-.04,.05-.04,.09,0,.08,.04,.1,.11,.11,.07,.01,.16,0,.26,.04,.07,.02,.12,.06,.14,.11,.02,.06,.03,.13,.03,.25v.95s0,.95,0,.95v.85s0,.85,0,.85c0,.18,0,.3-.03,.38-.03,.08-.09,.13-.21,.16-.07,.02-.14,.02-.19,.02-.05,0-.1,.02-.11,.08-.02-.02-.06-.03-.11-.05-.05-.02-.11-.04-.17-.08-.1-.07-.17-.16-.23-.27-.06-.12-.1-.26-.16-.45l-.24-.75-.24-.75-.36-1.14-.36-1.14c-.04-.11-.05-.2-.08-.27-.02-.07-.05-.1-.11-.1-.04,0-.07,.02-.09,.05-.02,.03-.03,.08-.05,.14l-.38,1.24-.38,1.24-.25,.82-.25,.82c-.04,.14-.08,.26-.12,.36-.04,.1-.09,.17-.16,.23-.08,.06-.18,.06-.26,.07-.08,0-.14,.03-.14,.11,0,.03,.01,.06,.04,.08,.02,.02,.06,.03,.11,.03,.05,0,.13,0,.22-.02,.09,0,.19-.02,.31-.02,.17,0,.32,.01,.43,.02,.12,.01,.2,.02,.26,.02,.05,0,.08,0,.1-.02,.02-.01,.03-.04,.03-.07,0-.06-.03-.1-.08-.12-.05-.03-.13-.04-.24-.06-.07-.01-.12-.03-.16-.06-.03-.03-.05-.08-.05-.16,0-.05,.01-.12,.03-.23,.02-.1,.05-.23,.09-.39l.1-.35,.1-.35s.02-.04,.03-.05c.02-.01,.04-.02,.05-.02h.49s.49,0,.49,0c.03,0,.06,0,.08,.01,.02,0,.03,.02,.04,.05l.15,.51,.15,.51c.02,.08,.04,.15,.05,.22,.01,.06,.02,.11,.02,.14,0,.07-.02,.12-.06,.15-.05,.03-.13,.04-.26,.04-.05,0-.09,.01-.12,.04-.03,.02-.05,.05-.05,.09s.01,.06,.03,.07c.02,.02,.06,.02,.1,.02,.05,0,.14,0,.28-.02,.14,0,.32-.02,.54-.02,.16,0,.29,.01,.4,.02,.11,.01,.2,.02,.26,.02,.05,0,.08,0,.11-.01,.03,0,.04-.03,.05-.05,.01,.02,.03,.04,.05,.05,.02,.01,.05,.02,.09,.02,.06,0,.15-.01,.27-.03,.12-.01,.27-.03,.46-.03,.2,0,.36,.01,.49,.03,.13,.01,.22,.03,.27,.03s.09-.01,.12-.04c.03-.02,.04-.05,.04-.08,0-.1-.05-.12-.12-.13-.07,0-.17,0-.27-.05-.08-.04-.12-.08-.14-.14-.02-.07-.02-.16-.02-.29v-.74s0-.74,0-.74c0-.05,0-.09,.01-.11,.01-.02,.03-.04,.06-.04,0,0,.01,0,.02,0,0,0,.02,0,.03,.01l.06,.03,.06,.03c.1,.04,.18,.08,.26,.1,.08,.03,.16,.04,.23,.04,.14,0,.27-.03,.39-.09,.12-.06,.24-.15,.33-.25,.11-.13,.2-.28,.27-.46,.06-.18,.1-.38,.1-.59,0-.48-.11-.85-.34-1.09-.23-.24-.58-.37-1.04-.37m-3.6,2.85h-.4s-.4,0-.4,0c-.02,0-.03,0-.04-.02-.01,0-.02-.02-.02-.03,0,0,0-.01,0-.03,0-.01,0-.03,0-.05l.03-.11,.03-.11,.16-.6,.16-.6s.01-.03,.02-.05c0-.01,.02-.02,.03-.02,0,0,.02,0,.03,.02,0,.01,.02,.03,.03,.05l.18,.59,.18,.59,.03,.1,.03,.1s0,.03,0,.04c0,.01,0,.02,0,.04,0,.02-.01,.03-.02,.04-.01,.01-.03,.02-.05,.02m3.14-2.23c0-.14,.01-.24,.07-.3,.05-.06,.15-.09,.31-.09,.19,0,.37,.12,.51,.33,.13,.21,.22,.51,.22,.87,0,.33-.08,.6-.21,.79-.13,.19-.3,.29-.48,.29-.1,0-.2-.03-.28-.09-.08-.06-.13-.14-.13-.26v-.77s0-.77,0-.77Zm19.14,69.03c-.21-.35-.53-.67-.95-.95-.67-.45-1.38-.63-2.03-.53-.65,.1-1.25,.48-1.69,1.14-.22,.32-.39,.6-.52,.85-.13,.24-.23,.45-.28,.61h0c-.03,.1-.05,.19-.05,.25,0,.07,.02,.11,.05,.14,.03,.02,.06,.03,.09,.03,.03,0,.05-.01,.06-.03,.03-.04,.04-.09,.05-.14,.01-.05,.03-.11,.06-.16,.04-.06,.08-.08,.13-.08,.05,0,.11,.03,.18,.08l1.61,1.09,1.61,1.09c.15,.1,.24,.16,.28,.23,.04,.07,.04,.15,0,.28-.03,.08-.08,.14-.1,.2-.03,.06-.03,.11,.04,.15,.03,.02,.07,.03,.11,.02,.03-.01,.07-.04,.1-.09,.06-.09,.11-.19,.16-.29,.05-.11,.11-.22,.18-.32,.08-.12,.19-.25,.31-.38,.12-.14,.25-.29,.37-.47,.18-.27,.31-.54,.4-.8,.09-.26,.13-.52,.13-.77h0c0-.4-.11-.78-.33-1.13m-.16,1.86c-.03,.24-.12,.48-.27,.71-.14,.21-.27,.3-.42,.3-.15,0-.33-.09-.57-.25l-1.11-.75-1.11-.75-.39-.26-.39-.26c-.14-.09-.23-.17-.24-.29-.02-.12,.04-.27,.21-.51,.29-.43,.74-.64,1.27-.65,.53,0,1.13,.19,1.71,.59,.31,.21,.57,.43,.77,.67,.2,.23,.35,.48,.44,.72h0c.09,.24,.13,.49,.1,.74m-3.26-4.8h0c0-.09,.01-.18,.02-.28,0-.1,.01-.21,.01-.33,.02-.49,.02-.87,.03-1.15,0-.27,0-.44,0-.49,0-.11,.03-.17,.07-.2,.04-.03,.1-.03,.19-.02h.39s.36,.03,.36,.03c.07,0,.12,0,.16,.02,.03,.01,.05,.04,.05,.08,0,.08-.09,.1-.22,.14-.12,.04-.28,.1-.43,.25-.11,.11-.19,.25-.25,.41-.06,.17-.09,.37-.1,.6,0,.22,.02,.34,.09,.4,.08,.07,.2,.08,.4,.08l.69,.02,.69,.02c.07,0,.11,0,.14-.01,.02-.02,.03-.05,.03-.13v-.19s.02-.19,.02-.19c0-.17,0-.33-.03-.46-.02-.12-.06-.22-.09-.26-.11-.12-.23-.15-.33-.18-.1-.03-.17-.05-.17-.13,0-.04,.01-.06,.03-.08,.02-.02,.05-.02,.09-.02,.1,0,.23,.02,.37,.03,.14,.02,.29,.03,.46,.04,.2,0,.36,0,.47,0,.12,0,.2,0,.24,0,.05,0,.09,.01,.11,.03,.02,.02,.04,.04,.04,.07,0,.07-.07,.1-.18,.12-.11,.03-.25,.06-.42,.14-.13,.06-.2,.15-.24,.26-.04,.11-.05,.26-.06,.43v.18s-.01,.18-.01,.18c0,.06,0,.1,.03,.12,.02,.02,.06,.03,.12,.04l.86,.03,.86,.03c.23,0,.36-.02,.44-.1,.08-.09,.1-.24,.11-.48,.01-.26,0-.46-.06-.63-.06-.17-.18-.31-.38-.44-.15-.11-.29-.18-.4-.24-.1-.06-.17-.12-.17-.18,0-.02,.01-.04,.03-.05,.02-.02,.04-.03,.05-.03,0,0,.01,0,.04,0,.03,0,.06,0,.11,.01l.4,.06,.4,.06c.13,.02,.2,.02,.24,.06s.05,.09,.04,.21c0,.17-.03,.43-.06,.78s-.06,.79-.08,1.31h0s0,.02,0,.02c0,0,0,.01,0,.02,0,.25,0,.44,0,.57,0,.14,.01,.22,.01,.25,0,.06-.02,.11-.04,.14-.02,.03-.06,.04-.1,.04-.08,0-.1-.04-.11-.11,0-.06,0-.15-.01-.26-.01-.12-.06-.19-.14-.22-.08-.04-.21-.04-.37-.05l-1.92-.07-1.92-.07c-.12,0-.21,0-.27,0s-.1,.06-.12,.13c-.03,.09-.03,.18-.04,.25-.01,.07-.04,.11-.12,.11-.04,0-.07-.02-.09-.04-.02-.02-.03-.06-.03-.11,0-.02,0-.09,.02-.19,0-.1,.02-.25,.03-.44h0Zm.03-8.93h0s0-.03,0-.05c0-.02,0-.03,0-.05,0-.31,.05-.59,.11-.81,.06-.22,.14-.38,.2-.43,.03-.03,.12-.06,.27-.08,.15-.02,.35-.03,.59-.03,.05,0,.08,0,.11,.02,.03,.01,.04,.03,.04,.05,0,.04-.03,.07-.09,.12-.06,.04-.14,.09-.25,.16-.25,.15-.44,.3-.57,.47-.13,.17-.2,.35-.2,.57v.06h0c.02,.44,.29,.83,.74,1.11,.45,.28,1.09,.46,1.85,.46,.72,0,1.35-.18,1.79-.46,.44-.28,.71-.67,.71-1.08h0s0-.01,0-.01c0-.26-.07-.47-.22-.65-.14-.18-.36-.33-.64-.46-.15-.07-.27-.12-.35-.16-.08-.04-.13-.08-.13-.13,0-.03,.01-.05,.04-.06s.07-.03,.13-.03c.03,0,.11,0,.23,.01,.12,0,.28,.01,.48,.01,.19,0,.37,.15,.5,.4,.13,.25,.22,.62,.21,1.04h0v.03h0c0,.69-.32,1.3-.82,1.73-.5,.43-1.2,.69-1.99,.68-.76,0-1.44-.27-1.94-.71-.5-.44-.81-1.05-.83-1.72h0Zm.17-4.07h0s0-.06-.01-.08c0-.02,0-.04,0-.05,0-.04,.01-.07,.03-.09,.02-.02,.05-.03,.08-.03,.06,0,.09,.03,.1,.07,.01,.05,.01,.11,.02,.19h0s0,.03,0,.05c0,.02,0,.03,0,.05,.02,.1,.05,.16,.11,.19,.06,.03,.15,.03,.28,.03h.76s.76,0,.76,0c.04,0,.06,0,.08-.03,.02-.02,.03-.04,.03-.08v-1.05s0-.85,0-.85c0-.03-.01-.06-.03-.08-.02-.02-.05-.03-.08-.03h-.76s-.76,0-.76,0c-.13,0-.22,0-.28,.02-.06,.02-.09,.07-.11,.15-.03,.11-.02,.21-.03,.28,0,.07-.03,.12-.12,.12-.03,0-.06-.01-.08-.03-.02-.02-.03-.05-.03-.09s.02-.13,.03-.27c.02-.14,.03-.32,.03-.56,0-.24-.02-.42-.03-.56-.02-.14-.03-.22-.03-.27,0-.04,.01-.07,.03-.09,.02-.02,.05-.03,.08-.03,.07,0,.1,.04,.11,.1,.01,.06,0,.15,.03,.26,.02,.1,.05,.16,.11,.19,.06,.03,.15,.03,.28,.03h1.92s1.92,0,1.92,0c.17,0,.28,0,.36-.03,.07-.03,.11-.08,.15-.19,.03-.1,.03-.19,.04-.26,.01-.07,.04-.12,.13-.12,.03,0,.06,.02,.08,.05,.02,.03,.03,.08,.03,.14,0,.05-.01,.14-.03,.27-.01,.13-.03,.3-.03,.52,0,.22,.01,.39,.02,.52,.01,.13,.03,.22,.03,.27,0,.06-.01,.11-.04,.14-.02,.03-.06,.05-.1,.05-.08,0-.1-.04-.11-.1,0-.06,0-.14-.03-.22-.03-.13-.07-.2-.15-.24-.07-.03-.18-.03-.36-.03h-.9s-.9,0-.9,0c-.03,0-.06,0-.08,.03-.02,.02-.03,.04-.03,.08v.85s0,.85,0,.85v.1s0,.1,0,.1c0,.03,.01,.06,.03,.08,.02,.02,.05,.03,.09,.03h.9s.9,0,.9,0c.17,0,.28,0,.36-.03,.07-.03,.11-.09,.15-.19,0-.02,0-.03,.01-.05,0-.02,0-.03,0-.05h0c.01-.08,0-.15,.02-.2s.05-.08,.12-.08c.03,0,.06,.01,.09,.04,.02,.03,.03,.07,.03,.13,0,.01,0,.03,0,.04,0,.02,0,.04,0,.06h0c0,.07-.02,.16-.03,.27,0,.12-.02,.25-.02,.42,0,.22,.01,.39,.02,.52,.01,.13,.03,.22,.03,.27,0,.06-.01,.1-.04,.13-.02,.03-.06,.04-.1,.04-.08,0-.1-.04-.11-.1,0-.06,0-.14-.03-.22-.03-.13-.07-.2-.15-.24-.07-.03-.18-.03-.36-.03h-1.92s-1.92,0-1.92,0c-.13,0-.22,0-.28,.03-.06,.02-.09,.07-.11,.15-.03,.11-.02,.21-.03,.28,0,.07-.03,.12-.12,.12-.03,0-.06-.01-.08-.03-.02-.02-.03-.05-.03-.09s.02-.13,.03-.27c.02-.14,.03-.32,.03-.56,0-.16,0-.3-.02-.42-.01-.12-.02-.21-.03-.28m0-4.06h0s.02-.14,.04-.27c.02-.14,.03-.32,.03-.54,0-.24-.02-.42-.03-.56-.02-.14-.03-.22-.03-.27,0-.04,.01-.07,.03-.09,.02-.02,.05-.03,.09-.03,.07,0,.1,.04,.11,.1,.01,.06,0,.15,.03,.26,.02,.1,.05,.16,.11,.19,.06,.03,.15,.03,.28,.03h1.92s1.92,0,1.92,0c.18,0,.29,0,.36-.03,.07-.03,.11-.09,.15-.2,.03-.1,.02-.19,.04-.26,.01-.07,.04-.11,.13-.11,.03,0,.06,.01,.08,.04,.02,.03,.03,.07,.03,.13,0,.05-.01,.14-.03,.27-.01,.13-.03,.31-.03,.52,0,.22,.01,.39,.02,.52,.01,.13,.03,.22,.03,.27,0,0,0,0,0,.01,0,0,0,0,0,.01h0s-.02,.09-.04,.11c-.02,.03-.05,.04-.09,.04-.05,0-.08-.02-.09-.04-.02-.03-.02-.07-.02-.11,0-.03,0-.06,0-.08,0-.03,0-.06-.01-.09-.03-.13-.07-.2-.15-.24-.07-.03-.19-.03-.37-.03h-1.92s-1.92,0-1.92,0c-.13,0-.22,0-.27,.03-.06,.03-.09,.07-.11,.16-.01,.05-.02,.1-.02,.14,0,.04,0,.08,0,.12h0s-.01,.08-.03,.1c-.02,.02-.04,.04-.09,.04-.03,0-.06-.01-.09-.03-.02-.02-.03-.05-.03-.09,0,0,0,0,0,0,0,0,0,0,0,0h0Zm4.95-4.86h0c-.04-.08-.09-.16-.15-.23-.06-.07-.13-.14-.22-.2-.17-.13-.31-.21-.41-.28-.1-.07-.15-.11-.15-.16,0-.02,.01-.04,.02-.05,.01-.01,.03-.03,.04-.03,0,0,.02,0,.05,0,.03,0,.06,0,.1,0l.39,.04,.39,.04s.07,0,.09,.01c.02,0,.04,0,.05,0,.05,0,.08,.02,.11,.04s.04,.07,.04,.12c0,.08,0,.17,0,.28,0,.11-.02,.24-.02,.38h0c-.01,.18-.02,.38-.03,.61,0,.23-.01,.48-.01,.75,0,.22,.01,.39,.02,.52,.01,.13,.02,.22,.02,.27,0,.06-.01,.1-.04,.13-.02,.03-.06,.04-.1,.04-.08,0-.1-.04-.11-.1-.01-.06,0-.14-.03-.22-.03-.13-.07-.2-.15-.24-.07-.03-.19-.03-.37-.03h-1.92s-1.92,0-1.92,0c-.13,0-.21,0-.27,.02-.06,.02-.09,.06-.12,.14-.03,.1-.03,.19-.04,.26,0,.06-.03,.1-.11,.1-.03,0-.06-.01-.08-.03-.02-.02-.03-.05-.03-.08,0-.04,.02-.12,.03-.25,.02-.13,.03-.3,.03-.52,0-.25-.02-.44-.03-.58-.02-.14-.03-.23-.03-.27,0-.04,.01-.07,.03-.09,.02-.02,.05-.03,.08-.03,.07,0,.1,.04,.11,.1,.01,.06,0,.15,.03,.26,.02,.1,.05,.16,.11,.19,.06,.03,.15,.03,.28,.03h1.92s1.92,0,1.92,0c.18,0,.32-.05,.41-.14,.09-.09,.14-.23,.14-.4,0-.08,0-.16-.02-.23-.02-.07-.04-.14-.07-.2h0Zm-4.65-4.89h.36s.36,0,.36,0c.07,0,.12,0,.16,.02,.03,.01,.05,.04,.05,.07,0,.08-.09,.1-.21,.15-.12,.05-.28,.11-.42,.26-.1,.11-.18,.25-.24,.42-.05,.17-.08,.37-.08,.6,0,.22,.03,.34,.11,.4,.08,.06,.21,.07,.4,.07h.69s.69,0,.69,0c.07,0,.11,0,.14-.02,.02-.02,.03-.06,.03-.13v-.38c0-.17-.02-.33-.05-.45-.03-.12-.07-.21-.1-.25-.11-.11-.24-.14-.34-.17-.1-.02-.17-.04-.17-.13,0-.04,0-.06,.03-.08,.02-.02,.05-.02,.09-.02,.11,0,.23,.01,.37,.02,.14,.01,.29,.02,.46,.02,.2,0,.36,0,.48-.01,.12,0,.2-.01,.24-.01,.05,0,.09,.01,.11,.03,.03,.02,.04,.04,.04,.07,0,.07-.07,.1-.17,.13-.11,.03-.25,.07-.42,.15-.13,.07-.19,.15-.23,.27-.04,.12-.05,.26-.05,.43v.37c0,.06,0,.1,.03,.12,.02,.02,.06,.03,.12,.03h.86s.86,0,.86,0c.23,0,.37-.03,.44-.12,.08-.09,.1-.24,.1-.49,0-.26-.02-.46-.08-.62-.07-.17-.19-.3-.39-.43-.15-.1-.3-.17-.41-.23-.11-.06-.17-.11-.17-.18,0-.02,.01-.04,.03-.05,.02-.02,.04-.03,.05-.03,0,0,.01,0,.04,0,.03,0,.06,0,.11,.01l.41,.05,.41,.05c.13,.01,.2,.02,.25,.05,.04,.03,.05,.09,.05,.21,0,.17-.02,.44-.04,.79-.02,.36-.04,.81-.04,1.34,0,.25,0,.44,.02,.57,.01,.13,.02,.22,.02,.25,0,.06-.01,.11-.03,.14-.02,.03-.06,.05-.1,.05-.07,0-.1-.04-.11-.1-.01-.06,0-.15-.02-.26-.02-.12-.06-.18-.15-.22-.08-.03-.21-.03-.37-.03h-1.92s-1.92,0-1.92,0c-.13,0-.21,0-.27,.02-.06,.02-.09,.06-.12,.14-.03,.09-.03,.18-.03,.25,0,.07-.03,.11-.12,.11-.04,0-.07-.01-.09-.04-.02-.02-.03-.06-.03-.1,0-.03,0-.15,.02-.36,0-.21,.02-.5,.02-.89,0-.49,0-.87-.02-1.15,0-.27-.02-.44-.02-.49,0-.11,.02-.17,.06-.2,.04-.03,.1-.03,.19-.03h.03Zm-32.09,35.71h0l.07,.22,.07,.22c.06,.19,.11,.35,.17,.47,.06,.12,.13,.22,.24,.29,.08,.05,.16,.08,.21,.1,.06,.02,.1,.04,.1,.09,0,.05-.01,.08-.04,.09-.03,.02-.07,.02-.13,.02-.07,0-.16-.01-.28-.03-.12-.01-.26-.03-.42-.03-.23,0-.42,0-.57,.02-.14,0-.24,.02-.3,.02-.05,0-.09,0-.11-.02-.02-.02-.03-.04-.03-.08s.02-.07,.05-.1c.03-.02,.07-.04,.12-.04,.14,0,.22-.01,.28-.04,.05-.03,.07-.08,.07-.16,0-.04,0-.09-.02-.15-.01-.06-.03-.14-.06-.23l-.1-.34-.1-.34-.06-.2-.06-.2s-.02-.05-.04-.06c-.02,0-.05-.01-.08-.01h-.52s-.52,0-.52,0c-.02,0-.04,0-.06,.02-.02,.01-.03,.03-.04,.05l-.05,.19-.05,.19-.05,.18-.05,.18c-.04,.16-.07,.3-.1,.41-.02,.11-.03,.19-.03,.24,0,.08,.02,.13,.05,.17,.04,.03,.09,.05,.17,.06,.11,.02,.2,.03,.25,.06,.05,.03,.08,.06,.08,.13,0,.04-.01,.06-.04,.08-.02,.02-.06,.02-.11,.02-.06,0-.15-.01-.27-.03-.12-.01-.27-.03-.46-.03-.12,0-.23,.01-.32,.02-.09,.01-.17,.02-.23,.02-.05,0-.09-.01-.11-.03-.02-.02-.04-.05-.04-.08,0-.09,.06-.1,.15-.12,.08-.01,.19-.01,.27-.08,.08-.05,.13-.13,.17-.24,.05-.1,.08-.23,.13-.38l.09-.29,.09-.29,.58-1.87,.58-1.87c.02-.06,.03-.11,.05-.15,.02-.03,.04-.05,.09-.05,.06,0,.09,.04,.12,.11,.03,.07,.05,.17,.08,.29l.56,1.77,.56,1.77Zm4.81,0c0,.2-.02,.38-.05,.55-.03,.17-.09,.32-.17,.47-.12,.2-.29,.36-.52,.46-.23,.11-.51,.16-.83,.16-.36,0-.65-.05-.9-.15-.24-.1-.43-.25-.58-.46-.1-.14-.16-.3-.19-.47-.03-.17-.05-.37-.05-.58h0s0-.06,0-.09v-1.57s0-1.47,0-1.47c0-.14,0-.22-.03-.28-.02-.06-.07-.08-.16-.11-.11-.03-.21-.03-.27-.04-.07,0-.11-.03-.11-.11,0-.03,.01-.06,.03-.08,.02-.02,.05-.03,.09-.03,.04,0,.13,.02,.27,.03,.14,.02,.32,.03,.56,.03,.24,0,.42-.02,.56-.03s.23-.03,.27-.03,.07,.01,.09,.03c.02,.02,.03,.05,.03,.08,0,.09-.05,.11-.12,.12s-.17,0-.27,.03c-.08,.03-.13,.05-.16,.11-.03,.06-.03,.14-.03,.27v1.46s0,1.46,0,1.46c0,.04,0,.07,0,.11,0,.03,0,.07,0,.1h0c.01,.44,.08,.78,.24,1.01,.16,.23,.43,.34,.84,.34,.22,0,.42-.04,.58-.11,.16-.07,.3-.19,.4-.33,.08-.12,.13-.25,.16-.39,.03-.15,.04-.32,.05-.51h0c0-.06,0-.12,0-.18,0-.06,0-.13,0-.2v-1.01s0-1.01,0-1.01c0-.32,0-.56-.02-.73-.02-.18-.06-.29-.13-.35-.08-.06-.19-.06-.28-.07-.09,0-.17-.03-.17-.12,0-.04,.01-.07,.04-.09,.02-.02,.06-.03,.11-.03,.05,0,.12,0,.21,.01,.09,0,.21,.01,.35,.01,.15,0,.27,0,.37-.01,.1,0,.17-.01,.21-.01,.06,0,.1,0,.13,.03,.03,.02,.04,.05,.04,.09,0,.05-.02,.08-.06,.1-.04,.02-.1,.02-.18,.02-.18,0-.27,.07-.32,.25-.05,.18-.05,.46-.05,.87v1.03s0,1.03,0,1.03c0,.06,0,.13,0,.19,0,.06,0,.12,0,.18m4.29,0c-.01,.48-.19,.89-.47,1.18-.29,.29-.69,.47-1.15,.47-.37,0-.68-.06-.9-.18-.22-.12-.34-.3-.34-.54,0-.1,0-.19,0-.28,0-.09,0-.17,0-.25,0-.06,0-.11,0-.15s0-.06,0-.07c0-.04,0-.08,0-.11,0-.03,.01-.06,.02-.08,.01-.02,.02-.04,.04-.05s.03-.02,.05-.02c.02,0,.04,0,.06,.02,.02,.01,.03,.03,.04,.05,.02,.05,.03,.12,.05,.21,.01,.09,.03,.19,.06,.3,.08,.28,.23,.51,.4,.66,.18,.15,.39,.24,.6,.24,.25,0,.48-.11,.64-.28,.16-.18,.26-.43,.27-.72,0-.07,0-.14-.02-.21-.01-.07-.03-.13-.06-.2-.06-.16-.17-.31-.32-.46-.15-.14-.33-.28-.56-.4-.34-.19-.64-.35-.86-.59-.22-.23-.35-.54-.35-1.03,0-.43,.14-.8,.4-1.05,.26-.26,.63-.4,1.08-.4,.23,0,.45,.04,.62,.09,.17,.05,.29,.12,.33,.17,.02,.02,.04,.11,.05,.27,.01,.15,.02,.37,.02,.65,0,.06-.01,.1-.03,.13-.02,.03-.05,.04-.08,.04-.06,0-.09-.04-.12-.12-.03-.08-.06-.19-.12-.33-.09-.22-.18-.39-.29-.51s-.26-.18-.45-.18c-.25,0-.45,.08-.59,.23-.14,.15-.22,.36-.22,.63,0,.22,.06,.39,.19,.54,.13,.15,.32,.28,.59,.42,.45,.24,.8,.46,1.03,.74,.24,.28,.36,.63,.36,1.1v.05h0Zm3.15,0h0v.35s0,.35,0,.35c0,.18,0,.28,.03,.36,.03,.07,.09,.11,.2,.15,.1,.03,.19,.03,.26,.04,.07,.01,.11,.04,.11,.13,0,.03-.01,.06-.04,.08-.03,.02-.07,.03-.13,.03-.09,0-.2-.01-.33-.03-.13-.01-.29-.03-.46-.03-.17,0-.33,.01-.46,.03-.13,.01-.25,.03-.34,.03-.06,0-.1-.01-.13-.04-.03-.02-.04-.06-.04-.1,0-.08,.05-.11,.12-.12,.07,0,.16,0,.25-.03,.11-.03,.16-.07,.19-.14,.03-.07,.03-.18,.03-.36v-.35s0-.35,0-.35v-1.69s0-1.69,0-1.69c0-.03-.01-.07-.03-.1-.02-.03-.05-.05-.08-.05h-.24c-.17,0-.31,.03-.43,.1-.12,.07-.22,.17-.33,.3-.1,.17-.17,.3-.23,.39-.06,.09-.11,.14-.18,.14-.03,0-.05,0-.07-.02-.02-.02-.02-.04-.02-.1,0,0,0-.02,.01-.05,0-.03,.01-.06,.02-.09l.11-.43,.11-.43c.03-.13,.04-.23,.06-.31,.02-.08,.05-.12,.1-.12,.05,0,.07,.07,.1,.14,.02,.07,.05,.14,.1,.15,.03,.03,.08,.05,.14,.06,.07,.01,.15,.02,.25,.02,.08,0,.17,0,.27,0,.1,0,.21,0,.33,0h.52s.52,0,.52,0c.14,0,.26,0,.37,0,.11,0,.2,0,.28,0,.06,0,.12,0,.16,0,.04,0,.08-.02,.11-.03,.07-.05,.12-.13,.16-.2,.04-.07,.07-.13,.11-.13,.03,0,.06,.03,.07,.06,.01,.03,.02,.07,.02,.09v.09l-.03,.55-.03,.55c0,.09-.01,.15-.03,.19-.02,.04-.05,.05-.09,.05-.07,0-.11-.06-.14-.16-.03-.1-.05-.24-.1-.4-.08-.18-.17-.28-.32-.34-.14-.06-.33-.07-.59-.07h-.07s-.07,0-.07,0c-.03,0-.06,.02-.08,.05-.02,.03-.03,.06-.03,.09v1.7s0,1.7,0,1.7Zm4.48,0l-.14-.34-.13-.34c-.06-.15-.11-.24-.18-.3-.07-.06-.16-.08-.29-.08h-.08s-.06,.01-.08,.03c-.02,.02-.03,.05-.03,.08v.47s0,.47,0,.47v.35s0,.35,0,.35c0,.16,0,.3,.05,.39,.05,.09,.14,.14,.32,.14,.07,0,.11,.01,.14,.03,.03,.02,.04,.06,.04,.11,0,.03-.02,.06-.05,.08-.03,.02-.07,.03-.12,.03-.04,0-.12-.01-.25-.03-.13-.01-.29-.03-.51-.03-.22,0-.39,.01-.52,.02-.13,.01-.22,.02-.27,.02-.06,0-.1-.01-.13-.04-.03-.02-.04-.06-.04-.1,0-.08,.04-.1,.1-.11,.06-.01,.14,0,.22-.03,.13-.03,.2-.07,.24-.14,.03-.07,.03-.19,.03-.37v-.35s0-.35,0-.35v-1.56s0-1.56,0-1.56c0-.13,0-.22-.03-.28s-.07-.09-.15-.11c-.11-.03-.21-.03-.28-.03-.07,0-.12-.03-.12-.12,0-.05,.02-.08,.06-.1,.04-.02,.09-.02,.17-.02,.03,0,.1,0,.19,.02,.09,0,.21,.02,.36,.02,.21,0,.41-.01,.61-.02,.2-.01,.39-.02,.58-.02,.45,0,.79,.13,1.02,.36,.23,.23,.35,.55,.35,.94,0,.34-.09,.63-.24,.85-.16,.22-.38,.38-.66,.44,.09,.06,.15,.14,.2,.23,.05,.09,.09,.19,.14,.3l.14,.34,.14,.34,.1,.24,.1,.24c.1,.23,.17,.4,.23,.53,.06,.12,.11,.2,.16,.22,.09,.04,.18,.05,.25,.08,.07,.02,.11,.05,.11,.12,0,.04-.01,.06-.03,.07-.02,.01-.06,.01-.11,.01-.07,0-.15,0-.24-.01-.09,0-.18-.01-.27-.01-.06,0-.12,0-.18,.01-.06,0-.12,.01-.18,.01-.08,0-.13-.02-.16-.07-.03-.05-.06-.11-.09-.21l-.24-.61-.24-.61Zm2.71,0h0l.58-1.87,.58-1.87c.02-.06,.03-.11,.05-.15,.02-.03,.04-.05,.09-.05,.06,0,.09,.04,.12,.11s.05,.17,.09,.29l.56,1.77,.56,1.77,.07,.22,.07,.22c.06,.19,.11,.35,.17,.47,.06,.12,.13,.21,.24,.29,.08,.05,.16,.08,.22,.1,.06,.02,.1,.04,.1,.09,0,.05-.01,.08-.04,.09-.03,.02-.07,.02-.13,.02-.07,0-.16-.01-.28-.03-.12-.01-.26-.03-.42-.03-.23,0-.42,.01-.57,.02-.14,.01-.24,.02-.3,.02s-.09,0-.11-.02c-.02-.02-.03-.04-.03-.08,0-.04,.02-.07,.05-.09,.03-.02,.07-.04,.12-.04,.14,0,.23-.01,.28-.04,.05-.03,.07-.08,.07-.16,0-.04,0-.09-.02-.15-.01-.06-.03-.14-.06-.23l-.1-.34-.1-.34-.06-.2-.06-.2s-.02-.05-.05-.06c-.02,0-.05-.01-.08-.01h-.52s-.52,0-.52,0c-.02,0-.04,0-.05,.02-.02,.01-.03,.03-.03,.05l-.05,.19-.05,.19-.05,.18-.05,.18c-.04,.16-.07,.3-.09,.41-.02,.11-.03,.19-.03,.24,0,.08,.02,.13,.05,.17,.04,.03,.09,.05,.17,.06,.11,.02,.2,.03,.25,.06,.06,.03,.08,.06,.08,.13,0,.04-.01,.06-.04,.08-.02,.02-.06,.02-.11,.02-.06,0-.15-.01-.27-.03-.12-.01-.27-.03-.45-.03-.12,0-.23,.01-.32,.02-.09,.01-.17,.02-.23,.02-.05,0-.09-.01-.11-.03-.02-.02-.04-.05-.04-.08,0-.09,.06-.1,.15-.12,.08-.01,.19-.02,.27-.08,.07-.05,.13-.13,.17-.24,.05-.1,.08-.23,.13-.38l.09-.29,.09-.29Zm4.44,0h0v-1.56s0-1.57,0-1.57c0-.13,0-.21-.02-.27-.02-.06-.06-.09-.14-.12-.1-.03-.19-.03-.26-.04-.07,0-.1-.03-.1-.11,0-.03,.01-.06,.03-.08,.02-.02,.05-.03,.08-.03,.04,0,.12,.02,.25,.03,.13,.02,.3,.03,.52,.03,.25,0,.44-.02,.58-.03,.14-.02,.23-.03,.27-.03,.04,0,.07,.01,.09,.03,.02,.02,.03,.05,.03,.08,0,.08-.04,.1-.1,.11-.06,.01-.15,0-.26,.03-.11,.02-.16,.05-.19,.11-.03,.06-.03,.15-.03,.28v1.56s0,1.56,0,1.56v.35s0,.35,0,.35c0,.18,.05,.32,.14,.41,.09,.09,.23,.14,.4,.14,.18,0,.34-.04,.48-.11,.14-.08,.27-.19,.38-.35,.13-.17,.21-.31,.28-.41,.07-.1,.11-.15,.16-.15,.02,0,.03,.01,.05,.02,.01,.01,.02,.03,.02,.04,0,0,0,.02,0,.05,0,.03,0,.06,0,.1l-.04,.39-.04,.39s0,.07-.01,.09c0,.02,0,.04,0,.05,0,.05-.02,.08-.04,.11-.03,.02-.07,.04-.12,.04-.18,0-.43-.02-.77-.04-.34-.02-.75-.04-1.25-.04-.22,0-.39,.01-.52,.02-.13,.01-.22,.02-.27,.02-.06,0-.1-.01-.13-.04-.03-.02-.04-.06-.04-.1,0-.08,.04-.1,.1-.11,.06-.01,.14,0,.22-.03,.13-.03,.2-.07,.24-.15,.03-.07,.03-.19,.03-.37v-.35s0-.35,0-.35Zm-3.35-2.39s-.02-.04-.03-.06c0-.01-.02-.02-.03-.02,0,0-.02,0-.03,.02,0,.01-.02,.03-.02,.05l-.2,.74-.2,.74s0,.04,0,.05c0,.01,0,.02,0,.03,0,.01,0,.03,.02,.03,.01,0,.02,.02,.04,.02h.42s.42,0,.42,0c.02,0,.04,0,.05-.02,.01-.01,.03-.03,.03-.05,0-.01,0-.03,0-.04,0-.01,0-.03-.01-.04l-.23-.73-.23-.73Zm-4.73,.87c0,.09,.02,.14,.09,.16,.06,.03,.16,.03,.3,.03,.28,0,.5-.09,.65-.27,.15-.18,.22-.45,.22-.79,0-.35-.07-.63-.21-.83-.14-.2-.35-.31-.62-.31-.19,0-.3,.03-.35,.1-.06,.07-.06,.17-.07,.31v.8s0,.8,0,.8Zm-17.33-.9s-.02-.04-.03-.06c0-.01-.02-.02-.02-.02,0,0-.02,0-.03,.02,0,.01-.02,.03-.02,.05l-.2,.74-.2,.74s0,.04,0,.05c0,.01,0,.03,0,.03,0,.01,0,.03,.02,.03,.01,0,.03,.02,.04,.02h.42s.42,0,.42,0c.02,0,.03,0,.05-.02,.01-.01,.02-.03,.02-.05,0-.01,0-.03,0-.04,0-.01,0-.03-.01-.04l-.22-.73-.22-.73Zm-6.84,1.23c0-.81-.25-1.49-.69-1.98-.45-.48-1.09-.76-1.89-.77-.63,0-1.13,.04-1.46,.11-.34,.07-.51,.16-.52,.27,0,.04,.01,.07,.03,.09,.02,.02,.04,.03,.06,.03,.05,0,.1-.02,.15-.04,.05-.02,.11-.04,.17-.04,.07,0,.12,.02,.14,.07,.03,.04,.03,.11,.03,.2v1.59s0,1.59,0,1.59v.35s0,.35,0,.35c0,.18,0,.29-.03,.37-.03,.08-.1,.11-.23,.15-.08,.02-.16,.02-.22,.03-.06,.01-.1,.04-.1,.11,0,.04,.01,.08,.04,.1,.03,.02,.07,.04,.13,.04,.1,0,.22-.01,.33-.03,.12-.01,.24-.03,.37-.03,.15,0,.31,.02,.49,.04,.18,.02,.38,.04,.6,.04,.62,0,1.13-.14,1.54-.4,.41-.26,.7-.64,.88-1.12h0c.06-.16,.11-.34,.14-.54,.03-.19,.05-.39,.05-.61m-.9,.59c-.03,.2-.07,.38-.13,.55h0c-.14,.4-.35,.71-.62,.93-.27,.22-.6,.33-.98,.33-.25,0-.4-.05-.49-.18-.09-.13-.11-.32-.11-.61v-.23s0-.23,0-.23v-1.57s0-1.57,0-1.57c0-.16,.02-.28,.11-.36,.09-.08,.25-.12,.54-.12,.52,0,.95,.26,1.25,.69,.3,.43,.48,1.04,.47,1.75,0,.22-.02,.43-.05,.63m-4.13,1.84c-.06-.02-.13-.04-.21-.1-.11-.07-.18-.16-.24-.29-.06-.12-.11-.28-.17-.47l-.07-.22-.07-.22-.56-1.77-.56-1.77c-.04-.12-.06-.22-.08-.29-.03-.07-.06-.11-.12-.11-.05,0-.07,.02-.09,.05-.02,.03-.03,.08-.05,.15l-.58,1.87-.58,1.87-.09,.29-.09,.29c-.05,.15-.08,.28-.13,.38-.05,.1-.1,.18-.17,.24-.08,.06-.19,.07-.27,.08-.08,.01-.15,.03-.15,.12,0,.03,.01,.06,.04,.08,.03,.02,.06,.03,.11,.03,.06,0,.14-.01,.23-.02,.09-.01,.2-.02,.32-.02,.18,0,.33,.01,.46,.03,.12,.01,.21,.03,.27,.03,.05,0,.08,0,.11-.02,.02-.02,.04-.04,.04-.08,0-.06-.03-.1-.08-.13-.06-.03-.14-.04-.25-.06-.08-.01-.13-.03-.17-.06s-.05-.08-.05-.17c0-.05,.01-.13,.03-.24,.02-.11,.05-.24,.09-.41l.05-.18,.05-.18,.05-.19,.05-.19s.02-.04,.04-.05c.02-.01,.04-.02,.06-.02h.52s.52,0,.52,0c.03,0,.06,0,.08,.01,.02,0,.04,.03,.04,.06l.06,.2,.06,.2,.1,.34,.1,.34c.03,.09,.04,.16,.06,.23,.01,.06,.02,.11,.02,.15,0,.07-.02,.12-.07,.16-.05,.03-.14,.04-.27,.04-.05,0-.09,.01-.12,.04-.03,.02-.05,.06-.05,.1s.01,.06,.03,.08c.02,.02,.06,.02,.11,.02,.05,0,.15-.01,.3-.02,.14-.01,.33-.02,.57-.02,.17,0,.31,.01,.42,.03,.12,.01,.21,.03,.28,.03,.06,0,.11,0,.14-.02,.03-.02,.04-.05,.04-.09,0-.05-.04-.07-.1-.09m-1.85-2.1s-.03,.02-.05,.02h-.42s-.42,0-.42,0c-.02,0-.03,0-.04-.02-.01,0-.02-.02-.02-.03,0,0,0-.02,0-.03,0-.01,0-.03,0-.05l.2-.74,.2-.74s.01-.04,.02-.05c0-.01,.02-.02,.03-.02,0,0,.02,0,.03,.02,0,.01,.02,.03,.03,.06l.22,.73,.22,.73s0,.03,.01,.04c0,.01,0,.03,0,.04,0,.02-.01,.03-.03,.05m-10.53-4.09h0l1.35-.84,1.35-.84c.11-.07,.18-.12,.22-.17,.03-.05,.03-.11,.01-.19-.03-.11-.09-.19-.12-.25-.03-.07-.03-.12,.04-.16,.03-.02,.06-.02,.09-.02,.03,0,.06,.03,.08,.06,.02,.04,.05,.12,.11,.24,.06,.12,.14,.29,.27,.49,.13,.2,.24,.35,.32,.46,.09,.11,.15,.17,.17,.21,.02,.03,.03,.07,.02,.09,0,.03-.02,.06-.05,.07-.06,.04-.1,.02-.15-.03-.04-.05-.09-.13-.16-.2-.07-.08-.13-.11-.2-.1-.07,0-.14,.05-.26,.12l-.84,.52-.84,.52-.79,.49-.79,.49c-.15,.09-.24,.15-.29,.22-.05,.06-.05,.13-.02,.24,.03,.1,.08,.17,.1,.24,.03,.06,.03,.12-.05,.16-.03,.02-.06,.02-.09,0-.03-.01-.07-.05-.1-.1-.03-.04-.06-.13-.12-.24-.06-.12-.14-.27-.26-.46-.12-.18-.22-.32-.3-.43-.08-.11-.14-.18-.17-.22-.03-.05-.04-.09-.04-.13,0-.04,.03-.07,.06-.09,.07-.04,.11-.02,.15,.03,.04,.05,.08,.12,.14,.17,.1,.1,.17,.13,.25,.12,.08-.01,.18-.07,.33-.16l.28-.17,.28-.17Zm7.37,2.07c-.19-.63-.65-1.17-1.36-1.52-.27-.13-.52-.25-.75-.34-.22-.09-.42-.16-.58-.21h0c-.17-.04-.3-.06-.4-.07-.1,0-.17,.02-.2,.06h0s0,0,0,0c0,0,0,0,0,0-.02,.03-.02,.07-.02,.09,0,.03,.02,.05,.04,.06,.04,.02,.1,.03,.15,.03,.05,0,.11,.01,.17,.04,.06,.03,.09,.07,.1,.12,0,.05-.02,.12-.06,.2l-.86,1.75-.86,1.75c-.08,.16-.13,.26-.19,.31-.06,.05-.14,.06-.27,.03-.08-.02-.15-.06-.21-.07-.06-.02-.11-.01-.14,.06-.02,.04-.02,.07,0,.11,.02,.03,.05,.06,.1,.09,.09,.05,.2,.08,.31,.12,.11,.04,.23,.08,.35,.14,.01,0,.02,.01,.03,.02,.01,0,.02,.01,.03,.02h0c.12,.06,.25,.15,.4,.24,.14,.09,.3,.19,.48,.28,.61,.3,1.18,.39,1.69,.3,.51-.09,.97-.37,1.34-.81,.09-.1,.17-.22,.25-.34,.08-.12,.15-.25,.22-.4,.35-.73,.43-1.45,.24-2.08m-.99,1.67c-.12,.25-.26,.47-.4,.66-.14,.19-.3,.35-.46,.49h0c-.28,.23-.58,.38-.88,.42-.31,.05-.62,0-.92-.15-.08-.04-.15-.08-.21-.13-.05-.05-.09-.09-.12-.15h0c-.04-.08-.05-.18-.02-.29,.02-.12,.08-.25,.16-.41l.79-1.62,.79-1.62c.07-.15,.14-.25,.25-.28,.11-.03,.28,0,.53,.13,.46,.23,.74,.65,.82,1.17,.08,.52-.03,1.15-.34,1.78m-8.89-7.8h0c.03-.15,.09-.27,.17-.36,.08-.09,.19-.15,.32-.18,.09-.02,.19-.03,.27-.04,.09-.01,.17-.02,.25-.04,.06-.01,.11-.02,.15-.03,.04,0,.06-.02,.07-.02,.09-.02,.15-.02,.2,0,.05,.01,.07,.04,.08,.08,.02,.07-.05,.11-.15,.15-.1,.04-.24,.08-.39,.15-.08,.04-.15,.09-.22,.14-.07,.05-.13,.1-.18,.16h0c-.12,.13-.21,.27-.26,.42-.05,.15-.06,.3-.03,.44,.05,.25,.2,.45,.4,.58,.21,.13,.47,.18,.76,.12,.25-.05,.46-.17,.63-.37,.17-.2,.31-.47,.43-.81,.02-.07,.04-.13,.06-.19,.02-.06,.04-.12,.06-.18h0c.1-.28,.21-.52,.39-.71s.44-.33,.84-.41c.42-.08,.79-.01,1.09,.18,.3,.19,.52,.52,.61,.95h0s0,.02,0,.03c0,0,0,.02,0,.03,.04,.23,.05,.45,.03,.63-.02,.18-.06,.31-.1,.35-.02,.03-.11,.06-.25,.1-.15,.04-.36,.09-.63,.14-.06,.01-.1,0-.13,0-.03-.01-.05-.04-.06-.07-.01-.06,.02-.1,.09-.14,.07-.05,.17-.1,.3-.18,.2-.13,.35-.25,.45-.38,.09-.13,.12-.29,.09-.48,0,0,0,0,0-.01,0,0,0,0,0-.01h0c-.05-.23-.17-.41-.34-.51-.17-.1-.4-.14-.65-.09-.17,.03-.3,.1-.41,.2s-.19,.24-.27,.41h0s-.04,.1-.06,.16c-.02,.06-.04,.12-.06,.18-.15,.48-.3,.87-.53,1.16-.23,.29-.55,.47-1.01,.56-.48,.09-.93,0-1.28-.22-.35-.22-.61-.59-.69-1.05-.03-.16-.05-.3-.05-.44,0-.14,0-.26,.03-.37h0Zm5.38-3.91s0-.09,0-.14h0c0-.15-.02-.3-.02-.45,0-.15-.02-.31-.02-.46,0-.15,0-.27,.02-.36,0-.09,.02-.16,.02-.19,0-.07,0-.13-.02-.17-.02-.04-.05-.06-.1-.06-.08,0-.11,.04-.12,.12,0,.07,0,.17-.03,.28-.03,.08-.05,.13-.11,.15-.06,.02-.14,.03-.27,.03h-1.92s-1.92,0-1.92,0c-.18,0-.29,0-.37-.03-.07-.03-.11-.1-.15-.23-.02-.08-.02-.16-.03-.22-.01-.06-.04-.1-.11-.1-.04,0-.08,.01-.1,.04-.02,.03-.04,.07-.04,.13,0,.05,.01,.14,.02,.27,.01,.13,.02,.31,.02,.52,0,.2-.01,.36-.02,.48-.01,.12-.02,.21-.03,.26,0,0,0,0,0,.01h0c0,.06,.01,.1,.03,.13,.02,.03,.05,.05,.08,.05,.05,0,.09-.01,.11-.04,.02-.03,.03-.08,.03-.14h0c0-.19,.05-.28,.14-.32,.09-.05,.22-.05,.38-.05h.82s.83,0,.83,0c.03,0,.06,.01,.08,.03,.02,.02,.03,.05,.03,.08v.08s0,.06,0,.09c0,.03,0,.05-.01,.08h0c-.02,.07-.05,.12-.11,.17-.06,.05-.14,.09-.25,.13l-.95,.38-.95,.38c-.09,.04-.16,.06-.21,.09-.05,.03-.07,.08-.07,.16,0,.06,0,.12,.01,.18,0,.06,.01,.12,.01,.18,0,.1,0,.19-.01,.27,0,.09-.01,.17-.01,.24,0,.05,0,.09,.01,.11,.01,.02,.03,.03,.07,.03,.06,0,.09-.04,.12-.11,.02-.07,.04-.15,.08-.25,.02-.05,.09-.1,.22-.17,.12-.06,.3-.13,.53-.23l.58-.24,.58-.24c.11-.05,.21-.09,.3-.14,.09-.05,.17-.12,.23-.2,.06,.28,.22,.5,.44,.66s.51,.24,.85,.24c.39,0,.71-.12,.94-.35,.23-.23,.36-.57,.36-1.02,0-.05,0-.09,0-.14m-.58,.54c-.2,.14-.48,.21-.83,.21s-.61-.08-.79-.22c-.18-.15-.27-.36-.27-.65h0v-.02h0c0-.14,0-.23,.03-.28,.03-.06,.07-.08,.16-.08h.8s.8,0,.8,0c.13,0,.23,0,.3,.06,.07,.05,.11,.14,.12,.31h0s0,.02,0,.03,0,.02,0,.03c0,.27-.11,.48-.31,.62m-4.66-5.56h0s0-.06,0-.09c0-.03,0-.06,0-.09,0-.25-.01-.44-.02-.57-.01-.13-.02-.22-.02-.25,0-.06,.01-.11,.03-.14s.06-.04,.1-.04c.08,0,.1,.04,.11,.1,.01,.06,0,.15,.02,.26,.02,.12,.06,.18,.15,.22,.08,.03,.21,.04,.37,.04h1.92s1.92,0,1.92,0c.13,0,.21,0,.27-.02,.06-.02,.09-.06,.12-.14,.03-.09,.03-.18,.04-.25,0-.07,.03-.11,.12-.11,.04,0,.07,.01,.09,.04,.02,.02,.03,.06,.03,.11,0,.03,0,.12-.01,.28,0,.16-.02,.38-.02,.67h0s0,.1,0,.15c0,.05,0,.1,0,.16,0,.49,0,.87,.01,1.15,0,.27,.02,.44,.02,.49,0,.11-.02,.17-.06,.2-.04,.03-.1,.03-.19,.03h-.39s-.36,0-.36,0c-.07,0-.12,0-.16-.02-.03-.01-.05-.04-.05-.07,0-.08,.09-.1,.21-.15,.12-.05,.28-.11,.42-.26,.1-.11,.18-.25,.24-.42,.05-.17,.08-.37,.08-.6,0-.22-.03-.34-.11-.4-.08-.06-.21-.07-.4-.07h-.69s-.69,0-.69,0c-.07,0-.11,0-.14,.02-.02,.02-.03,.06-.03,.13v.38c0,.17,.02,.33,.05,.45,.03,.12,.07,.21,.1,.25,.11,.11,.24,.14,.34,.17s.17,.04,.17,.13c0,.04,0,.06-.03,.08-.02,.02-.05,.02-.09,.02-.11,0-.23-.01-.37-.02-.14-.01-.29-.02-.46-.02-.2,0-.36,0-.48,.01-.12,0-.2,.01-.24,.01-.05,0-.09-.01-.11-.03-.02-.02-.04-.04-.04-.07,0-.07,.07-.1,.17-.13,.11-.03,.25-.07,.42-.15,.13-.07,.19-.15,.23-.27,.04-.12,.04-.26,.04-.43v-.18s0-.18,0-.18c0-.06,0-.1-.03-.12-.02-.02-.06-.03-.12-.03h-.86s-.86,0-.86,0c-.23,0-.36,.03-.44,.12s-.1,.24-.1,.49c0,.26,.02,.46,.08,.63,.07,.17,.19,.3,.39,.43,.15,.1,.3,.17,.4,.23,.11,.06,.17,.11,.17,.17,0,.02-.01,.04-.03,.06-.02,.02-.03,.03-.05,.03,0,0-.01,0-.04,0-.03,0-.06,0-.11-.01l-.41-.05-.41-.05c-.13-.01-.2-.02-.24-.05-.04-.03-.05-.09-.05-.21,0-.16,.02-.41,.03-.74,.02-.33,.03-.74,.04-1.23h0Zm5.06-4.06c-.07-.03-.07-.14-.09-.24-.02-.1-.06-.18-.21-.18-.04,0-.09,0-.15,.02-.06,.01-.13,.03-.2,.06l-.5,.17-.5,.17-.85,.29-.85,.29c-.06,.02-.11,.04-.14,.05-.03,.02-.05,.03-.05,.05,0,.02,.02,.03,.05,.05,.03,.02,.08,.03,.14,.05l1.22,.36,1.22,.36c.13,.04,.24,.07,.33,.08,.09,.02,.16,.03,.21,.03,.21,0,.26-.12,.28-.25,.02-.12,.02-.25,.14-.25,.03,0,.06,.01,.08,.04,.02,.03,.03,.07,.03,.12,0,.04-.01,.11-.03,.21-.01,.1-.03,.22-.03,.38,0,.17,0,.31,.02,.4,0,.1,.02,.15,.02,.18,0,.05,0,.09-.03,.12-.02,.03-.05,.04-.08,.04-.08,0-.1-.05-.11-.12,0-.07,0-.15-.04-.22-.03-.07-.09-.12-.16-.16-.07-.04-.17-.08-.28-.12l-2.24-.74-2.24-.74c-.05-.02-.09-.03-.11-.05-.03-.02-.04-.04-.04-.06,0-.04,.04-.06,.11-.09,.07-.03,.17-.05,.27-.09l.34-.12,.34-.12,1.62-.55,1.62-.56c.21-.07,.38-.13,.51-.18,.13-.06,.21-.12,.26-.2,.03-.06,.03-.14,.04-.21,.01-.07,.03-.12,.09-.12,.04,0,.07,.01,.09,.03,.02,.02,.03,.06,.03,.1,0,.02-.01,.12-.03,.29-.01,.17-.03,.42-.03,.75,0,.13,.01,.24,.02,.33,.01,.09,.02,.16,.02,.21,0,.03,0,.06-.01,.07,0,.02-.02,.03-.04,.04,0,0-.01,0-.02,0,0,0-.02,0-.03,0-.01,0-.02,0-.03,0,0,0-.02,0-.02,0m-.03-4.06h0s.02-.03,.04-.04c.02-.01,.04-.02,.07-.02,.02,0,.05,0,.06,.02,.02,.01,.03,.03,.04,.05h0s0,.02,0,.03c0,.01,0,.02,0,.03,0,.04-.02,.13-.03,.27-.02,.14-.03,.32-.03,.56,0,.24,.02,.42,.03,.56s.03,.22,.03,.27c0,.04-.01,.07-.03,.09-.02,.02-.05,.03-.08,.03-.08,0-.1-.04-.11-.1-.01-.06,0-.15-.03-.26-.02-.1-.05-.16-.11-.19-.06-.03-.15-.03-.28-.03h-1.92s-1.92,0-1.92,0c-.18,0-.29,0-.36,.03-.07,.03-.11,.09-.14,.2-.03,.1-.03,.19-.04,.26-.01,.07-.04,.11-.13,.11-.03,0-.06-.02-.08-.04-.02-.03-.03-.07-.03-.13,0-.05,.01-.14,.03-.27,.01-.13,.03-.31,.03-.52,0-.22-.01-.39-.02-.52-.01-.13-.02-.22-.02-.27,0-.02,0-.04,0-.05,0-.02,0-.03,.01-.04h0s.03-.05,.05-.06c.02-.01,.04-.02,.07-.02,.03,0,.06,0,.07,.02,.02,.01,.03,.03,.03,.05h0s.01,.07,.02,.12c0,.04,0,.09,.02,.14,.03,.13,.07,.2,.15,.24,.07,.03,.19,.03,.37,.03h1.92s1.92,0,1.92,0c.13,0,.22,0,.27-.03,.06-.03,.09-.07,.11-.16,.02-.07,.02-.14,.03-.19,0-.06,0-.1,.02-.14m-4.69-4.88h0c.06,.04,.15,.07,.28,.08,.13,.01,.29,.02,.5,.02h1.74s1.74,0,1.74,0c.1,0,.18,0,.23-.01,.06-.01,.09-.04,.12-.08h0s.01-.02,.02-.03c0-.01,.01-.03,.02-.04,.03-.1,.03-.2,.04-.27,.01-.07,.03-.12,.11-.12,.04,0,.07,.01,.09,.03,.02,.02,.03,.05,.03,.09v.17s0,.17,0,.17v.37s0,.37,0,.37c0,.04,0,.06-.01,.08-.01,.02-.03,.04-.07,.06l-1.82,1.12-1.82,1.12s0,.03,.02,.04c.02,0,.04,.01,.06,.01h1.15s1.15,0,1.15,0c.12,0,.21,0,.28,0,.07,0,.12,0,.15,0,.3,0,.47,0,.57-.07,.09-.06,.11-.19,.11-.42,0-.04,.01-.08,.03-.11,.02-.03,.05-.04,.08-.04,.04,0,.07,.02,.09,.06,.02,.04,.03,.09,.03,.16,0,.08,0,.16-.01,.25,0,.1-.01,.2-.01,.32s0,.22,.01,.3c0,.09,.01,.16,.01,.22s-.01,.1-.03,.14c-.02,.03-.05,.05-.09,.05-.05,0-.07,0-.09-.03-.02-.02-.02-.06-.02-.11v-.08c0-.15-.07-.23-.21-.27-.14-.04-.36-.05-.67-.05h-2.09s-2.09,0-2.09,0c-.05,0-.11-.02-.15-.04-.04-.02-.06-.05-.06-.09,0-.03,.01-.06,.04-.08,.02-.03,.06-.05,.1-.08l2.25-1.37,2.25-1.37s0-.03-.02-.04c-.02,0-.04-.01-.06-.01h-1.63s-1.63,0-1.63,0c-.31,0-.52,0-.64,.06-.12,.05-.17,.14-.17,.31,0,.03,0,.05,0,.08,0,.03,0,.05,0,.07,0,.03-.01,.06-.04,.08-.02,.02-.06,.03-.1,.03-.04,0-.07-.02-.09-.05-.02-.04-.03-.09-.03-.16,0-.08,0-.16,.02-.26,0-.1,.02-.2,.02-.32,0-.04,0-.08,0-.12,0-.04,0-.08,0-.11,0-.06-.01-.11-.01-.16,0-.05,0-.1,0-.15,0-.07,.01-.12,.03-.15,.02-.03,.05-.05,.09-.05,.05,0,.08,.01,.1,.04,.02,.03,.03,.06,.03,.12v.08c0,.06,0,.12,.03,.16,.02,.04,.05,.08,.08,.11m4.27-4.27h-1.46s-1.46,0-1.46,0c-.51,0-.9,.05-1.16,.21-.26,.16-.4,.43-.4,.88,0,.22,.04,.42,.11,.58,.08,.16,.19,.3,.33,.4,.15,.1,.33,.15,.54,.18,.21,.03,.46,.03,.74,.03h1.01s1.01,0,1.01,0c.32,0,.56,0,.74-.02,.18-.02,.29-.06,.35-.13,.06-.08,.06-.19,.07-.28,0-.09,.03-.17,.12-.17,.04,0,.07,.01,.09,.04,.02,.02,.03,.06,.03,.1,0,.05,0,.12-.01,.22,0,.09-.01,.21-.01,.35,0,.15,0,.27,.01,.37,0,.1,.01,.17,.01,.21,0,.06,0,.1-.03,.13-.02,.03-.05,.04-.09,.04-.05,0-.08-.02-.1-.06-.02-.04-.02-.1-.02-.18,0-.18-.07-.27-.25-.32-.18-.05-.46-.05-.88-.05h-1.03s-1.03,0-1.03,0c-.29,0-.54,0-.77-.03-.23-.03-.43-.09-.62-.2-.2-.12-.36-.29-.47-.52-.11-.23-.16-.51-.16-.83,0-.36,.05-.65,.15-.9,.1-.24,.25-.43,.46-.58,.16-.11,.35-.17,.55-.2,.2-.03,.43-.04,.69-.04h1.47s1.47,0,1.47,0c.14,0,.22,0,.28-.03,.06-.02,.08-.07,.11-.16,.03-.11,.03-.21,.04-.27,0-.07,.03-.11,.11-.11,.03,0,.06,.01,.08,.03,.02,.02,.03,.05,.03,.09,0,.04-.02,.13-.03,.27-.02,.14-.03,.32-.03,.56,0,.24,.02,.42,.03,.56,.02,.14,.03,.23,.03,.27s-.01,.07-.03,.09c-.02,.02-.05,.03-.08,.03-.09,0-.11-.05-.12-.12,0-.07,0-.17-.03-.27-.03-.08-.05-.13-.11-.15-.06-.03-.14-.03-.27-.03" style="fill: #043778;"/>
        <rect x="108.39" y="196.79" width="264.46" height=".81" style="fill: #043778;"/>
        <g>
          <path d="M120.42,174.61l-.06,5.94v2.04c-.04,2.54-.12,3.7-1.18,4.82-1.48,1.56-3.68,1.56-4.4,1.56-2.68,0-4.22-1-4.98-2.08-.7-.96-.82-2.04-.88-4.2v-1.48c-.02-3.12-.02-3.68-.1-6.54l.12-.12c1.36,.02,1.82,.02,3.52-.06l.1,.12c-.04,1.98-.06,3.52-.06,5.14,0,1.06,0,2.12,.04,3.18,.04,1.26,.16,1.96,.46,2.48,.44,.7,1.22,1.06,2.04,1.06,.66,0,1.32-.22,1.76-.72,.54-.64,.6-1.6,.6-3.7,0-2.46-.1-4.92-.2-7.38l.12-.12c1.14,.02,1.54,.02,3-.06l.1,.12Z" style="fill: #043778;"/>
          <path d="M132.34,188.65c-1.6,0-1.94,.02-3.26,.06l-.12-.12c0-.68,.02-1.38,.02-2.06,0-.76-.02-3.5-.06-4.16-.06-.72-.16-1.9-1.26-1.9-.64,0-1.12,.34-1.54,.62,.02,3.58,.04,4.36,.16,7.44l-.12,.12c-1.6,0-1.9,0-3.34,.06l-.12-.12c.02-1.28,.04-2.56,.04-3.84,0-3.26-.12-4.52-.28-6.26l.12-.14c1.5-.2,1.84-.26,3.38-.58l.2,.14-.04,1.1c.92-.54,1.98-1.18,3.2-1.18,.72,0,1.86,.16,2.48,1.2,.5,.82,.52,1.74,.54,3.66v1.56c.04,1.96,.04,2.52,.14,4.28l-.14,.12Z" style="fill: #043778;"/>
          <path d="M138.24,188.67c-1.62-.02-2.02,0-3.46,.06l-.12-.14c.06-1.64,.12-2.86,.12-5.04,0-2.84-.06-3.54-.22-5.06l.12-.12,3.44-.6,.14,.16c-.02,1.7-.06,3.42-.06,5.12,0,2.76,.08,3.94,.18,5.48l-.14,.14Zm-.28-12.68c-1.42,.18-1.8,.22-3.16,.46l-.14-.12c.02-.38,.02-.78,.02-1.16,0-.48-.02-.9-.06-1.62l.12-.14,3.26-.4,.12,.12-.06,2.72-.1,.14Z" style="fill: #043778;"/>
          <path d="M146,188.67c-1.44-.02-1.96,0-3.26,.06l-.14-.14c-.44-1.64-.66-2.38-3.32-10.26l.08-.16c1.52-.02,1.92-.04,3.5-.22l.14,.12c.28,1.32,.36,1.7,.86,3.56l.38,1.54,.5,2.16,1.02-3.94c.4-1.56,.46-1.84,.74-3.18l.14-.14,2.8-.06,.1,.14c-.56,1.64-1.44,4.24-1.98,5.86-.42,1.26-.8,2.5-1.44,4.5l-.12,.16Z" style="fill: #043778;"/>
          <path d="M159.62,185.77l-.14,2.26-.12,.16c-1.06,.42-1.78,.72-3.44,.72-1.44,0-4.16-.24-5.32-2.94-.32-.7-.48-1.68-.48-2.62,0-3.46,2.08-5.52,5.22-5.52,.46,0,.92,.04,1.42,.18,.68,.16,2.22,.64,2.92,3,.28,1,.3,2,.32,2.98l-.12,.14-6.46,.12c.08,.4,.14,.8,.44,1.22,.48,.72,1.3,1.1,2.5,1.1,1.46,0,2.36-.46,3.12-.86l.14,.06Zm-2.86-3.72c0-.46-.02-.94-.3-1.38-.22-.36-.62-.7-1.28-.7-.28,0-.56,.06-.8,.22-.76,.48-.9,1.32-.96,1.94l3.34-.08Z" style="fill: #043778;"/>
          <path d="M167.44,181.33c-.28-.16-.48-.28-.82-.28-1.36,0-1.36,1.32-1.36,2.22,0,1.38,.12,3.64,.2,5.26l-.1,.14c-1.6-.02-1.92,0-3.4,.06l-.12-.12c.04-1.66,.06-3.3,.06-4.94,0-2.78-.06-3.68-.18-5.18l.12-.12c1.46-.22,1.84-.28,3.32-.6l.16,.16-.06,1.84c.64-1.48,1.56-1.94,2.38-1.94,.14,0,.28,.02,.42,.02l.12,.14-.56,3.26-.18,.08Z" style="fill: #043778;"/>
          <path d="M174.52,182.13c1.1,.42,2.64,1,2.64,3.2,0,.14,0,.28-.02,.44-.36,2.86-3.36,3.14-4.88,3.14s-2.3-.32-3.28-.68l-.1-.18c.08-1,.1-1.22,.14-2.26l.18-.08c.3,.24,.46,.38,.8,.56,.74,.38,1.56,.56,2.12,.56,1.12,0,1.58-.54,1.58-1.04,0-.72-.88-1.02-1.42-1.2l-.76-.28c-.94-.36-2.6-1-2.6-3.14,0-.8,.28-1.4,.54-1.76,1.04-1.5,3-1.58,3.98-1.58,1.3,0,2.12,.24,3.06,.5l.1,.12-.2,2.18-.18,.06c-.5-.32-1.28-.84-2.5-.84s-1.4,.66-1.4,.9c0,.56,.54,.78,1.22,1.02l.98,.36Z" style="fill: #043778;"/>
          <path d="M182.4,188.67c-1.62-.02-2.02,0-3.46,.06l-.12-.14c.06-1.64,.12-2.86,.12-5.04,0-2.84-.06-3.54-.22-5.06l.12-.12,3.44-.6,.14,.16c-.02,1.7-.06,3.42-.06,5.12,0,2.76,.08,3.94,.18,5.48l-.14,.14Zm-.28-12.68c-1.42,.18-1.8,.22-3.16,.46l-.14-.12c.02-.38,.02-.78,.02-1.16,0-.48-.02-.9-.06-1.62l.12-.14,3.26-.4,.12,.12-.06,2.72-.1,.14Z" style="fill: #043778;"/>
          <path d="M194.46,188.67c-1.5,0-1.88,0-3.26,.06l-.1-.12,.04-.78c-.48,.42-1.22,1.08-2.64,1.08-.66,0-1.74-.16-2.62-.88-1.18-.98-1.6-2.54-1.6-4.1,0-2.06,.58-3.72,1.98-4.8,1.52-1.2,3.4-1.16,4.9-1.12,.02-2.28,0-2.78-.12-4.66l.1-.12,3.3-.52,.14,.12c-.08,2.64-.16,4.82-.16,10.1,0,2.62,.06,3.82,.14,5.62l-.1,.12Zm-3.98-8.32c-2.24,0-2.68,1.72-2.68,3.26,0,.4,0,2.88,1.94,2.88,.56,0,.96-.24,1.36-.48,.06-2.42,.08-2.94,.06-5.6-.28-.04-.46-.06-.68-.06Z" style="fill: #043778;"/>
          <path d="M205.72,184.19c0,1.88,0,2.38,.14,4.34l-.1,.14c-1.3-.02-1.74,0-3.18,.06l-.12-.14v-.74c-.42,.34-1.28,1.06-2.78,1.06-1.96,0-3.5-1.38-3.5-3.52,0-.9,.38-2.04,1.5-2.74,1.2-.74,2.32-.96,4.72-1.28,0-.3-.06-.66-.26-.86-.26-.26-.56-.38-1.3-.38-1.34,0-2.64,.52-3.34,.8l-.16-.08,.1-2.18,.12-.16c1.14-.34,2.2-.66,3.92-.66,2.56,0,3.36,.8,3.76,1.44,.52,.84,.52,1.62,.5,3.42l-.02,1.48Zm-3.28-.72c-1.36,.18-2.94,.4-2.94,1.72,0,.84,.6,1.22,1.32,1.22,.66,0,1.2-.28,1.62-.52v-2.42Z" style="fill: #043778;"/>
          <path d="M217.78,188.67c-1.5,0-1.88,0-3.26,.06l-.1-.12,.04-.78c-.48,.42-1.22,1.08-2.64,1.08-.66,0-1.74-.16-2.62-.88-1.18-.98-1.6-2.54-1.6-4.1,0-2.06,.58-3.72,1.98-4.8,1.52-1.2,3.4-1.16,4.9-1.12,.02-2.28,0-2.78-.12-4.66l.1-.12,3.3-.52,.14,.12c-.08,2.64-.16,4.82-.16,10.1,0,2.62,.06,3.82,.14,5.62l-.1,.12Zm-3.98-8.32c-2.24,0-2.68,1.72-2.68,3.26,0,.4,0,2.88,1.94,2.88,.56,0,.96-.24,1.36-.48,.06-2.42,.08-2.94,.06-5.6-.28-.04-.46-.06-.68-.06Z" style="fill: #043778;"/>
          <path d="M234.22,174.61c1.14,4.4,1.42,5.34,3.84,13.9l-.1,.16c-1.62-.02-2.02,0-3.48,.06l-.14-.12-.86-3.7h-4.32l-.98,3.64-.14,.12h-3.12l-.08-.14c2.94-8.44,3.58-10.46,4.64-13.86l.14-.12c2.14,0,2.54,0,4.46-.06l.14,.12Zm-1.32,7.88l-.74-3.12-.6-2.6-.7,2.34-1,3.38h3.04Z" style="fill: #043778;"/>
          <path d="M249.08,178.13c-.04,1.88-.06,3.76-.06,5.64,0,2.6,.04,3.36,.14,4.78l-.12,.12c-1.3,0-1.74,0-3.2,.06l-.14-.12,.02-.9c-.72,.56-1.54,1.2-2.96,1.2-1,0-1.96-.32-2.62-1.06-.72-.84-.82-1.76-.8-3.94v-1.4c0-2.02-.02-2.58-.14-4.26l.14-.12,3.3-.16,.14,.16-.04,4.04c-.02,.5-.02,1.02-.02,1.52,0,1.18,0,2.7,1.44,2.7,.54,0,.96-.3,1.5-.66,.02-.8,.02-1.12,.02-1.7,0-.32,0-3.52-.14-5.78l.14-.12,3.26-.16,.14,.16Z" style="fill: #043778;"/>
          <path d="M256.6,182.13c1.1,.42,2.64,1,2.64,3.2,0,.14,0,.28-.02,.44-.36,2.86-3.36,3.14-4.88,3.14s-2.3-.32-3.28-.68l-.1-.18c.08-1,.1-1.22,.14-2.26l.18-.08c.3,.24,.46,.38,.8,.56,.74,.38,1.56,.56,2.12,.56,1.12,0,1.58-.54,1.58-1.04,0-.72-.88-1.02-1.42-1.2l-.76-.28c-.94-.36-2.6-1-2.6-3.14,0-.8,.28-1.4,.54-1.76,1.04-1.5,3-1.58,3.98-1.58,1.3,0,2.12,.24,3.06,.5l.1,.12-.2,2.18-.18,.06c-.5-.32-1.28-.84-2.5-.84s-1.4,.66-1.4,.9c0,.56,.54,.78,1.22,1.02l.98,.36Z" style="fill: #043778;"/>
          <path d="M266.76,186.45l-.2,2.06-.14,.14c-.7,.12-1.32,.24-2.1,.24-3.12,0-3.16-1.98-3.16-3.82,0-.52,.02-1.02,.04-1.52l.06-3.18-1.26,.04-.12-.12,.18-2.14,.12-.1,1.08,.04-.02-2.5,.08-.14c1.42-.36,1.78-.46,3.14-.86l.14,.12-.06,3.36h2l.12,.12-.2,2.14-.12,.12-1.8-.08-.04,2.82c-.02,.8-.02,1.9,.04,2.42,.04,.3,.12,.94,1.14,.94,.34,0,.58-.08,.92-.18l.16,.08Z" style="fill: #043778;"/>
          <path d="M273.68,181.33c-.28-.16-.48-.28-.82-.28-1.36,0-1.36,1.32-1.36,2.22,0,1.38,.12,3.64,.2,5.26l-.1,.14c-1.6-.02-1.92,0-3.4,.06l-.12-.12c.04-1.66,.06-3.3,.06-4.94,0-2.78-.06-3.68-.18-5.18l.12-.12c1.46-.22,1.84-.28,3.32-.6l.16,.16-.06,1.84c.64-1.48,1.56-1.94,2.38-1.94,.14,0,.28,.02,.42,.02l.12,.14-.56,3.26-.18,.08Z" style="fill: #043778;"/>
          <path d="M284.46,184.19c0,1.88,0,2.38,.14,4.34l-.1,.14c-1.3-.02-1.74,0-3.18,.06l-.12-.14v-.74c-.42,.34-1.28,1.06-2.78,1.06-1.96,0-3.5-1.38-3.5-3.52,0-.9,.38-2.04,1.5-2.74,1.2-.74,2.32-.96,4.72-1.28,0-.3-.06-.66-.26-.86-.26-.26-.56-.38-1.3-.38-1.34,0-2.64,.52-3.34,.8l-.16-.08,.1-2.18,.12-.16c1.14-.34,2.2-.66,3.92-.66,2.56,0,3.36,.8,3.76,1.44,.52,.84,.52,1.62,.5,3.42l-.02,1.48Zm-3.28-.72c-1.36,.18-2.94,.4-2.94,1.72,0,.84,.6,1.22,1.32,1.22,.66,0,1.2-.28,1.62-.52v-2.42Z" style="fill: #043778;"/>
          <path d="M290.22,188.67c-1.46-.02-2,0-3.34,.06l-.12-.14c.08-1.98,.12-3.18,.12-5.34,0-1.18,0-2.36-.02-3.54-.04-3.24-.06-3.9-.26-6.34l.08-.12,3.42-.54,.14,.14c-.08,2.16-.1,3.06-.1,4.96,0,6.32,.1,8.42,.2,10.72l-.12,.14Z" style="fill: #043778;"/>
          <path d="M308.2,188.67c-1.5,0-1.88,0-3.26,.06l-.1-.12,.04-.78c-.48,.42-1.22,1.08-2.64,1.08-.66,0-1.74-.16-2.62-.88-1.18-.98-1.6-2.54-1.6-4.1,0-2.06,.58-3.72,1.98-4.8,1.52-1.2,3.4-1.16,4.9-1.12,.02-2.28,0-2.78-.12-4.66l.1-.12,3.3-.52,.14,.12c-.08,2.64-.16,4.82-.16,10.1,0,2.62,.06,3.82,.14,5.62l-.1,.12Zm-3.98-8.32c-2.24,0-2.68,1.72-2.68,3.26,0,.4,0,2.88,1.94,2.88,.56,0,.96-.24,1.36-.48,.06-2.42,.08-2.94,.06-5.6-.28-.04-.46-.06-.68-.06Z" style="fill: #043778;"/>
          <path d="M319.6,185.77l-.14,2.26-.12,.16c-1.06,.42-1.78,.72-3.44,.72-1.44,0-4.16-.24-5.32-2.94-.32-.7-.48-1.68-.48-2.62,0-3.46,2.08-5.52,5.22-5.52,.46,0,.92,.04,1.42,.18,.68,.16,2.22,.64,2.92,3,.28,1,.3,2,.32,2.98l-.12,.14-6.46,.12c.08,.4,.14,.8,.44,1.22,.48,.72,1.3,1.1,2.5,1.1,1.46,0,2.36-.46,3.12-.86l.14,.06Zm-2.86-3.72c0-.46-.02-.94-.3-1.38-.22-.36-.62-.7-1.28-.7-.28,0-.56,.06-.8,.22-.76,.48-.9,1.32-.96,1.94l3.34-.08Z" style="fill: #043778;"/>
          <path d="M338.18,185.17l-.14,2.98-.1,.12c-.64,.26-1.74,.7-3.42,.7-4.88,0-7.22-3.38-7.22-7.22,0-3.5,1.8-7.5,6.98-7.5,1.76,0,2.98,.46,3.7,.74l.08,.1-.18,2.76-.18,.04c-.5-.38-1.32-.96-2.82-.96-3.26,0-3.86,3.02-3.86,4.74,0,2.84,1.6,4.54,3.88,4.54,1.66,0,2.68-.76,3.14-1.12l.14,.08Z" style="fill: #043778;"/>
          <path d="M349.42,188.65c-1.54,0-1.86,0-3.3,.08l-.1-.14c0-.66,.02-1.3,.02-1.96,0-.74-.02-3.58-.06-4.2-.08-.8-.16-1.94-1.26-1.94-.68,0-1.16,.34-1.54,.6,.02,3.54,.04,4.44,.18,7.44l-.12,.12c-1.62,0-1.92,0-3.4,.08l-.1-.14c.04-1.96,.08-3.14,.08-5.12,0-1.62-.02-3.24-.06-4.86-.04-2.58-.08-3.3-.26-5.24l.1-.12,3.42-.54,.12,.14-.06,6.16c.8-.48,1.94-1.18,3.4-1.18,.88,0,1.72,.26,2.3,1.08,.58,.84,.6,1.94,.62,3.84v1.5c.04,2.08,.06,2.64,.14,4.28l-.12,.12Z" style="fill: #043778;"/>
          <path d="M355.3,188.67c-1.62-.02-2.02,0-3.46,.06l-.12-.14c.06-1.64,.12-2.86,.12-5.04,0-2.84-.06-3.54-.22-5.06l.12-.12,3.44-.6,.14,.16c-.02,1.7-.06,3.42-.06,5.12,0,2.76,.08,3.94,.18,5.48l-.14,.14Zm-.28-12.68c-1.42,.18-1.8,.22-3.16,.46l-.14-.12c.02-.38,.02-.78,.02-1.16,0-.48-.02-.9-.06-1.62l.12-.14,3.26-.4,.12,.12-.06,2.72-.1,.14Z" style="fill: #043778;"/>
          <path d="M361.06,188.67c-1.46-.02-2,0-3.34,.06l-.12-.14c.08-1.98,.12-3.18,.12-5.34,0-1.18,0-2.36-.02-3.54-.04-3.24-.06-3.9-.26-6.34l.08-.12,3.42-.54,.14,.14c-.08,2.16-.1,3.06-.1,4.96,0,6.32,.1,8.42,.2,10.72l-.12,.14Z" style="fill: #043778;"/>
          <path d="M372.52,185.77l-.14,2.26-.12,.16c-1.06,.42-1.78,.72-3.44,.72-1.44,0-4.16-.24-5.32-2.94-.32-.7-.48-1.68-.48-2.62,0-3.46,2.08-5.52,5.22-5.52,.46,0,.92,.04,1.42,.18,.68,.16,2.22,.64,2.92,3,.28,1,.3,2,.32,2.98l-.12,.14-6.46,.12c.08,.4,.14,.8,.44,1.22,.48,.72,1.3,1.1,2.5,1.1,1.46,0,2.36-.46,3.12-.86l.14,.06Zm-2.86-3.72c0-.46-.02-.94-.3-1.38-.22-.36-.62-.7-1.28-.7-.28,0-.56,.06-.8,.22-.76,.48-.9,1.32-.96,1.94l3.34-.08Z" style="fill: #043778;"/>
        </g>
        <g>
          <path d="M145.58,203.63c-.06,1.47-.11,3.21-.11,7,0,4.22,.04,6.03,.18,8.29l-.13,.15c-.97,.02-1.28,.02-2.44,.07l-.13-.15c.04-1.34,.09-2.51,.09-5.35,0-3.32,0-6.62-.15-9.92l.11-.18c.97,0,1.32,0,2.44-.07l.15,.15Z" style="fill: #0570b1;"/>
          <path d="M158.84,217.27c-.07,.75-.07,.9-.11,1.65l-.15,.15c-4.29,0-4.97,.02-9.15,.07l-.11-.15c.07-1.74,.13-2.93,.13-6.95,0-3.7,0-5.81-.15-8.34l.13-.15c4.34-.02,5.19-.02,9.24-.07l.13,.15c-.06,.66-.11,.92-.15,1.72l-.13,.15c-2.84-.09-3.79-.09-6.58-.11-.07,2.02-.07,2.66-.07,4.69,2.71,.02,3.54,0,6.23-.04l.11,.15c-.09,.77-.09,.99-.11,1.69l-.13,.15c-2.55-.07-3.1-.07-6.09-.07-.04,2.55-.02,3.17,0,5.26,3.32,0,4,0,6.84-.11l.13,.15Z" style="fill: #0570b1;"/>
          <path d="M171.12,217.27c-.07,.75-.07,.9-.11,1.65l-.15,.15c-4.29,0-4.97,.02-9.15,.07l-.11-.15c.07-1.74,.13-2.93,.13-6.95,0-3.7,0-5.81-.15-8.34l.13-.15c4.34-.02,5.19-.02,9.24-.07l.13,.15c-.06,.66-.11,.92-.15,1.72l-.13,.15c-2.84-.09-3.79-.09-6.58-.11-.07,2.02-.07,2.66-.07,4.69,2.71,.02,3.54,0,6.23-.04l.11,.15c-.09,.77-.09,.99-.11,1.69l-.13,.15c-2.55-.07-3.1-.07-6.09-.07-.04,2.55-.02,3.17,0,5.26,3.32,0,4,0,6.84-.11l.13,.15Z" style="fill: #0570b1;"/>
          <path d="M183.4,217.27c-.07,.75-.07,.9-.11,1.65l-.15,.15c-4.29,0-4.97,.02-9.15,.07l-.11-.15c.07-1.74,.13-2.93,.13-6.95,0-3.7,0-5.81-.15-8.34l.13-.15c4.34-.02,5.19-.02,9.24-.07l.13,.15c-.06,.66-.11,.92-.15,1.72l-.13,.15c-2.84-.09-3.79-.09-6.58-.11-.07,2.02-.07,2.66-.07,4.69,2.71,.02,3.54,0,6.23-.04l.11,.15c-.09,.77-.09,.99-.11,1.69l-.13,.15c-2.55-.07-3.1-.07-6.09-.07-.04,2.55-.02,3.17,0,5.26,3.32,0,4,0,6.84-.11l.13,.15Z" style="fill: #0570b1;"/>
          <path d="M196.51,210.27c1.61,.7,3.74,1.63,3.74,4.44,0,2.46-1.83,4.69-5.65,4.69-2.33,0-3.83-.7-4.36-.97l-.09-.15c.09-.77,.11-1.19,.18-2.02l.22-.09c.55,.37,1.83,1.3,3.87,1.3,2.27,0,3.21-1.17,3.21-2.49,0-1.54-1.28-2.13-2.71-2.68l-1.1-.48c-1.56-.73-3.65-1.67-3.65-4.36,0-.81,.22-1.65,.68-2.31,1.01-1.45,2.84-1.94,4.62-1.94s2.79,.33,3.96,.7l.11,.18c-.09,.84-.11,1.14-.18,1.94l-.18,.09c-.95-.48-1.98-1.01-3.63-1.01-1.83,0-2.97,.86-2.97,2.16,0,.99,.66,1.45,1.12,1.74,.29,.18,.38,.22,1.7,.79l1.1,.48Z" style="fill: #0570b1;"/>
          <path d="M207.7,217.34c-.07,.73-.07,.88-.09,1.52l-.11,.13c-.46,.11-.84,.2-1.65,.2-.53,0-1.91,0-2.6-1.14-.4-.64-.4-1.17-.4-3.76l.04-4.84c-.77,0-.79,.02-1.58,.04l-.09-.13c.04-.7,.04-.88,.04-1.58l.13-.13c.48,0,.77,.02,1.5,0-.02-.46-.02-.95-.02-1.41-.02-.42-.04-.84-.07-1.25l.11-.15c.99-.24,1.23-.31,2.24-.62l.15,.11c-.06,1.45-.09,1.74-.09,3.34,.93-.02,1.19-.02,2.44-.07l.11,.13c-.04,.57-.07,.81-.07,1.56l-.11,.13c-1.1-.02-1.23-.04-2.4-.04l-.04,4.09c.02,.26,.02,1.52,.02,1.83,0,1.61,.2,2.11,1.3,2.11,.46,0,.81-.11,1.05-.2l.15,.13Z" style="fill: #0570b1;"/>
          <path d="M219.28,207.7c-.04,1.67-.07,3.23-.07,5.02,0,2.71,.07,4.33,.11,5.28,0,.31,.02,.62,.04,.92l-.09,.13c-1.06,.02-1.23,.04-2.24,.09l-.13-.13,.02-.92c-.48,.35-1.65,1.25-3.46,1.25-.86,0-1.8-.2-2.51-.75-1.41-1.14-1.41-3.01-1.43-4.73v-1.36c-.04-3.15-.04-3.5-.11-4.69l.11-.15c1.03-.02,1.23-.02,2.27-.11l.13,.15-.09,4.82c0,.59-.02,1.03,0,2.09,.02,.92,.07,2.9,2.29,2.9,1.3,0,2.22-.73,2.75-1.14,.02-1.19,.02-2.2,.02-3.48,0-3.06-.02-3.67-.15-5.11l.13-.15c1.01-.02,1.25-.02,2.27-.09l.13,.15Z" style="fill: #0570b1;"/>
          <path d="M229.75,201.98c1.12-.2,1.34-.24,2.33-.46l.15,.13c-.15,3.06-.18,8.52-.18,10.72,0,3.41,.09,5.04,.18,6.56l-.11,.15c-.97,0-1.23,.02-2.25,.07l-.15-.13,.04-.81c-.53,.4-1.43,1.1-3.04,1.1-2.93,0-4.95-2.31-4.95-5.65,0-2.4,1.01-3.92,1.94-4.73,1.61-1.45,3.7-1.52,4.84-1.52,.46,0,.68,0,1.28,.04,.02-2.73-.09-4.05-.2-5.33l.11-.13Zm.02,7.24c-.37-.02-.64-.07-1.1-.07-.68,0-2.13,.04-3.19,1.03-.48,.46-1.28,1.5-1.28,3.46,0,1.25,.35,2.16,.81,2.71,.39,.46,1.12,.99,2.27,.99,1.34,0,2.16-.7,2.46-.97,.04-2.88,.04-3.54,.02-7.15Z" style="fill: #0570b1;"/>
          <path d="M244.34,216.39c-.11,.88-.13,1.1-.18,1.96l-.13,.15c-.37,.2-1.56,.84-3.52,.84-3.61,0-5.88-2.07-5.88-5.9,0-4.09,2.46-6.09,5.35-6.09,1.74,0,2.95,.73,3.61,1.52,1.25,1.5,1.21,3.67,1.19,4.64l-.15,.13c-3.43-.02-4.03-.02-7.64,0,.02,.77,.09,1.85,.84,2.75,.9,1.08,2.16,1.19,2.84,1.19,.64,0,1.3-.11,1.91-.33,.81-.33,1.3-.73,1.58-.97l.18,.11Zm-2.05-5.74c-.44-1.21-1.41-1.72-2.4-1.72-1.23,0-2.68,.84-2.9,3.04,2.66,.02,3.5,0,5.52-.02-.02-.31-.04-.79-.22-1.3Z" style="fill: #0570b1;"/>
          <path d="M256.88,219.05c-1.06,.02-1.19,.02-2.2,.09l-.15-.15c0-.24,.02-.48,.02-.73,.02-1.08,.02-2.16,.02-3.23,0-3.39-.02-3.61-.13-4.07-.42-1.67-1.67-1.67-1.98-1.67-1.32,0-2.33,.77-2.93,1.23-.02,3.83,.02,5.83,.18,8.41l-.13,.13c-1.08,.02-1.25,.02-2.31,.09l-.11-.15c.02-1.23,.07-2.42,.07-4.05,0-3.52-.15-5.39-.26-6.87l.13-.15c1.1-.2,1.3-.24,2.33-.44l.15,.15-.02,1.14c.57-.4,1.94-1.36,3.87-1.36,.55,0,1.23,.09,1.83,.42,.57,.33,1.03,.84,1.28,1.43,.29,.66,.31,1.32,.33,2.68v2.57c.07,2.57,.09,3.56,.15,4.4l-.13,.13Z" style="fill: #0570b1;"/>
          <path d="M264.99,217.34c-.07,.73-.07,.88-.09,1.52l-.11,.13c-.46,.11-.84,.2-1.65,.2-.53,0-1.91,0-2.6-1.14-.4-.64-.4-1.17-.4-3.76l.04-4.84c-.77,0-.79,.02-1.58,.04l-.09-.13c.04-.7,.04-.88,.04-1.58l.13-.13c.48,0,.77,.02,1.5,0-.02-.46-.02-.95-.02-1.41-.02-.42-.04-.84-.06-1.25l.11-.15c.99-.24,1.23-.31,2.24-.62l.15,.11c-.07,1.45-.09,1.74-.09,3.34,.92-.02,1.19-.02,2.44-.07l.11,.13c-.04,.57-.07,.81-.07,1.56l-.11,.13c-1.1-.02-1.23-.04-2.4-.04l-.04,4.09c.02,.26,.02,1.52,.02,1.83,0,1.61,.2,2.11,1.3,2.11,.46,0,.81-.11,1.06-.2l.15,.13Z" style="fill: #0570b1;"/>
          <path d="M273.53,219.14l-.11-.15c.04-1.06,.07-2.07,.07-4.07,0-.95,.02-5.54,.02-6.58,0-2.31-.07-3.5-.15-4.64l.11-.15,2.95-.04c.44-.02,1.12-.02,1.72-.02,1.3,0,2.68,.04,3.79,.68,.81,.46,1.74,1.39,1.74,3.01,0,.77-.22,2.97-3.28,3.72,.51,.02,1.23,.04,2.03,.4,1.89,.84,2.09,2.51,2.09,3.32,0,2.02-1.25,3.46-3.02,4.09-1.17,.42-2.33,.42-4.07,.42l-3.87,.02Zm2.38-8.96c1.98,.02,3.5,0,4.42-.73,.55-.46,.9-1.19,.9-1.91,0-.59-.24-1.17-.62-1.56-.77-.75-2.13-.75-2.64-.75-.7,0-1.39,.02-2.07,.07v4.88Zm0,1.85c0,2.51,0,2.88,.09,5.28h.42c1.65,0,2.99,.02,3.85-.33,1.06-.4,1.65-1.32,1.65-2.42,0-2.57-2.84-2.6-3.89-2.6-.2,0-.4,0-1.58,.04l-.53,.02Z" style="fill: #0570b1;"/>
          <path d="M292.14,209.92c-.22-.09-.51-.2-.88-.2-.42,0-.73,.15-.93,.29-.9,.64-.9,1.61-.9,3.89,0,2.49,.06,3.79,.15,5.02l-.11,.15c-1.03,0-1.28,.02-2.33,.07l-.11-.13c.02-1.67,.04-3.19,.04-5.24,0-3.52-.07-4.42-.2-5.7l.13-.15c.84-.15,1.37-.26,2.29-.44l.13,.13-.11,1.87c.26-.7,.81-2.11,2.69-2.11,.29,0,.44,.02,.62,.07l.09,.13c-.22,1.06-.26,1.28-.42,2.24l-.15,.11Z" style="fill: #0570b1;"/>
          <path d="M302.75,214.54c0,2.73,.02,2.97,.13,4.4l-.11,.11c-1.03,.02-1.21,.04-2.22,.09l-.09-.13,.02-.79c-.42,.33-1.41,1.12-3.08,1.12-2.2,0-3.74-1.5-3.74-3.67,0-2.95,2.46-3.89,6.43-4.36l.37-.04c0-.59,0-1.01-.2-1.36-.22-.4-.73-.81-1.83-.81-1.43,0-2.42,.44-3.35,.84l-.18-.11c.04-1.01,.04-1.14,.07-1.61l.13-.13c1.23-.44,2.51-.73,3.81-.73,1.63,0,3.21,.55,3.67,2.27,.15,.62,.15,1.83,.15,2.75v2.18Zm-2.46-1.61c-2.22,.33-4.29,.64-4.29,2.6,0,.11,0,2,2.09,2,1.37,0,2.16-.75,2.4-.97v-3.67l-.2,.04Z" style="fill: #0570b1;"/>
          <path d="M315.55,219.05c-1.06,.02-1.19,.02-2.2,.09l-.15-.15c0-.24,.02-.48,.02-.73,.02-1.08,.02-2.16,.02-3.23,0-3.39-.02-3.61-.13-4.07-.42-1.67-1.67-1.67-1.98-1.67-1.32,0-2.33,.77-2.93,1.23-.02,3.83,.02,5.83,.18,8.41l-.13,.13c-1.08,.02-1.25,.02-2.31,.09l-.11-.15c.02-1.23,.07-2.42,.07-4.05,0-3.52-.15-5.39-.26-6.87l.13-.15c1.1-.2,1.3-.24,2.33-.44l.15,.15-.02,1.14c.57-.4,1.94-1.36,3.87-1.36,.55,0,1.23,.09,1.83,.42,.57,.33,1.03,.84,1.28,1.43,.29,.66,.31,1.32,.33,2.68v2.57c.07,2.57,.09,3.56,.15,4.4l-.13,.13Z" style="fill: #0570b1;"/>
          <path d="M326.9,216.46c-.09,.95-.11,1.06-.18,1.96l-.15,.15c-.64,.31-1.5,.75-3.04,.75-3.32,0-5.48-2.4-5.48-5.83s2.11-6.14,5.52-6.14c1.43,0,2.44,.46,3.01,.7l.09,.15c-.09,.79-.11,1.08-.15,1.74l-.18,.09c-.73-.53-1.56-.86-2.44-.86-1.83,0-3.43,1.41-3.43,4.22,0,2.99,1.7,4.07,3.41,4.07,1.5,0,2.42-.77,2.84-1.1l.18,.09Z" style="fill: #0570b1;"/>
          <path d="M338.45,219.05c-1.06,.02-1.19,.02-2.2,.09l-.15-.15,.02-.73c.02-1.14,.02-2.31,.02-3.45l-.02-2.35c0-.51,0-1.01-.11-1.5-.24-1.01-.86-1.67-1.98-1.67-1.25,0-2.22,.7-2.95,1.23-.02,3.83,.02,5.83,.15,8.41l-.11,.13c-1.01,.02-1.28,.02-2.35,.09l-.11-.15c.04-1.56,.11-3.54,.11-7.77,0-1.85-.02-3.7-.04-5.54-.04-1.94-.11-2.57-.18-3.56l.11-.13c1.06-.18,1.41-.24,2.4-.46l.13,.15c-.13,2.35-.13,4.73-.13,7.11,.71-.46,2.09-1.36,3.94-1.36,.51,0,1.01,.07,1.47,.26,.99,.4,1.58,1.19,1.8,2.09,.11,.44,.11,.7,.15,2.18v2.57l.02,1.03c.04,1.85,.04,2.16,.13,3.37l-.13,.13Z" style="fill: #0570b1;"/>
        </g>
      </g>
    </g>
  </g>
</svg>