<?xml version="1.0" encoding="UTF-8"?>
<svg id="Layer_2" data-name="Layer 2" xmlns="http://www.w3.org/2000/svg" viewBox="0 0 320 247.82">
  <g id="Layer_1-2" data-name="Layer 1">
    <g>
      <rect width="320" height="247.82" style="fill: none;"/>
      <g>
        <path d="M229.12,168.45v37.18c0,9.44,0,10.04,6.83,10.85v2.91h-22.51v-3.01c6.83-.8,6.83-1.51,6.83-10.85v-21.5c-.3-5.32,.97-4.82-5.63-2.72"/>
        <path d="M251.03,191.76c0,9.85,2.91,24.41,15.47,24.41,6.73,0,12.56-3.72,16.47-9.14l1.71,1.61c-4.22,6.94-11.25,11.86-19.49,11.86-14.07,0-24.31-11.45-24.31-25.22,0-12.86,8.94-26.12,23.01-26.12,12.56,0,21.2,10.75,21.2,22.61h-34.06Zm23.91-3.82c.6-6.93-2.41-15.47-11.15-15.47s-12.06,8.64-12.26,15.47h23.41Z"/>
        <path d="M104.64,121.05c-11.92,9.42-20.78,23.84-22.17,35.2-1.11,9.42,1.94,17.18,11.92,17.74,10.53,.55,21.62-8.59,29.38-16.91,6.1-6.65,11.64-16.63,12.19-22.45,.28-2.77,0-4.99-1.38-7.21-.55-1.11-1.11-1.39-.84-1.94,.28-.55,1.39,0,2.22,.83,.83,.83,3.6,4.16,3.05,10.53-.28,7.49-5.27,16.35-11.36,23.28-7.21,7.76-21.34,17.18-33.81,16.35-12.47-.83-18.57-8.87-17.18-20.78,1.38-11.09,10.81-25.5,25.5-36.59,13.3-9.98,29.93-16.9,44.34-16.9,15.8,0,33.54,6.1,30.77,29.1-1.66,16.91-31.32,54.04-49.61,72.33v.28c8.87-6.1,18.01-13.03,31.59-23,11.65-8.31,25.51-18.57,34.37-25.49,3.33-9.42,7.21-19.4,12.2-27.44,6.65-10.53,13.85-15.8,19.67-15.8,4.99,0,8.59,4.43,6.37,11.09-3.6,11.36-17.73,21.06-25.22,28.27-4.16,17.18-9.43,40.46-18.29,52.38v.28c9.42-9.15,33.25-29.1,49.88-44.07,26.61-24.11,36.31-42.13,37.97-51.83,.56-3.88,.28-7.48-1.66-9.42-1.94-1.66-3.88-1.11-3.6-1.94,.28-.55,1.94-.83,2.77-.83,8.04,0,11.92,6.37,11.36,13.58-1.38,11.36-13.3,28.82-44.06,54.04-21.9,18.01-43.51,36.03-61.52,53.21-1.67,1.66-4.44,4.16-7.76,4.16-2.77,0-2.77-2.49-1.11-4.71,9.42-12.75,15.24-40.19,21.62-55.98v-.28c-5.27,4.43-22.17,17.18-35.76,27.16-11.64,8.31-36.3,26.33-46.56,32.98-1.66,1.11-3.88,2.77-5.82,2.77-3.33,0-4.16-2.22-1.66-5.26,10.53-11.09,23-24.94,35.2-42.13,12.19-17.18,23.01-35.75,25.22-49.89,2.22-14.41-5.55-21.06-16.91-21.06-13.86,0-29.66,7.48-41.29,16.35Zm123.89,2.49c1.94-5.27,0-8.59-3.6-8.59-4.16,0-8.31,6.1-9.98,9.98-3.05,6.38-5.82,15.52-7.48,21.62,5.26-4.99,17.46-13.86,21.06-23Z"/>
        <path d="M228.61,161.7c0,2.75-2.23,4.99-4.99,4.99s-4.99-2.23-4.99-4.99,2.23-4.99,4.99-4.99,4.99,2.23,4.99,4.99Z"/>
        <g>
          <path d="M33.25,194.05c.47,2.68,.72,2.94,1.36,2.98,.61,.07,1.87,.07,5.75-.22l6.63-.5c1.99-.15,3.64-.33,4.77-.51,.83-.12,.94-.37,1.01-.83,.04-.3,.07-1.3,.12-1.58,.05-.21,.07-.34,.17-.35,.23-.02,.84,.12,.95,.17,.12,2.44,.17,3.67,.29,4.78,.1,1.32,.31,2.85,.35,2.93,.01,.18-.11,.34-.24,.38-.32,.12-.62,.2-.82,.18-.23-2.13-.44-2.78-1.35-2.83-.53,.01-1.7-.05-5.42,.22l-7.93,.59c-4.34,.33-4.67,.38-4.83,1.42,0,.33-.04,.79-.01,1.63,0,.12-.09,.19-.19,.19-.1,0-.23-.01-.51-.11-.24-.1-.31-.13-.35-.22-.05-.24-.06-.42-.09-.78-.03-.36-.07-1.38-.18-2.95-.15-1.56-.34-3.6-.36-3.9-.03-.39,0-.42,.1-.46l.78-.27Z"/>
          <path d="M42.25,183.33c.02-1.36,0-2.38-.05-3.13-.1-1.81-.24-1.96-2.19-2.38-.1-.12-.15-.82-.12-.97,.96,.07,2.49,.28,3.52,.3,1.13-.01,2.06-.09,3.03-.17,.06,.24,.09,.48,.09,.69,.03,.15-.07,.21-.2,.27-.37,.11-.9,.26-1.3,.34-.9,.17-1.21,.52-1.32,1.73-.08,.66-.09,1.66-.12,3.19-.02,1.5,0,1.81,.04,1.99,.03,.12,.06,.21,.19,.31,.2,.09,1.36,.29,4.09,.33,2.43,.04,3.33,.05,3.86-.24,.64-.41,.82-1.46,.86-3.93,.05-3.52-.29-5.21-3.8-6.2-.03-.12,0-.42,.04-.72,.07-.09,.1-.09,.27-.09,1.53,.08,3.65,.6,4.61,1.01,.2,.15,.26,.24,.26,.39,0,.21,0,.42-.06,1.41-.05,.9-.11,3.01-.15,5.51-.04,2.41,.06,4.79,.12,7.2-.03,.06-.73,.08-1,.04-.07,0-.13-.09-.13-.12-.24-1.39-.48-1.51-.97-1.55-.5-.07-2.62-.25-6.02-.3l-5.75-.09c-4.42-.07-5.89,.09-6.09,.12-.2,.03-.37,.09-.44,.38-.14,.3-.25,.87-.46,1.59t-.13,.03l-.76-.07c-.13,0-.17,0-.16-.15l.02-1.05c.01-.93,.1-2.08,.16-3.91l.05-2.92c.03-1.84-.11-4.04-.12-5.55,0-.39,.08-.57,.18-.72q.2-.27,.8-.14c1.46,.26,3.39,.32,4.25,.34-.01,.78-.11,.9-.31,.93-2.4,.38-3.6,.58-3.64,2.93l-.03,2.08c-.03,1.78,.02,2.77,.12,3.1,.13,.39,.46,.46,1.22,.47,2.33,.04,4.66,.04,6.99,.05,.3,0,.54-.17,.54-.38l.03-1.93Z"/>
          <path d="M43.54,164.37c.17-1.34,.27-2.36,.3-3.12,.1-1.81-.01-1.97-1.91-2.62-.08-.13-.06-.83,0-.97,.95,.18,2.44,.56,3.47,.69,1.13,.12,2.06,.15,3.03,.18,.03,.25,.04,.49,0,.7,.01,.15-.09,.2-.23,.24-.38,.07-.92,.15-1.33,.19-.91,.06-1.26,.38-1.51,1.57-.15,.65-.28,1.63-.47,3.16-.19,1.49-.2,1.8-.19,1.98,.02,.12,.04,.22,.16,.33,.19,.11,1.32,.44,4.02,.79,2.41,.31,3.3,.43,3.87,.2,.68-.34,.98-1.36,1.3-3.81,.45-3.49,.3-5.22-3.07-6.59-.02-.12,.05-.42,.13-.71,.08-.08,.11-.08,.28-.06,1.51,.26,3.56,1.01,4.47,1.52,.18,.17,.23,.27,.21,.42-.03,.21-.05,.42-.21,1.4-.15,.89-.45,2.98-.77,5.46-.31,2.39-.48,4.77-.69,7.17-.04,.06-.74,0-1-.07-.07,0-.12-.11-.12-.14-.09-1.41-.3-1.56-.79-1.65-.49-.12-2.58-.55-5.94-.98l-5.71-.74c-4.39-.57-5.86-.58-6.06-.57-.2,0-.38,.04-.48,.34-.17,.28-.34,.83-.63,1.53t-.14,.01l-.75-.16c-.13-.02-.17-.02-.15-.17l.13-1.04c.12-.93,.33-2.05,.6-3.87l.37-2.9c.24-1.82,.35-4.03,.51-5.52,.05-.39,.14-.56,.26-.7q.23-.24,.81-.05c1.42,.43,3.33,.7,4.19,.82-.1,.78-.21,.88-.42,.89-2.43,.11-3.64,.17-3.95,2.5l-.27,2.06c-.23,1.76-.29,2.76-.23,3.1,.08,.4,.4,.51,1.16,.6,2.31,.3,4.62,.57,6.94,.84,.3,.04,.55-.11,.58-.32l.25-1.91Z"/>
          <path d="M46.98,145.67c.33-1.32,.54-2.32,.66-3.06,.31-1.79,.21-1.96-1.6-2.82-.07-.14,.04-.83,.1-.97,.92,.29,2.36,.84,3.36,1.09,1.11,.24,2.03,.38,2.99,.53,0,.25-.02,.49-.07,.7,0,.15-.12,.19-.26,.21-.38,.03-.94,.05-1.35,.04-.91-.04-1.29,.24-1.68,1.38-.22,.63-.46,1.59-.84,3.08-.36,1.46-.4,1.76-.41,1.94,0,.13,.01,.22,.12,.34,.17,.14,1.26,.59,3.91,1.25,2.36,.59,3.23,.8,3.82,.64,.71-.26,1.13-1.24,1.73-3.64,.85-3.42,.9-5.15-2.29-6.9,0-.12,.1-.41,.21-.69,.09-.07,.12-.06,.28-.02,1.47,.43,3.42,1.41,4.26,2.02,.16,.2,.2,.3,.16,.44-.05,.2-.1,.41-.37,1.37-.25,.87-.79,2.91-1.39,5.33-.58,2.34-1.03,4.68-1.51,7.04-.05,.05-.73-.09-.98-.18-.06-.02-.11-.12-.1-.15,.08-1.41-.12-1.58-.6-1.73-.47-.18-2.5-.84-5.79-1.66l-5.58-1.39c-4.29-1.07-5.76-1.25-5.96-1.26-.2-.02-.38,0-.51,.27-.2,.26-.44,.79-.8,1.44t-.14,0l-.73-.24c-.13-.03-.16-.04-.13-.19l.25-1.02c.22-.91,.57-2,1.04-3.78l.7-2.84c.44-1.78,.81-3.96,1.14-5.43,.09-.38,.2-.54,.34-.66q.26-.21,.81,.05c1.36,.59,3.23,1.08,4.07,1.29-.19,.76-.31,.85-.52,.83-2.43-.17-3.64-.25-4.21,2.03l-.5,2.02c-.43,1.73-.6,2.7-.59,3.05,.03,.41,.34,.55,1.08,.73,2.26,.56,4.53,1.1,6.79,1.63,.29,.07,.56-.05,.61-.25l.46-1.87Z"/>
          <path d="M61.62,123.54c-2.71-.28-7.39-.85-14.49-1.46-2.31-.19-2.49-.21-3.31,1.1-.11,.15-.15,.16-.27,.1-.06-.03-.36-.41-.44-.55-.08-.14-.09-.28,0-.47,.25-.52,.89-1.68,1.17-2.25,.46-.95,.86-1.92,1.34-2.9,.07-.14,.54-.04,.87,.12,.12,.06,.2,.13,.16,.28-.41,1.14-.5,1.56-.09,1.7,.22,.07,.72,.19,1.21,.25,5.11,.68,12.15,1.33,14.99,1.5,.18,.02,.33-.14,.2-.27-1.56-1.73-6.21-6.47-7.98-8.24-.22-.24-.45-.29-.73-.32-1.79-.27-2.98-.41-3.71-.5-.81-.09-.97,.03-1.61,1.26-.04,.08-.18,.15-.27,.1-.59-.39-.72-.65-.63-.84,.32-.65,.84-1.57,1.33-2.57,.66-1.35,.95-2.18,1.15-2.59,.18-.14,1.06,.11,1.04,.3-.52,1.52-.51,1.73,.42,1.88,3.69,.62,11.29,1.51,15.71,1.92,.15,0,.17-.12,.03-.29-2.08-2.18-9.03-9.42-11.35-11.12-.56-.37-.83-.2-1.01,.11-.26,.38-.51,.89-.75,1.24-.06,.04-.13,.04-.27-.06-.54-.33-.73-.49-.62-.7,.13-.27,1.01-1.85,1.33-2.5,.42-.86,.8-1.79,.9-2,.16-.32,.28-.43,.48-.37l.7,.24c.06,.03,.09,.11,.07,.17-.72,1.39-.53,1.55,1.96,4.34,1.47,1.69,6.48,6.84,10.31,10.75,.43,.48,1.37,1.67,2.18,2.5,.17,.19,.2,.43,.12,.59-.16,.33-.43,.36-.92,.29-.62-.1-1.47-.25-3.1-.47-1.9-.29-6.81-.97-10.84-1.36,2.08,2.25,4.4,4.79,7.45,7.95,.77,.78,1.79,1.94,2.59,2.74,.12,.13,.16,.21,.15,.3,.02,.18-.04,.38-.13,.57-.07,.14-.21,.2-.47,.14-.51-.08-2.13-.33-4.84-.62Z"/>
          <path d="M66.96,95.32c1.16-1.76,4.89-3.45,8.7-.95,2.84,1.86,3.25,4.44,3.24,4.94,.02,1.6-.28,3.09-.99,4.18-.61,.93-2.5,2.47-4.54,2.49-1.58,.04-3.28-.64-4.25-1.28-1.14-.75-2.21-2.03-2.67-3.2-.39-.98-.51-1.77-.48-2.73,.06-1.18,.48-2.67,.98-3.43l.02-.02Zm.31,1.83c-.28,.43-.39,1.08-.2,1.7,.3,1.17,1.26,2.2,3.07,3.39,1.78,1.17,3.4,1.3,4.48,1.18,1.59-.18,2.42-.9,2.83-1.53,.22-.33,.46-1,.31-1.56-.22-.94-.87-2.12-2.57-3.24-1.7-1.12-3.77-1.83-5.52-1.47-.81,.15-1.83,.67-2.38,1.5l-.02,.03Z"/>
          <path d="M90.93,86.02c-2.04,2.34-2.91,3.34-3.58,4.35q-.06,.07-.13,0c-.05-.04-.35-.31-.46-.44-.05-.04-.13-.15-.12-.22,.5-1.12,.47-1.3,.14-1.63-.6-.68-1.89-1.93-4.42-4.14-1.05-.92-1.46-1.16-2.01-1.24-.61,0-1.41,.25-2.04,.98-.46,.52-.81,1.53-.9,2.85-.01,.27,.06,.49,.26,.71,.46,.44,1.94,1.77,3.12,2.8,2.78,2.43,2.92,2.47,3.92,1.58,.16-.14,.23-.11,.31-.05,.08,.07,.56,.57,.54,.59-.18,.2-1.28,1.52-1.66,1.95-.44,.5-1.23,1.61-1.45,1.97-.08,.05-.53-.3-.79-.57,.09-.2,.25-.7,.3-.9,.08-.25,.04-.4-.21-.67-.26-.31-.98-1.05-2.98-2.8-1.85-1.62-2.45-2.05-2.77-2.29-.44-.3-.53-.26-1.02,.11-.35,.3-.48,.3-.6,.28-.09,0-.52-.21-.53-.3,.08-2.01,.17-3.17,.25-3.62,.03-.29,.07-.38,.21-.54,.12-.14,.23-.16,.4,0l1.84,1.64c.12-.85,.25-2.82,.52-3.94,.09-.36,.28-.72,.49-.97,1.07-1.23,2.39-1.27,3.97-1.01,.31-1.93,.42-2.71,.69-3.52,.16-.54,.39-1.1,.84-1.62,.34-.39,1.07-.82,1.83-.88,.69-.04,1.6,0,3.94,1.91,1.3,1.09,2.48,2.12,3.5,3.02,.95,.83,1.27,1.07,1.46,1.11,.37,.08,.7-.15,1.71-.95,.06-.07,.15-.07,.25,.02,.1,.09,.53,.66,.47,.73l-1.35,1.54c-.77,.89-1.31,1.65-1.7,2.2-.06,.07-.12,.09-.19,.07-.09-.04-.44-.26-.54-.35-.05-.04-.1-.09-.07-.18,.12-.34,.18-.76-.08-1.07-.86-1.03-2.67-2.61-3.22-3.09-2.11-1.84-3.07-2.24-3.8-2.32-.76-.14-1.31,.18-1.96,.93-.55,.64-.87,1.6-1.02,2.59-.03,.29,.02,.38,.3,.62,1.43,1.29,4.79,4.18,5.79,4.89,.42,.28,.48,.26,1.65-.72,.06-.07,.17-.05,.3,.06l.6,.53Z"/>
          <path d="M93.29,65.37c.7-.62,1.89-.86,2.67-.75,.76,.09,1.54,.34,2.35,.86,.16-.23,.48-.73,.64-.69,.11,0,.18,.07,.24,.19,.13,.29,.36,.87,.21,1.1-1.19,1.75-3.57,4.93-4.26,6.11-.09,.13-.03,.29,.24,.59,2.24,2.42,4.34,2.39,5.83,1.08,1.04-.91,1.51-2.16,1.62-3.59,.03-.2,.3-.44,.34-.34,.5,.62,.61,.83,.61,1.1-.19,1.75-.81,3.19-1.36,4.11-.21,.36-.48,.64-.73,.86-1.58,1.39-3.53,1.23-4.1,1.12-.73-.11-2.36-.63-3.78-2.26-1.93-2.2-2.24-4.89-1.85-6.91,.17-.95,.68-2.01,1.32-2.57l.02-.02Zm3.47,1.91c-.61-.7-2.48-1.1-3.43-.26-.14,.12-.3,.39-.35,.75-.22,1.08,.49,2.66,1.46,3.67,.78-1.21,1.65-2.33,2.42-3.49,.12-.19,.16-.36-.08-.64l-.02-.02Z"/>
          <path d="M106.33,70.63c.56-.83,.72-1.23,.28-2.02-.45-.9-1.52-2.55-2.46-3.88-.74-1.06-1.48-2.01-1.85-2.48-.19-.27-.37-.31-1.71,.18-.19-.07-.21,.02-.41-.48-.06-.08-.02-.19,.09-.35,.66-1.31,1.29-2.73,1.34-2.92,.03-.11,.12-.2,.22-.27,.12-.09,.3-.09,.38,.02,.35,.45,.74,.95,1.06,1.41,.09,.14,.2,.23,.29,.16,.61-1.44,.88-1.95,1.31-2.75,.24-.49,.67-1.04,1.12-1.35,.72-.5,1.34-.65,2.1-.57,1.02,.09,2.06,.84,2.97,1.94,.45,.54,.91,1.19,1.73,2.36,1.39,1.99,2.23,3.15,2.67,3.77,.17,.24,.21,.25,.29,.2,.22-.16,.88-.74,1.23-1.02,.07-.05,.2,.02,.31,.19,.11,.16,.31,.6,.36,.72,.05,.17,0,.2-.1,.27-2.2,1.53-2.86,2.16-3.8,2.82-.15,.1-.27,.19-.37,.1l-.51-.46c.53-.77,.64-1.18,.21-2.01-.45-.9-1.13-1.93-2.48-3.87-1.05-1.5-1.61-2.25-2.65-2.53-.72-.19-1.41-.03-2.13,.47-.59,.41-1.26,1.45-1.56,2.19-.09,.35,0,.53,.19,.84,.62,.99,3.34,4.89,4.37,6.36,.25,.36,.33,.37,1.77-.31,.17-.08,.23-.04,.28,.09l.27,.7-2.1,1.47c-.99,.69-1.68,1.38-2.18,1.72-.05,.03-.11,0-.19-.11l-.35-.61Z"/>
          <path d="M118.9,39.37c.7-.35,1.49,.07,1.84,.79,.51,1.01,.16,1.93-.54,2.28-.65,.32-1.47,.03-1.87-.78-.52-1.04-.05-1.98,.54-2.28h.03Zm3.02,9.93c-.1-.13-.31-.14-1.69,.25-.12,.02-.18-.02-.17-.21-.08-.63-.08-.7,.04-.8,.86-.91,1.58-1.83,2.54-2.87,.04-.06,.07-.07,.12-.1,.05-.03,.08,.03,.17,.21,.9,2.08,2.87,6.34,3.64,7.89,.76,1.52,1.03,2.05,1.23,2.4,.26,.39,.4,.54,.66,.38,.81-.48,1.02-.58,1.1-.62,.08-.04,.33,.06,.35,.16l.3,.81c.06,.19,0,.22-.13,.29-.78,.39-1.57,.71-2.43,1.14-1.19,.59-2.17,1.31-2.25,1.35-.13,.07-.2,.06-.29-.04-.16-.18-.31-.48-.4-.66-.06-.12-.02-.18,.06-.22,.91-.6,1.08-.8,.83-1.72-.16-.52-1.04-2.68-2.03-4.53l-1.66-3.11Z"/>
          <path d="M131.78,55.28c.74-.68,.99-1.02,.75-1.9-.22-.98-.87-2.84-1.46-4.36-.47-1.21-.96-2.31-1.2-2.85-.12-.31-.28-.39-1.71-.23-.17-.11-.2-.03-.28-.57-.04-.09,.02-.19,.17-.32,.96-1.12,1.91-2.34,2-2.52,.06-.09,.16-.17,.27-.21,.14-.05,.32-.02,.37,.11,.23,.52,.49,1.1,.69,1.62,.06,.16,.14,.27,.25,.23,.94-1.25,1.32-1.69,1.93-2.35,.35-.42,.9-.85,1.41-1.05,.81-.31,1.46-.31,2.17-.05,.97,.34,1.8,1.3,2.42,2.59,.31,.63,.6,1.37,1.11,2.71,.88,2.26,1.42,3.59,1.69,4.3,.11,.28,.15,.3,.23,.27,.25-.1,1.03-.51,1.44-.7,.08-.03,.19,.07,.26,.26,.07,.19,.16,.65,.18,.79,0,.18-.05,.2-.16,.24-2.5,.97-3.3,1.42-4.36,1.83-.17,.07-.31,.12-.38,0l-.38-.57c.69-.62,.91-.99,.69-1.9-.22-.99-.64-2.14-1.49-4.35-.66-1.71-1.03-2.56-1.97-3.09-.65-.35-1.37-.36-2.18-.05-.67,.26-1.57,1.11-2.04,1.75-.17,.32-.12,.51-.02,.87,.36,1.11,2.08,5.54,2.72,7.22,.16,.41,.24,.44,1.79,.13,.18-.03,.23,.02,.25,.15l.1,.75-2.39,.92c-1.12,.44-1.96,.94-2.52,1.15-.05,.02-.11-.03-.16-.15l-.2-.67Z"/>
          <path d="M157.92,36.07c1.33-.24,2.34-.45,3.07-.65,1.75-.45,1.88-.61,1.92-2.61,.1-.12,.77-.31,.92-.3,.11,.96,.21,2.5,.39,3.51,.23,1.11,.48,2.01,.74,2.94-.23,.11-.46,.18-.66,.22-.14,.06-.22-.03-.3-.15-.19-.34-.43-.84-.59-1.21-.34-.85-.75-1.08-1.95-.97-.66,.05-1.65,.23-3.16,.5-1.48,.27-1.77,.35-1.94,.42-.11,.05-.2,.1-.26,.25-.05,.21-.03,1.39,.46,4.07,.43,2.39,.59,3.27,.98,3.74,.53,.55,1.59,.52,4.03,.09,3.47-.62,5.06-1.28,5.36-4.92,.11-.05,.41-.07,.72-.09,.1,.05,.11,.08,.14,.25,.21,1.52,.11,3.7-.1,4.72-.11,.22-.19,.3-.34,.33-.21,.04-.42,.08-1.4,.22-.89,.13-2.98,.47-5.44,.91-2.38,.43-4.7,.98-7.05,1.51-.07-.02-.22-.7-.24-.97-.01-.06,.07-.15,.09-.15,1.32-.51,1.39-.76,1.34-1.26-.03-.5-.26-2.62-.86-5.96l-1.02-5.66c-.78-4.35-1.22-5.76-1.29-5.95-.06-.19-.15-.34-.46-.36-.32-.08-.9-.07-1.65-.14t-.05-.13l-.08-.76c-.02-.13-.03-.16,.12-.19l1.04-.19c.92-.17,2.06-.3,3.87-.6l2.88-.52c1.81-.33,3.95-.88,5.43-1.18,.38-.07,.58-.03,.74,.04q.3,.15,.29,.76c.02,1.48,.33,3.39,.49,4.24-.77,.14-.91,.06-.97-.13-.84-2.28-1.26-3.42-3.57-3.01l-2.05,.37c-1.75,.32-2.72,.56-3.02,.71-.36,.2-.36,.54-.23,1.29,.41,2.29,.85,4.58,1.3,6.86,.05,.29,.27,.49,.48,.45l1.9-.34Z"/>
          <path d="M170.59,45.03c.92-.4,1.27-.65,1.32-1.55,.11-1,.09-2.97,.02-4.59-.05-1.3-.16-2.49-.22-3.09-.01-.33-.14-.46-1.54-.77-.13-.16-.19-.09-.09-.63,0-.1,.08-.17,.26-.25,1.26-.75,2.55-1.61,2.7-1.74,.09-.07,.21-.11,.33-.11,.15,0,.3,.09,.31,.22,.05,.56,.11,1.19,.13,1.76,0,.17,.04,.3,.16,.29,1.29-.89,1.79-1.17,2.59-1.6,.47-.29,1.12-.51,1.67-.54,.87-.04,1.48,.17,2.08,.65,.81,.63,1.28,1.81,1.46,3.24,.09,.69,.12,1.49,.18,2.92,.1,2.43,.19,3.85,.22,4.62,.01,.3,.05,.33,.14,.33,.27-.01,1.14-.15,1.59-.2,.09,0,.16,.13,.16,.33,0,.2-.06,.67-.09,.8-.05,.17-.12,.17-.24,.18-2.68,.11-3.57,.28-4.72,.33-.18,0-.33,.01-.37-.12l-.18-.66c.86-.37,1.18-.65,1.26-1.58,.11-1,.09-2.23,0-4.59-.08-1.83-.15-2.76-.87-3.56-.5-.55-1.18-.78-2.05-.75-.72,.03-1.85,.54-2.49,1-.26,.24-.28,.44-.3,.81-.01,1.16,.19,5.92,.26,7.71,.02,.43,.08,.5,1.66,.7,.18,.03,.22,.09,.19,.23l-.15,.74-2.56,.11c-1.2,.05-2.16,.26-2.76,.28-.06,0-.09-.06-.1-.19l.03-.7Z"/>
          <path d="M192.51,32.2c.78,.06,1.68,.52,2.2,.86,.2,.18,.44,.17,.5,.17,.51,.04,2.28-.23,2.91-.19,.24,.02,.55,.34,.57,.48,.02,.1,.05,.9,.04,1.04-.01,.2-.18,.39-.54,.39-.33-.02-1.23-.06-2.55-.19,.39,.83,.67,2.02,.6,2.95-.17,2.32-1.85,4.27-4.24,5.13-1.15,.38-1.86,.73-2.56,1.08-.19,.09-.3,.31-.3,.41-.04,.6,.66,.95,1.47,1.01,.36,.03,2.26,.1,2.53,.12,1.26,.09,2.39,.34,3.35,1.25,.42,.4,.75,1.26,.67,2.38-.08,1.06-.39,1.61-1.28,2.64-1.71,1.94-3.14,2.41-3.91,2.68-.71,.21-2.11,.35-2.98,.28-3.28-.24-4.44-2.06-4.34-3.39,.08-1.13,.57-2.03,1.33-2.5,.79-.54,1.43-.96,2.38-1.56-1.25-.73-1.93-1.21-1.86-2.2,.02-.3,.03-.43,.23-.68,.32-.28,1.73-.94,3.01-1.51-.91-.33-1.64-.75-2.33-1.54-.78-.89-1.16-2.29-1.07-3.58,.15-1.99,1.22-3.45,2.65-4.41,1.04-.66,2.23-1.2,3.49-1.11h.03Zm-2.13,20.82c1.74,.13,2.98-.25,3.85-.99,.64-.52,1.14-1.15,1.2-1.95,.03-.46,.04-.96-.52-1.51-.62-.58-1.48-.84-2.53-.92-1.05-.08-2.32-.04-3.09,.07-.3,.04-.68,.25-1.2,.71-.83,.67-1.2,1.51-1.23,2.01-.04,.6,.49,2.34,3.5,2.56h.03Zm3.76-14.3c.08-1.06-.06-2.47-.5-3.4-.36-.79-1.2-1.72-2.55-1.82-.54-.04-1.04,.16-1.59,.62-.57,.43-.89,1.37-.95,2.3-.1,1.29,.29,2.99,1.08,3.85,.92,1.03,1.6,1.28,2.14,1.32,1.11,.08,2.22-.6,2.38-2.83v-.03Z"/>
          <path d="M202.16,36.34c0-.17-.17-.3-1.52-.78-.11-.05-.13-.12-.02-.27,.3-.56,.34-.62,.5-.63,1.23-.24,2.35-.57,3.73-.86,.06-.02,.09-.02,.16,0,.06,0,.05,.07,.02,.27-.47,2.21-1.36,6.82-1.63,8.53-.27,1.68-.36,2.27-.39,2.67-.01,.47,.02,.68,.32,.69,.93,.08,1.17,.12,1.26,.13,.09,.01,.24,.24,.19,.33l-.23,.84c-.06,.19-.12,.18-.27,.16-.86-.14-1.68-.33-2.64-.48-1.31-.21-2.53-.2-2.62-.21-.15-.02-.2-.07-.21-.2-.02-.24,.03-.57,.06-.76,.02-.13,.09-.16,.18-.14,1.09,.04,1.34-.02,1.67-.91,.17-.51,.72-2.78,.99-4.86l.46-3.5Zm3.33-9.84c.77,.12,1.17,.93,1.04,1.71-.18,1.12-.99,1.66-1.77,1.54-.71-.11-1.21-.83-1.07-1.72,.18-1.15,1.11-1.64,1.77-1.54h.03Z"/>
          <path d="M206.67,46.92c1-.12,1.4-.26,1.71-1.11,.39-.93,.93-2.82,1.33-4.4,.32-1.26,.56-2.43,.67-3.02,.08-.32,0-.48-1.26-1.18-.08-.19-.15-.14,.1-.63,.02-.1,.13-.14,.32-.16,1.43-.36,2.91-.81,3.09-.9,.1-.04,.23-.04,.35-.02,.15,.04,.27,.17,.24,.3-.11,.56-.24,1.18-.38,1.73-.04,.16-.05,.3,.07,.33,1.49-.48,2.05-.61,2.94-.8,.53-.14,1.22-.17,1.75-.04,.85,.21,1.37,.59,1.81,1.21,.59,.84,.71,2.1,.47,3.52-.11,.69-.31,1.47-.66,2.85-.6,2.35-.92,3.75-1.11,4.49-.08,.29-.05,.33,.03,.35,.26,.07,1.13,.18,1.58,.26,.09,.02,.11,.17,.06,.36-.05,.19-.25,.62-.31,.74-.1,.15-.16,.13-.27,.1-2.6-.66-3.51-.75-4.62-1.03-.18-.05-.32-.08-.32-.22l.02-.68c.93-.11,1.32-.28,1.66-1.16,.39-.93,.72-2.12,1.3-4.41,.45-1.77,.65-2.68,.18-3.66-.33-.67-.9-1.09-1.75-1.3-.7-.18-1.92,0-2.67,.25-.32,.16-.4,.34-.52,.69-.35,1.11-1.51,5.72-1.96,7.47-.11,.42-.07,.5,1.39,1.14,.17,.08,.18,.15,.12,.27l-.35,.67-2.48-.63c-1.17-.3-2.14-.37-2.73-.52-.06-.01-.07-.08-.04-.22l.23-.66Z"/>
          <path d="M231.28,41.19c.88,.32,1.66,1.25,1.93,1.99,.28,.71,.44,1.51,.37,2.48,.28,.03,.87,.07,.91,.23,.06,.09,.03,.19-.05,.3-.19,.25-.59,.74-.87,.71-2.1-.21-6.04-.78-7.4-.82-.15-.02-.27,.11-.41,.49-1.06,3.12-.03,4.95,1.84,5.64,1.3,.48,2.62,.29,3.93-.29,.19-.07,.53,.05,.47,.14-.3,.74-.44,.94-.68,1.06-1.63,.68-3.19,.81-4.26,.77-.41-.01-.79-.11-1.1-.23-1.98-.73-2.77-2.51-2.94-3.07-.26-.7-.57-2.37,.18-4.4,1.01-2.75,3.22-4.3,5.19-4.93,.91-.3,2.09-.36,2.88-.07h.03Zm-.02,3.97c.32-.88-.22-2.71-1.41-3.15-.17-.06-.49-.07-.82,.05-1.05,.32-2.11,1.71-2.53,3.04,1.44,.11,2.83,.34,4.23,.46,.22,.01,.4-.03,.52-.37v-.03Z"/>
          <path d="M243.46,46.42c.84,.4,1.54,1.39,1.74,2.15,.22,.73,.3,1.54,.15,2.5,.27,.06,.86,.15,.89,.31,.05,.1,0,.19-.07,.3-.21,.23-.66,.68-.93,.62-2.08-.4-5.94-1.32-7.3-1.48-.15-.04-.28,.09-.45,.45-1.33,3.01-.48,4.93,1.32,5.78,1.25,.59,2.58,.53,3.94,.07,.19-.06,.52,.1,.45,.18-.37,.71-.53,.89-.77,.99-1.68,.53-3.25,.52-4.32,.38-.41-.05-.78-.19-1.08-.33-1.9-.91-2.53-2.75-2.65-3.32-.19-.72-.35-2.41,.58-4.37,1.26-2.64,3.6-4,5.61-4.44,.94-.22,2.12-.17,2.88,.19h.03Zm-.38,3.96c.4-.84,.03-2.71-1.12-3.26-.16-.08-.48-.12-.82-.02-1.08,.23-2.25,1.51-2.8,2.8,1.42,.24,2.79,.59,4.17,.84,.22,.03,.4,0,.56-.33v-.03Z"/>
          <path d="M244.3,60.56c.73,.12,.9,.14,1.17-.21,.25-.31,.7-1.09,2.16-3.59l1.5-2.59c.4-.69,.45-.89-.38-1.8-.16-.21-.07-.66,.08-.8,1.41-.14,2.84-.16,4-.29,.14,0,.33,.04,.38,.07,.1,.06,.12,.34-.09,.57-.46,.73-.92,1.35-1.4,2.23,.69,.02,3.1-.47,3.59-.53,.35-.06,.75-.1,.99,.04,.68,.39,1.01,1.55,.65,2.18-.27,.46-1.4,.92-1.77,1.01-.22,.02-.42,.06-.58-.03-.16-.09-.2-.19-.22-.4-.02-.44-.19-.99-.61-1.24-.57-.33-1.58-.22-2.31-.04-.28,.07-.55,.41-1.34,1.76l-2.09,3.59c-.42,.72-.61,1.11-.61,1.3,0,.19,.05,.33,.35,.47l1.44,.76c.13,.08,.15,.28,.06,.38l-.67,.8c-1.15-.67-2.29-1.34-3.44-2-.68-.39-1.36-.71-1.54-.82-.11-.06-.11-.18,.07-.31l.62-.53Z"/>
          <path d="M259.55,58.67c.07-.16-.03-.34-1.05-1.35-.08-.09-.07-.17,.1-.25,.51-.38,.57-.42,.71-.36,1.22,.3,2.37,.47,3.75,.79,.07,0,.09,.02,.14,.06,.05,.03,.01,.09-.1,.26-1.36,1.81-4.09,5.62-5.06,7.06-.95,1.41-1.28,1.91-1.47,2.26-.21,.42-.27,.62,0,.76,.81,.47,1.01,.6,1.09,.65,.07,.05,.12,.32,.03,.38l-.56,.67c-.13,.15-.19,.12-.31,.03-.73-.49-1.39-1.01-2.19-1.55-1.1-.74-2.21-1.24-2.29-1.29-.12-.09-.16-.15-.11-.27,.08-.23,.27-.5,.38-.67,.07-.11,.14-.1,.22-.05,.97,.49,1.23,.54,1.9-.13,.37-.39,1.82-2.23,2.93-4l1.89-2.98Zm7.16-7.54c.65,.44,.67,1.33,.23,1.99-.63,.94-1.6,1.09-2.25,.65-.6-.4-.75-1.26-.25-2.01,.65-.97,1.7-1.02,2.25-.65l.02,.02Z"/>
          <path d="M259.2,70.17c.96,.29,1.39,.34,2.02-.31,.74-.69,2-2.19,3.02-3.46,.81-1.02,1.5-1.99,1.85-2.48,.21-.26,.2-.44-.66-1.59,0-.2-.08-.19,.35-.53,.06-.08,.17-.07,.36-.01,1.45,.26,2.98,.46,3.18,.45,.11,0,.23,.05,.32,.13,.12,.09,.18,.26,.09,.37-.33,.46-.7,.97-1.05,1.42-.1,.13-.16,.25-.07,.33,1.55,.17,2.12,.28,3.01,.48,.54,.09,1.19,.35,1.61,.68,.68,.54,1.01,1.1,1.15,1.85,.2,1.01-.21,2.21-1.01,3.4-.39,.58-.88,1.21-1.77,2.33-1.51,1.9-2.37,3.04-2.85,3.64-.19,.23-.18,.28-.11,.33,.21,.17,.96,.63,1.33,.89,.07,.06,.04,.2-.09,.35-.12,.16-.48,.47-.59,.55-.15,.09-.2,.06-.29-.02-2.1-1.67-2.89-2.12-3.79-2.84-.14-.11-.26-.21-.2-.33l.3-.62c.89,.28,1.32,.28,1.99-.38,.74-.69,1.52-1.63,2.99-3.48,1.14-1.43,1.69-2.18,1.67-3.26-.02-.74-.38-1.36-1.06-1.91-.57-.45-1.75-.8-2.54-.87-.36,.01-.51,.15-.75,.42-.77,.87-3.73,4.6-4.85,6.01-.27,.34-.26,.43,.8,1.61,.12,.14,.1,.21,0,.29l-.6,.46-2.01-1.59c-.94-.75-1.8-1.22-2.27-1.59-.05-.04-.03-.11,.05-.21l.48-.51Z"/>
          <path d="M284.05,74.48c.56,.54,.96,1.48,1.14,2.07,.04,.27,.23,.41,.28,.45,.37,.36,1.9,1.28,2.36,1.72,.17,.17,.2,.61,.13,.73-.05,.09-.53,.73-.63,.83-.14,.14-.39,.18-.67-.04-.24-.23-.91-.83-1.84-1.77-.23,.89-.78,1.98-1.42,2.65-1.61,1.68-4.15,2.1-6.54,1.23-1.13-.44-1.9-.63-2.66-.8-.2-.05-.43,.05-.5,.12-.42,.43-.1,1.15,.48,1.71,.26,.25,1.67,1.52,1.87,1.71,.91,.88,1.62,1.79,1.78,3.1,.07,.58-.22,1.45-1.01,2.26-.74,.77-1.33,.98-2.67,1.21-2.56,.4-3.95-.15-4.72-.44-.68-.29-1.84-1.08-2.47-1.69-2.37-2.28-2.1-4.42-1.18-5.38,.79-.81,1.73-1.19,2.62-1.08,.96,.09,1.72,.17,2.83,.32-.49-1.35-.72-2.17-.02-2.88,.21-.22,.3-.31,.61-.38,.43,0,1.93,.38,3.28,.76-.49-.84-.78-1.62-.81-2.67-.03-1.18,.57-2.5,1.47-3.44,1.38-1.44,3.14-1.87,4.85-1.7,1.22,.16,2.49,.5,3.4,1.38l.02,.02Zm-14.94,14.66c1.26,1.21,2.45,1.71,3.59,1.7,.83,.01,1.61-.16,2.17-.73,.32-.34,.65-.72,.56-1.49-.11-.84-.6-1.59-1.36-2.32-.76-.73-1.76-1.51-2.42-1.91-.26-.16-.69-.24-1.38-.22-1.07-.01-1.89,.4-2.23,.76-.42,.43-1.11,2.11,1.06,4.2l.02,.02Zm12.03-8.6c.74-.77,1.53-1.94,1.79-2.94,.23-.84,.17-2.09-.8-3.03-.39-.38-.9-.54-1.61-.54-.71-.04-1.56,.49-2.2,1.16-.9,.93-1.68,2.49-1.63,3.65,.05,1.38,.41,2.01,.8,2.38,.8,.77,2.09,.95,3.64-.65l.02-.03Z"/>
        </g>
      </g>
    </g>
  </g>
</svg>