<?xml version="1.0" encoding="UTF-8"?>
<svg id="Layer_2" data-name="Layer 2" xmlns="http://www.w3.org/2000/svg" viewBox="0 0 320 68.16">
  <g id="Layer">
    <g id="IEEEChileSurSection_FlagIdentifier_IEEEBlueColor">
      <rect width="320" height="68.16" style="fill: none;"/>
      <g>
        <polygon points="276.92 6.82 276.92 16.77 32 16.77 32 52.04 42.35 61.34 42.35 52.04 288 52.04 288 16.77 276.92 6.82" style="fill: #00639b;"/>
        <rect x="90.77" y="19.39" width="194.78" height="30.69" style="fill: #fff;"/>
        <g>
          <path d="M44.13,27.66c-.07,3.16-.12,6.33-.12,9.49,0,3.32,.05,4.38,.16,6.49l-.14,.14c-1.9,0-2.36,0-4.08,.07l-.12-.14c.09-2.38,.14-3.78,.14-6.49,0-5.85-.07-7.01-.21-9.49l.09-.14c1.65,.02,2.18,.02,4.15-.07l.12,.14Z" style="fill: #fff;"/>
          <path d="M57.6,40.85l-.16,2.8-.18,.14h-10.09l-.11-.09c.07-2.41,.11-3.85,.11-6.74,0-6.14-.05-6.99-.18-9.22l.14-.14h10.06l.11,.09-.16,2.66-.11,.14c-2.77-.07-3.3-.07-5.89-.07v3.64l5.55-.09,.12,.14-.14,2.59-.16,.14h-5.36l.05,4.01c2.93,0,3.58-.02,6.28-.16l.14,.16Z" style="fill: #fff;"/>
          <path d="M70.48,40.85l-.16,2.8-.18,.14h-10.09l-.11-.09c.07-2.41,.11-3.85,.11-6.74,0-6.14-.05-6.99-.18-9.22l.14-.14h10.06l.11,.09-.16,2.66-.11,.14c-2.77-.07-3.3-.07-5.89-.07v3.64l5.55-.09,.12,.14-.14,2.59-.16,.14h-5.36l.05,4.01c2.93,0,3.58-.02,6.28-.16l.14,.16Z" style="fill: #fff;"/>
          <path d="M83.36,40.85l-.16,2.8-.18,.14h-10.09l-.11-.09c.07-2.41,.11-3.85,.11-6.74,0-6.14-.05-6.99-.18-9.22l.14-.14h10.06l.11,.09-.16,2.66-.11,.14c-2.77-.07-3.3-.07-5.89-.07v3.64l5.55-.09,.12,.14-.14,2.59-.16,.14h-5.36l.05,4.01c2.93,0,3.58-.02,6.28-.16l.14,.16Z" style="fill: #fff;"/>
        </g>
        <g>
          <path d="M110.03,39.36l-.16,3.42-.11,.14c-.73,.3-1.99,.8-3.92,.8-5.59,0-8.28-3.87-8.28-8.28,0-4.01,2.06-8.6,8-8.6,2.02,0,3.42,.53,4.24,.85l.09,.11-.21,3.16-.21,.05c-.57-.44-1.51-1.1-3.23-1.1-3.74,0-4.42,3.46-4.42,5.43,0,3.26,1.83,5.2,4.45,5.2,1.9,0,3.07-.87,3.6-1.28l.16,.09Z" style="fill: #00629b;"/>
          <path d="M122.9,43.35c-1.76,0-2.13,0-3.78,.09l-.12-.16c0-.76,.02-1.49,.02-2.25,0-.85-.02-4.1-.07-4.81-.09-.92-.18-2.22-1.44-2.22-.78,0-1.33,.39-1.76,.69,.02,4.06,.05,5.09,.21,8.53l-.14,.14c-1.86,0-2.2,0-3.9,.09l-.12-.16c.05-2.25,.09-3.6,.09-5.87,0-1.86-.02-3.71-.07-5.57-.04-2.96-.09-3.78-.3-6.01l.11-.14,3.92-.62,.14,.16-.07,7.06c.92-.55,2.22-1.35,3.9-1.35,1.01,0,1.97,.3,2.64,1.24,.66,.96,.69,2.22,.71,4.4v1.72c.05,2.38,.07,3.03,.16,4.91l-.14,.14Z" style="fill: #00629b;"/>
          <path d="M129.63,43.37c-1.86-.02-2.32,0-3.97,.07l-.14-.16c.07-1.88,.14-3.28,.14-5.78,0-3.26-.07-4.06-.25-5.8l.14-.14,3.94-.69,.16,.18c-.02,1.95-.07,3.92-.07,5.87,0,3.16,.09,4.52,.21,6.28l-.16,.16Zm-.32-14.53c-1.63,.21-2.06,.25-3.62,.53l-.16-.14c.02-.44,.02-.89,.02-1.33,0-.55-.02-1.03-.07-1.86l.14-.16,3.74-.46,.14,.14-.07,3.12-.12,.16Z" style="fill: #00629b;"/>
          <path d="M136.23,43.37c-1.67-.02-2.29,0-3.83,.07l-.14-.16c.09-2.27,.14-3.64,.14-6.12,0-1.35,0-2.71-.02-4.06-.05-3.71-.07-4.47-.3-7.27l.09-.14,3.92-.62,.16,.16c-.09,2.48-.12,3.51-.12,5.69,0,7.24,.12,9.65,.23,12.29l-.14,.16Z" style="fill: #00629b;"/>
          <path d="M149.36,40.04l-.16,2.59-.14,.18c-1.21,.48-2.04,.82-3.94,.82-1.65,0-4.77-.27-6.1-3.37-.37-.8-.55-1.93-.55-3,0-3.97,2.38-6.33,5.98-6.33,.53,0,1.05,.05,1.63,.21,.78,.18,2.54,.73,3.35,3.44,.32,1.15,.35,2.29,.37,3.42l-.14,.16-7.4,.14c.09,.46,.16,.92,.5,1.4,.55,.83,1.49,1.26,2.87,1.26,1.67,0,2.71-.53,3.58-.99l.16,.07Zm-3.28-4.26c0-.53-.02-1.08-.34-1.58-.25-.41-.71-.8-1.47-.8-.32,0-.64,.07-.92,.25-.87,.55-1.03,1.51-1.1,2.22l3.83-.09Z" style="fill: #00629b;"/>
          <path d="M165.81,33.74c.55,.25,1.15,.53,1.76,.99,1.21,.94,1.72,2.34,1.72,3.64,0,1.95-.82,3.69-2.75,4.63-1.38,.64-3.12,.71-3.81,.71-1.72,0-3.07-.39-3.6-.57-.25-.07-.51-.18-.76-.27l-.14-.18,.16-3.23,.23-.07c.66,.53,1.83,1.44,3.92,1.44s2.75-1.03,2.75-1.9c0-1.22-1.21-1.79-2.8-2.45l-.76-.34c-1.28-.62-3.44-1.63-3.44-4.4,0-2.45,1.49-4.88,5.8-4.88,2.22,0,3.26,.44,4.24,.85l.12,.16-.18,3-.21,.09c-.85-.57-1.88-1.28-3.62-1.28-1.51,0-2.18,.89-2.18,1.6,0,1.03,1.01,1.44,2.93,2.25l.6,.23Z" style="fill: #00629b;"/>
          <path d="M182.63,31.29c-.04,2.15-.07,4.31-.07,6.46,0,2.98,.05,3.85,.16,5.48l-.14,.14c-1.49,0-1.99,0-3.67,.07l-.16-.14,.02-1.03c-.83,.64-1.77,1.38-3.39,1.38-1.15,0-2.25-.37-3-1.21-.83-.96-.94-2.02-.92-4.52v-1.6c0-2.32-.02-2.96-.16-4.88l.16-.14,3.78-.18,.16,.18-.05,4.63c-.02,.57-.02,1.17-.02,1.74,0,1.35,0,3.1,1.65,3.1,.62,0,1.1-.34,1.72-.76,.02-.92,.02-1.28,.02-1.95,0-.37,0-4.03-.16-6.62l.16-.14,3.74-.18,.16,.18Z" style="fill: #00629b;"/>
          <path d="M191.73,34.96c-.32-.18-.55-.32-.94-.32-1.56,0-1.56,1.51-1.56,2.54,0,1.58,.14,4.17,.23,6.03l-.12,.16c-1.83-.02-2.2,0-3.9,.07l-.14-.14c.05-1.9,.07-3.78,.07-5.66,0-3.19-.07-4.22-.21-5.94l.14-.14c1.67-.25,2.11-.32,3.81-.69l.18,.18-.07,2.11c.73-1.7,1.79-2.22,2.73-2.22,.16,0,.32,.02,.48,.02l.14,.16-.64,3.74-.21,.09Z" style="fill: #00629b;"/>
          <path d="M207.81,33.74c.55,.25,1.15,.53,1.77,.99,1.21,.94,1.72,2.34,1.72,3.64,0,1.95-.82,3.69-2.75,4.63-1.37,.64-3.12,.71-3.81,.71-1.72,0-3.07-.39-3.6-.57-.25-.07-.5-.18-.76-.27l-.14-.18,.16-3.23,.23-.07c.66,.53,1.83,1.44,3.92,1.44s2.75-1.03,2.75-1.9c0-1.22-1.22-1.79-2.8-2.45l-.76-.34c-1.28-.62-3.44-1.63-3.44-4.4,0-2.45,1.49-4.88,5.8-4.88,2.22,0,3.26,.44,4.24,.85l.12,.16-.18,3-.21,.09c-.85-.57-1.88-1.28-3.62-1.28-1.51,0-2.18,.89-2.18,1.6,0,1.03,1.01,1.44,2.93,2.25l.6,.23Z" style="fill: #00629b;"/>
          <path d="M223.81,40.04l-.16,2.59-.14,.18c-1.21,.48-2.04,.82-3.94,.82-1.65,0-4.77-.27-6.1-3.37-.37-.8-.55-1.93-.55-3,0-3.97,2.38-6.33,5.98-6.33,.53,0,1.05,.05,1.63,.21,.78,.18,2.54,.73,3.35,3.44,.32,1.15,.35,2.29,.37,3.42l-.14,.16-7.4,.14c.09,.46,.16,.92,.5,1.4,.55,.83,1.49,1.26,2.87,1.26,1.67,0,2.71-.53,3.58-.99l.16,.07Zm-3.28-4.26c0-.53-.02-1.08-.34-1.58-.25-.41-.71-.8-1.47-.8-.32,0-.64,.07-.92,.25-.87,.55-1.03,1.51-1.1,2.22l3.83-.09Z" style="fill: #00629b;"/>
          <path d="M235.49,40.18l-.09,2.75-.14,.14c-.96,.27-1.74,.5-2.96,.5-5.16,0-6.53-3.58-6.53-6.21,0-2.34,1.05-6.42,6.44-6.42,1.33,0,2.2,.28,3.21,.6l.11,.14c-.18,1.22-.21,1.54-.3,2.75l-.23,.07c-.69-.46-1.24-.83-2.25-.83-2.22,0-2.96,1.93-2.96,3.6,0,1.38,.53,3.53,3.12,3.53,1.17,0,1.77-.37,2.38-.73l.18,.11Z" style="fill: #00629b;"/>
          <path d="M243.92,40.82l-.23,2.36-.16,.16c-.8,.14-1.51,.28-2.41,.28-3.58,0-3.62-2.27-3.62-4.38,0-.6,.02-1.17,.05-1.74l.07-3.64-1.44,.05-.14-.14,.21-2.45,.14-.11,1.24,.05-.02-2.87,.09-.16c1.63-.41,2.04-.53,3.6-.99l.16,.14-.07,3.85h2.29l.14,.14-.23,2.45-.14,.14-2.06-.09-.04,3.23c-.02,.92-.02,2.18,.04,2.77,.05,.34,.14,1.08,1.31,1.08,.39,0,.66-.09,1.05-.21l.18,.09Z" style="fill: #00629b;"/>
          <path d="M249.42,43.37c-1.86-.02-2.32,0-3.97,.07l-.14-.16c.07-1.88,.14-3.28,.14-5.78,0-3.26-.07-4.06-.25-5.8l.14-.14,3.94-.69,.16,.18c-.02,1.95-.07,3.92-.07,5.87,0,3.16,.09,4.52,.21,6.28l-.16,.16Zm-.32-14.53c-1.63,.21-2.06,.25-3.62,.53l-.16-.14c.02-.44,.02-.89,.02-1.33,0-.55-.02-1.03-.07-1.86l.14-.16,3.74-.46,.14,.14-.07,3.12-.12,.16Z" style="fill: #00629b;"/>
          <path d="M257.62,43.64c-3.28,0-4.4-1.24-5-2.13-.85-1.24-1.08-2.73-1.08-4.2,0-4.22,2.25-6.35,6.24-6.35,.6,0,1.79,.05,2.8,.44,3.21,1.26,3.21,4.97,3.21,5.87,0,3.44-1.31,6.37-6.17,6.37Zm1.54-9.61c-.3-.37-.82-.71-1.47-.71-.73,0-1.33,.41-1.67,1.03-.46,.8-.46,2.27-.46,2.93,0,2.22,.44,3,.83,3.39,.27,.25,.69,.53,1.28,.53,1.9,0,2.15-2.09,2.15-3.97,0-1.24-.11-2.54-.66-3.21Z" style="fill: #00629b;"/>
          <path d="M277.03,43.35c-1.83,0-2.22,.02-3.74,.07l-.14-.14c0-.78,.02-1.58,.02-2.36,0-.87-.02-4.01-.07-4.77-.07-.82-.18-2.18-1.44-2.18-.73,0-1.28,.39-1.76,.71,.02,4.1,.05,5,.18,8.53l-.14,.14c-1.83,0-2.18,0-3.83,.07l-.14-.14c.02-1.47,.05-2.93,.05-4.4,0-3.74-.14-5.18-.32-7.18l.14-.16c1.72-.23,2.11-.3,3.87-.66l.23,.16-.05,1.26c1.05-.62,2.27-1.35,3.67-1.35,.82,0,2.13,.18,2.84,1.38,.57,.94,.6,1.99,.62,4.19v1.79c.05,2.25,.05,2.89,.16,4.91l-.16,.14Z" style="fill: #00629b;"/>
        </g>
      </g>
    </g>
  </g>
</svg>